G04 #@! TF.GenerationSoftware,KiCad,Pcbnew,5.1.7*
G04 #@! TF.CreationDate,2020-10-23T23:02:46+02:00*
G04 #@! TF.ProjectId,main,6d61696e-2e6b-4696-9361-645f70636258,v1.10*
G04 #@! TF.SameCoordinates,Original*
G04 #@! TF.FileFunction,Copper,L1,Top*
G04 #@! TF.FilePolarity,Positive*
%FSLAX46Y46*%
G04 Gerber Fmt 4.6, Leading zero omitted, Abs format (unit mm)*
G04 Created by KiCad (PCBNEW 5.1.7) date 2020-10-23 23:02:46*
%MOMM*%
%LPD*%
G01*
G04 APERTURE LIST*
G04 #@! TA.AperFunction,SMDPad,CuDef*
%ADD10R,2.000000X3.800000*%
G04 #@! TD*
G04 #@! TA.AperFunction,ComponentPad*
%ADD11C,2.000000*%
G04 #@! TD*
G04 #@! TA.AperFunction,SMDPad,CuDef*
%ADD12R,3.800000X2.000000*%
G04 #@! TD*
G04 #@! TA.AperFunction,ComponentPad*
%ADD13C,1.600000*%
G04 #@! TD*
G04 #@! TA.AperFunction,ComponentPad*
%ADD14O,4.100000X3.160000*%
G04 #@! TD*
G04 #@! TA.AperFunction,ViaPad*
%ADD15C,0.600000*%
G04 #@! TD*
G04 #@! TA.AperFunction,Conductor*
%ADD16C,1.000000*%
G04 #@! TD*
G04 #@! TA.AperFunction,Conductor*
%ADD17C,0.500000*%
G04 #@! TD*
G04 #@! TA.AperFunction,Conductor*
%ADD18C,0.250000*%
G04 #@! TD*
G04 #@! TA.AperFunction,Conductor*
%ADD19C,0.100000*%
G04 #@! TD*
G04 APERTURE END LIST*
D10*
X90000000Y-98000000D03*
D11*
X121000000Y-117500000D03*
D12*
X124050000Y-110000000D03*
D13*
X95500000Y-104500000D03*
X95500000Y-109500000D03*
X122000000Y-103500000D03*
X122000000Y-98500000D03*
D11*
X99000000Y-81500000D03*
X89000000Y-81500000D03*
X109000000Y-81500000D03*
X119000000Y-81500000D03*
G04 #@! TA.AperFunction,SMDPad,CuDef*
G36*
G01*
X94050000Y-99650000D02*
X94050000Y-101350000D01*
G75*
G02*
X93800000Y-101600000I-250000J0D01*
G01*
X93050000Y-101600000D01*
G75*
G02*
X92800000Y-101350000I0J250000D01*
G01*
X92800000Y-99650000D01*
G75*
G02*
X93050000Y-99400000I250000J0D01*
G01*
X93800000Y-99400000D01*
G75*
G02*
X94050000Y-99650000I0J-250000D01*
G01*
G37*
G04 #@! TD.AperFunction*
G04 #@! TA.AperFunction,SMDPad,CuDef*
G36*
G01*
X96200000Y-99650000D02*
X96200000Y-101350000D01*
G75*
G02*
X95950000Y-101600000I-250000J0D01*
G01*
X95200000Y-101600000D01*
G75*
G02*
X94950000Y-101350000I0J250000D01*
G01*
X94950000Y-99650000D01*
G75*
G02*
X95200000Y-99400000I250000J0D01*
G01*
X95950000Y-99400000D01*
G75*
G02*
X96200000Y-99650000I0J-250000D01*
G01*
G37*
G04 #@! TD.AperFunction*
G04 #@! TA.AperFunction,SMDPad,CuDef*
G36*
G01*
X118850000Y-97050000D02*
X117150000Y-97050000D01*
G75*
G02*
X116900000Y-96800000I0J250000D01*
G01*
X116900000Y-96050000D01*
G75*
G02*
X117150000Y-95800000I250000J0D01*
G01*
X118850000Y-95800000D01*
G75*
G02*
X119100000Y-96050000I0J-250000D01*
G01*
X119100000Y-96800000D01*
G75*
G02*
X118850000Y-97050000I-250000J0D01*
G01*
G37*
G04 #@! TD.AperFunction*
G04 #@! TA.AperFunction,SMDPad,CuDef*
G36*
G01*
X118850000Y-99200000D02*
X117150000Y-99200000D01*
G75*
G02*
X116900000Y-98950000I0J250000D01*
G01*
X116900000Y-98200000D01*
G75*
G02*
X117150000Y-97950000I250000J0D01*
G01*
X118850000Y-97950000D01*
G75*
G02*
X119100000Y-98200000I0J-250000D01*
G01*
X119100000Y-98950000D01*
G75*
G02*
X118850000Y-99200000I-250000J0D01*
G01*
G37*
G04 #@! TD.AperFunction*
D12*
X122000000Y-94500000D03*
X104575000Y-70900000D03*
X123625000Y-70900000D03*
G04 #@! TA.AperFunction,SMDPad,CuDef*
G36*
G01*
X103850000Y-76550000D02*
X102150000Y-76550000D01*
G75*
G02*
X101900000Y-76300000I0J250000D01*
G01*
X101900000Y-75550000D01*
G75*
G02*
X102150000Y-75300000I250000J0D01*
G01*
X103850000Y-75300000D01*
G75*
G02*
X104100000Y-75550000I0J-250000D01*
G01*
X104100000Y-76300000D01*
G75*
G02*
X103850000Y-76550000I-250000J0D01*
G01*
G37*
G04 #@! TD.AperFunction*
G04 #@! TA.AperFunction,SMDPad,CuDef*
G36*
G01*
X103850000Y-78700000D02*
X102150000Y-78700000D01*
G75*
G02*
X101900000Y-78450000I0J250000D01*
G01*
X101900000Y-77700000D01*
G75*
G02*
X102150000Y-77450000I250000J0D01*
G01*
X103850000Y-77450000D01*
G75*
G02*
X104100000Y-77700000I0J-250000D01*
G01*
X104100000Y-78450000D01*
G75*
G02*
X103850000Y-78700000I-250000J0D01*
G01*
G37*
G04 #@! TD.AperFunction*
G04 #@! TA.AperFunction,SMDPad,CuDef*
G36*
G01*
X103850000Y-84050000D02*
X102150000Y-84050000D01*
G75*
G02*
X101900000Y-83800000I0J250000D01*
G01*
X101900000Y-83050000D01*
G75*
G02*
X102150000Y-82800000I250000J0D01*
G01*
X103850000Y-82800000D01*
G75*
G02*
X104100000Y-83050000I0J-250000D01*
G01*
X104100000Y-83800000D01*
G75*
G02*
X103850000Y-84050000I-250000J0D01*
G01*
G37*
G04 #@! TD.AperFunction*
G04 #@! TA.AperFunction,SMDPad,CuDef*
G36*
G01*
X103850000Y-86200000D02*
X102150000Y-86200000D01*
G75*
G02*
X101900000Y-85950000I0J250000D01*
G01*
X101900000Y-85200000D01*
G75*
G02*
X102150000Y-84950000I250000J0D01*
G01*
X103850000Y-84950000D01*
G75*
G02*
X104100000Y-85200000I0J-250000D01*
G01*
X104100000Y-85950000D01*
G75*
G02*
X103850000Y-86200000I-250000J0D01*
G01*
G37*
G04 #@! TD.AperFunction*
G04 #@! TA.AperFunction,SMDPad,CuDef*
G36*
G01*
X124850000Y-84050000D02*
X123150000Y-84050000D01*
G75*
G02*
X122900000Y-83800000I0J250000D01*
G01*
X122900000Y-83050000D01*
G75*
G02*
X123150000Y-82800000I250000J0D01*
G01*
X124850000Y-82800000D01*
G75*
G02*
X125100000Y-83050000I0J-250000D01*
G01*
X125100000Y-83800000D01*
G75*
G02*
X124850000Y-84050000I-250000J0D01*
G01*
G37*
G04 #@! TD.AperFunction*
G04 #@! TA.AperFunction,SMDPad,CuDef*
G36*
G01*
X124850000Y-86200000D02*
X123150000Y-86200000D01*
G75*
G02*
X122900000Y-85950000I0J250000D01*
G01*
X122900000Y-85200000D01*
G75*
G02*
X123150000Y-84950000I250000J0D01*
G01*
X124850000Y-84950000D01*
G75*
G02*
X125100000Y-85200000I0J-250000D01*
G01*
X125100000Y-85950000D01*
G75*
G02*
X124850000Y-86200000I-250000J0D01*
G01*
G37*
G04 #@! TD.AperFunction*
G04 #@! TA.AperFunction,SMDPad,CuDef*
G36*
G01*
X124850000Y-76550000D02*
X123150000Y-76550000D01*
G75*
G02*
X122900000Y-76300000I0J250000D01*
G01*
X122900000Y-75550000D01*
G75*
G02*
X123150000Y-75300000I250000J0D01*
G01*
X124850000Y-75300000D01*
G75*
G02*
X125100000Y-75550000I0J-250000D01*
G01*
X125100000Y-76300000D01*
G75*
G02*
X124850000Y-76550000I-250000J0D01*
G01*
G37*
G04 #@! TD.AperFunction*
G04 #@! TA.AperFunction,SMDPad,CuDef*
G36*
G01*
X124850000Y-78700000D02*
X123150000Y-78700000D01*
G75*
G02*
X122900000Y-78450000I0J250000D01*
G01*
X122900000Y-77700000D01*
G75*
G02*
X123150000Y-77450000I250000J0D01*
G01*
X124850000Y-77450000D01*
G75*
G02*
X125100000Y-77700000I0J-250000D01*
G01*
X125100000Y-78450000D01*
G75*
G02*
X124850000Y-78700000I-250000J0D01*
G01*
G37*
G04 #@! TD.AperFunction*
D14*
X105000000Y-112380000D03*
X105000000Y-108420000D03*
X105000000Y-104460000D03*
G04 #@! TA.AperFunction,ComponentPad*
G36*
G01*
X103200000Y-98920000D02*
X106800000Y-98920000D01*
G75*
G02*
X107050000Y-99170000I0J-250000D01*
G01*
X107050000Y-101830000D01*
G75*
G02*
X106800000Y-102080000I-250000J0D01*
G01*
X103200000Y-102080000D01*
G75*
G02*
X102950000Y-101830000I0J250000D01*
G01*
X102950000Y-99170000D01*
G75*
G02*
X103200000Y-98920000I250000J0D01*
G01*
G37*
G04 #@! TD.AperFunction*
D13*
X96500000Y-77000000D03*
X91500000Y-77000000D03*
X111500000Y-77000000D03*
X116500000Y-77000000D03*
D15*
X129000000Y-114000000D03*
X127000000Y-114000000D03*
X125000000Y-114000000D03*
X123000000Y-114000000D03*
X121000000Y-114000000D03*
X127000000Y-112000000D03*
X121000000Y-112000000D03*
X123000000Y-112000000D03*
X129000000Y-112000000D03*
X125000000Y-112000000D03*
X127000000Y-110000000D03*
X129000000Y-110000000D03*
X121000000Y-110000000D03*
X125000000Y-108000000D03*
X123000000Y-108000000D03*
X121000000Y-108000000D03*
X127000000Y-108000000D03*
X129000000Y-108000000D03*
X127000000Y-106000000D03*
X121000000Y-106000000D03*
X129000000Y-106000000D03*
X125000000Y-106000000D03*
X123000000Y-106000000D03*
D16*
X122000000Y-105000000D02*
X123000000Y-106000000D01*
X122000000Y-105000000D02*
X121000000Y-106000000D01*
X122000000Y-103500000D02*
X122000000Y-105000000D01*
D17*
X119925000Y-94500000D02*
X118000000Y-96425000D01*
X122000000Y-94500000D02*
X119925000Y-94500000D01*
X90000000Y-98000000D02*
X92500000Y-98000000D01*
X93425000Y-98925000D02*
X93425000Y-100500000D01*
X92500000Y-98000000D02*
X93425000Y-98925000D01*
X122000000Y-98500000D02*
X120100000Y-98500000D01*
X120025000Y-98575000D02*
X118000000Y-98575000D01*
X120100000Y-98500000D02*
X120025000Y-98575000D01*
X95575000Y-104425000D02*
X95500000Y-104500000D01*
X95575000Y-100500000D02*
X95575000Y-104425000D01*
D18*
X128875000Y-68301776D02*
X128875000Y-73725136D01*
X128717253Y-74105971D01*
X126605971Y-76217253D01*
X126225136Y-76375000D01*
X125726485Y-76375000D01*
X125725000Y-76206250D01*
X125568750Y-76050000D01*
X124125000Y-76050000D01*
X124125000Y-76070000D01*
X123875000Y-76070000D01*
X123875000Y-76050000D01*
X122431250Y-76050000D01*
X122275000Y-76206250D01*
X122273515Y-76375000D01*
X121774864Y-76375000D01*
X121394029Y-76217253D01*
X120476776Y-75300000D01*
X122271976Y-75300000D01*
X122275000Y-75643750D01*
X122431250Y-75800000D01*
X123875000Y-75800000D01*
X123875000Y-74831250D01*
X124125000Y-74831250D01*
X124125000Y-75800000D01*
X125568750Y-75800000D01*
X125725000Y-75643750D01*
X125728024Y-75300000D01*
X125715957Y-75177479D01*
X125680219Y-75059666D01*
X125622183Y-74951089D01*
X125544080Y-74855920D01*
X125448911Y-74777817D01*
X125340334Y-74719781D01*
X125222521Y-74684043D01*
X125100000Y-74671976D01*
X124281250Y-74675000D01*
X124125000Y-74831250D01*
X123875000Y-74831250D01*
X123718750Y-74675000D01*
X122900000Y-74671976D01*
X122777479Y-74684043D01*
X122659666Y-74719781D01*
X122551089Y-74777817D01*
X122455920Y-74855920D01*
X122377817Y-74951089D01*
X122319781Y-75059666D01*
X122284043Y-75177479D01*
X122271976Y-75300000D01*
X120476776Y-75300000D01*
X119282747Y-74105971D01*
X119125000Y-73725136D01*
X119125000Y-71900000D01*
X121096976Y-71900000D01*
X121109043Y-72022521D01*
X121144781Y-72140334D01*
X121202817Y-72248911D01*
X121280920Y-72344080D01*
X121376089Y-72422183D01*
X121484666Y-72480219D01*
X121602479Y-72515957D01*
X121725000Y-72528024D01*
X123343750Y-72525000D01*
X123500000Y-72368750D01*
X123500000Y-71025000D01*
X123750000Y-71025000D01*
X123750000Y-72368750D01*
X123906250Y-72525000D01*
X125525000Y-72528024D01*
X125647521Y-72515957D01*
X125765334Y-72480219D01*
X125873911Y-72422183D01*
X125969080Y-72344080D01*
X126047183Y-72248911D01*
X126105219Y-72140334D01*
X126140957Y-72022521D01*
X126153024Y-71900000D01*
X126150000Y-71181250D01*
X125993750Y-71025000D01*
X123750000Y-71025000D01*
X123500000Y-71025000D01*
X121256250Y-71025000D01*
X121100000Y-71181250D01*
X121096976Y-71900000D01*
X119125000Y-71900000D01*
X119125000Y-69900000D01*
X121096976Y-69900000D01*
X121100000Y-70618750D01*
X121256250Y-70775000D01*
X123500000Y-70775000D01*
X123500000Y-69431250D01*
X123750000Y-69431250D01*
X123750000Y-70775000D01*
X125993750Y-70775000D01*
X126150000Y-70618750D01*
X126153024Y-69900000D01*
X126140957Y-69777479D01*
X126105219Y-69659666D01*
X126047183Y-69551089D01*
X125969080Y-69455920D01*
X125873911Y-69377817D01*
X125765334Y-69319781D01*
X125647521Y-69284043D01*
X125525000Y-69271976D01*
X123906250Y-69275000D01*
X123750000Y-69431250D01*
X123500000Y-69431250D01*
X123343750Y-69275000D01*
X121725000Y-69271976D01*
X121602479Y-69284043D01*
X121484666Y-69319781D01*
X121376089Y-69377817D01*
X121280920Y-69455920D01*
X121202817Y-69551089D01*
X121144781Y-69659666D01*
X121109043Y-69777479D01*
X121096976Y-69900000D01*
X119125000Y-69900000D01*
X119125000Y-68301776D01*
X119301776Y-68125000D01*
X128698224Y-68125000D01*
X128875000Y-68301776D01*
G04 #@! TA.AperFunction,Conductor*
D19*
G36*
X128875000Y-68301776D02*
G01*
X128875000Y-73725136D01*
X128717253Y-74105971D01*
X126605971Y-76217253D01*
X126225136Y-76375000D01*
X125726485Y-76375000D01*
X125725000Y-76206250D01*
X125568750Y-76050000D01*
X124125000Y-76050000D01*
X124125000Y-76070000D01*
X123875000Y-76070000D01*
X123875000Y-76050000D01*
X122431250Y-76050000D01*
X122275000Y-76206250D01*
X122273515Y-76375000D01*
X121774864Y-76375000D01*
X121394029Y-76217253D01*
X120476776Y-75300000D01*
X122271976Y-75300000D01*
X122275000Y-75643750D01*
X122431250Y-75800000D01*
X123875000Y-75800000D01*
X123875000Y-74831250D01*
X124125000Y-74831250D01*
X124125000Y-75800000D01*
X125568750Y-75800000D01*
X125725000Y-75643750D01*
X125728024Y-75300000D01*
X125715957Y-75177479D01*
X125680219Y-75059666D01*
X125622183Y-74951089D01*
X125544080Y-74855920D01*
X125448911Y-74777817D01*
X125340334Y-74719781D01*
X125222521Y-74684043D01*
X125100000Y-74671976D01*
X124281250Y-74675000D01*
X124125000Y-74831250D01*
X123875000Y-74831250D01*
X123718750Y-74675000D01*
X122900000Y-74671976D01*
X122777479Y-74684043D01*
X122659666Y-74719781D01*
X122551089Y-74777817D01*
X122455920Y-74855920D01*
X122377817Y-74951089D01*
X122319781Y-75059666D01*
X122284043Y-75177479D01*
X122271976Y-75300000D01*
X120476776Y-75300000D01*
X119282747Y-74105971D01*
X119125000Y-73725136D01*
X119125000Y-71900000D01*
X121096976Y-71900000D01*
X121109043Y-72022521D01*
X121144781Y-72140334D01*
X121202817Y-72248911D01*
X121280920Y-72344080D01*
X121376089Y-72422183D01*
X121484666Y-72480219D01*
X121602479Y-72515957D01*
X121725000Y-72528024D01*
X123343750Y-72525000D01*
X123500000Y-72368750D01*
X123500000Y-71025000D01*
X123750000Y-71025000D01*
X123750000Y-72368750D01*
X123906250Y-72525000D01*
X125525000Y-72528024D01*
X125647521Y-72515957D01*
X125765334Y-72480219D01*
X125873911Y-72422183D01*
X125969080Y-72344080D01*
X126047183Y-72248911D01*
X126105219Y-72140334D01*
X126140957Y-72022521D01*
X126153024Y-71900000D01*
X126150000Y-71181250D01*
X125993750Y-71025000D01*
X123750000Y-71025000D01*
X123500000Y-71025000D01*
X121256250Y-71025000D01*
X121100000Y-71181250D01*
X121096976Y-71900000D01*
X119125000Y-71900000D01*
X119125000Y-69900000D01*
X121096976Y-69900000D01*
X121100000Y-70618750D01*
X121256250Y-70775000D01*
X123500000Y-70775000D01*
X123500000Y-69431250D01*
X123750000Y-69431250D01*
X123750000Y-70775000D01*
X125993750Y-70775000D01*
X126150000Y-70618750D01*
X126153024Y-69900000D01*
X126140957Y-69777479D01*
X126105219Y-69659666D01*
X126047183Y-69551089D01*
X125969080Y-69455920D01*
X125873911Y-69377817D01*
X125765334Y-69319781D01*
X125647521Y-69284043D01*
X125525000Y-69271976D01*
X123906250Y-69275000D01*
X123750000Y-69431250D01*
X123500000Y-69431250D01*
X123343750Y-69275000D01*
X121725000Y-69271976D01*
X121602479Y-69284043D01*
X121484666Y-69319781D01*
X121376089Y-69377817D01*
X121280920Y-69455920D01*
X121202817Y-69551089D01*
X121144781Y-69659666D01*
X121109043Y-69777479D01*
X121096976Y-69900000D01*
X119125000Y-69900000D01*
X119125000Y-68301776D01*
X119301776Y-68125000D01*
X128698224Y-68125000D01*
X128875000Y-68301776D01*
G37*
G04 #@! TD.AperFunction*
D18*
X117605971Y-75282747D02*
X119734835Y-77411611D01*
X119753777Y-77427157D01*
X119775388Y-77438708D01*
X120202165Y-77615485D01*
X120225614Y-77622598D01*
X120250000Y-77625000D01*
X122273515Y-77625000D01*
X122275000Y-77793750D01*
X122431250Y-77950000D01*
X123875000Y-77950000D01*
X123875000Y-77930000D01*
X124125000Y-77930000D01*
X124125000Y-77950000D01*
X125568750Y-77950000D01*
X125725000Y-77793750D01*
X125726485Y-77625000D01*
X126225136Y-77625000D01*
X126605971Y-77782747D01*
X128717253Y-79894029D01*
X128875000Y-80274864D01*
X128875000Y-81225136D01*
X128717253Y-81605971D01*
X126605971Y-83717253D01*
X126225136Y-83875000D01*
X125726485Y-83875000D01*
X125725000Y-83706250D01*
X125568750Y-83550000D01*
X124125000Y-83550000D01*
X124125000Y-83570000D01*
X123875000Y-83570000D01*
X123875000Y-83550000D01*
X122431250Y-83550000D01*
X122275000Y-83706250D01*
X122273515Y-83875000D01*
X121774864Y-83875000D01*
X121394029Y-83717253D01*
X121265165Y-83588389D01*
X121246223Y-83572843D01*
X121224612Y-83561292D01*
X120797835Y-83384515D01*
X120774386Y-83377402D01*
X120750000Y-83375000D01*
X117274864Y-83375000D01*
X116894029Y-83217253D01*
X116305540Y-82628764D01*
X118048013Y-82628764D01*
X118144171Y-82890610D01*
X118431910Y-83030854D01*
X118741481Y-83112268D01*
X119060986Y-83131723D01*
X119378147Y-83088472D01*
X119680777Y-82984178D01*
X119855829Y-82890610D01*
X119889103Y-82800000D01*
X122271976Y-82800000D01*
X122275000Y-83143750D01*
X122431250Y-83300000D01*
X123875000Y-83300000D01*
X123875000Y-82331250D01*
X124125000Y-82331250D01*
X124125000Y-83300000D01*
X125568750Y-83300000D01*
X125725000Y-83143750D01*
X125728024Y-82800000D01*
X125715957Y-82677479D01*
X125680219Y-82559666D01*
X125622183Y-82451089D01*
X125544080Y-82355920D01*
X125448911Y-82277817D01*
X125340334Y-82219781D01*
X125222521Y-82184043D01*
X125100000Y-82171976D01*
X124281250Y-82175000D01*
X124125000Y-82331250D01*
X123875000Y-82331250D01*
X123718750Y-82175000D01*
X122900000Y-82171976D01*
X122777479Y-82184043D01*
X122659666Y-82219781D01*
X122551089Y-82277817D01*
X122455920Y-82355920D01*
X122377817Y-82451089D01*
X122319781Y-82559666D01*
X122284043Y-82677479D01*
X122271976Y-82800000D01*
X119889103Y-82800000D01*
X119951987Y-82628764D01*
X119000000Y-81676777D01*
X118048013Y-82628764D01*
X116305540Y-82628764D01*
X115237762Y-81560986D01*
X117368277Y-81560986D01*
X117411528Y-81878147D01*
X117515822Y-82180777D01*
X117609390Y-82355829D01*
X117871236Y-82451987D01*
X118823223Y-81500000D01*
X119176777Y-81500000D01*
X120128764Y-82451987D01*
X120390610Y-82355829D01*
X120530854Y-82068090D01*
X120612268Y-81758519D01*
X120631723Y-81439014D01*
X120588472Y-81121853D01*
X120484178Y-80819223D01*
X120390610Y-80644171D01*
X120128764Y-80548013D01*
X119176777Y-81500000D01*
X118823223Y-81500000D01*
X117871236Y-80548013D01*
X117609390Y-80644171D01*
X117469146Y-80931910D01*
X117387732Y-81241481D01*
X117368277Y-81560986D01*
X115237762Y-81560986D01*
X114782747Y-81105971D01*
X114625000Y-80725136D01*
X114625000Y-80371236D01*
X118048013Y-80371236D01*
X119000000Y-81323223D01*
X119951987Y-80371236D01*
X119855829Y-80109390D01*
X119568090Y-79969146D01*
X119258519Y-79887732D01*
X118939014Y-79868277D01*
X118621853Y-79911528D01*
X118319223Y-80015822D01*
X118144171Y-80109390D01*
X118048013Y-80371236D01*
X114625000Y-80371236D01*
X114625000Y-78700000D01*
X122271976Y-78700000D01*
X122284043Y-78822521D01*
X122319781Y-78940334D01*
X122377817Y-79048911D01*
X122455920Y-79144080D01*
X122551089Y-79222183D01*
X122659666Y-79280219D01*
X122777479Y-79315957D01*
X122900000Y-79328024D01*
X123718750Y-79325000D01*
X123875000Y-79168750D01*
X123875000Y-78200000D01*
X124125000Y-78200000D01*
X124125000Y-79168750D01*
X124281250Y-79325000D01*
X125100000Y-79328024D01*
X125222521Y-79315957D01*
X125340334Y-79280219D01*
X125448911Y-79222183D01*
X125544080Y-79144080D01*
X125622183Y-79048911D01*
X125680219Y-78940334D01*
X125715957Y-78822521D01*
X125728024Y-78700000D01*
X125725000Y-78356250D01*
X125568750Y-78200000D01*
X124125000Y-78200000D01*
X123875000Y-78200000D01*
X122431250Y-78200000D01*
X122275000Y-78356250D01*
X122271976Y-78700000D01*
X114625000Y-78700000D01*
X114625000Y-77986065D01*
X115690712Y-77986065D01*
X115762693Y-78227479D01*
X116016330Y-78347735D01*
X116288553Y-78416198D01*
X116568903Y-78430237D01*
X116846604Y-78389314D01*
X117110986Y-78295000D01*
X117237307Y-78227479D01*
X117309288Y-77986065D01*
X116500000Y-77176777D01*
X115690712Y-77986065D01*
X114625000Y-77986065D01*
X114625000Y-77068903D01*
X115069763Y-77068903D01*
X115110686Y-77346604D01*
X115205000Y-77610986D01*
X115272521Y-77737307D01*
X115513935Y-77809288D01*
X116323223Y-77000000D01*
X116676777Y-77000000D01*
X117486065Y-77809288D01*
X117727479Y-77737307D01*
X117847735Y-77483670D01*
X117916198Y-77211447D01*
X117930237Y-76931097D01*
X117889314Y-76653396D01*
X117795000Y-76389014D01*
X117727479Y-76262693D01*
X117486065Y-76190712D01*
X116676777Y-77000000D01*
X116323223Y-77000000D01*
X115513935Y-76190712D01*
X115272521Y-76262693D01*
X115152265Y-76516330D01*
X115083802Y-76788553D01*
X115069763Y-77068903D01*
X114625000Y-77068903D01*
X114625000Y-76013935D01*
X115690712Y-76013935D01*
X116500000Y-76823223D01*
X117309288Y-76013935D01*
X117237307Y-75772521D01*
X116983670Y-75652265D01*
X116711447Y-75583802D01*
X116431097Y-75569763D01*
X116153396Y-75610686D01*
X115889014Y-75705000D01*
X115762693Y-75772521D01*
X115690712Y-76013935D01*
X114625000Y-76013935D01*
X114625000Y-75301776D01*
X114801776Y-75125000D01*
X117225136Y-75125000D01*
X117605971Y-75282747D01*
G04 #@! TA.AperFunction,Conductor*
D19*
G36*
X117605971Y-75282747D02*
G01*
X119734835Y-77411611D01*
X119753777Y-77427157D01*
X119775388Y-77438708D01*
X120202165Y-77615485D01*
X120225614Y-77622598D01*
X120250000Y-77625000D01*
X122273515Y-77625000D01*
X122275000Y-77793750D01*
X122431250Y-77950000D01*
X123875000Y-77950000D01*
X123875000Y-77930000D01*
X124125000Y-77930000D01*
X124125000Y-77950000D01*
X125568750Y-77950000D01*
X125725000Y-77793750D01*
X125726485Y-77625000D01*
X126225136Y-77625000D01*
X126605971Y-77782747D01*
X128717253Y-79894029D01*
X128875000Y-80274864D01*
X128875000Y-81225136D01*
X128717253Y-81605971D01*
X126605971Y-83717253D01*
X126225136Y-83875000D01*
X125726485Y-83875000D01*
X125725000Y-83706250D01*
X125568750Y-83550000D01*
X124125000Y-83550000D01*
X124125000Y-83570000D01*
X123875000Y-83570000D01*
X123875000Y-83550000D01*
X122431250Y-83550000D01*
X122275000Y-83706250D01*
X122273515Y-83875000D01*
X121774864Y-83875000D01*
X121394029Y-83717253D01*
X121265165Y-83588389D01*
X121246223Y-83572843D01*
X121224612Y-83561292D01*
X120797835Y-83384515D01*
X120774386Y-83377402D01*
X120750000Y-83375000D01*
X117274864Y-83375000D01*
X116894029Y-83217253D01*
X116305540Y-82628764D01*
X118048013Y-82628764D01*
X118144171Y-82890610D01*
X118431910Y-83030854D01*
X118741481Y-83112268D01*
X119060986Y-83131723D01*
X119378147Y-83088472D01*
X119680777Y-82984178D01*
X119855829Y-82890610D01*
X119889103Y-82800000D01*
X122271976Y-82800000D01*
X122275000Y-83143750D01*
X122431250Y-83300000D01*
X123875000Y-83300000D01*
X123875000Y-82331250D01*
X124125000Y-82331250D01*
X124125000Y-83300000D01*
X125568750Y-83300000D01*
X125725000Y-83143750D01*
X125728024Y-82800000D01*
X125715957Y-82677479D01*
X125680219Y-82559666D01*
X125622183Y-82451089D01*
X125544080Y-82355920D01*
X125448911Y-82277817D01*
X125340334Y-82219781D01*
X125222521Y-82184043D01*
X125100000Y-82171976D01*
X124281250Y-82175000D01*
X124125000Y-82331250D01*
X123875000Y-82331250D01*
X123718750Y-82175000D01*
X122900000Y-82171976D01*
X122777479Y-82184043D01*
X122659666Y-82219781D01*
X122551089Y-82277817D01*
X122455920Y-82355920D01*
X122377817Y-82451089D01*
X122319781Y-82559666D01*
X122284043Y-82677479D01*
X122271976Y-82800000D01*
X119889103Y-82800000D01*
X119951987Y-82628764D01*
X119000000Y-81676777D01*
X118048013Y-82628764D01*
X116305540Y-82628764D01*
X115237762Y-81560986D01*
X117368277Y-81560986D01*
X117411528Y-81878147D01*
X117515822Y-82180777D01*
X117609390Y-82355829D01*
X117871236Y-82451987D01*
X118823223Y-81500000D01*
X119176777Y-81500000D01*
X120128764Y-82451987D01*
X120390610Y-82355829D01*
X120530854Y-82068090D01*
X120612268Y-81758519D01*
X120631723Y-81439014D01*
X120588472Y-81121853D01*
X120484178Y-80819223D01*
X120390610Y-80644171D01*
X120128764Y-80548013D01*
X119176777Y-81500000D01*
X118823223Y-81500000D01*
X117871236Y-80548013D01*
X117609390Y-80644171D01*
X117469146Y-80931910D01*
X117387732Y-81241481D01*
X117368277Y-81560986D01*
X115237762Y-81560986D01*
X114782747Y-81105971D01*
X114625000Y-80725136D01*
X114625000Y-80371236D01*
X118048013Y-80371236D01*
X119000000Y-81323223D01*
X119951987Y-80371236D01*
X119855829Y-80109390D01*
X119568090Y-79969146D01*
X119258519Y-79887732D01*
X118939014Y-79868277D01*
X118621853Y-79911528D01*
X118319223Y-80015822D01*
X118144171Y-80109390D01*
X118048013Y-80371236D01*
X114625000Y-80371236D01*
X114625000Y-78700000D01*
X122271976Y-78700000D01*
X122284043Y-78822521D01*
X122319781Y-78940334D01*
X122377817Y-79048911D01*
X122455920Y-79144080D01*
X122551089Y-79222183D01*
X122659666Y-79280219D01*
X122777479Y-79315957D01*
X122900000Y-79328024D01*
X123718750Y-79325000D01*
X123875000Y-79168750D01*
X123875000Y-78200000D01*
X124125000Y-78200000D01*
X124125000Y-79168750D01*
X124281250Y-79325000D01*
X125100000Y-79328024D01*
X125222521Y-79315957D01*
X125340334Y-79280219D01*
X125448911Y-79222183D01*
X125544080Y-79144080D01*
X125622183Y-79048911D01*
X125680219Y-78940334D01*
X125715957Y-78822521D01*
X125728024Y-78700000D01*
X125725000Y-78356250D01*
X125568750Y-78200000D01*
X124125000Y-78200000D01*
X123875000Y-78200000D01*
X122431250Y-78200000D01*
X122275000Y-78356250D01*
X122271976Y-78700000D01*
X114625000Y-78700000D01*
X114625000Y-77986065D01*
X115690712Y-77986065D01*
X115762693Y-78227479D01*
X116016330Y-78347735D01*
X116288553Y-78416198D01*
X116568903Y-78430237D01*
X116846604Y-78389314D01*
X117110986Y-78295000D01*
X117237307Y-78227479D01*
X117309288Y-77986065D01*
X116500000Y-77176777D01*
X115690712Y-77986065D01*
X114625000Y-77986065D01*
X114625000Y-77068903D01*
X115069763Y-77068903D01*
X115110686Y-77346604D01*
X115205000Y-77610986D01*
X115272521Y-77737307D01*
X115513935Y-77809288D01*
X116323223Y-77000000D01*
X116676777Y-77000000D01*
X117486065Y-77809288D01*
X117727479Y-77737307D01*
X117847735Y-77483670D01*
X117916198Y-77211447D01*
X117930237Y-76931097D01*
X117889314Y-76653396D01*
X117795000Y-76389014D01*
X117727479Y-76262693D01*
X117486065Y-76190712D01*
X116676777Y-77000000D01*
X116323223Y-77000000D01*
X115513935Y-76190712D01*
X115272521Y-76262693D01*
X115152265Y-76516330D01*
X115083802Y-76788553D01*
X115069763Y-77068903D01*
X114625000Y-77068903D01*
X114625000Y-76013935D01*
X115690712Y-76013935D01*
X116500000Y-76823223D01*
X117309288Y-76013935D01*
X117237307Y-75772521D01*
X116983670Y-75652265D01*
X116711447Y-75583802D01*
X116431097Y-75569763D01*
X116153396Y-75610686D01*
X115889014Y-75705000D01*
X115762693Y-75772521D01*
X115690712Y-76013935D01*
X114625000Y-76013935D01*
X114625000Y-75301776D01*
X114801776Y-75125000D01*
X117225136Y-75125000D01*
X117605971Y-75282747D01*
G37*
G04 #@! TD.AperFunction*
D18*
X109375000Y-68301776D02*
X109375000Y-72225136D01*
X109217253Y-72605971D01*
X105605971Y-76217253D01*
X105225136Y-76375000D01*
X104726485Y-76375000D01*
X104725000Y-76206250D01*
X104568750Y-76050000D01*
X103125000Y-76050000D01*
X103125000Y-76070000D01*
X102875000Y-76070000D01*
X102875000Y-76050000D01*
X101431250Y-76050000D01*
X101275000Y-76206250D01*
X101273515Y-76375000D01*
X100774864Y-76375000D01*
X100394029Y-76217253D01*
X99782747Y-75605971D01*
X99656010Y-75300000D01*
X101271976Y-75300000D01*
X101275000Y-75643750D01*
X101431250Y-75800000D01*
X102875000Y-75800000D01*
X102875000Y-74831250D01*
X103125000Y-74831250D01*
X103125000Y-75800000D01*
X104568750Y-75800000D01*
X104725000Y-75643750D01*
X104728024Y-75300000D01*
X104715957Y-75177479D01*
X104680219Y-75059666D01*
X104622183Y-74951089D01*
X104544080Y-74855920D01*
X104448911Y-74777817D01*
X104340334Y-74719781D01*
X104222521Y-74684043D01*
X104100000Y-74671976D01*
X103281250Y-74675000D01*
X103125000Y-74831250D01*
X102875000Y-74831250D01*
X102718750Y-74675000D01*
X101900000Y-74671976D01*
X101777479Y-74684043D01*
X101659666Y-74719781D01*
X101551089Y-74777817D01*
X101455920Y-74855920D01*
X101377817Y-74951089D01*
X101319781Y-75059666D01*
X101284043Y-75177479D01*
X101271976Y-75300000D01*
X99656010Y-75300000D01*
X99625000Y-75225136D01*
X99625000Y-71900000D01*
X102046976Y-71900000D01*
X102059043Y-72022521D01*
X102094781Y-72140334D01*
X102152817Y-72248911D01*
X102230920Y-72344080D01*
X102326089Y-72422183D01*
X102434666Y-72480219D01*
X102552479Y-72515957D01*
X102675000Y-72528024D01*
X104293750Y-72525000D01*
X104450000Y-72368750D01*
X104450000Y-71025000D01*
X104700000Y-71025000D01*
X104700000Y-72368750D01*
X104856250Y-72525000D01*
X106475000Y-72528024D01*
X106597521Y-72515957D01*
X106715334Y-72480219D01*
X106823911Y-72422183D01*
X106919080Y-72344080D01*
X106997183Y-72248911D01*
X107055219Y-72140334D01*
X107090957Y-72022521D01*
X107103024Y-71900000D01*
X107100000Y-71181250D01*
X106943750Y-71025000D01*
X104700000Y-71025000D01*
X104450000Y-71025000D01*
X102206250Y-71025000D01*
X102050000Y-71181250D01*
X102046976Y-71900000D01*
X99625000Y-71900000D01*
X99625000Y-69900000D01*
X102046976Y-69900000D01*
X102050000Y-70618750D01*
X102206250Y-70775000D01*
X104450000Y-70775000D01*
X104450000Y-69431250D01*
X104700000Y-69431250D01*
X104700000Y-70775000D01*
X106943750Y-70775000D01*
X107100000Y-70618750D01*
X107103024Y-69900000D01*
X107090957Y-69777479D01*
X107055219Y-69659666D01*
X106997183Y-69551089D01*
X106919080Y-69455920D01*
X106823911Y-69377817D01*
X106715334Y-69319781D01*
X106597521Y-69284043D01*
X106475000Y-69271976D01*
X104856250Y-69275000D01*
X104700000Y-69431250D01*
X104450000Y-69431250D01*
X104293750Y-69275000D01*
X102675000Y-69271976D01*
X102552479Y-69284043D01*
X102434666Y-69319781D01*
X102326089Y-69377817D01*
X102230920Y-69455920D01*
X102152817Y-69551089D01*
X102094781Y-69659666D01*
X102059043Y-69777479D01*
X102046976Y-69900000D01*
X99625000Y-69900000D01*
X99625000Y-68301776D01*
X99801776Y-68125000D01*
X109198224Y-68125000D01*
X109375000Y-68301776D01*
G04 #@! TA.AperFunction,Conductor*
D19*
G36*
X109375000Y-68301776D02*
G01*
X109375000Y-72225136D01*
X109217253Y-72605971D01*
X105605971Y-76217253D01*
X105225136Y-76375000D01*
X104726485Y-76375000D01*
X104725000Y-76206250D01*
X104568750Y-76050000D01*
X103125000Y-76050000D01*
X103125000Y-76070000D01*
X102875000Y-76070000D01*
X102875000Y-76050000D01*
X101431250Y-76050000D01*
X101275000Y-76206250D01*
X101273515Y-76375000D01*
X100774864Y-76375000D01*
X100394029Y-76217253D01*
X99782747Y-75605971D01*
X99656010Y-75300000D01*
X101271976Y-75300000D01*
X101275000Y-75643750D01*
X101431250Y-75800000D01*
X102875000Y-75800000D01*
X102875000Y-74831250D01*
X103125000Y-74831250D01*
X103125000Y-75800000D01*
X104568750Y-75800000D01*
X104725000Y-75643750D01*
X104728024Y-75300000D01*
X104715957Y-75177479D01*
X104680219Y-75059666D01*
X104622183Y-74951089D01*
X104544080Y-74855920D01*
X104448911Y-74777817D01*
X104340334Y-74719781D01*
X104222521Y-74684043D01*
X104100000Y-74671976D01*
X103281250Y-74675000D01*
X103125000Y-74831250D01*
X102875000Y-74831250D01*
X102718750Y-74675000D01*
X101900000Y-74671976D01*
X101777479Y-74684043D01*
X101659666Y-74719781D01*
X101551089Y-74777817D01*
X101455920Y-74855920D01*
X101377817Y-74951089D01*
X101319781Y-75059666D01*
X101284043Y-75177479D01*
X101271976Y-75300000D01*
X99656010Y-75300000D01*
X99625000Y-75225136D01*
X99625000Y-71900000D01*
X102046976Y-71900000D01*
X102059043Y-72022521D01*
X102094781Y-72140334D01*
X102152817Y-72248911D01*
X102230920Y-72344080D01*
X102326089Y-72422183D01*
X102434666Y-72480219D01*
X102552479Y-72515957D01*
X102675000Y-72528024D01*
X104293750Y-72525000D01*
X104450000Y-72368750D01*
X104450000Y-71025000D01*
X104700000Y-71025000D01*
X104700000Y-72368750D01*
X104856250Y-72525000D01*
X106475000Y-72528024D01*
X106597521Y-72515957D01*
X106715334Y-72480219D01*
X106823911Y-72422183D01*
X106919080Y-72344080D01*
X106997183Y-72248911D01*
X107055219Y-72140334D01*
X107090957Y-72022521D01*
X107103024Y-71900000D01*
X107100000Y-71181250D01*
X106943750Y-71025000D01*
X104700000Y-71025000D01*
X104450000Y-71025000D01*
X102206250Y-71025000D01*
X102050000Y-71181250D01*
X102046976Y-71900000D01*
X99625000Y-71900000D01*
X99625000Y-69900000D01*
X102046976Y-69900000D01*
X102050000Y-70618750D01*
X102206250Y-70775000D01*
X104450000Y-70775000D01*
X104450000Y-69431250D01*
X104700000Y-69431250D01*
X104700000Y-70775000D01*
X106943750Y-70775000D01*
X107100000Y-70618750D01*
X107103024Y-69900000D01*
X107090957Y-69777479D01*
X107055219Y-69659666D01*
X106997183Y-69551089D01*
X106919080Y-69455920D01*
X106823911Y-69377817D01*
X106715334Y-69319781D01*
X106597521Y-69284043D01*
X106475000Y-69271976D01*
X104856250Y-69275000D01*
X104700000Y-69431250D01*
X104450000Y-69431250D01*
X104293750Y-69275000D01*
X102675000Y-69271976D01*
X102552479Y-69284043D01*
X102434666Y-69319781D01*
X102326089Y-69377817D01*
X102230920Y-69455920D01*
X102152817Y-69551089D01*
X102094781Y-69659666D01*
X102059043Y-69777479D01*
X102046976Y-69900000D01*
X99625000Y-69900000D01*
X99625000Y-68301776D01*
X99801776Y-68125000D01*
X109198224Y-68125000D01*
X109375000Y-68301776D01*
G37*
G04 #@! TD.AperFunction*
D18*
X97105971Y-75282747D02*
X99234835Y-77411611D01*
X99253777Y-77427157D01*
X99275388Y-77438708D01*
X99702165Y-77615485D01*
X99725614Y-77622598D01*
X99750000Y-77625000D01*
X101273515Y-77625000D01*
X101275000Y-77793750D01*
X101431250Y-77950000D01*
X102875000Y-77950000D01*
X102875000Y-77930000D01*
X103125000Y-77930000D01*
X103125000Y-77950000D01*
X104568750Y-77950000D01*
X104725000Y-77793750D01*
X104726485Y-77625000D01*
X105225136Y-77625000D01*
X105605971Y-77782747D01*
X107217253Y-79394029D01*
X107375000Y-79774864D01*
X107375000Y-81725136D01*
X107217253Y-82105971D01*
X105605971Y-83717253D01*
X105225136Y-83875000D01*
X104726485Y-83875000D01*
X104725000Y-83706250D01*
X104568750Y-83550000D01*
X103125000Y-83550000D01*
X103125000Y-83570000D01*
X102875000Y-83570000D01*
X102875000Y-83550000D01*
X101431250Y-83550000D01*
X101275000Y-83706250D01*
X101273515Y-83875000D01*
X94801776Y-83875000D01*
X94625000Y-83698224D01*
X94625000Y-82628764D01*
X98048013Y-82628764D01*
X98144171Y-82890610D01*
X98431910Y-83030854D01*
X98741481Y-83112268D01*
X99060986Y-83131723D01*
X99378147Y-83088472D01*
X99680777Y-82984178D01*
X99855829Y-82890610D01*
X99889103Y-82800000D01*
X101271976Y-82800000D01*
X101275000Y-83143750D01*
X101431250Y-83300000D01*
X102875000Y-83300000D01*
X102875000Y-82331250D01*
X103125000Y-82331250D01*
X103125000Y-83300000D01*
X104568750Y-83300000D01*
X104725000Y-83143750D01*
X104728024Y-82800000D01*
X104715957Y-82677479D01*
X104680219Y-82559666D01*
X104622183Y-82451089D01*
X104544080Y-82355920D01*
X104448911Y-82277817D01*
X104340334Y-82219781D01*
X104222521Y-82184043D01*
X104100000Y-82171976D01*
X103281250Y-82175000D01*
X103125000Y-82331250D01*
X102875000Y-82331250D01*
X102718750Y-82175000D01*
X101900000Y-82171976D01*
X101777479Y-82184043D01*
X101659666Y-82219781D01*
X101551089Y-82277817D01*
X101455920Y-82355920D01*
X101377817Y-82451089D01*
X101319781Y-82559666D01*
X101284043Y-82677479D01*
X101271976Y-82800000D01*
X99889103Y-82800000D01*
X99951987Y-82628764D01*
X99000000Y-81676777D01*
X98048013Y-82628764D01*
X94625000Y-82628764D01*
X94625000Y-81560986D01*
X97368277Y-81560986D01*
X97411528Y-81878147D01*
X97515822Y-82180777D01*
X97609390Y-82355829D01*
X97871236Y-82451987D01*
X98823223Y-81500000D01*
X99176777Y-81500000D01*
X100128764Y-82451987D01*
X100390610Y-82355829D01*
X100530854Y-82068090D01*
X100612268Y-81758519D01*
X100631723Y-81439014D01*
X100588472Y-81121853D01*
X100484178Y-80819223D01*
X100390610Y-80644171D01*
X100128764Y-80548013D01*
X99176777Y-81500000D01*
X98823223Y-81500000D01*
X97871236Y-80548013D01*
X97609390Y-80644171D01*
X97469146Y-80931910D01*
X97387732Y-81241481D01*
X97368277Y-81560986D01*
X94625000Y-81560986D01*
X94625000Y-80371236D01*
X98048013Y-80371236D01*
X99000000Y-81323223D01*
X99951987Y-80371236D01*
X99855829Y-80109390D01*
X99568090Y-79969146D01*
X99258519Y-79887732D01*
X98939014Y-79868277D01*
X98621853Y-79911528D01*
X98319223Y-80015822D01*
X98144171Y-80109390D01*
X98048013Y-80371236D01*
X94625000Y-80371236D01*
X94625000Y-78700000D01*
X101271976Y-78700000D01*
X101284043Y-78822521D01*
X101319781Y-78940334D01*
X101377817Y-79048911D01*
X101455920Y-79144080D01*
X101551089Y-79222183D01*
X101659666Y-79280219D01*
X101777479Y-79315957D01*
X101900000Y-79328024D01*
X102718750Y-79325000D01*
X102875000Y-79168750D01*
X102875000Y-78200000D01*
X103125000Y-78200000D01*
X103125000Y-79168750D01*
X103281250Y-79325000D01*
X104100000Y-79328024D01*
X104222521Y-79315957D01*
X104340334Y-79280219D01*
X104448911Y-79222183D01*
X104544080Y-79144080D01*
X104622183Y-79048911D01*
X104680219Y-78940334D01*
X104715957Y-78822521D01*
X104728024Y-78700000D01*
X104725000Y-78356250D01*
X104568750Y-78200000D01*
X103125000Y-78200000D01*
X102875000Y-78200000D01*
X101431250Y-78200000D01*
X101275000Y-78356250D01*
X101271976Y-78700000D01*
X94625000Y-78700000D01*
X94625000Y-77986065D01*
X95690712Y-77986065D01*
X95762693Y-78227479D01*
X96016330Y-78347735D01*
X96288553Y-78416198D01*
X96568903Y-78430237D01*
X96846604Y-78389314D01*
X97110986Y-78295000D01*
X97237307Y-78227479D01*
X97309288Y-77986065D01*
X96500000Y-77176777D01*
X95690712Y-77986065D01*
X94625000Y-77986065D01*
X94625000Y-77068903D01*
X95069763Y-77068903D01*
X95110686Y-77346604D01*
X95205000Y-77610986D01*
X95272521Y-77737307D01*
X95513935Y-77809288D01*
X96323223Y-77000000D01*
X96676777Y-77000000D01*
X97486065Y-77809288D01*
X97727479Y-77737307D01*
X97847735Y-77483670D01*
X97916198Y-77211447D01*
X97930237Y-76931097D01*
X97889314Y-76653396D01*
X97795000Y-76389014D01*
X97727479Y-76262693D01*
X97486065Y-76190712D01*
X96676777Y-77000000D01*
X96323223Y-77000000D01*
X95513935Y-76190712D01*
X95272521Y-76262693D01*
X95152265Y-76516330D01*
X95083802Y-76788553D01*
X95069763Y-77068903D01*
X94625000Y-77068903D01*
X94625000Y-76013935D01*
X95690712Y-76013935D01*
X96500000Y-76823223D01*
X97309288Y-76013935D01*
X97237307Y-75772521D01*
X96983670Y-75652265D01*
X96711447Y-75583802D01*
X96431097Y-75569763D01*
X96153396Y-75610686D01*
X95889014Y-75705000D01*
X95762693Y-75772521D01*
X95690712Y-76013935D01*
X94625000Y-76013935D01*
X94625000Y-75301776D01*
X94801776Y-75125000D01*
X96725136Y-75125000D01*
X97105971Y-75282747D01*
G04 #@! TA.AperFunction,Conductor*
D19*
G36*
X97105971Y-75282747D02*
G01*
X99234835Y-77411611D01*
X99253777Y-77427157D01*
X99275388Y-77438708D01*
X99702165Y-77615485D01*
X99725614Y-77622598D01*
X99750000Y-77625000D01*
X101273515Y-77625000D01*
X101275000Y-77793750D01*
X101431250Y-77950000D01*
X102875000Y-77950000D01*
X102875000Y-77930000D01*
X103125000Y-77930000D01*
X103125000Y-77950000D01*
X104568750Y-77950000D01*
X104725000Y-77793750D01*
X104726485Y-77625000D01*
X105225136Y-77625000D01*
X105605971Y-77782747D01*
X107217253Y-79394029D01*
X107375000Y-79774864D01*
X107375000Y-81725136D01*
X107217253Y-82105971D01*
X105605971Y-83717253D01*
X105225136Y-83875000D01*
X104726485Y-83875000D01*
X104725000Y-83706250D01*
X104568750Y-83550000D01*
X103125000Y-83550000D01*
X103125000Y-83570000D01*
X102875000Y-83570000D01*
X102875000Y-83550000D01*
X101431250Y-83550000D01*
X101275000Y-83706250D01*
X101273515Y-83875000D01*
X94801776Y-83875000D01*
X94625000Y-83698224D01*
X94625000Y-82628764D01*
X98048013Y-82628764D01*
X98144171Y-82890610D01*
X98431910Y-83030854D01*
X98741481Y-83112268D01*
X99060986Y-83131723D01*
X99378147Y-83088472D01*
X99680777Y-82984178D01*
X99855829Y-82890610D01*
X99889103Y-82800000D01*
X101271976Y-82800000D01*
X101275000Y-83143750D01*
X101431250Y-83300000D01*
X102875000Y-83300000D01*
X102875000Y-82331250D01*
X103125000Y-82331250D01*
X103125000Y-83300000D01*
X104568750Y-83300000D01*
X104725000Y-83143750D01*
X104728024Y-82800000D01*
X104715957Y-82677479D01*
X104680219Y-82559666D01*
X104622183Y-82451089D01*
X104544080Y-82355920D01*
X104448911Y-82277817D01*
X104340334Y-82219781D01*
X104222521Y-82184043D01*
X104100000Y-82171976D01*
X103281250Y-82175000D01*
X103125000Y-82331250D01*
X102875000Y-82331250D01*
X102718750Y-82175000D01*
X101900000Y-82171976D01*
X101777479Y-82184043D01*
X101659666Y-82219781D01*
X101551089Y-82277817D01*
X101455920Y-82355920D01*
X101377817Y-82451089D01*
X101319781Y-82559666D01*
X101284043Y-82677479D01*
X101271976Y-82800000D01*
X99889103Y-82800000D01*
X99951987Y-82628764D01*
X99000000Y-81676777D01*
X98048013Y-82628764D01*
X94625000Y-82628764D01*
X94625000Y-81560986D01*
X97368277Y-81560986D01*
X97411528Y-81878147D01*
X97515822Y-82180777D01*
X97609390Y-82355829D01*
X97871236Y-82451987D01*
X98823223Y-81500000D01*
X99176777Y-81500000D01*
X100128764Y-82451987D01*
X100390610Y-82355829D01*
X100530854Y-82068090D01*
X100612268Y-81758519D01*
X100631723Y-81439014D01*
X100588472Y-81121853D01*
X100484178Y-80819223D01*
X100390610Y-80644171D01*
X100128764Y-80548013D01*
X99176777Y-81500000D01*
X98823223Y-81500000D01*
X97871236Y-80548013D01*
X97609390Y-80644171D01*
X97469146Y-80931910D01*
X97387732Y-81241481D01*
X97368277Y-81560986D01*
X94625000Y-81560986D01*
X94625000Y-80371236D01*
X98048013Y-80371236D01*
X99000000Y-81323223D01*
X99951987Y-80371236D01*
X99855829Y-80109390D01*
X99568090Y-79969146D01*
X99258519Y-79887732D01*
X98939014Y-79868277D01*
X98621853Y-79911528D01*
X98319223Y-80015822D01*
X98144171Y-80109390D01*
X98048013Y-80371236D01*
X94625000Y-80371236D01*
X94625000Y-78700000D01*
X101271976Y-78700000D01*
X101284043Y-78822521D01*
X101319781Y-78940334D01*
X101377817Y-79048911D01*
X101455920Y-79144080D01*
X101551089Y-79222183D01*
X101659666Y-79280219D01*
X101777479Y-79315957D01*
X101900000Y-79328024D01*
X102718750Y-79325000D01*
X102875000Y-79168750D01*
X102875000Y-78200000D01*
X103125000Y-78200000D01*
X103125000Y-79168750D01*
X103281250Y-79325000D01*
X104100000Y-79328024D01*
X104222521Y-79315957D01*
X104340334Y-79280219D01*
X104448911Y-79222183D01*
X104544080Y-79144080D01*
X104622183Y-79048911D01*
X104680219Y-78940334D01*
X104715957Y-78822521D01*
X104728024Y-78700000D01*
X104725000Y-78356250D01*
X104568750Y-78200000D01*
X103125000Y-78200000D01*
X102875000Y-78200000D01*
X101431250Y-78200000D01*
X101275000Y-78356250D01*
X101271976Y-78700000D01*
X94625000Y-78700000D01*
X94625000Y-77986065D01*
X95690712Y-77986065D01*
X95762693Y-78227479D01*
X96016330Y-78347735D01*
X96288553Y-78416198D01*
X96568903Y-78430237D01*
X96846604Y-78389314D01*
X97110986Y-78295000D01*
X97237307Y-78227479D01*
X97309288Y-77986065D01*
X96500000Y-77176777D01*
X95690712Y-77986065D01*
X94625000Y-77986065D01*
X94625000Y-77068903D01*
X95069763Y-77068903D01*
X95110686Y-77346604D01*
X95205000Y-77610986D01*
X95272521Y-77737307D01*
X95513935Y-77809288D01*
X96323223Y-77000000D01*
X96676777Y-77000000D01*
X97486065Y-77809288D01*
X97727479Y-77737307D01*
X97847735Y-77483670D01*
X97916198Y-77211447D01*
X97930237Y-76931097D01*
X97889314Y-76653396D01*
X97795000Y-76389014D01*
X97727479Y-76262693D01*
X97486065Y-76190712D01*
X96676777Y-77000000D01*
X96323223Y-77000000D01*
X95513935Y-76190712D01*
X95272521Y-76262693D01*
X95152265Y-76516330D01*
X95083802Y-76788553D01*
X95069763Y-77068903D01*
X94625000Y-77068903D01*
X94625000Y-76013935D01*
X95690712Y-76013935D01*
X96500000Y-76823223D01*
X97309288Y-76013935D01*
X97237307Y-75772521D01*
X96983670Y-75652265D01*
X96711447Y-75583802D01*
X96431097Y-75569763D01*
X96153396Y-75610686D01*
X95889014Y-75705000D01*
X95762693Y-75772521D01*
X95690712Y-76013935D01*
X94625000Y-76013935D01*
X94625000Y-75301776D01*
X94801776Y-75125000D01*
X96725136Y-75125000D01*
X97105971Y-75282747D01*
G37*
G04 #@! TD.AperFunction*
D18*
X122618750Y-85200000D02*
X123625000Y-85200000D01*
X123625000Y-85180000D01*
X124375000Y-85180000D01*
X124375000Y-85200000D01*
X125381250Y-85200000D01*
X125456250Y-85125000D01*
X126225136Y-85125000D01*
X126605971Y-85282747D01*
X129575000Y-88251776D01*
X129575000Y-104375000D01*
X122875000Y-104375000D01*
X122875000Y-104286701D01*
X122912682Y-104249019D01*
X123041271Y-104056571D01*
X123129845Y-103842735D01*
X123175000Y-103615727D01*
X123175000Y-103384273D01*
X123129845Y-103157265D01*
X123041271Y-102943429D01*
X122912682Y-102750981D01*
X122749019Y-102587318D01*
X122556571Y-102458729D01*
X122342735Y-102370155D01*
X122115727Y-102325000D01*
X121884273Y-102325000D01*
X121657265Y-102370155D01*
X121443429Y-102458729D01*
X121250981Y-102587318D01*
X121087318Y-102750981D01*
X120958729Y-102943429D01*
X120870155Y-103157265D01*
X120825000Y-103384273D01*
X120825000Y-103615727D01*
X120870155Y-103842735D01*
X120958729Y-104056571D01*
X121087318Y-104249019D01*
X121125001Y-104286702D01*
X121125001Y-104375000D01*
X120250000Y-104375000D01*
X120128069Y-104387009D01*
X120010823Y-104422575D01*
X119902769Y-104480331D01*
X119808058Y-104558058D01*
X119558058Y-104808058D01*
X119480331Y-104902769D01*
X119422575Y-105010823D01*
X119387009Y-105128069D01*
X119375000Y-105250000D01*
X119375000Y-113125679D01*
X119293374Y-113322742D01*
X116734835Y-115881281D01*
X116657109Y-115975991D01*
X116599352Y-116084046D01*
X116422575Y-116510823D01*
X116387009Y-116628069D01*
X116375000Y-116750000D01*
X116375000Y-119875000D01*
X101801776Y-119875000D01*
X101625000Y-119698224D01*
X101625000Y-113050533D01*
X102693588Y-113050533D01*
X102786101Y-113288558D01*
X102996860Y-113611318D01*
X103266537Y-113886759D01*
X103584768Y-114104296D01*
X103939324Y-114255570D01*
X104316579Y-114334767D01*
X104625000Y-114250337D01*
X104625000Y-112755000D01*
X105375000Y-112755000D01*
X105375000Y-114250337D01*
X105683421Y-114334767D01*
X106060676Y-114255570D01*
X106415232Y-114104296D01*
X106733463Y-113886759D01*
X107003140Y-113611318D01*
X107213899Y-113288558D01*
X107306412Y-113050533D01*
X107293082Y-112755000D01*
X105375000Y-112755000D01*
X104625000Y-112755000D01*
X102706918Y-112755000D01*
X102693588Y-113050533D01*
X101625000Y-113050533D01*
X101625000Y-111709467D01*
X102693588Y-111709467D01*
X102706918Y-112005000D01*
X104625000Y-112005000D01*
X104625000Y-110509663D01*
X105375000Y-110509663D01*
X105375000Y-112005000D01*
X107293082Y-112005000D01*
X107306412Y-111709467D01*
X107213899Y-111471442D01*
X107003140Y-111148682D01*
X106733463Y-110873241D01*
X106415232Y-110655704D01*
X106060676Y-110504430D01*
X105683421Y-110425233D01*
X105375000Y-110509663D01*
X104625000Y-110509663D01*
X104316579Y-110425233D01*
X103939324Y-110504430D01*
X103584768Y-110655704D01*
X103266537Y-110873241D01*
X102996860Y-111148682D01*
X102786101Y-111471442D01*
X102693588Y-111709467D01*
X101625000Y-111709467D01*
X101625000Y-110551776D01*
X101801776Y-110375000D01*
X110778471Y-110375000D01*
X110803341Y-110500031D01*
X111061781Y-111123962D01*
X111436979Y-111685485D01*
X111914515Y-112163021D01*
X112476038Y-112538219D01*
X113099969Y-112796659D01*
X113762331Y-112928411D01*
X114437669Y-112928411D01*
X115100031Y-112796659D01*
X115723962Y-112538219D01*
X116285485Y-112163021D01*
X116763021Y-111685485D01*
X117138219Y-111123962D01*
X117396659Y-110500031D01*
X117528411Y-109837669D01*
X117528411Y-109162331D01*
X117396659Y-108499969D01*
X117138219Y-107876038D01*
X116763021Y-107314515D01*
X116285485Y-106836979D01*
X115723962Y-106461781D01*
X115100031Y-106203341D01*
X114625000Y-106108851D01*
X114625000Y-98200000D01*
X116523186Y-98200000D01*
X116523186Y-98950000D01*
X116535230Y-99072285D01*
X116570899Y-99189871D01*
X116628823Y-99298239D01*
X116706776Y-99393224D01*
X116801761Y-99471177D01*
X116910129Y-99529101D01*
X117027715Y-99564770D01*
X117150000Y-99576814D01*
X118850000Y-99576814D01*
X118972285Y-99564770D01*
X119089871Y-99529101D01*
X119198239Y-99471177D01*
X119293224Y-99393224D01*
X119371177Y-99298239D01*
X119423687Y-99200000D01*
X119994306Y-99200000D01*
X120025000Y-99203023D01*
X120055694Y-99200000D01*
X120055704Y-99200000D01*
X120147521Y-99190957D01*
X120265334Y-99155219D01*
X120321869Y-99125000D01*
X121004452Y-99125000D01*
X121087318Y-99249019D01*
X121250981Y-99412682D01*
X121443429Y-99541271D01*
X121657265Y-99629845D01*
X121884273Y-99675000D01*
X122115727Y-99675000D01*
X122342735Y-99629845D01*
X122556571Y-99541271D01*
X122749019Y-99412682D01*
X122912682Y-99249019D01*
X123041271Y-99056571D01*
X123129845Y-98842735D01*
X123175000Y-98615727D01*
X123175000Y-98384273D01*
X123129845Y-98157265D01*
X123041271Y-97943429D01*
X122912682Y-97750981D01*
X122749019Y-97587318D01*
X122556571Y-97458729D01*
X122342735Y-97370155D01*
X122115727Y-97325000D01*
X121884273Y-97325000D01*
X121657265Y-97370155D01*
X121443429Y-97458729D01*
X121250981Y-97587318D01*
X121087318Y-97750981D01*
X121004452Y-97875000D01*
X120130693Y-97875000D01*
X120099999Y-97871977D01*
X120069306Y-97875000D01*
X120069296Y-97875000D01*
X119977479Y-97884043D01*
X119859666Y-97919781D01*
X119803131Y-97950000D01*
X119423687Y-97950000D01*
X119371177Y-97851761D01*
X119293224Y-97756776D01*
X119198239Y-97678823D01*
X119089871Y-97620899D01*
X118972285Y-97585230D01*
X118850000Y-97573186D01*
X117150000Y-97573186D01*
X117027715Y-97585230D01*
X116910129Y-97620899D01*
X116801761Y-97678823D01*
X116706776Y-97756776D01*
X116628823Y-97851761D01*
X116570899Y-97960129D01*
X116535230Y-98077715D01*
X116523186Y-98200000D01*
X114625000Y-98200000D01*
X114625000Y-96050000D01*
X116523186Y-96050000D01*
X116523186Y-96800000D01*
X116535230Y-96922285D01*
X116570899Y-97039871D01*
X116628823Y-97148239D01*
X116706776Y-97243224D01*
X116801761Y-97321177D01*
X116910129Y-97379101D01*
X117027715Y-97414770D01*
X117150000Y-97426814D01*
X118850000Y-97426814D01*
X118972285Y-97414770D01*
X119089871Y-97379101D01*
X119198239Y-97321177D01*
X119293224Y-97243224D01*
X119371177Y-97148239D01*
X119429101Y-97039871D01*
X119464770Y-96922285D01*
X119476814Y-96800000D01*
X119476814Y-96050000D01*
X119464770Y-95927715D01*
X119445312Y-95863570D01*
X119731577Y-95577306D01*
X119751869Y-95644200D01*
X119786691Y-95709347D01*
X119833552Y-95766448D01*
X119890653Y-95813309D01*
X119955800Y-95848131D01*
X120026487Y-95869574D01*
X120100000Y-95876814D01*
X123900000Y-95876814D01*
X123973513Y-95869574D01*
X124044200Y-95848131D01*
X124109347Y-95813309D01*
X124166448Y-95766448D01*
X124213309Y-95709347D01*
X124248131Y-95644200D01*
X124269574Y-95573513D01*
X124276814Y-95500000D01*
X124276814Y-93500000D01*
X124269574Y-93426487D01*
X124248131Y-93355800D01*
X124213309Y-93290653D01*
X124166448Y-93233552D01*
X124109347Y-93186691D01*
X124044200Y-93151869D01*
X123973513Y-93130426D01*
X123900000Y-93123186D01*
X120100000Y-93123186D01*
X120026487Y-93130426D01*
X119955800Y-93151869D01*
X119890653Y-93186691D01*
X119833552Y-93233552D01*
X119786691Y-93290653D01*
X119751869Y-93355800D01*
X119730426Y-93426487D01*
X119723186Y-93500000D01*
X119723186Y-93908096D01*
X119684666Y-93919781D01*
X119684664Y-93919782D01*
X119576087Y-93977818D01*
X119528677Y-94016727D01*
X119480920Y-94055920D01*
X119461346Y-94079771D01*
X118117932Y-95423186D01*
X117150000Y-95423186D01*
X117027715Y-95435230D01*
X116910129Y-95470899D01*
X116801761Y-95528823D01*
X116706776Y-95606776D01*
X116628823Y-95701761D01*
X116570899Y-95810129D01*
X116535230Y-95927715D01*
X116523186Y-96050000D01*
X114625000Y-96050000D01*
X114625000Y-93841149D01*
X115100031Y-93746659D01*
X115723962Y-93488219D01*
X116285485Y-93113021D01*
X116763021Y-92635485D01*
X117138219Y-92073962D01*
X117396659Y-91450031D01*
X117528411Y-90787669D01*
X117528411Y-90112331D01*
X117396659Y-89449969D01*
X117138219Y-88826038D01*
X116763021Y-88264515D01*
X116285485Y-87786979D01*
X115723962Y-87411781D01*
X115100031Y-87153341D01*
X114625000Y-87058851D01*
X114625000Y-86200000D01*
X122523186Y-86200000D01*
X122530426Y-86273513D01*
X122551869Y-86344200D01*
X122586691Y-86409347D01*
X122633552Y-86466448D01*
X122690653Y-86513309D01*
X122755800Y-86548131D01*
X122826487Y-86569574D01*
X122900000Y-86576814D01*
X123531250Y-86575000D01*
X123625000Y-86481250D01*
X123625000Y-85950000D01*
X124375000Y-85950000D01*
X124375000Y-86481250D01*
X124468750Y-86575000D01*
X125100000Y-86576814D01*
X125173513Y-86569574D01*
X125244200Y-86548131D01*
X125309347Y-86513309D01*
X125366448Y-86466448D01*
X125413309Y-86409347D01*
X125448131Y-86344200D01*
X125469574Y-86273513D01*
X125476814Y-86200000D01*
X125475000Y-86043750D01*
X125381250Y-85950000D01*
X124375000Y-85950000D01*
X123625000Y-85950000D01*
X122618750Y-85950000D01*
X122525000Y-86043750D01*
X122523186Y-86200000D01*
X114625000Y-86200000D01*
X114625000Y-85301776D01*
X114801776Y-85125000D01*
X122543750Y-85125000D01*
X122618750Y-85200000D01*
G04 #@! TA.AperFunction,Conductor*
D19*
G36*
X122618750Y-85200000D02*
G01*
X123625000Y-85200000D01*
X123625000Y-85180000D01*
X124375000Y-85180000D01*
X124375000Y-85200000D01*
X125381250Y-85200000D01*
X125456250Y-85125000D01*
X126225136Y-85125000D01*
X126605971Y-85282747D01*
X129575000Y-88251776D01*
X129575000Y-104375000D01*
X122875000Y-104375000D01*
X122875000Y-104286701D01*
X122912682Y-104249019D01*
X123041271Y-104056571D01*
X123129845Y-103842735D01*
X123175000Y-103615727D01*
X123175000Y-103384273D01*
X123129845Y-103157265D01*
X123041271Y-102943429D01*
X122912682Y-102750981D01*
X122749019Y-102587318D01*
X122556571Y-102458729D01*
X122342735Y-102370155D01*
X122115727Y-102325000D01*
X121884273Y-102325000D01*
X121657265Y-102370155D01*
X121443429Y-102458729D01*
X121250981Y-102587318D01*
X121087318Y-102750981D01*
X120958729Y-102943429D01*
X120870155Y-103157265D01*
X120825000Y-103384273D01*
X120825000Y-103615727D01*
X120870155Y-103842735D01*
X120958729Y-104056571D01*
X121087318Y-104249019D01*
X121125001Y-104286702D01*
X121125001Y-104375000D01*
X120250000Y-104375000D01*
X120128069Y-104387009D01*
X120010823Y-104422575D01*
X119902769Y-104480331D01*
X119808058Y-104558058D01*
X119558058Y-104808058D01*
X119480331Y-104902769D01*
X119422575Y-105010823D01*
X119387009Y-105128069D01*
X119375000Y-105250000D01*
X119375000Y-113125679D01*
X119293374Y-113322742D01*
X116734835Y-115881281D01*
X116657109Y-115975991D01*
X116599352Y-116084046D01*
X116422575Y-116510823D01*
X116387009Y-116628069D01*
X116375000Y-116750000D01*
X116375000Y-119875000D01*
X101801776Y-119875000D01*
X101625000Y-119698224D01*
X101625000Y-113050533D01*
X102693588Y-113050533D01*
X102786101Y-113288558D01*
X102996860Y-113611318D01*
X103266537Y-113886759D01*
X103584768Y-114104296D01*
X103939324Y-114255570D01*
X104316579Y-114334767D01*
X104625000Y-114250337D01*
X104625000Y-112755000D01*
X105375000Y-112755000D01*
X105375000Y-114250337D01*
X105683421Y-114334767D01*
X106060676Y-114255570D01*
X106415232Y-114104296D01*
X106733463Y-113886759D01*
X107003140Y-113611318D01*
X107213899Y-113288558D01*
X107306412Y-113050533D01*
X107293082Y-112755000D01*
X105375000Y-112755000D01*
X104625000Y-112755000D01*
X102706918Y-112755000D01*
X102693588Y-113050533D01*
X101625000Y-113050533D01*
X101625000Y-111709467D01*
X102693588Y-111709467D01*
X102706918Y-112005000D01*
X104625000Y-112005000D01*
X104625000Y-110509663D01*
X105375000Y-110509663D01*
X105375000Y-112005000D01*
X107293082Y-112005000D01*
X107306412Y-111709467D01*
X107213899Y-111471442D01*
X107003140Y-111148682D01*
X106733463Y-110873241D01*
X106415232Y-110655704D01*
X106060676Y-110504430D01*
X105683421Y-110425233D01*
X105375000Y-110509663D01*
X104625000Y-110509663D01*
X104316579Y-110425233D01*
X103939324Y-110504430D01*
X103584768Y-110655704D01*
X103266537Y-110873241D01*
X102996860Y-111148682D01*
X102786101Y-111471442D01*
X102693588Y-111709467D01*
X101625000Y-111709467D01*
X101625000Y-110551776D01*
X101801776Y-110375000D01*
X110778471Y-110375000D01*
X110803341Y-110500031D01*
X111061781Y-111123962D01*
X111436979Y-111685485D01*
X111914515Y-112163021D01*
X112476038Y-112538219D01*
X113099969Y-112796659D01*
X113762331Y-112928411D01*
X114437669Y-112928411D01*
X115100031Y-112796659D01*
X115723962Y-112538219D01*
X116285485Y-112163021D01*
X116763021Y-111685485D01*
X117138219Y-111123962D01*
X117396659Y-110500031D01*
X117528411Y-109837669D01*
X117528411Y-109162331D01*
X117396659Y-108499969D01*
X117138219Y-107876038D01*
X116763021Y-107314515D01*
X116285485Y-106836979D01*
X115723962Y-106461781D01*
X115100031Y-106203341D01*
X114625000Y-106108851D01*
X114625000Y-98200000D01*
X116523186Y-98200000D01*
X116523186Y-98950000D01*
X116535230Y-99072285D01*
X116570899Y-99189871D01*
X116628823Y-99298239D01*
X116706776Y-99393224D01*
X116801761Y-99471177D01*
X116910129Y-99529101D01*
X117027715Y-99564770D01*
X117150000Y-99576814D01*
X118850000Y-99576814D01*
X118972285Y-99564770D01*
X119089871Y-99529101D01*
X119198239Y-99471177D01*
X119293224Y-99393224D01*
X119371177Y-99298239D01*
X119423687Y-99200000D01*
X119994306Y-99200000D01*
X120025000Y-99203023D01*
X120055694Y-99200000D01*
X120055704Y-99200000D01*
X120147521Y-99190957D01*
X120265334Y-99155219D01*
X120321869Y-99125000D01*
X121004452Y-99125000D01*
X121087318Y-99249019D01*
X121250981Y-99412682D01*
X121443429Y-99541271D01*
X121657265Y-99629845D01*
X121884273Y-99675000D01*
X122115727Y-99675000D01*
X122342735Y-99629845D01*
X122556571Y-99541271D01*
X122749019Y-99412682D01*
X122912682Y-99249019D01*
X123041271Y-99056571D01*
X123129845Y-98842735D01*
X123175000Y-98615727D01*
X123175000Y-98384273D01*
X123129845Y-98157265D01*
X123041271Y-97943429D01*
X122912682Y-97750981D01*
X122749019Y-97587318D01*
X122556571Y-97458729D01*
X122342735Y-97370155D01*
X122115727Y-97325000D01*
X121884273Y-97325000D01*
X121657265Y-97370155D01*
X121443429Y-97458729D01*
X121250981Y-97587318D01*
X121087318Y-97750981D01*
X121004452Y-97875000D01*
X120130693Y-97875000D01*
X120099999Y-97871977D01*
X120069306Y-97875000D01*
X120069296Y-97875000D01*
X119977479Y-97884043D01*
X119859666Y-97919781D01*
X119803131Y-97950000D01*
X119423687Y-97950000D01*
X119371177Y-97851761D01*
X119293224Y-97756776D01*
X119198239Y-97678823D01*
X119089871Y-97620899D01*
X118972285Y-97585230D01*
X118850000Y-97573186D01*
X117150000Y-97573186D01*
X117027715Y-97585230D01*
X116910129Y-97620899D01*
X116801761Y-97678823D01*
X116706776Y-97756776D01*
X116628823Y-97851761D01*
X116570899Y-97960129D01*
X116535230Y-98077715D01*
X116523186Y-98200000D01*
X114625000Y-98200000D01*
X114625000Y-96050000D01*
X116523186Y-96050000D01*
X116523186Y-96800000D01*
X116535230Y-96922285D01*
X116570899Y-97039871D01*
X116628823Y-97148239D01*
X116706776Y-97243224D01*
X116801761Y-97321177D01*
X116910129Y-97379101D01*
X117027715Y-97414770D01*
X117150000Y-97426814D01*
X118850000Y-97426814D01*
X118972285Y-97414770D01*
X119089871Y-97379101D01*
X119198239Y-97321177D01*
X119293224Y-97243224D01*
X119371177Y-97148239D01*
X119429101Y-97039871D01*
X119464770Y-96922285D01*
X119476814Y-96800000D01*
X119476814Y-96050000D01*
X119464770Y-95927715D01*
X119445312Y-95863570D01*
X119731577Y-95577306D01*
X119751869Y-95644200D01*
X119786691Y-95709347D01*
X119833552Y-95766448D01*
X119890653Y-95813309D01*
X119955800Y-95848131D01*
X120026487Y-95869574D01*
X120100000Y-95876814D01*
X123900000Y-95876814D01*
X123973513Y-95869574D01*
X124044200Y-95848131D01*
X124109347Y-95813309D01*
X124166448Y-95766448D01*
X124213309Y-95709347D01*
X124248131Y-95644200D01*
X124269574Y-95573513D01*
X124276814Y-95500000D01*
X124276814Y-93500000D01*
X124269574Y-93426487D01*
X124248131Y-93355800D01*
X124213309Y-93290653D01*
X124166448Y-93233552D01*
X124109347Y-93186691D01*
X124044200Y-93151869D01*
X123973513Y-93130426D01*
X123900000Y-93123186D01*
X120100000Y-93123186D01*
X120026487Y-93130426D01*
X119955800Y-93151869D01*
X119890653Y-93186691D01*
X119833552Y-93233552D01*
X119786691Y-93290653D01*
X119751869Y-93355800D01*
X119730426Y-93426487D01*
X119723186Y-93500000D01*
X119723186Y-93908096D01*
X119684666Y-93919781D01*
X119684664Y-93919782D01*
X119576087Y-93977818D01*
X119528677Y-94016727D01*
X119480920Y-94055920D01*
X119461346Y-94079771D01*
X118117932Y-95423186D01*
X117150000Y-95423186D01*
X117027715Y-95435230D01*
X116910129Y-95470899D01*
X116801761Y-95528823D01*
X116706776Y-95606776D01*
X116628823Y-95701761D01*
X116570899Y-95810129D01*
X116535230Y-95927715D01*
X116523186Y-96050000D01*
X114625000Y-96050000D01*
X114625000Y-93841149D01*
X115100031Y-93746659D01*
X115723962Y-93488219D01*
X116285485Y-93113021D01*
X116763021Y-92635485D01*
X117138219Y-92073962D01*
X117396659Y-91450031D01*
X117528411Y-90787669D01*
X117528411Y-90112331D01*
X117396659Y-89449969D01*
X117138219Y-88826038D01*
X116763021Y-88264515D01*
X116285485Y-87786979D01*
X115723962Y-87411781D01*
X115100031Y-87153341D01*
X114625000Y-87058851D01*
X114625000Y-86200000D01*
X122523186Y-86200000D01*
X122530426Y-86273513D01*
X122551869Y-86344200D01*
X122586691Y-86409347D01*
X122633552Y-86466448D01*
X122690653Y-86513309D01*
X122755800Y-86548131D01*
X122826487Y-86569574D01*
X122900000Y-86576814D01*
X123531250Y-86575000D01*
X123625000Y-86481250D01*
X123625000Y-85950000D01*
X124375000Y-85950000D01*
X124375000Y-86481250D01*
X124468750Y-86575000D01*
X125100000Y-86576814D01*
X125173513Y-86569574D01*
X125244200Y-86548131D01*
X125309347Y-86513309D01*
X125366448Y-86466448D01*
X125413309Y-86409347D01*
X125448131Y-86344200D01*
X125469574Y-86273513D01*
X125476814Y-86200000D01*
X125475000Y-86043750D01*
X125381250Y-85950000D01*
X124375000Y-85950000D01*
X123625000Y-85950000D01*
X122618750Y-85950000D01*
X122525000Y-86043750D01*
X122523186Y-86200000D01*
X114625000Y-86200000D01*
X114625000Y-85301776D01*
X114801776Y-85125000D01*
X122543750Y-85125000D01*
X122618750Y-85200000D01*
G37*
G04 #@! TD.AperFunction*
D18*
X101618750Y-85200000D02*
X102625000Y-85200000D01*
X102625000Y-85180000D01*
X103375000Y-85180000D01*
X103375000Y-85200000D01*
X104381250Y-85200000D01*
X104456250Y-85125000D01*
X105226545Y-85125000D01*
X105617114Y-85276925D01*
X110791415Y-90020036D01*
X110771107Y-90122133D01*
X110771107Y-90777867D01*
X110899035Y-91421002D01*
X111149973Y-92026822D01*
X111375000Y-92363599D01*
X111375000Y-106448224D01*
X111198224Y-106625000D01*
X105942954Y-106625000D01*
X105833643Y-106591841D01*
X105561124Y-106565000D01*
X104438876Y-106565000D01*
X104166357Y-106591841D01*
X104057046Y-106625000D01*
X97524864Y-106625000D01*
X97144029Y-106467253D01*
X96081273Y-105404497D01*
X96185272Y-105335007D01*
X96335007Y-105185272D01*
X96371582Y-105130533D01*
X102693588Y-105130533D01*
X102786101Y-105368558D01*
X102996860Y-105691318D01*
X103266537Y-105966759D01*
X103584768Y-106184296D01*
X103939324Y-106335570D01*
X104316579Y-106414767D01*
X104625000Y-106330337D01*
X104625000Y-104835000D01*
X105375000Y-104835000D01*
X105375000Y-106330337D01*
X105683421Y-106414767D01*
X106060676Y-106335570D01*
X106415232Y-106184296D01*
X106733463Y-105966759D01*
X107003140Y-105691318D01*
X107213899Y-105368558D01*
X107306412Y-105130533D01*
X107293082Y-104835000D01*
X105375000Y-104835000D01*
X104625000Y-104835000D01*
X102706918Y-104835000D01*
X102693588Y-105130533D01*
X96371582Y-105130533D01*
X96452652Y-105009203D01*
X96533688Y-104813566D01*
X96575000Y-104605878D01*
X96575000Y-104394122D01*
X96533688Y-104186434D01*
X96452652Y-103990797D01*
X96335007Y-103814728D01*
X96309746Y-103789467D01*
X102693588Y-103789467D01*
X102706918Y-104085000D01*
X104625000Y-104085000D01*
X104625000Y-102589663D01*
X105375000Y-102589663D01*
X105375000Y-104085000D01*
X107293082Y-104085000D01*
X107306412Y-103789467D01*
X107213899Y-103551442D01*
X107003140Y-103228682D01*
X106733463Y-102953241D01*
X106415232Y-102735704D01*
X106060676Y-102584430D01*
X105683421Y-102505233D01*
X105375000Y-102589663D01*
X104625000Y-102589663D01*
X104316579Y-102505233D01*
X103939324Y-102584430D01*
X103584768Y-102735704D01*
X103266537Y-102953241D01*
X102996860Y-103228682D01*
X102786101Y-103551442D01*
X102693588Y-103789467D01*
X96309746Y-103789467D01*
X96185272Y-103664993D01*
X96100000Y-103608016D01*
X96100000Y-101851863D01*
X96151418Y-101836266D01*
X96242413Y-101787627D01*
X96322172Y-101722172D01*
X96387627Y-101642413D01*
X96436266Y-101551418D01*
X96466217Y-101452682D01*
X96476330Y-101350000D01*
X96476330Y-99650000D01*
X96466217Y-99547318D01*
X96436266Y-99448582D01*
X96387627Y-99357587D01*
X96322172Y-99277828D01*
X96242413Y-99212373D01*
X96163141Y-99170000D01*
X102673670Y-99170000D01*
X102673670Y-101830000D01*
X102683783Y-101932682D01*
X102713734Y-102031418D01*
X102762373Y-102122413D01*
X102827828Y-102202172D01*
X102907587Y-102267627D01*
X102998582Y-102316266D01*
X103097318Y-102346217D01*
X103200000Y-102356330D01*
X106800000Y-102356330D01*
X106902682Y-102346217D01*
X107001418Y-102316266D01*
X107092413Y-102267627D01*
X107172172Y-102202172D01*
X107237627Y-102122413D01*
X107286266Y-102031418D01*
X107316217Y-101932682D01*
X107326330Y-101830000D01*
X107326330Y-99170000D01*
X107316217Y-99067318D01*
X107286266Y-98968582D01*
X107237627Y-98877587D01*
X107172172Y-98797828D01*
X107092413Y-98732373D01*
X107001418Y-98683734D01*
X106902682Y-98653783D01*
X106800000Y-98643670D01*
X103200000Y-98643670D01*
X103097318Y-98653783D01*
X102998582Y-98683734D01*
X102907587Y-98732373D01*
X102827828Y-98797828D01*
X102762373Y-98877587D01*
X102713734Y-98968582D01*
X102683783Y-99067318D01*
X102673670Y-99170000D01*
X96163141Y-99170000D01*
X96151418Y-99163734D01*
X96052682Y-99133783D01*
X95950000Y-99123670D01*
X95625000Y-99123670D01*
X95625000Y-93729735D01*
X96021002Y-93650965D01*
X96626822Y-93400027D01*
X97172046Y-93035720D01*
X97635720Y-92572046D01*
X98000027Y-92026822D01*
X98250965Y-91421002D01*
X98378893Y-90777867D01*
X98378893Y-90122133D01*
X98250965Y-89478998D01*
X98000027Y-88873178D01*
X97635720Y-88327954D01*
X97492271Y-88184505D01*
X99476776Y-86200000D01*
X101523186Y-86200000D01*
X101530426Y-86273513D01*
X101551869Y-86344200D01*
X101586691Y-86409347D01*
X101633552Y-86466448D01*
X101690653Y-86513309D01*
X101755800Y-86548131D01*
X101826487Y-86569574D01*
X101900000Y-86576814D01*
X102531250Y-86575000D01*
X102625000Y-86481250D01*
X102625000Y-85950000D01*
X103375000Y-85950000D01*
X103375000Y-86481250D01*
X103468750Y-86575000D01*
X104100000Y-86576814D01*
X104173513Y-86569574D01*
X104244200Y-86548131D01*
X104309347Y-86513309D01*
X104366448Y-86466448D01*
X104413309Y-86409347D01*
X104448131Y-86344200D01*
X104469574Y-86273513D01*
X104476814Y-86200000D01*
X104475000Y-86043750D01*
X104381250Y-85950000D01*
X103375000Y-85950000D01*
X102625000Y-85950000D01*
X101618750Y-85950000D01*
X101525000Y-86043750D01*
X101523186Y-86200000D01*
X99476776Y-86200000D01*
X100394029Y-85282747D01*
X100774864Y-85125000D01*
X101543750Y-85125000D01*
X101618750Y-85200000D01*
G04 #@! TA.AperFunction,Conductor*
D19*
G36*
X101618750Y-85200000D02*
G01*
X102625000Y-85200000D01*
X102625000Y-85180000D01*
X103375000Y-85180000D01*
X103375000Y-85200000D01*
X104381250Y-85200000D01*
X104456250Y-85125000D01*
X105226545Y-85125000D01*
X105617114Y-85276925D01*
X110791415Y-90020036D01*
X110771107Y-90122133D01*
X110771107Y-90777867D01*
X110899035Y-91421002D01*
X111149973Y-92026822D01*
X111375000Y-92363599D01*
X111375000Y-106448224D01*
X111198224Y-106625000D01*
X105942954Y-106625000D01*
X105833643Y-106591841D01*
X105561124Y-106565000D01*
X104438876Y-106565000D01*
X104166357Y-106591841D01*
X104057046Y-106625000D01*
X97524864Y-106625000D01*
X97144029Y-106467253D01*
X96081273Y-105404497D01*
X96185272Y-105335007D01*
X96335007Y-105185272D01*
X96371582Y-105130533D01*
X102693588Y-105130533D01*
X102786101Y-105368558D01*
X102996860Y-105691318D01*
X103266537Y-105966759D01*
X103584768Y-106184296D01*
X103939324Y-106335570D01*
X104316579Y-106414767D01*
X104625000Y-106330337D01*
X104625000Y-104835000D01*
X105375000Y-104835000D01*
X105375000Y-106330337D01*
X105683421Y-106414767D01*
X106060676Y-106335570D01*
X106415232Y-106184296D01*
X106733463Y-105966759D01*
X107003140Y-105691318D01*
X107213899Y-105368558D01*
X107306412Y-105130533D01*
X107293082Y-104835000D01*
X105375000Y-104835000D01*
X104625000Y-104835000D01*
X102706918Y-104835000D01*
X102693588Y-105130533D01*
X96371582Y-105130533D01*
X96452652Y-105009203D01*
X96533688Y-104813566D01*
X96575000Y-104605878D01*
X96575000Y-104394122D01*
X96533688Y-104186434D01*
X96452652Y-103990797D01*
X96335007Y-103814728D01*
X96309746Y-103789467D01*
X102693588Y-103789467D01*
X102706918Y-104085000D01*
X104625000Y-104085000D01*
X104625000Y-102589663D01*
X105375000Y-102589663D01*
X105375000Y-104085000D01*
X107293082Y-104085000D01*
X107306412Y-103789467D01*
X107213899Y-103551442D01*
X107003140Y-103228682D01*
X106733463Y-102953241D01*
X106415232Y-102735704D01*
X106060676Y-102584430D01*
X105683421Y-102505233D01*
X105375000Y-102589663D01*
X104625000Y-102589663D01*
X104316579Y-102505233D01*
X103939324Y-102584430D01*
X103584768Y-102735704D01*
X103266537Y-102953241D01*
X102996860Y-103228682D01*
X102786101Y-103551442D01*
X102693588Y-103789467D01*
X96309746Y-103789467D01*
X96185272Y-103664993D01*
X96100000Y-103608016D01*
X96100000Y-101851863D01*
X96151418Y-101836266D01*
X96242413Y-101787627D01*
X96322172Y-101722172D01*
X96387627Y-101642413D01*
X96436266Y-101551418D01*
X96466217Y-101452682D01*
X96476330Y-101350000D01*
X96476330Y-99650000D01*
X96466217Y-99547318D01*
X96436266Y-99448582D01*
X96387627Y-99357587D01*
X96322172Y-99277828D01*
X96242413Y-99212373D01*
X96163141Y-99170000D01*
X102673670Y-99170000D01*
X102673670Y-101830000D01*
X102683783Y-101932682D01*
X102713734Y-102031418D01*
X102762373Y-102122413D01*
X102827828Y-102202172D01*
X102907587Y-102267627D01*
X102998582Y-102316266D01*
X103097318Y-102346217D01*
X103200000Y-102356330D01*
X106800000Y-102356330D01*
X106902682Y-102346217D01*
X107001418Y-102316266D01*
X107092413Y-102267627D01*
X107172172Y-102202172D01*
X107237627Y-102122413D01*
X107286266Y-102031418D01*
X107316217Y-101932682D01*
X107326330Y-101830000D01*
X107326330Y-99170000D01*
X107316217Y-99067318D01*
X107286266Y-98968582D01*
X107237627Y-98877587D01*
X107172172Y-98797828D01*
X107092413Y-98732373D01*
X107001418Y-98683734D01*
X106902682Y-98653783D01*
X106800000Y-98643670D01*
X103200000Y-98643670D01*
X103097318Y-98653783D01*
X102998582Y-98683734D01*
X102907587Y-98732373D01*
X102827828Y-98797828D01*
X102762373Y-98877587D01*
X102713734Y-98968582D01*
X102683783Y-99067318D01*
X102673670Y-99170000D01*
X96163141Y-99170000D01*
X96151418Y-99163734D01*
X96052682Y-99133783D01*
X95950000Y-99123670D01*
X95625000Y-99123670D01*
X95625000Y-93729735D01*
X96021002Y-93650965D01*
X96626822Y-93400027D01*
X97172046Y-93035720D01*
X97635720Y-92572046D01*
X98000027Y-92026822D01*
X98250965Y-91421002D01*
X98378893Y-90777867D01*
X98378893Y-90122133D01*
X98250965Y-89478998D01*
X98000027Y-88873178D01*
X97635720Y-88327954D01*
X97492271Y-88184505D01*
X99476776Y-86200000D01*
X101523186Y-86200000D01*
X101530426Y-86273513D01*
X101551869Y-86344200D01*
X101586691Y-86409347D01*
X101633552Y-86466448D01*
X101690653Y-86513309D01*
X101755800Y-86548131D01*
X101826487Y-86569574D01*
X101900000Y-86576814D01*
X102531250Y-86575000D01*
X102625000Y-86481250D01*
X102625000Y-85950000D01*
X103375000Y-85950000D01*
X103375000Y-86481250D01*
X103468750Y-86575000D01*
X104100000Y-86576814D01*
X104173513Y-86569574D01*
X104244200Y-86548131D01*
X104309347Y-86513309D01*
X104366448Y-86466448D01*
X104413309Y-86409347D01*
X104448131Y-86344200D01*
X104469574Y-86273513D01*
X104476814Y-86200000D01*
X104475000Y-86043750D01*
X104381250Y-85950000D01*
X103375000Y-85950000D01*
X102625000Y-85950000D01*
X101618750Y-85950000D01*
X101525000Y-86043750D01*
X101523186Y-86200000D01*
X99476776Y-86200000D01*
X100394029Y-85282747D01*
X100774864Y-85125000D01*
X101543750Y-85125000D01*
X101618750Y-85200000D01*
G37*
G04 #@! TD.AperFunction*
D18*
X129325000Y-122325000D02*
X117125000Y-122325000D01*
X117125000Y-118636391D01*
X120393939Y-118636391D01*
X120521751Y-118796241D01*
X120783825Y-118864635D01*
X121054205Y-118880588D01*
X121322504Y-118843485D01*
X121478249Y-118796241D01*
X121606061Y-118636391D01*
X121000000Y-118030330D01*
X120393939Y-118636391D01*
X117125000Y-118636391D01*
X117125000Y-117554205D01*
X119619412Y-117554205D01*
X119656515Y-117822504D01*
X119703759Y-117978249D01*
X119863609Y-118106061D01*
X120469670Y-117500000D01*
X121530330Y-117500000D01*
X122136391Y-118106061D01*
X122296241Y-117978249D01*
X122364635Y-117716175D01*
X122380588Y-117445795D01*
X122343485Y-117177496D01*
X122296241Y-117021751D01*
X122136391Y-116893939D01*
X121530330Y-117500000D01*
X120469670Y-117500000D01*
X119863609Y-116893939D01*
X119703759Y-117021751D01*
X119635365Y-117283825D01*
X119619412Y-117554205D01*
X117125000Y-117554205D01*
X117125000Y-116774864D01*
X117282747Y-116394029D01*
X117313167Y-116363609D01*
X120393939Y-116363609D01*
X121000000Y-116969670D01*
X121606061Y-116363609D01*
X121478249Y-116203759D01*
X121216175Y-116135365D01*
X120945795Y-116119412D01*
X120677496Y-116156515D01*
X120521751Y-116203759D01*
X120393939Y-116363609D01*
X117313167Y-116363609D01*
X119911611Y-113765165D01*
X119927157Y-113746223D01*
X119938708Y-113724612D01*
X120115485Y-113297835D01*
X120122598Y-113274386D01*
X120125000Y-113250000D01*
X120125000Y-111000000D01*
X121773186Y-111000000D01*
X121780426Y-111073513D01*
X121801869Y-111144200D01*
X121836691Y-111209347D01*
X121883552Y-111266448D01*
X121940653Y-111313309D01*
X122005800Y-111348131D01*
X122076487Y-111369574D01*
X122150000Y-111376814D01*
X123581250Y-111375000D01*
X123675000Y-111281250D01*
X123675000Y-110375000D01*
X124425000Y-110375000D01*
X124425000Y-111281250D01*
X124518750Y-111375000D01*
X125950000Y-111376814D01*
X126023513Y-111369574D01*
X126094200Y-111348131D01*
X126159347Y-111313309D01*
X126216448Y-111266448D01*
X126263309Y-111209347D01*
X126298131Y-111144200D01*
X126319574Y-111073513D01*
X126326814Y-111000000D01*
X126325000Y-110468750D01*
X126231250Y-110375000D01*
X124425000Y-110375000D01*
X123675000Y-110375000D01*
X121868750Y-110375000D01*
X121775000Y-110468750D01*
X121773186Y-111000000D01*
X120125000Y-111000000D01*
X120125000Y-109000000D01*
X121773186Y-109000000D01*
X121775000Y-109531250D01*
X121868750Y-109625000D01*
X123675000Y-109625000D01*
X123675000Y-108718750D01*
X124425000Y-108718750D01*
X124425000Y-109625000D01*
X126231250Y-109625000D01*
X126325000Y-109531250D01*
X126326814Y-109000000D01*
X126319574Y-108926487D01*
X126298131Y-108855800D01*
X126263309Y-108790653D01*
X126216448Y-108733552D01*
X126159347Y-108686691D01*
X126094200Y-108651869D01*
X126023513Y-108630426D01*
X125950000Y-108623186D01*
X124518750Y-108625000D01*
X124425000Y-108718750D01*
X123675000Y-108718750D01*
X123581250Y-108625000D01*
X122150000Y-108623186D01*
X122076487Y-108630426D01*
X122005800Y-108651869D01*
X121940653Y-108686691D01*
X121883552Y-108733552D01*
X121836691Y-108790653D01*
X121801869Y-108855800D01*
X121780426Y-108926487D01*
X121773186Y-109000000D01*
X120125000Y-109000000D01*
X120125000Y-105301776D01*
X120301776Y-105125000D01*
X129325000Y-105125000D01*
X129325000Y-122325000D01*
G04 #@! TA.AperFunction,Conductor*
D19*
G36*
X129325000Y-122325000D02*
G01*
X117125000Y-122325000D01*
X117125000Y-118636391D01*
X120393939Y-118636391D01*
X120521751Y-118796241D01*
X120783825Y-118864635D01*
X121054205Y-118880588D01*
X121322504Y-118843485D01*
X121478249Y-118796241D01*
X121606061Y-118636391D01*
X121000000Y-118030330D01*
X120393939Y-118636391D01*
X117125000Y-118636391D01*
X117125000Y-117554205D01*
X119619412Y-117554205D01*
X119656515Y-117822504D01*
X119703759Y-117978249D01*
X119863609Y-118106061D01*
X120469670Y-117500000D01*
X121530330Y-117500000D01*
X122136391Y-118106061D01*
X122296241Y-117978249D01*
X122364635Y-117716175D01*
X122380588Y-117445795D01*
X122343485Y-117177496D01*
X122296241Y-117021751D01*
X122136391Y-116893939D01*
X121530330Y-117500000D01*
X120469670Y-117500000D01*
X119863609Y-116893939D01*
X119703759Y-117021751D01*
X119635365Y-117283825D01*
X119619412Y-117554205D01*
X117125000Y-117554205D01*
X117125000Y-116774864D01*
X117282747Y-116394029D01*
X117313167Y-116363609D01*
X120393939Y-116363609D01*
X121000000Y-116969670D01*
X121606061Y-116363609D01*
X121478249Y-116203759D01*
X121216175Y-116135365D01*
X120945795Y-116119412D01*
X120677496Y-116156515D01*
X120521751Y-116203759D01*
X120393939Y-116363609D01*
X117313167Y-116363609D01*
X119911611Y-113765165D01*
X119927157Y-113746223D01*
X119938708Y-113724612D01*
X120115485Y-113297835D01*
X120122598Y-113274386D01*
X120125000Y-113250000D01*
X120125000Y-111000000D01*
X121773186Y-111000000D01*
X121780426Y-111073513D01*
X121801869Y-111144200D01*
X121836691Y-111209347D01*
X121883552Y-111266448D01*
X121940653Y-111313309D01*
X122005800Y-111348131D01*
X122076487Y-111369574D01*
X122150000Y-111376814D01*
X123581250Y-111375000D01*
X123675000Y-111281250D01*
X123675000Y-110375000D01*
X124425000Y-110375000D01*
X124425000Y-111281250D01*
X124518750Y-111375000D01*
X125950000Y-111376814D01*
X126023513Y-111369574D01*
X126094200Y-111348131D01*
X126159347Y-111313309D01*
X126216448Y-111266448D01*
X126263309Y-111209347D01*
X126298131Y-111144200D01*
X126319574Y-111073513D01*
X126326814Y-111000000D01*
X126325000Y-110468750D01*
X126231250Y-110375000D01*
X124425000Y-110375000D01*
X123675000Y-110375000D01*
X121868750Y-110375000D01*
X121775000Y-110468750D01*
X121773186Y-111000000D01*
X120125000Y-111000000D01*
X120125000Y-109000000D01*
X121773186Y-109000000D01*
X121775000Y-109531250D01*
X121868750Y-109625000D01*
X123675000Y-109625000D01*
X123675000Y-108718750D01*
X124425000Y-108718750D01*
X124425000Y-109625000D01*
X126231250Y-109625000D01*
X126325000Y-109531250D01*
X126326814Y-109000000D01*
X126319574Y-108926487D01*
X126298131Y-108855800D01*
X126263309Y-108790653D01*
X126216448Y-108733552D01*
X126159347Y-108686691D01*
X126094200Y-108651869D01*
X126023513Y-108630426D01*
X125950000Y-108623186D01*
X124518750Y-108625000D01*
X124425000Y-108718750D01*
X123675000Y-108718750D01*
X123581250Y-108625000D01*
X122150000Y-108623186D01*
X122076487Y-108630426D01*
X122005800Y-108651869D01*
X121940653Y-108686691D01*
X121883552Y-108733552D01*
X121836691Y-108790653D01*
X121801869Y-108855800D01*
X121780426Y-108926487D01*
X121773186Y-109000000D01*
X120125000Y-109000000D01*
X120125000Y-105301776D01*
X120301776Y-105125000D01*
X129325000Y-105125000D01*
X129325000Y-122325000D01*
G37*
G04 #@! TD.AperFunction*
M02*
