G04 #@! TF.GenerationSoftware,KiCad,Pcbnew,5.1.10*
G04 #@! TF.CreationDate,2021-07-03T00:07:37+02:00*
G04 #@! TF.ProjectId,main,6d61696e-2e6b-4696-9361-645f70636258,v1.10*
G04 #@! TF.SameCoordinates,Original*
G04 #@! TF.FileFunction,Copper,L2,Bot*
G04 #@! TF.FilePolarity,Positive*
%FSLAX46Y46*%
G04 Gerber Fmt 4.6, Leading zero omitted, Abs format (unit mm)*
G04 Created by KiCad (PCBNEW 5.1.10) date 2021-07-03 00:07:37*
%MOMM*%
%LPD*%
G01*
G04 APERTURE LIST*
G04 #@! TA.AperFunction,ComponentPad*
%ADD10C,2.000000*%
G04 #@! TD*
G04 #@! TA.AperFunction,ComponentPad*
%ADD11C,1.600000*%
G04 #@! TD*
G04 #@! TA.AperFunction,ComponentPad*
%ADD12O,4.100000X3.160000*%
G04 #@! TD*
G04 #@! TA.AperFunction,ViaPad*
%ADD13C,0.600000*%
G04 #@! TD*
G04 #@! TA.AperFunction,Conductor*
%ADD14C,0.500000*%
G04 #@! TD*
G04 #@! TA.AperFunction,Conductor*
%ADD15C,0.250000*%
G04 #@! TD*
G04 #@! TA.AperFunction,Conductor*
%ADD16C,0.100000*%
G04 #@! TD*
G04 APERTURE END LIST*
D10*
X121000000Y-117500000D03*
D11*
X95500000Y-104500000D03*
X95500000Y-109500000D03*
X122000000Y-103500000D03*
X122000000Y-98500000D03*
D10*
X99000000Y-81500000D03*
X89000000Y-81500000D03*
X109000000Y-81500000D03*
X119000000Y-81500000D03*
D12*
X105000000Y-112380000D03*
X105000000Y-108420000D03*
X105000000Y-104460000D03*
G04 #@! TA.AperFunction,ComponentPad*
G36*
G01*
X103200000Y-98920000D02*
X106800000Y-98920000D01*
G75*
G02*
X107050000Y-99170000I0J-250000D01*
G01*
X107050000Y-101830000D01*
G75*
G02*
X106800000Y-102080000I-250000J0D01*
G01*
X103200000Y-102080000D01*
G75*
G02*
X102950000Y-101830000I0J250000D01*
G01*
X102950000Y-99170000D01*
G75*
G02*
X103200000Y-98920000I250000J0D01*
G01*
G37*
G04 #@! TD.AperFunction*
D11*
X96500000Y-77000000D03*
X91500000Y-77000000D03*
X111500000Y-77000000D03*
X116500000Y-77000000D03*
D13*
X129000000Y-114000000D03*
X127000000Y-114000000D03*
X125000000Y-114000000D03*
X123000000Y-114000000D03*
X121000000Y-114000000D03*
X127000000Y-112000000D03*
X121000000Y-112000000D03*
X123000000Y-112000000D03*
X129000000Y-112000000D03*
X125000000Y-112000000D03*
X127000000Y-110000000D03*
X129000000Y-110000000D03*
X121000000Y-110000000D03*
X125000000Y-108000000D03*
X123000000Y-108000000D03*
X121000000Y-108000000D03*
X127000000Y-108000000D03*
X129000000Y-108000000D03*
X127000000Y-106000000D03*
X121000000Y-106000000D03*
X129000000Y-106000000D03*
X125000000Y-106000000D03*
X123000000Y-106000000D03*
D14*
X108580000Y-108420000D02*
X116000000Y-101000000D01*
X119500000Y-101000000D02*
X122000000Y-98500000D01*
X116000000Y-101000000D02*
X119500000Y-101000000D01*
X108580000Y-108420000D02*
X105000000Y-108420000D01*
X99500000Y-100500000D02*
X95500000Y-104500000D01*
X99500000Y-100500000D02*
X105000000Y-100500000D01*
D15*
X129575000Y-122575000D02*
X85425000Y-122575000D01*
X85425000Y-118494774D01*
X120182003Y-118494774D01*
X120292342Y-118686670D01*
X120537448Y-118801926D01*
X120800329Y-118867149D01*
X121070883Y-118879834D01*
X121338714Y-118839492D01*
X121593527Y-118747674D01*
X121707658Y-118686670D01*
X121817997Y-118494774D01*
X121000000Y-117676777D01*
X120182003Y-118494774D01*
X85425000Y-118494774D01*
X85425000Y-117570883D01*
X119620166Y-117570883D01*
X119660508Y-117838714D01*
X119752326Y-118093527D01*
X119813330Y-118207658D01*
X120005226Y-118317997D01*
X120823223Y-117500000D01*
X121176777Y-117500000D01*
X121994774Y-118317997D01*
X122186670Y-118207658D01*
X122301926Y-117962552D01*
X122367149Y-117699671D01*
X122379834Y-117429117D01*
X122339492Y-117161286D01*
X122247674Y-116906473D01*
X122186670Y-116792342D01*
X121994774Y-116682003D01*
X121176777Y-117500000D01*
X120823223Y-117500000D01*
X120005226Y-116682003D01*
X119813330Y-116792342D01*
X119698074Y-117037448D01*
X119632851Y-117300329D01*
X119620166Y-117570883D01*
X85425000Y-117570883D01*
X85425000Y-116505226D01*
X120182003Y-116505226D01*
X121000000Y-117323223D01*
X121817997Y-116505226D01*
X121707658Y-116313330D01*
X121462552Y-116198074D01*
X121199671Y-116132851D01*
X120929117Y-116120166D01*
X120661286Y-116160508D01*
X120406473Y-116252326D01*
X120292342Y-116313330D01*
X120182003Y-116505226D01*
X85425000Y-116505226D01*
X85425000Y-112380000D01*
X102565541Y-112380000D01*
X102603288Y-112763247D01*
X102715077Y-113131766D01*
X102896612Y-113471395D01*
X103140918Y-113769082D01*
X103438605Y-114013388D01*
X103778234Y-114194923D01*
X104146753Y-114306712D01*
X104433962Y-114335000D01*
X105566038Y-114335000D01*
X105853247Y-114306712D01*
X106221766Y-114194923D01*
X106561395Y-114013388D01*
X106859082Y-113769082D01*
X107103388Y-113471395D01*
X107284923Y-113131766D01*
X107396712Y-112763247D01*
X107434459Y-112380000D01*
X107396712Y-111996753D01*
X107284923Y-111628234D01*
X107103388Y-111288605D01*
X106859082Y-110990918D01*
X106561395Y-110746612D01*
X106221766Y-110565077D01*
X105853247Y-110453288D01*
X105566038Y-110425000D01*
X104433962Y-110425000D01*
X104146753Y-110453288D01*
X103778234Y-110565077D01*
X103438605Y-110746612D01*
X103140918Y-110990918D01*
X102896612Y-111288605D01*
X102715077Y-111628234D01*
X102603288Y-111996753D01*
X102565541Y-112380000D01*
X85425000Y-112380000D01*
X85425000Y-110351868D01*
X94824909Y-110351868D01*
X94911039Y-110523299D01*
X95121991Y-110618537D01*
X95347470Y-110670791D01*
X95578811Y-110678051D01*
X95807123Y-110640040D01*
X96023632Y-110558218D01*
X96088961Y-110523299D01*
X96175091Y-110351868D01*
X95500000Y-109676777D01*
X94824909Y-110351868D01*
X85425000Y-110351868D01*
X85425000Y-109578811D01*
X94321949Y-109578811D01*
X94359960Y-109807123D01*
X94441782Y-110023632D01*
X94476701Y-110088961D01*
X94648132Y-110175091D01*
X95323223Y-109500000D01*
X95676777Y-109500000D01*
X96351868Y-110175091D01*
X96523299Y-110088961D01*
X96618537Y-109878009D01*
X96670791Y-109652530D01*
X96678051Y-109421189D01*
X96640040Y-109192877D01*
X96558218Y-108976368D01*
X96523299Y-108911039D01*
X96351868Y-108824909D01*
X95676777Y-109500000D01*
X95323223Y-109500000D01*
X94648132Y-108824909D01*
X94476701Y-108911039D01*
X94381463Y-109121991D01*
X94329209Y-109347470D01*
X94321949Y-109578811D01*
X85425000Y-109578811D01*
X85425000Y-108648132D01*
X94824909Y-108648132D01*
X95500000Y-109323223D01*
X96175091Y-108648132D01*
X96088961Y-108476701D01*
X95963369Y-108420000D01*
X102565541Y-108420000D01*
X102603288Y-108803247D01*
X102715077Y-109171766D01*
X102896612Y-109511395D01*
X103140918Y-109809082D01*
X103438605Y-110053388D01*
X103778234Y-110234923D01*
X104146753Y-110346712D01*
X104433962Y-110375000D01*
X105566038Y-110375000D01*
X105853247Y-110346712D01*
X106221766Y-110234923D01*
X106561395Y-110053388D01*
X106859082Y-109809082D01*
X107103388Y-109511395D01*
X107284923Y-109171766D01*
X107287785Y-109162331D01*
X110671589Y-109162331D01*
X110671589Y-109837669D01*
X110803341Y-110500031D01*
X111061781Y-111123962D01*
X111436979Y-111685485D01*
X111914515Y-112163021D01*
X112476038Y-112538219D01*
X113099969Y-112796659D01*
X113762331Y-112928411D01*
X114437669Y-112928411D01*
X115100031Y-112796659D01*
X115723962Y-112538219D01*
X116285485Y-112163021D01*
X116763021Y-111685485D01*
X117138219Y-111123962D01*
X117396659Y-110500031D01*
X117528411Y-109837669D01*
X117528411Y-109162331D01*
X117396659Y-108499969D01*
X117138219Y-107876038D01*
X116763021Y-107314515D01*
X116285485Y-106836979D01*
X115723962Y-106461781D01*
X115100031Y-106203341D01*
X114437669Y-106071589D01*
X113762331Y-106071589D01*
X113099969Y-106203341D01*
X112476038Y-106461781D01*
X111914515Y-106836979D01*
X111436979Y-107314515D01*
X111061781Y-107876038D01*
X110803341Y-108499969D01*
X110671589Y-109162331D01*
X107287785Y-109162331D01*
X107323377Y-109045000D01*
X108549306Y-109045000D01*
X108580000Y-109048023D01*
X108610694Y-109045000D01*
X108610704Y-109045000D01*
X108702521Y-109035957D01*
X108820334Y-109000219D01*
X108928911Y-108942183D01*
X109024080Y-108864080D01*
X109043658Y-108840224D01*
X113532014Y-104351868D01*
X121324909Y-104351868D01*
X121411039Y-104523299D01*
X121621991Y-104618537D01*
X121847470Y-104670791D01*
X122078811Y-104678051D01*
X122307123Y-104640040D01*
X122523632Y-104558218D01*
X122588961Y-104523299D01*
X122675091Y-104351868D01*
X122000000Y-103676777D01*
X121324909Y-104351868D01*
X113532014Y-104351868D01*
X114305072Y-103578811D01*
X120821949Y-103578811D01*
X120859960Y-103807123D01*
X120941782Y-104023632D01*
X120976701Y-104088961D01*
X121148132Y-104175091D01*
X121823223Y-103500000D01*
X122176777Y-103500000D01*
X122851868Y-104175091D01*
X123023299Y-104088961D01*
X123118537Y-103878009D01*
X123170791Y-103652530D01*
X123178051Y-103421189D01*
X123140040Y-103192877D01*
X123058218Y-102976368D01*
X123023299Y-102911039D01*
X122851868Y-102824909D01*
X122176777Y-103500000D01*
X121823223Y-103500000D01*
X121148132Y-102824909D01*
X120976701Y-102911039D01*
X120881463Y-103121991D01*
X120829209Y-103347470D01*
X120821949Y-103578811D01*
X114305072Y-103578811D01*
X115235751Y-102648132D01*
X121324909Y-102648132D01*
X122000000Y-103323223D01*
X122675091Y-102648132D01*
X122588961Y-102476701D01*
X122378009Y-102381463D01*
X122152530Y-102329209D01*
X121921189Y-102321949D01*
X121692877Y-102359960D01*
X121476368Y-102441782D01*
X121411039Y-102476701D01*
X121324909Y-102648132D01*
X115235751Y-102648132D01*
X116258884Y-101625000D01*
X119469306Y-101625000D01*
X119500000Y-101628023D01*
X119530694Y-101625000D01*
X119530704Y-101625000D01*
X119622521Y-101615957D01*
X119740334Y-101580219D01*
X119848911Y-101522183D01*
X119944080Y-101444080D01*
X119963658Y-101420224D01*
X121737982Y-99645901D01*
X121884273Y-99675000D01*
X122115727Y-99675000D01*
X122342735Y-99629845D01*
X122556571Y-99541271D01*
X122749019Y-99412682D01*
X122912682Y-99249019D01*
X123041271Y-99056571D01*
X123129845Y-98842735D01*
X123175000Y-98615727D01*
X123175000Y-98384273D01*
X123129845Y-98157265D01*
X123041271Y-97943429D01*
X122912682Y-97750981D01*
X122749019Y-97587318D01*
X122556571Y-97458729D01*
X122342735Y-97370155D01*
X122115727Y-97325000D01*
X121884273Y-97325000D01*
X121657265Y-97370155D01*
X121443429Y-97458729D01*
X121250981Y-97587318D01*
X121087318Y-97750981D01*
X120958729Y-97943429D01*
X120870155Y-98157265D01*
X120825000Y-98384273D01*
X120825000Y-98615727D01*
X120854099Y-98762018D01*
X119241118Y-100375000D01*
X116030702Y-100375000D01*
X116000000Y-100371976D01*
X115969298Y-100375000D01*
X115969296Y-100375000D01*
X115877479Y-100384043D01*
X115759666Y-100419781D01*
X115709124Y-100446796D01*
X115651088Y-100477817D01*
X115579769Y-100536347D01*
X115579765Y-100536351D01*
X115555920Y-100555920D01*
X115536351Y-100579765D01*
X108321118Y-107795000D01*
X107323377Y-107795000D01*
X107284923Y-107668234D01*
X107103388Y-107328605D01*
X106859082Y-107030918D01*
X106561395Y-106786612D01*
X106221766Y-106605077D01*
X105853247Y-106493288D01*
X105566038Y-106465000D01*
X104433962Y-106465000D01*
X104146753Y-106493288D01*
X103778234Y-106605077D01*
X103438605Y-106786612D01*
X103140918Y-107030918D01*
X102896612Y-107328605D01*
X102715077Y-107668234D01*
X102603288Y-108036753D01*
X102565541Y-108420000D01*
X95963369Y-108420000D01*
X95878009Y-108381463D01*
X95652530Y-108329209D01*
X95421189Y-108321949D01*
X95192877Y-108359960D01*
X94976368Y-108441782D01*
X94911039Y-108476701D01*
X94824909Y-108648132D01*
X85425000Y-108648132D01*
X85425000Y-104384273D01*
X94325000Y-104384273D01*
X94325000Y-104615727D01*
X94370155Y-104842735D01*
X94458729Y-105056571D01*
X94587318Y-105249019D01*
X94750981Y-105412682D01*
X94943429Y-105541271D01*
X95157265Y-105629845D01*
X95384273Y-105675000D01*
X95615727Y-105675000D01*
X95842735Y-105629845D01*
X96056571Y-105541271D01*
X96249019Y-105412682D01*
X96412682Y-105249019D01*
X96541271Y-105056571D01*
X96629845Y-104842735D01*
X96675000Y-104615727D01*
X96675000Y-104460000D01*
X102565541Y-104460000D01*
X102603288Y-104843247D01*
X102715077Y-105211766D01*
X102896612Y-105551395D01*
X103140918Y-105849082D01*
X103438605Y-106093388D01*
X103778234Y-106274923D01*
X104146753Y-106386712D01*
X104433962Y-106415000D01*
X105566038Y-106415000D01*
X105853247Y-106386712D01*
X106221766Y-106274923D01*
X106561395Y-106093388D01*
X106859082Y-105849082D01*
X107103388Y-105551395D01*
X107284923Y-105211766D01*
X107396712Y-104843247D01*
X107434459Y-104460000D01*
X107396712Y-104076753D01*
X107284923Y-103708234D01*
X107103388Y-103368605D01*
X106859082Y-103070918D01*
X106561395Y-102826612D01*
X106221766Y-102645077D01*
X105853247Y-102533288D01*
X105566038Y-102505000D01*
X104433962Y-102505000D01*
X104146753Y-102533288D01*
X103778234Y-102645077D01*
X103438605Y-102826612D01*
X103140918Y-103070918D01*
X102896612Y-103368605D01*
X102715077Y-103708234D01*
X102603288Y-104076753D01*
X102565541Y-104460000D01*
X96675000Y-104460000D01*
X96675000Y-104384273D01*
X96645901Y-104237982D01*
X99758883Y-101125000D01*
X102573186Y-101125000D01*
X102573186Y-101830000D01*
X102585230Y-101952285D01*
X102620899Y-102069871D01*
X102678823Y-102178239D01*
X102756776Y-102273224D01*
X102851761Y-102351177D01*
X102960129Y-102409101D01*
X103077715Y-102444770D01*
X103200000Y-102456814D01*
X106800000Y-102456814D01*
X106922285Y-102444770D01*
X107039871Y-102409101D01*
X107148239Y-102351177D01*
X107243224Y-102273224D01*
X107321177Y-102178239D01*
X107379101Y-102069871D01*
X107414770Y-101952285D01*
X107426814Y-101830000D01*
X107426814Y-99170000D01*
X107414770Y-99047715D01*
X107379101Y-98930129D01*
X107321177Y-98821761D01*
X107243224Y-98726776D01*
X107148239Y-98648823D01*
X107039871Y-98590899D01*
X106922285Y-98555230D01*
X106800000Y-98543186D01*
X103200000Y-98543186D01*
X103077715Y-98555230D01*
X102960129Y-98590899D01*
X102851761Y-98648823D01*
X102756776Y-98726776D01*
X102678823Y-98821761D01*
X102620899Y-98930129D01*
X102585230Y-99047715D01*
X102573186Y-99170000D01*
X102573186Y-99875000D01*
X99530693Y-99875000D01*
X99499999Y-99871977D01*
X99469305Y-99875000D01*
X99469296Y-99875000D01*
X99377479Y-99884043D01*
X99259666Y-99919781D01*
X99259664Y-99919782D01*
X99151087Y-99977818D01*
X99103677Y-100016727D01*
X99055920Y-100055920D01*
X99036346Y-100079771D01*
X95762018Y-103354099D01*
X95615727Y-103325000D01*
X95384273Y-103325000D01*
X95157265Y-103370155D01*
X94943429Y-103458729D01*
X94750981Y-103587318D01*
X94587318Y-103750981D01*
X94458729Y-103943429D01*
X94370155Y-104157265D01*
X94325000Y-104384273D01*
X85425000Y-104384273D01*
X85425000Y-91425000D01*
X88020874Y-91425000D01*
X88039314Y-91423184D01*
X88045501Y-91423227D01*
X88051407Y-91422648D01*
X88245504Y-91402247D01*
X88283226Y-91394504D01*
X88321073Y-91387284D01*
X88326752Y-91385569D01*
X88326758Y-91385567D01*
X88513191Y-91327856D01*
X88548666Y-91312944D01*
X88584416Y-91298500D01*
X88589656Y-91295714D01*
X88761332Y-91202889D01*
X88793275Y-91181343D01*
X88825500Y-91160256D01*
X88830099Y-91156506D01*
X88980477Y-91032102D01*
X89007631Y-91004757D01*
X89035140Y-90977819D01*
X89038917Y-90973252D01*
X89038923Y-90973246D01*
X89038927Y-90973239D01*
X89162272Y-90822004D01*
X89183559Y-90789965D01*
X89205352Y-90758137D01*
X89208174Y-90752917D01*
X89299799Y-90580595D01*
X89314469Y-90545001D01*
X89329652Y-90509577D01*
X89331407Y-90503908D01*
X89387816Y-90317072D01*
X89395295Y-90279302D01*
X89403307Y-90241609D01*
X89403927Y-90235707D01*
X89416024Y-90112331D01*
X91621589Y-90112331D01*
X91621589Y-90787669D01*
X91753341Y-91450031D01*
X92011781Y-92073962D01*
X92386979Y-92635485D01*
X92864515Y-93113021D01*
X93426038Y-93488219D01*
X94049969Y-93746659D01*
X94712331Y-93878411D01*
X95387669Y-93878411D01*
X96050031Y-93746659D01*
X96673962Y-93488219D01*
X97235485Y-93113021D01*
X97713021Y-92635485D01*
X98088219Y-92073962D01*
X98346659Y-91450031D01*
X98478411Y-90787669D01*
X98478411Y-90112331D01*
X110671589Y-90112331D01*
X110671589Y-90787669D01*
X110803341Y-91450031D01*
X111061781Y-92073962D01*
X111436979Y-92635485D01*
X111914515Y-93113021D01*
X112476038Y-93488219D01*
X113099969Y-93746659D01*
X113762331Y-93878411D01*
X114437669Y-93878411D01*
X115100031Y-93746659D01*
X115723962Y-93488219D01*
X116285485Y-93113021D01*
X116763021Y-92635485D01*
X117138219Y-92073962D01*
X117396659Y-91450031D01*
X117528411Y-90787669D01*
X117528411Y-90112331D01*
X117396659Y-89449969D01*
X117138219Y-88826038D01*
X116763021Y-88264515D01*
X116285485Y-87786979D01*
X115723962Y-87411781D01*
X115100031Y-87153341D01*
X114437669Y-87021589D01*
X113762331Y-87021589D01*
X113099969Y-87153341D01*
X112476038Y-87411781D01*
X111914515Y-87786979D01*
X111436979Y-88264515D01*
X111061781Y-88826038D01*
X110803341Y-89449969D01*
X110671589Y-90112331D01*
X98478411Y-90112331D01*
X98346659Y-89449969D01*
X98088219Y-88826038D01*
X97713021Y-88264515D01*
X97235485Y-87786979D01*
X96673962Y-87411781D01*
X96050031Y-87153341D01*
X95387669Y-87021589D01*
X94712331Y-87021589D01*
X94049969Y-87153341D01*
X93426038Y-87411781D01*
X92864515Y-87786979D01*
X92386979Y-88264515D01*
X92011781Y-88826038D01*
X91753341Y-89449969D01*
X91621589Y-90112331D01*
X89416024Y-90112331D01*
X89422972Y-90041474D01*
X89422972Y-90041464D01*
X89425000Y-90020874D01*
X89425000Y-88979126D01*
X89423184Y-88960686D01*
X89423227Y-88954499D01*
X89422648Y-88948593D01*
X89402247Y-88754496D01*
X89394502Y-88716768D01*
X89387284Y-88678927D01*
X89385568Y-88673246D01*
X89385568Y-88673244D01*
X89385566Y-88673238D01*
X89327856Y-88486808D01*
X89312938Y-88451320D01*
X89298500Y-88415584D01*
X89295714Y-88410344D01*
X89202889Y-88238667D01*
X89181359Y-88206747D01*
X89160256Y-88174499D01*
X89156505Y-88169901D01*
X89032102Y-88019523D01*
X89004774Y-87992385D01*
X88977819Y-87964860D01*
X88973247Y-87961078D01*
X88822004Y-87837728D01*
X88789960Y-87816438D01*
X88758138Y-87794648D01*
X88752917Y-87791826D01*
X88580595Y-87700201D01*
X88544990Y-87685526D01*
X88509577Y-87670348D01*
X88503909Y-87668593D01*
X88317072Y-87612184D01*
X88279294Y-87604704D01*
X88241608Y-87596693D01*
X88235707Y-87596073D01*
X88041473Y-87577028D01*
X88041464Y-87577028D01*
X88020874Y-87575000D01*
X85425000Y-87575000D01*
X85425000Y-82494774D01*
X88182003Y-82494774D01*
X88292342Y-82686670D01*
X88537448Y-82801926D01*
X88800329Y-82867149D01*
X89070883Y-82879834D01*
X89338714Y-82839492D01*
X89593527Y-82747674D01*
X89707658Y-82686670D01*
X89817997Y-82494774D01*
X89000000Y-81676777D01*
X88182003Y-82494774D01*
X85425000Y-82494774D01*
X85425000Y-81570883D01*
X87620166Y-81570883D01*
X87660508Y-81838714D01*
X87752326Y-82093527D01*
X87813330Y-82207658D01*
X88005226Y-82317997D01*
X88823223Y-81500000D01*
X89176777Y-81500000D01*
X89994774Y-82317997D01*
X90186670Y-82207658D01*
X90301926Y-81962552D01*
X90367149Y-81699671D01*
X90379834Y-81429117D01*
X90370113Y-81364574D01*
X97625000Y-81364574D01*
X97625000Y-81635426D01*
X97677841Y-81901073D01*
X97781491Y-82151307D01*
X97931968Y-82376511D01*
X98123489Y-82568032D01*
X98348693Y-82718509D01*
X98598927Y-82822159D01*
X98864574Y-82875000D01*
X99135426Y-82875000D01*
X99401073Y-82822159D01*
X99651307Y-82718509D01*
X99876511Y-82568032D01*
X99949769Y-82494774D01*
X108182003Y-82494774D01*
X108292342Y-82686670D01*
X108537448Y-82801926D01*
X108800329Y-82867149D01*
X109070883Y-82879834D01*
X109338714Y-82839492D01*
X109593527Y-82747674D01*
X109707658Y-82686670D01*
X109817997Y-82494774D01*
X109000000Y-81676777D01*
X108182003Y-82494774D01*
X99949769Y-82494774D01*
X100068032Y-82376511D01*
X100218509Y-82151307D01*
X100322159Y-81901073D01*
X100375000Y-81635426D01*
X100375000Y-81570883D01*
X107620166Y-81570883D01*
X107660508Y-81838714D01*
X107752326Y-82093527D01*
X107813330Y-82207658D01*
X108005226Y-82317997D01*
X108823223Y-81500000D01*
X109176777Y-81500000D01*
X109994774Y-82317997D01*
X110186670Y-82207658D01*
X110301926Y-81962552D01*
X110367149Y-81699671D01*
X110379834Y-81429117D01*
X110370113Y-81364574D01*
X117625000Y-81364574D01*
X117625000Y-81635426D01*
X117677841Y-81901073D01*
X117781491Y-82151307D01*
X117931968Y-82376511D01*
X118123489Y-82568032D01*
X118348693Y-82718509D01*
X118598927Y-82822159D01*
X118864574Y-82875000D01*
X119135426Y-82875000D01*
X119401073Y-82822159D01*
X119651307Y-82718509D01*
X119876511Y-82568032D01*
X120068032Y-82376511D01*
X120218509Y-82151307D01*
X120322159Y-81901073D01*
X120375000Y-81635426D01*
X120375000Y-81364574D01*
X120322159Y-81098927D01*
X120218509Y-80848693D01*
X120068032Y-80623489D01*
X119876511Y-80431968D01*
X119651307Y-80281491D01*
X119401073Y-80177841D01*
X119135426Y-80125000D01*
X118864574Y-80125000D01*
X118598927Y-80177841D01*
X118348693Y-80281491D01*
X118123489Y-80431968D01*
X117931968Y-80623489D01*
X117781491Y-80848693D01*
X117677841Y-81098927D01*
X117625000Y-81364574D01*
X110370113Y-81364574D01*
X110339492Y-81161286D01*
X110247674Y-80906473D01*
X110186670Y-80792342D01*
X109994774Y-80682003D01*
X109176777Y-81500000D01*
X108823223Y-81500000D01*
X108005226Y-80682003D01*
X107813330Y-80792342D01*
X107698074Y-81037448D01*
X107632851Y-81300329D01*
X107620166Y-81570883D01*
X100375000Y-81570883D01*
X100375000Y-81364574D01*
X100322159Y-81098927D01*
X100218509Y-80848693D01*
X100068032Y-80623489D01*
X99949769Y-80505226D01*
X108182003Y-80505226D01*
X109000000Y-81323223D01*
X109817997Y-80505226D01*
X109707658Y-80313330D01*
X109462552Y-80198074D01*
X109199671Y-80132851D01*
X108929117Y-80120166D01*
X108661286Y-80160508D01*
X108406473Y-80252326D01*
X108292342Y-80313330D01*
X108182003Y-80505226D01*
X99949769Y-80505226D01*
X99876511Y-80431968D01*
X99651307Y-80281491D01*
X99401073Y-80177841D01*
X99135426Y-80125000D01*
X98864574Y-80125000D01*
X98598927Y-80177841D01*
X98348693Y-80281491D01*
X98123489Y-80431968D01*
X97931968Y-80623489D01*
X97781491Y-80848693D01*
X97677841Y-81098927D01*
X97625000Y-81364574D01*
X90370113Y-81364574D01*
X90339492Y-81161286D01*
X90247674Y-80906473D01*
X90186670Y-80792342D01*
X89994774Y-80682003D01*
X89176777Y-81500000D01*
X88823223Y-81500000D01*
X88005226Y-80682003D01*
X87813330Y-80792342D01*
X87698074Y-81037448D01*
X87632851Y-81300329D01*
X87620166Y-81570883D01*
X85425000Y-81570883D01*
X85425000Y-80505226D01*
X88182003Y-80505226D01*
X89000000Y-81323223D01*
X89817997Y-80505226D01*
X89707658Y-80313330D01*
X89462552Y-80198074D01*
X89199671Y-80132851D01*
X88929117Y-80120166D01*
X88661286Y-80160508D01*
X88406473Y-80252326D01*
X88292342Y-80313330D01*
X88182003Y-80505226D01*
X85425000Y-80505226D01*
X85425000Y-77851868D01*
X90824909Y-77851868D01*
X90911039Y-78023299D01*
X91121991Y-78118537D01*
X91347470Y-78170791D01*
X91578811Y-78178051D01*
X91807123Y-78140040D01*
X92023632Y-78058218D01*
X92088961Y-78023299D01*
X92175091Y-77851868D01*
X91500000Y-77176777D01*
X90824909Y-77851868D01*
X85425000Y-77851868D01*
X85425000Y-77078811D01*
X90321949Y-77078811D01*
X90359960Y-77307123D01*
X90441782Y-77523632D01*
X90476701Y-77588961D01*
X90648132Y-77675091D01*
X91323223Y-77000000D01*
X91676777Y-77000000D01*
X92351868Y-77675091D01*
X92523299Y-77588961D01*
X92618537Y-77378009D01*
X92670791Y-77152530D01*
X92678051Y-76921189D01*
X92671905Y-76884273D01*
X95325000Y-76884273D01*
X95325000Y-77115727D01*
X95370155Y-77342735D01*
X95458729Y-77556571D01*
X95587318Y-77749019D01*
X95750981Y-77912682D01*
X95943429Y-78041271D01*
X96157265Y-78129845D01*
X96384273Y-78175000D01*
X96615727Y-78175000D01*
X96842735Y-78129845D01*
X97056571Y-78041271D01*
X97249019Y-77912682D01*
X97309833Y-77851868D01*
X110824909Y-77851868D01*
X110911039Y-78023299D01*
X111121991Y-78118537D01*
X111347470Y-78170791D01*
X111578811Y-78178051D01*
X111807123Y-78140040D01*
X112023632Y-78058218D01*
X112088961Y-78023299D01*
X112175091Y-77851868D01*
X111500000Y-77176777D01*
X110824909Y-77851868D01*
X97309833Y-77851868D01*
X97412682Y-77749019D01*
X97541271Y-77556571D01*
X97629845Y-77342735D01*
X97675000Y-77115727D01*
X97675000Y-77078811D01*
X110321949Y-77078811D01*
X110359960Y-77307123D01*
X110441782Y-77523632D01*
X110476701Y-77588961D01*
X110648132Y-77675091D01*
X111323223Y-77000000D01*
X111676777Y-77000000D01*
X112351868Y-77675091D01*
X112523299Y-77588961D01*
X112618537Y-77378009D01*
X112670791Y-77152530D01*
X112678051Y-76921189D01*
X112671905Y-76884273D01*
X115325000Y-76884273D01*
X115325000Y-77115727D01*
X115370155Y-77342735D01*
X115458729Y-77556571D01*
X115587318Y-77749019D01*
X115750981Y-77912682D01*
X115943429Y-78041271D01*
X116157265Y-78129845D01*
X116384273Y-78175000D01*
X116615727Y-78175000D01*
X116842735Y-78129845D01*
X117056571Y-78041271D01*
X117249019Y-77912682D01*
X117412682Y-77749019D01*
X117541271Y-77556571D01*
X117629845Y-77342735D01*
X117675000Y-77115727D01*
X117675000Y-76884273D01*
X117629845Y-76657265D01*
X117541271Y-76443429D01*
X117412682Y-76250981D01*
X117249019Y-76087318D01*
X117056571Y-75958729D01*
X116842735Y-75870155D01*
X116615727Y-75825000D01*
X116384273Y-75825000D01*
X116157265Y-75870155D01*
X115943429Y-75958729D01*
X115750981Y-76087318D01*
X115587318Y-76250981D01*
X115458729Y-76443429D01*
X115370155Y-76657265D01*
X115325000Y-76884273D01*
X112671905Y-76884273D01*
X112640040Y-76692877D01*
X112558218Y-76476368D01*
X112523299Y-76411039D01*
X112351868Y-76324909D01*
X111676777Y-77000000D01*
X111323223Y-77000000D01*
X110648132Y-76324909D01*
X110476701Y-76411039D01*
X110381463Y-76621991D01*
X110329209Y-76847470D01*
X110321949Y-77078811D01*
X97675000Y-77078811D01*
X97675000Y-76884273D01*
X97629845Y-76657265D01*
X97541271Y-76443429D01*
X97412682Y-76250981D01*
X97309833Y-76148132D01*
X110824909Y-76148132D01*
X111500000Y-76823223D01*
X112175091Y-76148132D01*
X112088961Y-75976701D01*
X111878009Y-75881463D01*
X111652530Y-75829209D01*
X111421189Y-75821949D01*
X111192877Y-75859960D01*
X110976368Y-75941782D01*
X110911039Y-75976701D01*
X110824909Y-76148132D01*
X97309833Y-76148132D01*
X97249019Y-76087318D01*
X97056571Y-75958729D01*
X96842735Y-75870155D01*
X96615727Y-75825000D01*
X96384273Y-75825000D01*
X96157265Y-75870155D01*
X95943429Y-75958729D01*
X95750981Y-76087318D01*
X95587318Y-76250981D01*
X95458729Y-76443429D01*
X95370155Y-76657265D01*
X95325000Y-76884273D01*
X92671905Y-76884273D01*
X92640040Y-76692877D01*
X92558218Y-76476368D01*
X92523299Y-76411039D01*
X92351868Y-76324909D01*
X91676777Y-77000000D01*
X91323223Y-77000000D01*
X90648132Y-76324909D01*
X90476701Y-76411039D01*
X90381463Y-76621991D01*
X90329209Y-76847470D01*
X90321949Y-77078811D01*
X85425000Y-77078811D01*
X85425000Y-76148132D01*
X90824909Y-76148132D01*
X91500000Y-76823223D01*
X92175091Y-76148132D01*
X92088961Y-75976701D01*
X91878009Y-75881463D01*
X91652530Y-75829209D01*
X91421189Y-75821949D01*
X91192877Y-75859960D01*
X90976368Y-75941782D01*
X90911039Y-75976701D01*
X90824909Y-76148132D01*
X85425000Y-76148132D01*
X85425000Y-71062331D01*
X91621589Y-71062331D01*
X91621589Y-71737669D01*
X91753341Y-72400031D01*
X92011781Y-73023962D01*
X92386979Y-73585485D01*
X92864515Y-74063021D01*
X93426038Y-74438219D01*
X94049969Y-74696659D01*
X94712331Y-74828411D01*
X95387669Y-74828411D01*
X96050031Y-74696659D01*
X96673962Y-74438219D01*
X97235485Y-74063021D01*
X97713021Y-73585485D01*
X98088219Y-73023962D01*
X98346659Y-72400031D01*
X98478411Y-71737669D01*
X98478411Y-71062331D01*
X110671589Y-71062331D01*
X110671589Y-71737669D01*
X110803341Y-72400031D01*
X111061781Y-73023962D01*
X111436979Y-73585485D01*
X111914515Y-74063021D01*
X112476038Y-74438219D01*
X113099969Y-74696659D01*
X113762331Y-74828411D01*
X114437669Y-74828411D01*
X115100031Y-74696659D01*
X115723962Y-74438219D01*
X116285485Y-74063021D01*
X116763021Y-73585485D01*
X117138219Y-73023962D01*
X117396659Y-72400031D01*
X117528411Y-71737669D01*
X117528411Y-71062331D01*
X117396659Y-70399969D01*
X117138219Y-69776038D01*
X116763021Y-69214515D01*
X116285485Y-68736979D01*
X115723962Y-68361781D01*
X115100031Y-68103341D01*
X114437669Y-67971589D01*
X113762331Y-67971589D01*
X113099969Y-68103341D01*
X112476038Y-68361781D01*
X111914515Y-68736979D01*
X111436979Y-69214515D01*
X111061781Y-69776038D01*
X110803341Y-70399969D01*
X110671589Y-71062331D01*
X98478411Y-71062331D01*
X98346659Y-70399969D01*
X98088219Y-69776038D01*
X97713021Y-69214515D01*
X97235485Y-68736979D01*
X96673962Y-68361781D01*
X96050031Y-68103341D01*
X95387669Y-67971589D01*
X94712331Y-67971589D01*
X94049969Y-68103341D01*
X93426038Y-68361781D01*
X92864515Y-68736979D01*
X92386979Y-69214515D01*
X92011781Y-69776038D01*
X91753341Y-70399969D01*
X91621589Y-71062331D01*
X85425000Y-71062331D01*
X85425000Y-50425000D01*
X129575001Y-50425000D01*
X129575000Y-122575000D01*
G04 #@! TA.AperFunction,Conductor*
D16*
G36*
X129575000Y-122575000D02*
G01*
X85425000Y-122575000D01*
X85425000Y-118494774D01*
X120182003Y-118494774D01*
X120292342Y-118686670D01*
X120537448Y-118801926D01*
X120800329Y-118867149D01*
X121070883Y-118879834D01*
X121338714Y-118839492D01*
X121593527Y-118747674D01*
X121707658Y-118686670D01*
X121817997Y-118494774D01*
X121000000Y-117676777D01*
X120182003Y-118494774D01*
X85425000Y-118494774D01*
X85425000Y-117570883D01*
X119620166Y-117570883D01*
X119660508Y-117838714D01*
X119752326Y-118093527D01*
X119813330Y-118207658D01*
X120005226Y-118317997D01*
X120823223Y-117500000D01*
X121176777Y-117500000D01*
X121994774Y-118317997D01*
X122186670Y-118207658D01*
X122301926Y-117962552D01*
X122367149Y-117699671D01*
X122379834Y-117429117D01*
X122339492Y-117161286D01*
X122247674Y-116906473D01*
X122186670Y-116792342D01*
X121994774Y-116682003D01*
X121176777Y-117500000D01*
X120823223Y-117500000D01*
X120005226Y-116682003D01*
X119813330Y-116792342D01*
X119698074Y-117037448D01*
X119632851Y-117300329D01*
X119620166Y-117570883D01*
X85425000Y-117570883D01*
X85425000Y-116505226D01*
X120182003Y-116505226D01*
X121000000Y-117323223D01*
X121817997Y-116505226D01*
X121707658Y-116313330D01*
X121462552Y-116198074D01*
X121199671Y-116132851D01*
X120929117Y-116120166D01*
X120661286Y-116160508D01*
X120406473Y-116252326D01*
X120292342Y-116313330D01*
X120182003Y-116505226D01*
X85425000Y-116505226D01*
X85425000Y-112380000D01*
X102565541Y-112380000D01*
X102603288Y-112763247D01*
X102715077Y-113131766D01*
X102896612Y-113471395D01*
X103140918Y-113769082D01*
X103438605Y-114013388D01*
X103778234Y-114194923D01*
X104146753Y-114306712D01*
X104433962Y-114335000D01*
X105566038Y-114335000D01*
X105853247Y-114306712D01*
X106221766Y-114194923D01*
X106561395Y-114013388D01*
X106859082Y-113769082D01*
X107103388Y-113471395D01*
X107284923Y-113131766D01*
X107396712Y-112763247D01*
X107434459Y-112380000D01*
X107396712Y-111996753D01*
X107284923Y-111628234D01*
X107103388Y-111288605D01*
X106859082Y-110990918D01*
X106561395Y-110746612D01*
X106221766Y-110565077D01*
X105853247Y-110453288D01*
X105566038Y-110425000D01*
X104433962Y-110425000D01*
X104146753Y-110453288D01*
X103778234Y-110565077D01*
X103438605Y-110746612D01*
X103140918Y-110990918D01*
X102896612Y-111288605D01*
X102715077Y-111628234D01*
X102603288Y-111996753D01*
X102565541Y-112380000D01*
X85425000Y-112380000D01*
X85425000Y-110351868D01*
X94824909Y-110351868D01*
X94911039Y-110523299D01*
X95121991Y-110618537D01*
X95347470Y-110670791D01*
X95578811Y-110678051D01*
X95807123Y-110640040D01*
X96023632Y-110558218D01*
X96088961Y-110523299D01*
X96175091Y-110351868D01*
X95500000Y-109676777D01*
X94824909Y-110351868D01*
X85425000Y-110351868D01*
X85425000Y-109578811D01*
X94321949Y-109578811D01*
X94359960Y-109807123D01*
X94441782Y-110023632D01*
X94476701Y-110088961D01*
X94648132Y-110175091D01*
X95323223Y-109500000D01*
X95676777Y-109500000D01*
X96351868Y-110175091D01*
X96523299Y-110088961D01*
X96618537Y-109878009D01*
X96670791Y-109652530D01*
X96678051Y-109421189D01*
X96640040Y-109192877D01*
X96558218Y-108976368D01*
X96523299Y-108911039D01*
X96351868Y-108824909D01*
X95676777Y-109500000D01*
X95323223Y-109500000D01*
X94648132Y-108824909D01*
X94476701Y-108911039D01*
X94381463Y-109121991D01*
X94329209Y-109347470D01*
X94321949Y-109578811D01*
X85425000Y-109578811D01*
X85425000Y-108648132D01*
X94824909Y-108648132D01*
X95500000Y-109323223D01*
X96175091Y-108648132D01*
X96088961Y-108476701D01*
X95963369Y-108420000D01*
X102565541Y-108420000D01*
X102603288Y-108803247D01*
X102715077Y-109171766D01*
X102896612Y-109511395D01*
X103140918Y-109809082D01*
X103438605Y-110053388D01*
X103778234Y-110234923D01*
X104146753Y-110346712D01*
X104433962Y-110375000D01*
X105566038Y-110375000D01*
X105853247Y-110346712D01*
X106221766Y-110234923D01*
X106561395Y-110053388D01*
X106859082Y-109809082D01*
X107103388Y-109511395D01*
X107284923Y-109171766D01*
X107287785Y-109162331D01*
X110671589Y-109162331D01*
X110671589Y-109837669D01*
X110803341Y-110500031D01*
X111061781Y-111123962D01*
X111436979Y-111685485D01*
X111914515Y-112163021D01*
X112476038Y-112538219D01*
X113099969Y-112796659D01*
X113762331Y-112928411D01*
X114437669Y-112928411D01*
X115100031Y-112796659D01*
X115723962Y-112538219D01*
X116285485Y-112163021D01*
X116763021Y-111685485D01*
X117138219Y-111123962D01*
X117396659Y-110500031D01*
X117528411Y-109837669D01*
X117528411Y-109162331D01*
X117396659Y-108499969D01*
X117138219Y-107876038D01*
X116763021Y-107314515D01*
X116285485Y-106836979D01*
X115723962Y-106461781D01*
X115100031Y-106203341D01*
X114437669Y-106071589D01*
X113762331Y-106071589D01*
X113099969Y-106203341D01*
X112476038Y-106461781D01*
X111914515Y-106836979D01*
X111436979Y-107314515D01*
X111061781Y-107876038D01*
X110803341Y-108499969D01*
X110671589Y-109162331D01*
X107287785Y-109162331D01*
X107323377Y-109045000D01*
X108549306Y-109045000D01*
X108580000Y-109048023D01*
X108610694Y-109045000D01*
X108610704Y-109045000D01*
X108702521Y-109035957D01*
X108820334Y-109000219D01*
X108928911Y-108942183D01*
X109024080Y-108864080D01*
X109043658Y-108840224D01*
X113532014Y-104351868D01*
X121324909Y-104351868D01*
X121411039Y-104523299D01*
X121621991Y-104618537D01*
X121847470Y-104670791D01*
X122078811Y-104678051D01*
X122307123Y-104640040D01*
X122523632Y-104558218D01*
X122588961Y-104523299D01*
X122675091Y-104351868D01*
X122000000Y-103676777D01*
X121324909Y-104351868D01*
X113532014Y-104351868D01*
X114305072Y-103578811D01*
X120821949Y-103578811D01*
X120859960Y-103807123D01*
X120941782Y-104023632D01*
X120976701Y-104088961D01*
X121148132Y-104175091D01*
X121823223Y-103500000D01*
X122176777Y-103500000D01*
X122851868Y-104175091D01*
X123023299Y-104088961D01*
X123118537Y-103878009D01*
X123170791Y-103652530D01*
X123178051Y-103421189D01*
X123140040Y-103192877D01*
X123058218Y-102976368D01*
X123023299Y-102911039D01*
X122851868Y-102824909D01*
X122176777Y-103500000D01*
X121823223Y-103500000D01*
X121148132Y-102824909D01*
X120976701Y-102911039D01*
X120881463Y-103121991D01*
X120829209Y-103347470D01*
X120821949Y-103578811D01*
X114305072Y-103578811D01*
X115235751Y-102648132D01*
X121324909Y-102648132D01*
X122000000Y-103323223D01*
X122675091Y-102648132D01*
X122588961Y-102476701D01*
X122378009Y-102381463D01*
X122152530Y-102329209D01*
X121921189Y-102321949D01*
X121692877Y-102359960D01*
X121476368Y-102441782D01*
X121411039Y-102476701D01*
X121324909Y-102648132D01*
X115235751Y-102648132D01*
X116258884Y-101625000D01*
X119469306Y-101625000D01*
X119500000Y-101628023D01*
X119530694Y-101625000D01*
X119530704Y-101625000D01*
X119622521Y-101615957D01*
X119740334Y-101580219D01*
X119848911Y-101522183D01*
X119944080Y-101444080D01*
X119963658Y-101420224D01*
X121737982Y-99645901D01*
X121884273Y-99675000D01*
X122115727Y-99675000D01*
X122342735Y-99629845D01*
X122556571Y-99541271D01*
X122749019Y-99412682D01*
X122912682Y-99249019D01*
X123041271Y-99056571D01*
X123129845Y-98842735D01*
X123175000Y-98615727D01*
X123175000Y-98384273D01*
X123129845Y-98157265D01*
X123041271Y-97943429D01*
X122912682Y-97750981D01*
X122749019Y-97587318D01*
X122556571Y-97458729D01*
X122342735Y-97370155D01*
X122115727Y-97325000D01*
X121884273Y-97325000D01*
X121657265Y-97370155D01*
X121443429Y-97458729D01*
X121250981Y-97587318D01*
X121087318Y-97750981D01*
X120958729Y-97943429D01*
X120870155Y-98157265D01*
X120825000Y-98384273D01*
X120825000Y-98615727D01*
X120854099Y-98762018D01*
X119241118Y-100375000D01*
X116030702Y-100375000D01*
X116000000Y-100371976D01*
X115969298Y-100375000D01*
X115969296Y-100375000D01*
X115877479Y-100384043D01*
X115759666Y-100419781D01*
X115709124Y-100446796D01*
X115651088Y-100477817D01*
X115579769Y-100536347D01*
X115579765Y-100536351D01*
X115555920Y-100555920D01*
X115536351Y-100579765D01*
X108321118Y-107795000D01*
X107323377Y-107795000D01*
X107284923Y-107668234D01*
X107103388Y-107328605D01*
X106859082Y-107030918D01*
X106561395Y-106786612D01*
X106221766Y-106605077D01*
X105853247Y-106493288D01*
X105566038Y-106465000D01*
X104433962Y-106465000D01*
X104146753Y-106493288D01*
X103778234Y-106605077D01*
X103438605Y-106786612D01*
X103140918Y-107030918D01*
X102896612Y-107328605D01*
X102715077Y-107668234D01*
X102603288Y-108036753D01*
X102565541Y-108420000D01*
X95963369Y-108420000D01*
X95878009Y-108381463D01*
X95652530Y-108329209D01*
X95421189Y-108321949D01*
X95192877Y-108359960D01*
X94976368Y-108441782D01*
X94911039Y-108476701D01*
X94824909Y-108648132D01*
X85425000Y-108648132D01*
X85425000Y-104384273D01*
X94325000Y-104384273D01*
X94325000Y-104615727D01*
X94370155Y-104842735D01*
X94458729Y-105056571D01*
X94587318Y-105249019D01*
X94750981Y-105412682D01*
X94943429Y-105541271D01*
X95157265Y-105629845D01*
X95384273Y-105675000D01*
X95615727Y-105675000D01*
X95842735Y-105629845D01*
X96056571Y-105541271D01*
X96249019Y-105412682D01*
X96412682Y-105249019D01*
X96541271Y-105056571D01*
X96629845Y-104842735D01*
X96675000Y-104615727D01*
X96675000Y-104460000D01*
X102565541Y-104460000D01*
X102603288Y-104843247D01*
X102715077Y-105211766D01*
X102896612Y-105551395D01*
X103140918Y-105849082D01*
X103438605Y-106093388D01*
X103778234Y-106274923D01*
X104146753Y-106386712D01*
X104433962Y-106415000D01*
X105566038Y-106415000D01*
X105853247Y-106386712D01*
X106221766Y-106274923D01*
X106561395Y-106093388D01*
X106859082Y-105849082D01*
X107103388Y-105551395D01*
X107284923Y-105211766D01*
X107396712Y-104843247D01*
X107434459Y-104460000D01*
X107396712Y-104076753D01*
X107284923Y-103708234D01*
X107103388Y-103368605D01*
X106859082Y-103070918D01*
X106561395Y-102826612D01*
X106221766Y-102645077D01*
X105853247Y-102533288D01*
X105566038Y-102505000D01*
X104433962Y-102505000D01*
X104146753Y-102533288D01*
X103778234Y-102645077D01*
X103438605Y-102826612D01*
X103140918Y-103070918D01*
X102896612Y-103368605D01*
X102715077Y-103708234D01*
X102603288Y-104076753D01*
X102565541Y-104460000D01*
X96675000Y-104460000D01*
X96675000Y-104384273D01*
X96645901Y-104237982D01*
X99758883Y-101125000D01*
X102573186Y-101125000D01*
X102573186Y-101830000D01*
X102585230Y-101952285D01*
X102620899Y-102069871D01*
X102678823Y-102178239D01*
X102756776Y-102273224D01*
X102851761Y-102351177D01*
X102960129Y-102409101D01*
X103077715Y-102444770D01*
X103200000Y-102456814D01*
X106800000Y-102456814D01*
X106922285Y-102444770D01*
X107039871Y-102409101D01*
X107148239Y-102351177D01*
X107243224Y-102273224D01*
X107321177Y-102178239D01*
X107379101Y-102069871D01*
X107414770Y-101952285D01*
X107426814Y-101830000D01*
X107426814Y-99170000D01*
X107414770Y-99047715D01*
X107379101Y-98930129D01*
X107321177Y-98821761D01*
X107243224Y-98726776D01*
X107148239Y-98648823D01*
X107039871Y-98590899D01*
X106922285Y-98555230D01*
X106800000Y-98543186D01*
X103200000Y-98543186D01*
X103077715Y-98555230D01*
X102960129Y-98590899D01*
X102851761Y-98648823D01*
X102756776Y-98726776D01*
X102678823Y-98821761D01*
X102620899Y-98930129D01*
X102585230Y-99047715D01*
X102573186Y-99170000D01*
X102573186Y-99875000D01*
X99530693Y-99875000D01*
X99499999Y-99871977D01*
X99469305Y-99875000D01*
X99469296Y-99875000D01*
X99377479Y-99884043D01*
X99259666Y-99919781D01*
X99259664Y-99919782D01*
X99151087Y-99977818D01*
X99103677Y-100016727D01*
X99055920Y-100055920D01*
X99036346Y-100079771D01*
X95762018Y-103354099D01*
X95615727Y-103325000D01*
X95384273Y-103325000D01*
X95157265Y-103370155D01*
X94943429Y-103458729D01*
X94750981Y-103587318D01*
X94587318Y-103750981D01*
X94458729Y-103943429D01*
X94370155Y-104157265D01*
X94325000Y-104384273D01*
X85425000Y-104384273D01*
X85425000Y-91425000D01*
X88020874Y-91425000D01*
X88039314Y-91423184D01*
X88045501Y-91423227D01*
X88051407Y-91422648D01*
X88245504Y-91402247D01*
X88283226Y-91394504D01*
X88321073Y-91387284D01*
X88326752Y-91385569D01*
X88326758Y-91385567D01*
X88513191Y-91327856D01*
X88548666Y-91312944D01*
X88584416Y-91298500D01*
X88589656Y-91295714D01*
X88761332Y-91202889D01*
X88793275Y-91181343D01*
X88825500Y-91160256D01*
X88830099Y-91156506D01*
X88980477Y-91032102D01*
X89007631Y-91004757D01*
X89035140Y-90977819D01*
X89038917Y-90973252D01*
X89038923Y-90973246D01*
X89038927Y-90973239D01*
X89162272Y-90822004D01*
X89183559Y-90789965D01*
X89205352Y-90758137D01*
X89208174Y-90752917D01*
X89299799Y-90580595D01*
X89314469Y-90545001D01*
X89329652Y-90509577D01*
X89331407Y-90503908D01*
X89387816Y-90317072D01*
X89395295Y-90279302D01*
X89403307Y-90241609D01*
X89403927Y-90235707D01*
X89416024Y-90112331D01*
X91621589Y-90112331D01*
X91621589Y-90787669D01*
X91753341Y-91450031D01*
X92011781Y-92073962D01*
X92386979Y-92635485D01*
X92864515Y-93113021D01*
X93426038Y-93488219D01*
X94049969Y-93746659D01*
X94712331Y-93878411D01*
X95387669Y-93878411D01*
X96050031Y-93746659D01*
X96673962Y-93488219D01*
X97235485Y-93113021D01*
X97713021Y-92635485D01*
X98088219Y-92073962D01*
X98346659Y-91450031D01*
X98478411Y-90787669D01*
X98478411Y-90112331D01*
X110671589Y-90112331D01*
X110671589Y-90787669D01*
X110803341Y-91450031D01*
X111061781Y-92073962D01*
X111436979Y-92635485D01*
X111914515Y-93113021D01*
X112476038Y-93488219D01*
X113099969Y-93746659D01*
X113762331Y-93878411D01*
X114437669Y-93878411D01*
X115100031Y-93746659D01*
X115723962Y-93488219D01*
X116285485Y-93113021D01*
X116763021Y-92635485D01*
X117138219Y-92073962D01*
X117396659Y-91450031D01*
X117528411Y-90787669D01*
X117528411Y-90112331D01*
X117396659Y-89449969D01*
X117138219Y-88826038D01*
X116763021Y-88264515D01*
X116285485Y-87786979D01*
X115723962Y-87411781D01*
X115100031Y-87153341D01*
X114437669Y-87021589D01*
X113762331Y-87021589D01*
X113099969Y-87153341D01*
X112476038Y-87411781D01*
X111914515Y-87786979D01*
X111436979Y-88264515D01*
X111061781Y-88826038D01*
X110803341Y-89449969D01*
X110671589Y-90112331D01*
X98478411Y-90112331D01*
X98346659Y-89449969D01*
X98088219Y-88826038D01*
X97713021Y-88264515D01*
X97235485Y-87786979D01*
X96673962Y-87411781D01*
X96050031Y-87153341D01*
X95387669Y-87021589D01*
X94712331Y-87021589D01*
X94049969Y-87153341D01*
X93426038Y-87411781D01*
X92864515Y-87786979D01*
X92386979Y-88264515D01*
X92011781Y-88826038D01*
X91753341Y-89449969D01*
X91621589Y-90112331D01*
X89416024Y-90112331D01*
X89422972Y-90041474D01*
X89422972Y-90041464D01*
X89425000Y-90020874D01*
X89425000Y-88979126D01*
X89423184Y-88960686D01*
X89423227Y-88954499D01*
X89422648Y-88948593D01*
X89402247Y-88754496D01*
X89394502Y-88716768D01*
X89387284Y-88678927D01*
X89385568Y-88673246D01*
X89385568Y-88673244D01*
X89385566Y-88673238D01*
X89327856Y-88486808D01*
X89312938Y-88451320D01*
X89298500Y-88415584D01*
X89295714Y-88410344D01*
X89202889Y-88238667D01*
X89181359Y-88206747D01*
X89160256Y-88174499D01*
X89156505Y-88169901D01*
X89032102Y-88019523D01*
X89004774Y-87992385D01*
X88977819Y-87964860D01*
X88973247Y-87961078D01*
X88822004Y-87837728D01*
X88789960Y-87816438D01*
X88758138Y-87794648D01*
X88752917Y-87791826D01*
X88580595Y-87700201D01*
X88544990Y-87685526D01*
X88509577Y-87670348D01*
X88503909Y-87668593D01*
X88317072Y-87612184D01*
X88279294Y-87604704D01*
X88241608Y-87596693D01*
X88235707Y-87596073D01*
X88041473Y-87577028D01*
X88041464Y-87577028D01*
X88020874Y-87575000D01*
X85425000Y-87575000D01*
X85425000Y-82494774D01*
X88182003Y-82494774D01*
X88292342Y-82686670D01*
X88537448Y-82801926D01*
X88800329Y-82867149D01*
X89070883Y-82879834D01*
X89338714Y-82839492D01*
X89593527Y-82747674D01*
X89707658Y-82686670D01*
X89817997Y-82494774D01*
X89000000Y-81676777D01*
X88182003Y-82494774D01*
X85425000Y-82494774D01*
X85425000Y-81570883D01*
X87620166Y-81570883D01*
X87660508Y-81838714D01*
X87752326Y-82093527D01*
X87813330Y-82207658D01*
X88005226Y-82317997D01*
X88823223Y-81500000D01*
X89176777Y-81500000D01*
X89994774Y-82317997D01*
X90186670Y-82207658D01*
X90301926Y-81962552D01*
X90367149Y-81699671D01*
X90379834Y-81429117D01*
X90370113Y-81364574D01*
X97625000Y-81364574D01*
X97625000Y-81635426D01*
X97677841Y-81901073D01*
X97781491Y-82151307D01*
X97931968Y-82376511D01*
X98123489Y-82568032D01*
X98348693Y-82718509D01*
X98598927Y-82822159D01*
X98864574Y-82875000D01*
X99135426Y-82875000D01*
X99401073Y-82822159D01*
X99651307Y-82718509D01*
X99876511Y-82568032D01*
X99949769Y-82494774D01*
X108182003Y-82494774D01*
X108292342Y-82686670D01*
X108537448Y-82801926D01*
X108800329Y-82867149D01*
X109070883Y-82879834D01*
X109338714Y-82839492D01*
X109593527Y-82747674D01*
X109707658Y-82686670D01*
X109817997Y-82494774D01*
X109000000Y-81676777D01*
X108182003Y-82494774D01*
X99949769Y-82494774D01*
X100068032Y-82376511D01*
X100218509Y-82151307D01*
X100322159Y-81901073D01*
X100375000Y-81635426D01*
X100375000Y-81570883D01*
X107620166Y-81570883D01*
X107660508Y-81838714D01*
X107752326Y-82093527D01*
X107813330Y-82207658D01*
X108005226Y-82317997D01*
X108823223Y-81500000D01*
X109176777Y-81500000D01*
X109994774Y-82317997D01*
X110186670Y-82207658D01*
X110301926Y-81962552D01*
X110367149Y-81699671D01*
X110379834Y-81429117D01*
X110370113Y-81364574D01*
X117625000Y-81364574D01*
X117625000Y-81635426D01*
X117677841Y-81901073D01*
X117781491Y-82151307D01*
X117931968Y-82376511D01*
X118123489Y-82568032D01*
X118348693Y-82718509D01*
X118598927Y-82822159D01*
X118864574Y-82875000D01*
X119135426Y-82875000D01*
X119401073Y-82822159D01*
X119651307Y-82718509D01*
X119876511Y-82568032D01*
X120068032Y-82376511D01*
X120218509Y-82151307D01*
X120322159Y-81901073D01*
X120375000Y-81635426D01*
X120375000Y-81364574D01*
X120322159Y-81098927D01*
X120218509Y-80848693D01*
X120068032Y-80623489D01*
X119876511Y-80431968D01*
X119651307Y-80281491D01*
X119401073Y-80177841D01*
X119135426Y-80125000D01*
X118864574Y-80125000D01*
X118598927Y-80177841D01*
X118348693Y-80281491D01*
X118123489Y-80431968D01*
X117931968Y-80623489D01*
X117781491Y-80848693D01*
X117677841Y-81098927D01*
X117625000Y-81364574D01*
X110370113Y-81364574D01*
X110339492Y-81161286D01*
X110247674Y-80906473D01*
X110186670Y-80792342D01*
X109994774Y-80682003D01*
X109176777Y-81500000D01*
X108823223Y-81500000D01*
X108005226Y-80682003D01*
X107813330Y-80792342D01*
X107698074Y-81037448D01*
X107632851Y-81300329D01*
X107620166Y-81570883D01*
X100375000Y-81570883D01*
X100375000Y-81364574D01*
X100322159Y-81098927D01*
X100218509Y-80848693D01*
X100068032Y-80623489D01*
X99949769Y-80505226D01*
X108182003Y-80505226D01*
X109000000Y-81323223D01*
X109817997Y-80505226D01*
X109707658Y-80313330D01*
X109462552Y-80198074D01*
X109199671Y-80132851D01*
X108929117Y-80120166D01*
X108661286Y-80160508D01*
X108406473Y-80252326D01*
X108292342Y-80313330D01*
X108182003Y-80505226D01*
X99949769Y-80505226D01*
X99876511Y-80431968D01*
X99651307Y-80281491D01*
X99401073Y-80177841D01*
X99135426Y-80125000D01*
X98864574Y-80125000D01*
X98598927Y-80177841D01*
X98348693Y-80281491D01*
X98123489Y-80431968D01*
X97931968Y-80623489D01*
X97781491Y-80848693D01*
X97677841Y-81098927D01*
X97625000Y-81364574D01*
X90370113Y-81364574D01*
X90339492Y-81161286D01*
X90247674Y-80906473D01*
X90186670Y-80792342D01*
X89994774Y-80682003D01*
X89176777Y-81500000D01*
X88823223Y-81500000D01*
X88005226Y-80682003D01*
X87813330Y-80792342D01*
X87698074Y-81037448D01*
X87632851Y-81300329D01*
X87620166Y-81570883D01*
X85425000Y-81570883D01*
X85425000Y-80505226D01*
X88182003Y-80505226D01*
X89000000Y-81323223D01*
X89817997Y-80505226D01*
X89707658Y-80313330D01*
X89462552Y-80198074D01*
X89199671Y-80132851D01*
X88929117Y-80120166D01*
X88661286Y-80160508D01*
X88406473Y-80252326D01*
X88292342Y-80313330D01*
X88182003Y-80505226D01*
X85425000Y-80505226D01*
X85425000Y-77851868D01*
X90824909Y-77851868D01*
X90911039Y-78023299D01*
X91121991Y-78118537D01*
X91347470Y-78170791D01*
X91578811Y-78178051D01*
X91807123Y-78140040D01*
X92023632Y-78058218D01*
X92088961Y-78023299D01*
X92175091Y-77851868D01*
X91500000Y-77176777D01*
X90824909Y-77851868D01*
X85425000Y-77851868D01*
X85425000Y-77078811D01*
X90321949Y-77078811D01*
X90359960Y-77307123D01*
X90441782Y-77523632D01*
X90476701Y-77588961D01*
X90648132Y-77675091D01*
X91323223Y-77000000D01*
X91676777Y-77000000D01*
X92351868Y-77675091D01*
X92523299Y-77588961D01*
X92618537Y-77378009D01*
X92670791Y-77152530D01*
X92678051Y-76921189D01*
X92671905Y-76884273D01*
X95325000Y-76884273D01*
X95325000Y-77115727D01*
X95370155Y-77342735D01*
X95458729Y-77556571D01*
X95587318Y-77749019D01*
X95750981Y-77912682D01*
X95943429Y-78041271D01*
X96157265Y-78129845D01*
X96384273Y-78175000D01*
X96615727Y-78175000D01*
X96842735Y-78129845D01*
X97056571Y-78041271D01*
X97249019Y-77912682D01*
X97309833Y-77851868D01*
X110824909Y-77851868D01*
X110911039Y-78023299D01*
X111121991Y-78118537D01*
X111347470Y-78170791D01*
X111578811Y-78178051D01*
X111807123Y-78140040D01*
X112023632Y-78058218D01*
X112088961Y-78023299D01*
X112175091Y-77851868D01*
X111500000Y-77176777D01*
X110824909Y-77851868D01*
X97309833Y-77851868D01*
X97412682Y-77749019D01*
X97541271Y-77556571D01*
X97629845Y-77342735D01*
X97675000Y-77115727D01*
X97675000Y-77078811D01*
X110321949Y-77078811D01*
X110359960Y-77307123D01*
X110441782Y-77523632D01*
X110476701Y-77588961D01*
X110648132Y-77675091D01*
X111323223Y-77000000D01*
X111676777Y-77000000D01*
X112351868Y-77675091D01*
X112523299Y-77588961D01*
X112618537Y-77378009D01*
X112670791Y-77152530D01*
X112678051Y-76921189D01*
X112671905Y-76884273D01*
X115325000Y-76884273D01*
X115325000Y-77115727D01*
X115370155Y-77342735D01*
X115458729Y-77556571D01*
X115587318Y-77749019D01*
X115750981Y-77912682D01*
X115943429Y-78041271D01*
X116157265Y-78129845D01*
X116384273Y-78175000D01*
X116615727Y-78175000D01*
X116842735Y-78129845D01*
X117056571Y-78041271D01*
X117249019Y-77912682D01*
X117412682Y-77749019D01*
X117541271Y-77556571D01*
X117629845Y-77342735D01*
X117675000Y-77115727D01*
X117675000Y-76884273D01*
X117629845Y-76657265D01*
X117541271Y-76443429D01*
X117412682Y-76250981D01*
X117249019Y-76087318D01*
X117056571Y-75958729D01*
X116842735Y-75870155D01*
X116615727Y-75825000D01*
X116384273Y-75825000D01*
X116157265Y-75870155D01*
X115943429Y-75958729D01*
X115750981Y-76087318D01*
X115587318Y-76250981D01*
X115458729Y-76443429D01*
X115370155Y-76657265D01*
X115325000Y-76884273D01*
X112671905Y-76884273D01*
X112640040Y-76692877D01*
X112558218Y-76476368D01*
X112523299Y-76411039D01*
X112351868Y-76324909D01*
X111676777Y-77000000D01*
X111323223Y-77000000D01*
X110648132Y-76324909D01*
X110476701Y-76411039D01*
X110381463Y-76621991D01*
X110329209Y-76847470D01*
X110321949Y-77078811D01*
X97675000Y-77078811D01*
X97675000Y-76884273D01*
X97629845Y-76657265D01*
X97541271Y-76443429D01*
X97412682Y-76250981D01*
X97309833Y-76148132D01*
X110824909Y-76148132D01*
X111500000Y-76823223D01*
X112175091Y-76148132D01*
X112088961Y-75976701D01*
X111878009Y-75881463D01*
X111652530Y-75829209D01*
X111421189Y-75821949D01*
X111192877Y-75859960D01*
X110976368Y-75941782D01*
X110911039Y-75976701D01*
X110824909Y-76148132D01*
X97309833Y-76148132D01*
X97249019Y-76087318D01*
X97056571Y-75958729D01*
X96842735Y-75870155D01*
X96615727Y-75825000D01*
X96384273Y-75825000D01*
X96157265Y-75870155D01*
X95943429Y-75958729D01*
X95750981Y-76087318D01*
X95587318Y-76250981D01*
X95458729Y-76443429D01*
X95370155Y-76657265D01*
X95325000Y-76884273D01*
X92671905Y-76884273D01*
X92640040Y-76692877D01*
X92558218Y-76476368D01*
X92523299Y-76411039D01*
X92351868Y-76324909D01*
X91676777Y-77000000D01*
X91323223Y-77000000D01*
X90648132Y-76324909D01*
X90476701Y-76411039D01*
X90381463Y-76621991D01*
X90329209Y-76847470D01*
X90321949Y-77078811D01*
X85425000Y-77078811D01*
X85425000Y-76148132D01*
X90824909Y-76148132D01*
X91500000Y-76823223D01*
X92175091Y-76148132D01*
X92088961Y-75976701D01*
X91878009Y-75881463D01*
X91652530Y-75829209D01*
X91421189Y-75821949D01*
X91192877Y-75859960D01*
X90976368Y-75941782D01*
X90911039Y-75976701D01*
X90824909Y-76148132D01*
X85425000Y-76148132D01*
X85425000Y-71062331D01*
X91621589Y-71062331D01*
X91621589Y-71737669D01*
X91753341Y-72400031D01*
X92011781Y-73023962D01*
X92386979Y-73585485D01*
X92864515Y-74063021D01*
X93426038Y-74438219D01*
X94049969Y-74696659D01*
X94712331Y-74828411D01*
X95387669Y-74828411D01*
X96050031Y-74696659D01*
X96673962Y-74438219D01*
X97235485Y-74063021D01*
X97713021Y-73585485D01*
X98088219Y-73023962D01*
X98346659Y-72400031D01*
X98478411Y-71737669D01*
X98478411Y-71062331D01*
X110671589Y-71062331D01*
X110671589Y-71737669D01*
X110803341Y-72400031D01*
X111061781Y-73023962D01*
X111436979Y-73585485D01*
X111914515Y-74063021D01*
X112476038Y-74438219D01*
X113099969Y-74696659D01*
X113762331Y-74828411D01*
X114437669Y-74828411D01*
X115100031Y-74696659D01*
X115723962Y-74438219D01*
X116285485Y-74063021D01*
X116763021Y-73585485D01*
X117138219Y-73023962D01*
X117396659Y-72400031D01*
X117528411Y-71737669D01*
X117528411Y-71062331D01*
X117396659Y-70399969D01*
X117138219Y-69776038D01*
X116763021Y-69214515D01*
X116285485Y-68736979D01*
X115723962Y-68361781D01*
X115100031Y-68103341D01*
X114437669Y-67971589D01*
X113762331Y-67971589D01*
X113099969Y-68103341D01*
X112476038Y-68361781D01*
X111914515Y-68736979D01*
X111436979Y-69214515D01*
X111061781Y-69776038D01*
X110803341Y-70399969D01*
X110671589Y-71062331D01*
X98478411Y-71062331D01*
X98346659Y-70399969D01*
X98088219Y-69776038D01*
X97713021Y-69214515D01*
X97235485Y-68736979D01*
X96673962Y-68361781D01*
X96050031Y-68103341D01*
X95387669Y-67971589D01*
X94712331Y-67971589D01*
X94049969Y-68103341D01*
X93426038Y-68361781D01*
X92864515Y-68736979D01*
X92386979Y-69214515D01*
X92011781Y-69776038D01*
X91753341Y-70399969D01*
X91621589Y-71062331D01*
X85425000Y-71062331D01*
X85425000Y-50425000D01*
X129575001Y-50425000D01*
X129575000Y-122575000D01*
G37*
G04 #@! TD.AperFunction*
M02*
