G04 #@! TF.GenerationSoftware,KiCad,Pcbnew,5.1.6*
G04 #@! TF.CreationDate,2020-09-24T11:39:39+02:00*
G04 #@! TF.ProjectId,main,6d61696e-2e6b-4696-9361-645f70636258,v1.00*
G04 #@! TF.SameCoordinates,Original*
G04 #@! TF.FileFunction,Copper,L2,Bot*
G04 #@! TF.FilePolarity,Positive*
%FSLAX46Y46*%
G04 Gerber Fmt 4.6, Leading zero omitted, Abs format (unit mm)*
G04 Created by KiCad (PCBNEW 5.1.6) date 2020-09-24 11:39:39*
%MOMM*%
%LPD*%
G01*
G04 APERTURE LIST*
G04 #@! TA.AperFunction,ComponentPad*
%ADD10C,4.000000*%
G04 #@! TD*
G04 #@! TA.AperFunction,ComponentPad*
%ADD11C,1.600000*%
G04 #@! TD*
G04 #@! TA.AperFunction,ComponentPad*
%ADD12C,2.000000*%
G04 #@! TD*
G04 #@! TA.AperFunction,ComponentPad*
%ADD13O,4.100000X3.160000*%
G04 #@! TD*
G04 #@! TA.AperFunction,ViaPad*
%ADD14C,0.600000*%
G04 #@! TD*
G04 #@! TA.AperFunction,Conductor*
%ADD15C,0.500000*%
G04 #@! TD*
G04 #@! TA.AperFunction,Conductor*
%ADD16C,0.250000*%
G04 #@! TD*
G04 APERTURE END LIST*
D10*
X166000000Y-137500000D03*
D11*
X140500000Y-129500000D03*
X140500000Y-124500000D03*
X167000000Y-123500000D03*
X167000000Y-118500000D03*
D12*
X144000000Y-101500000D03*
X134000000Y-101500000D03*
X154000000Y-101500000D03*
X164000000Y-101500000D03*
G04 #@! TA.AperFunction,ComponentPad*
G36*
G01*
X148700000Y-118920000D02*
X152300000Y-118920000D01*
G75*
G02*
X152550000Y-119170000I0J-250000D01*
G01*
X152550000Y-121830000D01*
G75*
G02*
X152300000Y-122080000I-250000J0D01*
G01*
X148700000Y-122080000D01*
G75*
G02*
X148450000Y-121830000I0J250000D01*
G01*
X148450000Y-119170000D01*
G75*
G02*
X148700000Y-118920000I250000J0D01*
G01*
G37*
G04 #@! TD.AperFunction*
D13*
X150500000Y-124460000D03*
X150500000Y-128420000D03*
X150500000Y-132380000D03*
D11*
X141500000Y-97000000D03*
X136500000Y-97000000D03*
X156500000Y-97000000D03*
X161500000Y-97000000D03*
D14*
X174000000Y-134000000D03*
X172000000Y-134000000D03*
X170000000Y-134000000D03*
X168000000Y-134000000D03*
X166000000Y-134000000D03*
X172000000Y-132000000D03*
X166000000Y-132000000D03*
X168000000Y-132000000D03*
X174000000Y-132000000D03*
X170000000Y-132000000D03*
X172000000Y-130000000D03*
X174000000Y-130000000D03*
X166000000Y-130000000D03*
X170000000Y-128000000D03*
X168000000Y-128000000D03*
X166000000Y-128000000D03*
X172000000Y-128000000D03*
X174000000Y-128000000D03*
X172000000Y-126000000D03*
X166000000Y-126000000D03*
X174000000Y-126000000D03*
X170000000Y-126000000D03*
X168000000Y-126000000D03*
D15*
X153580000Y-128420000D02*
X161000000Y-121000000D01*
X164500000Y-121000000D02*
X167000000Y-118500000D01*
X161000000Y-121000000D02*
X164500000Y-121000000D01*
X150500000Y-128420000D02*
X153580000Y-128420000D01*
X144500000Y-120500000D02*
X140500000Y-124500000D01*
X150500000Y-120500000D02*
X144500000Y-120500000D01*
D16*
G36*
X174675000Y-142675000D02*
G01*
X130325000Y-142675000D01*
X130325000Y-139364547D01*
X164665784Y-139364547D01*
X164918063Y-139627147D01*
X165353838Y-139797350D01*
X165814445Y-139879267D01*
X166282182Y-139869750D01*
X166739076Y-139769164D01*
X167081937Y-139627147D01*
X167334216Y-139364547D01*
X166000000Y-138030330D01*
X164665784Y-139364547D01*
X130325000Y-139364547D01*
X130325000Y-137314445D01*
X163620733Y-137314445D01*
X163630250Y-137782182D01*
X163730836Y-138239076D01*
X163872853Y-138581937D01*
X164135453Y-138834216D01*
X165469670Y-137500000D01*
X166530330Y-137500000D01*
X167864547Y-138834216D01*
X168127147Y-138581937D01*
X168297350Y-138146162D01*
X168379267Y-137685555D01*
X168369750Y-137217818D01*
X168269164Y-136760924D01*
X168127147Y-136418063D01*
X167864547Y-136165784D01*
X166530330Y-137500000D01*
X165469670Y-137500000D01*
X164135453Y-136165784D01*
X163872853Y-136418063D01*
X163702650Y-136853838D01*
X163620733Y-137314445D01*
X130325000Y-137314445D01*
X130325000Y-135635453D01*
X164665784Y-135635453D01*
X166000000Y-136969670D01*
X167334216Y-135635453D01*
X167081937Y-135372853D01*
X166646162Y-135202650D01*
X166185555Y-135120733D01*
X165717818Y-135130250D01*
X165260924Y-135230836D01*
X164918063Y-135372853D01*
X164665784Y-135635453D01*
X130325000Y-135635453D01*
X130325000Y-132380000D01*
X148166025Y-132380000D01*
X148201841Y-132743643D01*
X148307912Y-133093312D01*
X148480161Y-133415569D01*
X148711971Y-133698029D01*
X148994431Y-133929839D01*
X149316688Y-134102088D01*
X149666357Y-134208159D01*
X149938876Y-134235000D01*
X151061124Y-134235000D01*
X151333643Y-134208159D01*
X151683312Y-134102088D01*
X152005569Y-133929839D01*
X152288029Y-133698029D01*
X152519839Y-133415569D01*
X152692088Y-133093312D01*
X152798159Y-132743643D01*
X152833975Y-132380000D01*
X152798159Y-132016357D01*
X152692088Y-131666688D01*
X152519839Y-131344431D01*
X152288029Y-131061971D01*
X152005569Y-130830161D01*
X151683312Y-130657912D01*
X151333643Y-130551841D01*
X151061124Y-130525000D01*
X149938876Y-130525000D01*
X149666357Y-130551841D01*
X149316688Y-130657912D01*
X148994431Y-130830161D01*
X148711971Y-131061971D01*
X148480161Y-131344431D01*
X148307912Y-131666688D01*
X148201841Y-132016357D01*
X148166025Y-132380000D01*
X130325000Y-132380000D01*
X130325000Y-130486553D01*
X140043777Y-130486553D01*
X140145326Y-130626155D01*
X140371843Y-130673710D01*
X140603284Y-130676159D01*
X140830757Y-130633409D01*
X140854674Y-130626155D01*
X140956223Y-130486553D01*
X140500000Y-130030330D01*
X140043777Y-130486553D01*
X130325000Y-130486553D01*
X130325000Y-129603284D01*
X139323841Y-129603284D01*
X139366591Y-129830757D01*
X139373845Y-129854674D01*
X139513447Y-129956223D01*
X139969670Y-129500000D01*
X141030330Y-129500000D01*
X141486553Y-129956223D01*
X141626155Y-129854674D01*
X141673710Y-129628157D01*
X141676159Y-129396716D01*
X141633409Y-129169243D01*
X141626155Y-129145326D01*
X141486553Y-129043777D01*
X141030330Y-129500000D01*
X139969670Y-129500000D01*
X139513447Y-129043777D01*
X139373845Y-129145326D01*
X139326290Y-129371843D01*
X139323841Y-129603284D01*
X130325000Y-129603284D01*
X130325000Y-128513447D01*
X140043777Y-128513447D01*
X140500000Y-128969670D01*
X140956223Y-128513447D01*
X140888248Y-128420000D01*
X148166025Y-128420000D01*
X148201841Y-128783643D01*
X148307912Y-129133312D01*
X148480161Y-129455569D01*
X148711971Y-129738029D01*
X148994431Y-129969839D01*
X149316688Y-130142088D01*
X149666357Y-130248159D01*
X149938876Y-130275000D01*
X151061124Y-130275000D01*
X151333643Y-130248159D01*
X151683312Y-130142088D01*
X152005569Y-129969839D01*
X152288029Y-129738029D01*
X152519839Y-129455569D01*
X152671337Y-129172133D01*
X155771107Y-129172133D01*
X155771107Y-129827867D01*
X155899035Y-130471002D01*
X156149973Y-131076822D01*
X156514280Y-131622046D01*
X156977954Y-132085720D01*
X157523178Y-132450027D01*
X158128998Y-132700965D01*
X158772133Y-132828893D01*
X159427867Y-132828893D01*
X160071002Y-132700965D01*
X160676822Y-132450027D01*
X161222046Y-132085720D01*
X161685720Y-131622046D01*
X162050027Y-131076822D01*
X162300965Y-130471002D01*
X162428893Y-129827867D01*
X162428893Y-129172133D01*
X162300965Y-128528998D01*
X162050027Y-127923178D01*
X161685720Y-127377954D01*
X161222046Y-126914280D01*
X160676822Y-126549973D01*
X160071002Y-126299035D01*
X159427867Y-126171107D01*
X158772133Y-126171107D01*
X158128998Y-126299035D01*
X157523178Y-126549973D01*
X156977954Y-126914280D01*
X156514280Y-127377954D01*
X156149973Y-127923178D01*
X155899035Y-128528998D01*
X155771107Y-129172133D01*
X152671337Y-129172133D01*
X152692088Y-129133312D01*
X152749212Y-128945000D01*
X153554220Y-128945000D01*
X153580000Y-128947539D01*
X153605780Y-128945000D01*
X153605788Y-128945000D01*
X153682918Y-128937403D01*
X153781881Y-128907383D01*
X153873086Y-128858633D01*
X153953027Y-128793027D01*
X153969471Y-128772990D01*
X158255908Y-124486553D01*
X166543777Y-124486553D01*
X166645326Y-124626155D01*
X166871843Y-124673710D01*
X167103284Y-124676159D01*
X167330757Y-124633409D01*
X167354674Y-124626155D01*
X167456223Y-124486553D01*
X167000000Y-124030330D01*
X166543777Y-124486553D01*
X158255908Y-124486553D01*
X159139177Y-123603284D01*
X165823841Y-123603284D01*
X165866591Y-123830757D01*
X165873845Y-123854674D01*
X166013447Y-123956223D01*
X166469670Y-123500000D01*
X167530330Y-123500000D01*
X167986553Y-123956223D01*
X168126155Y-123854674D01*
X168173710Y-123628157D01*
X168176159Y-123396716D01*
X168133409Y-123169243D01*
X168126155Y-123145326D01*
X167986553Y-123043777D01*
X167530330Y-123500000D01*
X166469670Y-123500000D01*
X166013447Y-123043777D01*
X165873845Y-123145326D01*
X165826290Y-123371843D01*
X165823841Y-123603284D01*
X159139177Y-123603284D01*
X160229014Y-122513447D01*
X166543777Y-122513447D01*
X167000000Y-122969670D01*
X167456223Y-122513447D01*
X167354674Y-122373845D01*
X167128157Y-122326290D01*
X166896716Y-122323841D01*
X166669243Y-122366591D01*
X166645326Y-122373845D01*
X166543777Y-122513447D01*
X160229014Y-122513447D01*
X161217462Y-121525000D01*
X164474220Y-121525000D01*
X164500000Y-121527539D01*
X164525780Y-121525000D01*
X164525788Y-121525000D01*
X164602918Y-121517403D01*
X164701881Y-121487383D01*
X164793086Y-121438633D01*
X164873027Y-121373027D01*
X164889471Y-121352990D01*
X166705067Y-119537394D01*
X166894122Y-119575000D01*
X167105878Y-119575000D01*
X167313566Y-119533688D01*
X167509203Y-119452652D01*
X167685272Y-119335007D01*
X167835007Y-119185272D01*
X167952652Y-119009203D01*
X168033688Y-118813566D01*
X168075000Y-118605878D01*
X168075000Y-118394122D01*
X168033688Y-118186434D01*
X167952652Y-117990797D01*
X167835007Y-117814728D01*
X167685272Y-117664993D01*
X167509203Y-117547348D01*
X167313566Y-117466312D01*
X167105878Y-117425000D01*
X166894122Y-117425000D01*
X166686434Y-117466312D01*
X166490797Y-117547348D01*
X166314728Y-117664993D01*
X166164993Y-117814728D01*
X166047348Y-117990797D01*
X165966312Y-118186434D01*
X165925000Y-118394122D01*
X165925000Y-118605878D01*
X165962606Y-118794933D01*
X164282539Y-120475000D01*
X161025788Y-120475000D01*
X161000000Y-120472460D01*
X160974212Y-120475000D01*
X160897082Y-120482597D01*
X160798119Y-120512617D01*
X160706914Y-120561367D01*
X160626973Y-120626973D01*
X160610534Y-120647004D01*
X153362539Y-127895000D01*
X152749212Y-127895000D01*
X152692088Y-127706688D01*
X152519839Y-127384431D01*
X152288029Y-127101971D01*
X152005569Y-126870161D01*
X151683312Y-126697912D01*
X151333643Y-126591841D01*
X151061124Y-126565000D01*
X149938876Y-126565000D01*
X149666357Y-126591841D01*
X149316688Y-126697912D01*
X148994431Y-126870161D01*
X148711971Y-127101971D01*
X148480161Y-127384431D01*
X148307912Y-127706688D01*
X148201841Y-128056357D01*
X148166025Y-128420000D01*
X140888248Y-128420000D01*
X140854674Y-128373845D01*
X140628157Y-128326290D01*
X140396716Y-128323841D01*
X140169243Y-128366591D01*
X140145326Y-128373845D01*
X140043777Y-128513447D01*
X130325000Y-128513447D01*
X130325000Y-124394122D01*
X139425000Y-124394122D01*
X139425000Y-124605878D01*
X139466312Y-124813566D01*
X139547348Y-125009203D01*
X139664993Y-125185272D01*
X139814728Y-125335007D01*
X139990797Y-125452652D01*
X140186434Y-125533688D01*
X140394122Y-125575000D01*
X140605878Y-125575000D01*
X140813566Y-125533688D01*
X141009203Y-125452652D01*
X141185272Y-125335007D01*
X141335007Y-125185272D01*
X141452652Y-125009203D01*
X141533688Y-124813566D01*
X141575000Y-124605878D01*
X141575000Y-124460000D01*
X148166025Y-124460000D01*
X148201841Y-124823643D01*
X148307912Y-125173312D01*
X148480161Y-125495569D01*
X148711971Y-125778029D01*
X148994431Y-126009839D01*
X149316688Y-126182088D01*
X149666357Y-126288159D01*
X149938876Y-126315000D01*
X151061124Y-126315000D01*
X151333643Y-126288159D01*
X151683312Y-126182088D01*
X152005569Y-126009839D01*
X152288029Y-125778029D01*
X152519839Y-125495569D01*
X152692088Y-125173312D01*
X152798159Y-124823643D01*
X152833975Y-124460000D01*
X152798159Y-124096357D01*
X152692088Y-123746688D01*
X152519839Y-123424431D01*
X152288029Y-123141971D01*
X152005569Y-122910161D01*
X151683312Y-122737912D01*
X151333643Y-122631841D01*
X151061124Y-122605000D01*
X149938876Y-122605000D01*
X149666357Y-122631841D01*
X149316688Y-122737912D01*
X148994431Y-122910161D01*
X148711971Y-123141971D01*
X148480161Y-123424431D01*
X148307912Y-123746688D01*
X148201841Y-124096357D01*
X148166025Y-124460000D01*
X141575000Y-124460000D01*
X141575000Y-124394122D01*
X141537394Y-124205067D01*
X144717462Y-121025000D01*
X148173670Y-121025000D01*
X148173670Y-121830000D01*
X148183783Y-121932682D01*
X148213734Y-122031418D01*
X148262373Y-122122413D01*
X148327828Y-122202172D01*
X148407587Y-122267627D01*
X148498582Y-122316266D01*
X148597318Y-122346217D01*
X148700000Y-122356330D01*
X152300000Y-122356330D01*
X152402682Y-122346217D01*
X152501418Y-122316266D01*
X152592413Y-122267627D01*
X152672172Y-122202172D01*
X152737627Y-122122413D01*
X152786266Y-122031418D01*
X152816217Y-121932682D01*
X152826330Y-121830000D01*
X152826330Y-119170000D01*
X152816217Y-119067318D01*
X152786266Y-118968582D01*
X152737627Y-118877587D01*
X152672172Y-118797828D01*
X152592413Y-118732373D01*
X152501418Y-118683734D01*
X152402682Y-118653783D01*
X152300000Y-118643670D01*
X148700000Y-118643670D01*
X148597318Y-118653783D01*
X148498582Y-118683734D01*
X148407587Y-118732373D01*
X148327828Y-118797828D01*
X148262373Y-118877587D01*
X148213734Y-118968582D01*
X148183783Y-119067318D01*
X148173670Y-119170000D01*
X148173670Y-119975000D01*
X144525779Y-119975000D01*
X144499999Y-119972461D01*
X144474219Y-119975000D01*
X144474212Y-119975000D01*
X144397082Y-119982597D01*
X144298119Y-120012617D01*
X144206914Y-120061367D01*
X144126973Y-120126973D01*
X144110534Y-120147004D01*
X140794933Y-123462606D01*
X140605878Y-123425000D01*
X140394122Y-123425000D01*
X140186434Y-123466312D01*
X139990797Y-123547348D01*
X139814728Y-123664993D01*
X139664993Y-123814728D01*
X139547348Y-123990797D01*
X139466312Y-124186434D01*
X139425000Y-124394122D01*
X130325000Y-124394122D01*
X130325000Y-110122133D01*
X136721107Y-110122133D01*
X136721107Y-110777867D01*
X136849035Y-111421002D01*
X137099973Y-112026822D01*
X137464280Y-112572046D01*
X137927954Y-113035720D01*
X138473178Y-113400027D01*
X139078998Y-113650965D01*
X139722133Y-113778893D01*
X140377867Y-113778893D01*
X141021002Y-113650965D01*
X141626822Y-113400027D01*
X142172046Y-113035720D01*
X142635720Y-112572046D01*
X143000027Y-112026822D01*
X143250965Y-111421002D01*
X143378893Y-110777867D01*
X143378893Y-110122133D01*
X155771107Y-110122133D01*
X155771107Y-110777867D01*
X155899035Y-111421002D01*
X156149973Y-112026822D01*
X156514280Y-112572046D01*
X156977954Y-113035720D01*
X157523178Y-113400027D01*
X158128998Y-113650965D01*
X158772133Y-113778893D01*
X159427867Y-113778893D01*
X160071002Y-113650965D01*
X160676822Y-113400027D01*
X161222046Y-113035720D01*
X161685720Y-112572046D01*
X162050027Y-112026822D01*
X162300965Y-111421002D01*
X162428893Y-110777867D01*
X162428893Y-110122133D01*
X162300965Y-109478998D01*
X162050027Y-108873178D01*
X161685720Y-108327954D01*
X161222046Y-107864280D01*
X160676822Y-107499973D01*
X160071002Y-107249035D01*
X159427867Y-107121107D01*
X158772133Y-107121107D01*
X158128998Y-107249035D01*
X157523178Y-107499973D01*
X156977954Y-107864280D01*
X156514280Y-108327954D01*
X156149973Y-108873178D01*
X155899035Y-109478998D01*
X155771107Y-110122133D01*
X143378893Y-110122133D01*
X143250965Y-109478998D01*
X143000027Y-108873178D01*
X142635720Y-108327954D01*
X142172046Y-107864280D01*
X141626822Y-107499973D01*
X141021002Y-107249035D01*
X140377867Y-107121107D01*
X139722133Y-107121107D01*
X139078998Y-107249035D01*
X138473178Y-107499973D01*
X137927954Y-107864280D01*
X137464280Y-108327954D01*
X137099973Y-108873178D01*
X136849035Y-109478998D01*
X136721107Y-110122133D01*
X130325000Y-110122133D01*
X130325000Y-109825000D01*
X133015961Y-109825000D01*
X133030229Y-109823595D01*
X133036437Y-109823638D01*
X133040954Y-109823196D01*
X133235051Y-109802795D01*
X133263938Y-109796865D01*
X133292838Y-109791352D01*
X133297183Y-109790041D01*
X133483621Y-109732329D01*
X133510810Y-109720900D01*
X133538086Y-109709879D01*
X133542093Y-109707749D01*
X133713770Y-109614924D01*
X133738192Y-109598451D01*
X133762839Y-109582322D01*
X133766356Y-109579454D01*
X133916734Y-109455051D01*
X133937498Y-109434141D01*
X133958535Y-109413540D01*
X133961428Y-109410044D01*
X134084778Y-109258802D01*
X134101096Y-109234241D01*
X134117720Y-109209962D01*
X134119879Y-109205970D01*
X134211504Y-109033648D01*
X134222725Y-109006424D01*
X134234333Y-108979340D01*
X134235675Y-108975005D01*
X134292084Y-108788169D01*
X134297809Y-108759253D01*
X134303929Y-108730462D01*
X134304404Y-108725949D01*
X134323449Y-108531715D01*
X134323449Y-108531708D01*
X134325000Y-108515961D01*
X134325000Y-107484039D01*
X134323595Y-107469771D01*
X134323638Y-107463563D01*
X134323195Y-107459046D01*
X134302795Y-107264949D01*
X134296865Y-107236062D01*
X134291352Y-107207162D01*
X134290041Y-107202817D01*
X134232329Y-107016379D01*
X134220900Y-106989190D01*
X134209879Y-106961914D01*
X134207749Y-106957906D01*
X134114924Y-106786230D01*
X134098447Y-106761803D01*
X134082322Y-106737160D01*
X134079454Y-106733643D01*
X133955050Y-106583266D01*
X133934160Y-106562521D01*
X133913540Y-106541465D01*
X133910044Y-106538572D01*
X133758802Y-106415222D01*
X133734257Y-106398915D01*
X133709962Y-106382280D01*
X133705970Y-106380121D01*
X133533648Y-106288496D01*
X133506453Y-106277287D01*
X133479340Y-106265667D01*
X133475005Y-106264325D01*
X133288169Y-106207916D01*
X133259285Y-106202197D01*
X133230462Y-106196071D01*
X133225948Y-106195596D01*
X133031715Y-106176551D01*
X133031708Y-106176551D01*
X133015961Y-106175000D01*
X130325000Y-106175000D01*
X130325000Y-102636391D01*
X133393939Y-102636391D01*
X133521751Y-102796241D01*
X133783825Y-102864635D01*
X134054205Y-102880588D01*
X134322504Y-102843485D01*
X134478249Y-102796241D01*
X134606061Y-102636391D01*
X134000000Y-102030330D01*
X133393939Y-102636391D01*
X130325000Y-102636391D01*
X130325000Y-101554205D01*
X132619412Y-101554205D01*
X132656515Y-101822504D01*
X132703759Y-101978249D01*
X132863609Y-102106061D01*
X133469670Y-101500000D01*
X134530330Y-101500000D01*
X135136391Y-102106061D01*
X135296241Y-101978249D01*
X135364635Y-101716175D01*
X135380588Y-101445795D01*
X135370718Y-101374423D01*
X142725000Y-101374423D01*
X142725000Y-101625577D01*
X142773998Y-101871904D01*
X142870110Y-102103939D01*
X143009643Y-102312765D01*
X143187235Y-102490357D01*
X143396061Y-102629890D01*
X143628096Y-102726002D01*
X143874423Y-102775000D01*
X144125577Y-102775000D01*
X144371904Y-102726002D01*
X144588244Y-102636391D01*
X153393939Y-102636391D01*
X153521751Y-102796241D01*
X153783825Y-102864635D01*
X154054205Y-102880588D01*
X154322504Y-102843485D01*
X154478249Y-102796241D01*
X154606061Y-102636391D01*
X154000000Y-102030330D01*
X153393939Y-102636391D01*
X144588244Y-102636391D01*
X144603939Y-102629890D01*
X144812765Y-102490357D01*
X144990357Y-102312765D01*
X145129890Y-102103939D01*
X145226002Y-101871904D01*
X145275000Y-101625577D01*
X145275000Y-101554205D01*
X152619412Y-101554205D01*
X152656515Y-101822504D01*
X152703759Y-101978249D01*
X152863609Y-102106061D01*
X153469670Y-101500000D01*
X154530330Y-101500000D01*
X155136391Y-102106061D01*
X155296241Y-101978249D01*
X155364635Y-101716175D01*
X155380588Y-101445795D01*
X155370718Y-101374423D01*
X162725000Y-101374423D01*
X162725000Y-101625577D01*
X162773998Y-101871904D01*
X162870110Y-102103939D01*
X163009643Y-102312765D01*
X163187235Y-102490357D01*
X163396061Y-102629890D01*
X163628096Y-102726002D01*
X163874423Y-102775000D01*
X164125577Y-102775000D01*
X164371904Y-102726002D01*
X164603939Y-102629890D01*
X164812765Y-102490357D01*
X164990357Y-102312765D01*
X165129890Y-102103939D01*
X165226002Y-101871904D01*
X165275000Y-101625577D01*
X165275000Y-101374423D01*
X165226002Y-101128096D01*
X165129890Y-100896061D01*
X164990357Y-100687235D01*
X164812765Y-100509643D01*
X164603939Y-100370110D01*
X164371904Y-100273998D01*
X164125577Y-100225000D01*
X163874423Y-100225000D01*
X163628096Y-100273998D01*
X163396061Y-100370110D01*
X163187235Y-100509643D01*
X163009643Y-100687235D01*
X162870110Y-100896061D01*
X162773998Y-101128096D01*
X162725000Y-101374423D01*
X155370718Y-101374423D01*
X155343485Y-101177496D01*
X155296241Y-101021751D01*
X155136391Y-100893939D01*
X154530330Y-101500000D01*
X153469670Y-101500000D01*
X152863609Y-100893939D01*
X152703759Y-101021751D01*
X152635365Y-101283825D01*
X152619412Y-101554205D01*
X145275000Y-101554205D01*
X145275000Y-101374423D01*
X145226002Y-101128096D01*
X145129890Y-100896061D01*
X144990357Y-100687235D01*
X144812765Y-100509643D01*
X144603939Y-100370110D01*
X144588245Y-100363609D01*
X153393939Y-100363609D01*
X154000000Y-100969670D01*
X154606061Y-100363609D01*
X154478249Y-100203759D01*
X154216175Y-100135365D01*
X153945795Y-100119412D01*
X153677496Y-100156515D01*
X153521751Y-100203759D01*
X153393939Y-100363609D01*
X144588245Y-100363609D01*
X144371904Y-100273998D01*
X144125577Y-100225000D01*
X143874423Y-100225000D01*
X143628096Y-100273998D01*
X143396061Y-100370110D01*
X143187235Y-100509643D01*
X143009643Y-100687235D01*
X142870110Y-100896061D01*
X142773998Y-101128096D01*
X142725000Y-101374423D01*
X135370718Y-101374423D01*
X135343485Y-101177496D01*
X135296241Y-101021751D01*
X135136391Y-100893939D01*
X134530330Y-101500000D01*
X133469670Y-101500000D01*
X132863609Y-100893939D01*
X132703759Y-101021751D01*
X132635365Y-101283825D01*
X132619412Y-101554205D01*
X130325000Y-101554205D01*
X130325000Y-100363609D01*
X133393939Y-100363609D01*
X134000000Y-100969670D01*
X134606061Y-100363609D01*
X134478249Y-100203759D01*
X134216175Y-100135365D01*
X133945795Y-100119412D01*
X133677496Y-100156515D01*
X133521751Y-100203759D01*
X133393939Y-100363609D01*
X130325000Y-100363609D01*
X130325000Y-97986553D01*
X136043777Y-97986553D01*
X136145326Y-98126155D01*
X136371843Y-98173710D01*
X136603284Y-98176159D01*
X136830757Y-98133409D01*
X136854674Y-98126155D01*
X136956223Y-97986553D01*
X136500000Y-97530330D01*
X136043777Y-97986553D01*
X130325000Y-97986553D01*
X130325000Y-97103284D01*
X135323841Y-97103284D01*
X135366591Y-97330757D01*
X135373845Y-97354674D01*
X135513447Y-97456223D01*
X135969670Y-97000000D01*
X137030330Y-97000000D01*
X137486553Y-97456223D01*
X137626155Y-97354674D01*
X137673710Y-97128157D01*
X137676159Y-96896716D01*
X137675672Y-96894122D01*
X140425000Y-96894122D01*
X140425000Y-97105878D01*
X140466312Y-97313566D01*
X140547348Y-97509203D01*
X140664993Y-97685272D01*
X140814728Y-97835007D01*
X140990797Y-97952652D01*
X141186434Y-98033688D01*
X141394122Y-98075000D01*
X141605878Y-98075000D01*
X141813566Y-98033688D01*
X141927359Y-97986553D01*
X156043777Y-97986553D01*
X156145326Y-98126155D01*
X156371843Y-98173710D01*
X156603284Y-98176159D01*
X156830757Y-98133409D01*
X156854674Y-98126155D01*
X156956223Y-97986553D01*
X156500000Y-97530330D01*
X156043777Y-97986553D01*
X141927359Y-97986553D01*
X142009203Y-97952652D01*
X142185272Y-97835007D01*
X142335007Y-97685272D01*
X142452652Y-97509203D01*
X142533688Y-97313566D01*
X142575000Y-97105878D01*
X142575000Y-97103284D01*
X155323841Y-97103284D01*
X155366591Y-97330757D01*
X155373845Y-97354674D01*
X155513447Y-97456223D01*
X155969670Y-97000000D01*
X157030330Y-97000000D01*
X157486553Y-97456223D01*
X157626155Y-97354674D01*
X157673710Y-97128157D01*
X157676159Y-96896716D01*
X157675672Y-96894122D01*
X160425000Y-96894122D01*
X160425000Y-97105878D01*
X160466312Y-97313566D01*
X160547348Y-97509203D01*
X160664993Y-97685272D01*
X160814728Y-97835007D01*
X160990797Y-97952652D01*
X161186434Y-98033688D01*
X161394122Y-98075000D01*
X161605878Y-98075000D01*
X161813566Y-98033688D01*
X162009203Y-97952652D01*
X162185272Y-97835007D01*
X162335007Y-97685272D01*
X162452652Y-97509203D01*
X162533688Y-97313566D01*
X162575000Y-97105878D01*
X162575000Y-96894122D01*
X162533688Y-96686434D01*
X162452652Y-96490797D01*
X162335007Y-96314728D01*
X162185272Y-96164993D01*
X162009203Y-96047348D01*
X161813566Y-95966312D01*
X161605878Y-95925000D01*
X161394122Y-95925000D01*
X161186434Y-95966312D01*
X160990797Y-96047348D01*
X160814728Y-96164993D01*
X160664993Y-96314728D01*
X160547348Y-96490797D01*
X160466312Y-96686434D01*
X160425000Y-96894122D01*
X157675672Y-96894122D01*
X157633409Y-96669243D01*
X157626155Y-96645326D01*
X157486553Y-96543777D01*
X157030330Y-97000000D01*
X155969670Y-97000000D01*
X155513447Y-96543777D01*
X155373845Y-96645326D01*
X155326290Y-96871843D01*
X155323841Y-97103284D01*
X142575000Y-97103284D01*
X142575000Y-96894122D01*
X142533688Y-96686434D01*
X142452652Y-96490797D01*
X142335007Y-96314728D01*
X142185272Y-96164993D01*
X142009203Y-96047348D01*
X141927360Y-96013447D01*
X156043777Y-96013447D01*
X156500000Y-96469670D01*
X156956223Y-96013447D01*
X156854674Y-95873845D01*
X156628157Y-95826290D01*
X156396716Y-95823841D01*
X156169243Y-95866591D01*
X156145326Y-95873845D01*
X156043777Y-96013447D01*
X141927360Y-96013447D01*
X141813566Y-95966312D01*
X141605878Y-95925000D01*
X141394122Y-95925000D01*
X141186434Y-95966312D01*
X140990797Y-96047348D01*
X140814728Y-96164993D01*
X140664993Y-96314728D01*
X140547348Y-96490797D01*
X140466312Y-96686434D01*
X140425000Y-96894122D01*
X137675672Y-96894122D01*
X137633409Y-96669243D01*
X137626155Y-96645326D01*
X137486553Y-96543777D01*
X137030330Y-97000000D01*
X135969670Y-97000000D01*
X135513447Y-96543777D01*
X135373845Y-96645326D01*
X135326290Y-96871843D01*
X135323841Y-97103284D01*
X130325000Y-97103284D01*
X130325000Y-96013447D01*
X136043777Y-96013447D01*
X136500000Y-96469670D01*
X136956223Y-96013447D01*
X136854674Y-95873845D01*
X136628157Y-95826290D01*
X136396716Y-95823841D01*
X136169243Y-95866591D01*
X136145326Y-95873845D01*
X136043777Y-96013447D01*
X130325000Y-96013447D01*
X130325000Y-91072133D01*
X136721107Y-91072133D01*
X136721107Y-91727867D01*
X136849035Y-92371002D01*
X137099973Y-92976822D01*
X137464280Y-93522046D01*
X137927954Y-93985720D01*
X138473178Y-94350027D01*
X139078998Y-94600965D01*
X139722133Y-94728893D01*
X140377867Y-94728893D01*
X141021002Y-94600965D01*
X141626822Y-94350027D01*
X142172046Y-93985720D01*
X142635720Y-93522046D01*
X143000027Y-92976822D01*
X143250965Y-92371002D01*
X143378893Y-91727867D01*
X143378893Y-91072133D01*
X155771107Y-91072133D01*
X155771107Y-91727867D01*
X155899035Y-92371002D01*
X156149973Y-92976822D01*
X156514280Y-93522046D01*
X156977954Y-93985720D01*
X157523178Y-94350027D01*
X158128998Y-94600965D01*
X158772133Y-94728893D01*
X159427867Y-94728893D01*
X160071002Y-94600965D01*
X160676822Y-94350027D01*
X161222046Y-93985720D01*
X161685720Y-93522046D01*
X162050027Y-92976822D01*
X162300965Y-92371002D01*
X162428893Y-91727867D01*
X162428893Y-91072133D01*
X162300965Y-90428998D01*
X162050027Y-89823178D01*
X161685720Y-89277954D01*
X161222046Y-88814280D01*
X160676822Y-88449973D01*
X160071002Y-88199035D01*
X159427867Y-88071107D01*
X158772133Y-88071107D01*
X158128998Y-88199035D01*
X157523178Y-88449973D01*
X156977954Y-88814280D01*
X156514280Y-89277954D01*
X156149973Y-89823178D01*
X155899035Y-90428998D01*
X155771107Y-91072133D01*
X143378893Y-91072133D01*
X143250965Y-90428998D01*
X143000027Y-89823178D01*
X142635720Y-89277954D01*
X142172046Y-88814280D01*
X141626822Y-88449973D01*
X141021002Y-88199035D01*
X140377867Y-88071107D01*
X139722133Y-88071107D01*
X139078998Y-88199035D01*
X138473178Y-88449973D01*
X137927954Y-88814280D01*
X137464280Y-89277954D01*
X137099973Y-89823178D01*
X136849035Y-90428998D01*
X136721107Y-91072133D01*
X130325000Y-91072133D01*
X130325000Y-70325000D01*
X174675001Y-70325000D01*
X174675000Y-142675000D01*
G37*
X174675000Y-142675000D02*
X130325000Y-142675000D01*
X130325000Y-139364547D01*
X164665784Y-139364547D01*
X164918063Y-139627147D01*
X165353838Y-139797350D01*
X165814445Y-139879267D01*
X166282182Y-139869750D01*
X166739076Y-139769164D01*
X167081937Y-139627147D01*
X167334216Y-139364547D01*
X166000000Y-138030330D01*
X164665784Y-139364547D01*
X130325000Y-139364547D01*
X130325000Y-137314445D01*
X163620733Y-137314445D01*
X163630250Y-137782182D01*
X163730836Y-138239076D01*
X163872853Y-138581937D01*
X164135453Y-138834216D01*
X165469670Y-137500000D01*
X166530330Y-137500000D01*
X167864547Y-138834216D01*
X168127147Y-138581937D01*
X168297350Y-138146162D01*
X168379267Y-137685555D01*
X168369750Y-137217818D01*
X168269164Y-136760924D01*
X168127147Y-136418063D01*
X167864547Y-136165784D01*
X166530330Y-137500000D01*
X165469670Y-137500000D01*
X164135453Y-136165784D01*
X163872853Y-136418063D01*
X163702650Y-136853838D01*
X163620733Y-137314445D01*
X130325000Y-137314445D01*
X130325000Y-135635453D01*
X164665784Y-135635453D01*
X166000000Y-136969670D01*
X167334216Y-135635453D01*
X167081937Y-135372853D01*
X166646162Y-135202650D01*
X166185555Y-135120733D01*
X165717818Y-135130250D01*
X165260924Y-135230836D01*
X164918063Y-135372853D01*
X164665784Y-135635453D01*
X130325000Y-135635453D01*
X130325000Y-132380000D01*
X148166025Y-132380000D01*
X148201841Y-132743643D01*
X148307912Y-133093312D01*
X148480161Y-133415569D01*
X148711971Y-133698029D01*
X148994431Y-133929839D01*
X149316688Y-134102088D01*
X149666357Y-134208159D01*
X149938876Y-134235000D01*
X151061124Y-134235000D01*
X151333643Y-134208159D01*
X151683312Y-134102088D01*
X152005569Y-133929839D01*
X152288029Y-133698029D01*
X152519839Y-133415569D01*
X152692088Y-133093312D01*
X152798159Y-132743643D01*
X152833975Y-132380000D01*
X152798159Y-132016357D01*
X152692088Y-131666688D01*
X152519839Y-131344431D01*
X152288029Y-131061971D01*
X152005569Y-130830161D01*
X151683312Y-130657912D01*
X151333643Y-130551841D01*
X151061124Y-130525000D01*
X149938876Y-130525000D01*
X149666357Y-130551841D01*
X149316688Y-130657912D01*
X148994431Y-130830161D01*
X148711971Y-131061971D01*
X148480161Y-131344431D01*
X148307912Y-131666688D01*
X148201841Y-132016357D01*
X148166025Y-132380000D01*
X130325000Y-132380000D01*
X130325000Y-130486553D01*
X140043777Y-130486553D01*
X140145326Y-130626155D01*
X140371843Y-130673710D01*
X140603284Y-130676159D01*
X140830757Y-130633409D01*
X140854674Y-130626155D01*
X140956223Y-130486553D01*
X140500000Y-130030330D01*
X140043777Y-130486553D01*
X130325000Y-130486553D01*
X130325000Y-129603284D01*
X139323841Y-129603284D01*
X139366591Y-129830757D01*
X139373845Y-129854674D01*
X139513447Y-129956223D01*
X139969670Y-129500000D01*
X141030330Y-129500000D01*
X141486553Y-129956223D01*
X141626155Y-129854674D01*
X141673710Y-129628157D01*
X141676159Y-129396716D01*
X141633409Y-129169243D01*
X141626155Y-129145326D01*
X141486553Y-129043777D01*
X141030330Y-129500000D01*
X139969670Y-129500000D01*
X139513447Y-129043777D01*
X139373845Y-129145326D01*
X139326290Y-129371843D01*
X139323841Y-129603284D01*
X130325000Y-129603284D01*
X130325000Y-128513447D01*
X140043777Y-128513447D01*
X140500000Y-128969670D01*
X140956223Y-128513447D01*
X140888248Y-128420000D01*
X148166025Y-128420000D01*
X148201841Y-128783643D01*
X148307912Y-129133312D01*
X148480161Y-129455569D01*
X148711971Y-129738029D01*
X148994431Y-129969839D01*
X149316688Y-130142088D01*
X149666357Y-130248159D01*
X149938876Y-130275000D01*
X151061124Y-130275000D01*
X151333643Y-130248159D01*
X151683312Y-130142088D01*
X152005569Y-129969839D01*
X152288029Y-129738029D01*
X152519839Y-129455569D01*
X152671337Y-129172133D01*
X155771107Y-129172133D01*
X155771107Y-129827867D01*
X155899035Y-130471002D01*
X156149973Y-131076822D01*
X156514280Y-131622046D01*
X156977954Y-132085720D01*
X157523178Y-132450027D01*
X158128998Y-132700965D01*
X158772133Y-132828893D01*
X159427867Y-132828893D01*
X160071002Y-132700965D01*
X160676822Y-132450027D01*
X161222046Y-132085720D01*
X161685720Y-131622046D01*
X162050027Y-131076822D01*
X162300965Y-130471002D01*
X162428893Y-129827867D01*
X162428893Y-129172133D01*
X162300965Y-128528998D01*
X162050027Y-127923178D01*
X161685720Y-127377954D01*
X161222046Y-126914280D01*
X160676822Y-126549973D01*
X160071002Y-126299035D01*
X159427867Y-126171107D01*
X158772133Y-126171107D01*
X158128998Y-126299035D01*
X157523178Y-126549973D01*
X156977954Y-126914280D01*
X156514280Y-127377954D01*
X156149973Y-127923178D01*
X155899035Y-128528998D01*
X155771107Y-129172133D01*
X152671337Y-129172133D01*
X152692088Y-129133312D01*
X152749212Y-128945000D01*
X153554220Y-128945000D01*
X153580000Y-128947539D01*
X153605780Y-128945000D01*
X153605788Y-128945000D01*
X153682918Y-128937403D01*
X153781881Y-128907383D01*
X153873086Y-128858633D01*
X153953027Y-128793027D01*
X153969471Y-128772990D01*
X158255908Y-124486553D01*
X166543777Y-124486553D01*
X166645326Y-124626155D01*
X166871843Y-124673710D01*
X167103284Y-124676159D01*
X167330757Y-124633409D01*
X167354674Y-124626155D01*
X167456223Y-124486553D01*
X167000000Y-124030330D01*
X166543777Y-124486553D01*
X158255908Y-124486553D01*
X159139177Y-123603284D01*
X165823841Y-123603284D01*
X165866591Y-123830757D01*
X165873845Y-123854674D01*
X166013447Y-123956223D01*
X166469670Y-123500000D01*
X167530330Y-123500000D01*
X167986553Y-123956223D01*
X168126155Y-123854674D01*
X168173710Y-123628157D01*
X168176159Y-123396716D01*
X168133409Y-123169243D01*
X168126155Y-123145326D01*
X167986553Y-123043777D01*
X167530330Y-123500000D01*
X166469670Y-123500000D01*
X166013447Y-123043777D01*
X165873845Y-123145326D01*
X165826290Y-123371843D01*
X165823841Y-123603284D01*
X159139177Y-123603284D01*
X160229014Y-122513447D01*
X166543777Y-122513447D01*
X167000000Y-122969670D01*
X167456223Y-122513447D01*
X167354674Y-122373845D01*
X167128157Y-122326290D01*
X166896716Y-122323841D01*
X166669243Y-122366591D01*
X166645326Y-122373845D01*
X166543777Y-122513447D01*
X160229014Y-122513447D01*
X161217462Y-121525000D01*
X164474220Y-121525000D01*
X164500000Y-121527539D01*
X164525780Y-121525000D01*
X164525788Y-121525000D01*
X164602918Y-121517403D01*
X164701881Y-121487383D01*
X164793086Y-121438633D01*
X164873027Y-121373027D01*
X164889471Y-121352990D01*
X166705067Y-119537394D01*
X166894122Y-119575000D01*
X167105878Y-119575000D01*
X167313566Y-119533688D01*
X167509203Y-119452652D01*
X167685272Y-119335007D01*
X167835007Y-119185272D01*
X167952652Y-119009203D01*
X168033688Y-118813566D01*
X168075000Y-118605878D01*
X168075000Y-118394122D01*
X168033688Y-118186434D01*
X167952652Y-117990797D01*
X167835007Y-117814728D01*
X167685272Y-117664993D01*
X167509203Y-117547348D01*
X167313566Y-117466312D01*
X167105878Y-117425000D01*
X166894122Y-117425000D01*
X166686434Y-117466312D01*
X166490797Y-117547348D01*
X166314728Y-117664993D01*
X166164993Y-117814728D01*
X166047348Y-117990797D01*
X165966312Y-118186434D01*
X165925000Y-118394122D01*
X165925000Y-118605878D01*
X165962606Y-118794933D01*
X164282539Y-120475000D01*
X161025788Y-120475000D01*
X161000000Y-120472460D01*
X160974212Y-120475000D01*
X160897082Y-120482597D01*
X160798119Y-120512617D01*
X160706914Y-120561367D01*
X160626973Y-120626973D01*
X160610534Y-120647004D01*
X153362539Y-127895000D01*
X152749212Y-127895000D01*
X152692088Y-127706688D01*
X152519839Y-127384431D01*
X152288029Y-127101971D01*
X152005569Y-126870161D01*
X151683312Y-126697912D01*
X151333643Y-126591841D01*
X151061124Y-126565000D01*
X149938876Y-126565000D01*
X149666357Y-126591841D01*
X149316688Y-126697912D01*
X148994431Y-126870161D01*
X148711971Y-127101971D01*
X148480161Y-127384431D01*
X148307912Y-127706688D01*
X148201841Y-128056357D01*
X148166025Y-128420000D01*
X140888248Y-128420000D01*
X140854674Y-128373845D01*
X140628157Y-128326290D01*
X140396716Y-128323841D01*
X140169243Y-128366591D01*
X140145326Y-128373845D01*
X140043777Y-128513447D01*
X130325000Y-128513447D01*
X130325000Y-124394122D01*
X139425000Y-124394122D01*
X139425000Y-124605878D01*
X139466312Y-124813566D01*
X139547348Y-125009203D01*
X139664993Y-125185272D01*
X139814728Y-125335007D01*
X139990797Y-125452652D01*
X140186434Y-125533688D01*
X140394122Y-125575000D01*
X140605878Y-125575000D01*
X140813566Y-125533688D01*
X141009203Y-125452652D01*
X141185272Y-125335007D01*
X141335007Y-125185272D01*
X141452652Y-125009203D01*
X141533688Y-124813566D01*
X141575000Y-124605878D01*
X141575000Y-124460000D01*
X148166025Y-124460000D01*
X148201841Y-124823643D01*
X148307912Y-125173312D01*
X148480161Y-125495569D01*
X148711971Y-125778029D01*
X148994431Y-126009839D01*
X149316688Y-126182088D01*
X149666357Y-126288159D01*
X149938876Y-126315000D01*
X151061124Y-126315000D01*
X151333643Y-126288159D01*
X151683312Y-126182088D01*
X152005569Y-126009839D01*
X152288029Y-125778029D01*
X152519839Y-125495569D01*
X152692088Y-125173312D01*
X152798159Y-124823643D01*
X152833975Y-124460000D01*
X152798159Y-124096357D01*
X152692088Y-123746688D01*
X152519839Y-123424431D01*
X152288029Y-123141971D01*
X152005569Y-122910161D01*
X151683312Y-122737912D01*
X151333643Y-122631841D01*
X151061124Y-122605000D01*
X149938876Y-122605000D01*
X149666357Y-122631841D01*
X149316688Y-122737912D01*
X148994431Y-122910161D01*
X148711971Y-123141971D01*
X148480161Y-123424431D01*
X148307912Y-123746688D01*
X148201841Y-124096357D01*
X148166025Y-124460000D01*
X141575000Y-124460000D01*
X141575000Y-124394122D01*
X141537394Y-124205067D01*
X144717462Y-121025000D01*
X148173670Y-121025000D01*
X148173670Y-121830000D01*
X148183783Y-121932682D01*
X148213734Y-122031418D01*
X148262373Y-122122413D01*
X148327828Y-122202172D01*
X148407587Y-122267627D01*
X148498582Y-122316266D01*
X148597318Y-122346217D01*
X148700000Y-122356330D01*
X152300000Y-122356330D01*
X152402682Y-122346217D01*
X152501418Y-122316266D01*
X152592413Y-122267627D01*
X152672172Y-122202172D01*
X152737627Y-122122413D01*
X152786266Y-122031418D01*
X152816217Y-121932682D01*
X152826330Y-121830000D01*
X152826330Y-119170000D01*
X152816217Y-119067318D01*
X152786266Y-118968582D01*
X152737627Y-118877587D01*
X152672172Y-118797828D01*
X152592413Y-118732373D01*
X152501418Y-118683734D01*
X152402682Y-118653783D01*
X152300000Y-118643670D01*
X148700000Y-118643670D01*
X148597318Y-118653783D01*
X148498582Y-118683734D01*
X148407587Y-118732373D01*
X148327828Y-118797828D01*
X148262373Y-118877587D01*
X148213734Y-118968582D01*
X148183783Y-119067318D01*
X148173670Y-119170000D01*
X148173670Y-119975000D01*
X144525779Y-119975000D01*
X144499999Y-119972461D01*
X144474219Y-119975000D01*
X144474212Y-119975000D01*
X144397082Y-119982597D01*
X144298119Y-120012617D01*
X144206914Y-120061367D01*
X144126973Y-120126973D01*
X144110534Y-120147004D01*
X140794933Y-123462606D01*
X140605878Y-123425000D01*
X140394122Y-123425000D01*
X140186434Y-123466312D01*
X139990797Y-123547348D01*
X139814728Y-123664993D01*
X139664993Y-123814728D01*
X139547348Y-123990797D01*
X139466312Y-124186434D01*
X139425000Y-124394122D01*
X130325000Y-124394122D01*
X130325000Y-110122133D01*
X136721107Y-110122133D01*
X136721107Y-110777867D01*
X136849035Y-111421002D01*
X137099973Y-112026822D01*
X137464280Y-112572046D01*
X137927954Y-113035720D01*
X138473178Y-113400027D01*
X139078998Y-113650965D01*
X139722133Y-113778893D01*
X140377867Y-113778893D01*
X141021002Y-113650965D01*
X141626822Y-113400027D01*
X142172046Y-113035720D01*
X142635720Y-112572046D01*
X143000027Y-112026822D01*
X143250965Y-111421002D01*
X143378893Y-110777867D01*
X143378893Y-110122133D01*
X155771107Y-110122133D01*
X155771107Y-110777867D01*
X155899035Y-111421002D01*
X156149973Y-112026822D01*
X156514280Y-112572046D01*
X156977954Y-113035720D01*
X157523178Y-113400027D01*
X158128998Y-113650965D01*
X158772133Y-113778893D01*
X159427867Y-113778893D01*
X160071002Y-113650965D01*
X160676822Y-113400027D01*
X161222046Y-113035720D01*
X161685720Y-112572046D01*
X162050027Y-112026822D01*
X162300965Y-111421002D01*
X162428893Y-110777867D01*
X162428893Y-110122133D01*
X162300965Y-109478998D01*
X162050027Y-108873178D01*
X161685720Y-108327954D01*
X161222046Y-107864280D01*
X160676822Y-107499973D01*
X160071002Y-107249035D01*
X159427867Y-107121107D01*
X158772133Y-107121107D01*
X158128998Y-107249035D01*
X157523178Y-107499973D01*
X156977954Y-107864280D01*
X156514280Y-108327954D01*
X156149973Y-108873178D01*
X155899035Y-109478998D01*
X155771107Y-110122133D01*
X143378893Y-110122133D01*
X143250965Y-109478998D01*
X143000027Y-108873178D01*
X142635720Y-108327954D01*
X142172046Y-107864280D01*
X141626822Y-107499973D01*
X141021002Y-107249035D01*
X140377867Y-107121107D01*
X139722133Y-107121107D01*
X139078998Y-107249035D01*
X138473178Y-107499973D01*
X137927954Y-107864280D01*
X137464280Y-108327954D01*
X137099973Y-108873178D01*
X136849035Y-109478998D01*
X136721107Y-110122133D01*
X130325000Y-110122133D01*
X130325000Y-109825000D01*
X133015961Y-109825000D01*
X133030229Y-109823595D01*
X133036437Y-109823638D01*
X133040954Y-109823196D01*
X133235051Y-109802795D01*
X133263938Y-109796865D01*
X133292838Y-109791352D01*
X133297183Y-109790041D01*
X133483621Y-109732329D01*
X133510810Y-109720900D01*
X133538086Y-109709879D01*
X133542093Y-109707749D01*
X133713770Y-109614924D01*
X133738192Y-109598451D01*
X133762839Y-109582322D01*
X133766356Y-109579454D01*
X133916734Y-109455051D01*
X133937498Y-109434141D01*
X133958535Y-109413540D01*
X133961428Y-109410044D01*
X134084778Y-109258802D01*
X134101096Y-109234241D01*
X134117720Y-109209962D01*
X134119879Y-109205970D01*
X134211504Y-109033648D01*
X134222725Y-109006424D01*
X134234333Y-108979340D01*
X134235675Y-108975005D01*
X134292084Y-108788169D01*
X134297809Y-108759253D01*
X134303929Y-108730462D01*
X134304404Y-108725949D01*
X134323449Y-108531715D01*
X134323449Y-108531708D01*
X134325000Y-108515961D01*
X134325000Y-107484039D01*
X134323595Y-107469771D01*
X134323638Y-107463563D01*
X134323195Y-107459046D01*
X134302795Y-107264949D01*
X134296865Y-107236062D01*
X134291352Y-107207162D01*
X134290041Y-107202817D01*
X134232329Y-107016379D01*
X134220900Y-106989190D01*
X134209879Y-106961914D01*
X134207749Y-106957906D01*
X134114924Y-106786230D01*
X134098447Y-106761803D01*
X134082322Y-106737160D01*
X134079454Y-106733643D01*
X133955050Y-106583266D01*
X133934160Y-106562521D01*
X133913540Y-106541465D01*
X133910044Y-106538572D01*
X133758802Y-106415222D01*
X133734257Y-106398915D01*
X133709962Y-106382280D01*
X133705970Y-106380121D01*
X133533648Y-106288496D01*
X133506453Y-106277287D01*
X133479340Y-106265667D01*
X133475005Y-106264325D01*
X133288169Y-106207916D01*
X133259285Y-106202197D01*
X133230462Y-106196071D01*
X133225948Y-106195596D01*
X133031715Y-106176551D01*
X133031708Y-106176551D01*
X133015961Y-106175000D01*
X130325000Y-106175000D01*
X130325000Y-102636391D01*
X133393939Y-102636391D01*
X133521751Y-102796241D01*
X133783825Y-102864635D01*
X134054205Y-102880588D01*
X134322504Y-102843485D01*
X134478249Y-102796241D01*
X134606061Y-102636391D01*
X134000000Y-102030330D01*
X133393939Y-102636391D01*
X130325000Y-102636391D01*
X130325000Y-101554205D01*
X132619412Y-101554205D01*
X132656515Y-101822504D01*
X132703759Y-101978249D01*
X132863609Y-102106061D01*
X133469670Y-101500000D01*
X134530330Y-101500000D01*
X135136391Y-102106061D01*
X135296241Y-101978249D01*
X135364635Y-101716175D01*
X135380588Y-101445795D01*
X135370718Y-101374423D01*
X142725000Y-101374423D01*
X142725000Y-101625577D01*
X142773998Y-101871904D01*
X142870110Y-102103939D01*
X143009643Y-102312765D01*
X143187235Y-102490357D01*
X143396061Y-102629890D01*
X143628096Y-102726002D01*
X143874423Y-102775000D01*
X144125577Y-102775000D01*
X144371904Y-102726002D01*
X144588244Y-102636391D01*
X153393939Y-102636391D01*
X153521751Y-102796241D01*
X153783825Y-102864635D01*
X154054205Y-102880588D01*
X154322504Y-102843485D01*
X154478249Y-102796241D01*
X154606061Y-102636391D01*
X154000000Y-102030330D01*
X153393939Y-102636391D01*
X144588244Y-102636391D01*
X144603939Y-102629890D01*
X144812765Y-102490357D01*
X144990357Y-102312765D01*
X145129890Y-102103939D01*
X145226002Y-101871904D01*
X145275000Y-101625577D01*
X145275000Y-101554205D01*
X152619412Y-101554205D01*
X152656515Y-101822504D01*
X152703759Y-101978249D01*
X152863609Y-102106061D01*
X153469670Y-101500000D01*
X154530330Y-101500000D01*
X155136391Y-102106061D01*
X155296241Y-101978249D01*
X155364635Y-101716175D01*
X155380588Y-101445795D01*
X155370718Y-101374423D01*
X162725000Y-101374423D01*
X162725000Y-101625577D01*
X162773998Y-101871904D01*
X162870110Y-102103939D01*
X163009643Y-102312765D01*
X163187235Y-102490357D01*
X163396061Y-102629890D01*
X163628096Y-102726002D01*
X163874423Y-102775000D01*
X164125577Y-102775000D01*
X164371904Y-102726002D01*
X164603939Y-102629890D01*
X164812765Y-102490357D01*
X164990357Y-102312765D01*
X165129890Y-102103939D01*
X165226002Y-101871904D01*
X165275000Y-101625577D01*
X165275000Y-101374423D01*
X165226002Y-101128096D01*
X165129890Y-100896061D01*
X164990357Y-100687235D01*
X164812765Y-100509643D01*
X164603939Y-100370110D01*
X164371904Y-100273998D01*
X164125577Y-100225000D01*
X163874423Y-100225000D01*
X163628096Y-100273998D01*
X163396061Y-100370110D01*
X163187235Y-100509643D01*
X163009643Y-100687235D01*
X162870110Y-100896061D01*
X162773998Y-101128096D01*
X162725000Y-101374423D01*
X155370718Y-101374423D01*
X155343485Y-101177496D01*
X155296241Y-101021751D01*
X155136391Y-100893939D01*
X154530330Y-101500000D01*
X153469670Y-101500000D01*
X152863609Y-100893939D01*
X152703759Y-101021751D01*
X152635365Y-101283825D01*
X152619412Y-101554205D01*
X145275000Y-101554205D01*
X145275000Y-101374423D01*
X145226002Y-101128096D01*
X145129890Y-100896061D01*
X144990357Y-100687235D01*
X144812765Y-100509643D01*
X144603939Y-100370110D01*
X144588245Y-100363609D01*
X153393939Y-100363609D01*
X154000000Y-100969670D01*
X154606061Y-100363609D01*
X154478249Y-100203759D01*
X154216175Y-100135365D01*
X153945795Y-100119412D01*
X153677496Y-100156515D01*
X153521751Y-100203759D01*
X153393939Y-100363609D01*
X144588245Y-100363609D01*
X144371904Y-100273998D01*
X144125577Y-100225000D01*
X143874423Y-100225000D01*
X143628096Y-100273998D01*
X143396061Y-100370110D01*
X143187235Y-100509643D01*
X143009643Y-100687235D01*
X142870110Y-100896061D01*
X142773998Y-101128096D01*
X142725000Y-101374423D01*
X135370718Y-101374423D01*
X135343485Y-101177496D01*
X135296241Y-101021751D01*
X135136391Y-100893939D01*
X134530330Y-101500000D01*
X133469670Y-101500000D01*
X132863609Y-100893939D01*
X132703759Y-101021751D01*
X132635365Y-101283825D01*
X132619412Y-101554205D01*
X130325000Y-101554205D01*
X130325000Y-100363609D01*
X133393939Y-100363609D01*
X134000000Y-100969670D01*
X134606061Y-100363609D01*
X134478249Y-100203759D01*
X134216175Y-100135365D01*
X133945795Y-100119412D01*
X133677496Y-100156515D01*
X133521751Y-100203759D01*
X133393939Y-100363609D01*
X130325000Y-100363609D01*
X130325000Y-97986553D01*
X136043777Y-97986553D01*
X136145326Y-98126155D01*
X136371843Y-98173710D01*
X136603284Y-98176159D01*
X136830757Y-98133409D01*
X136854674Y-98126155D01*
X136956223Y-97986553D01*
X136500000Y-97530330D01*
X136043777Y-97986553D01*
X130325000Y-97986553D01*
X130325000Y-97103284D01*
X135323841Y-97103284D01*
X135366591Y-97330757D01*
X135373845Y-97354674D01*
X135513447Y-97456223D01*
X135969670Y-97000000D01*
X137030330Y-97000000D01*
X137486553Y-97456223D01*
X137626155Y-97354674D01*
X137673710Y-97128157D01*
X137676159Y-96896716D01*
X137675672Y-96894122D01*
X140425000Y-96894122D01*
X140425000Y-97105878D01*
X140466312Y-97313566D01*
X140547348Y-97509203D01*
X140664993Y-97685272D01*
X140814728Y-97835007D01*
X140990797Y-97952652D01*
X141186434Y-98033688D01*
X141394122Y-98075000D01*
X141605878Y-98075000D01*
X141813566Y-98033688D01*
X141927359Y-97986553D01*
X156043777Y-97986553D01*
X156145326Y-98126155D01*
X156371843Y-98173710D01*
X156603284Y-98176159D01*
X156830757Y-98133409D01*
X156854674Y-98126155D01*
X156956223Y-97986553D01*
X156500000Y-97530330D01*
X156043777Y-97986553D01*
X141927359Y-97986553D01*
X142009203Y-97952652D01*
X142185272Y-97835007D01*
X142335007Y-97685272D01*
X142452652Y-97509203D01*
X142533688Y-97313566D01*
X142575000Y-97105878D01*
X142575000Y-97103284D01*
X155323841Y-97103284D01*
X155366591Y-97330757D01*
X155373845Y-97354674D01*
X155513447Y-97456223D01*
X155969670Y-97000000D01*
X157030330Y-97000000D01*
X157486553Y-97456223D01*
X157626155Y-97354674D01*
X157673710Y-97128157D01*
X157676159Y-96896716D01*
X157675672Y-96894122D01*
X160425000Y-96894122D01*
X160425000Y-97105878D01*
X160466312Y-97313566D01*
X160547348Y-97509203D01*
X160664993Y-97685272D01*
X160814728Y-97835007D01*
X160990797Y-97952652D01*
X161186434Y-98033688D01*
X161394122Y-98075000D01*
X161605878Y-98075000D01*
X161813566Y-98033688D01*
X162009203Y-97952652D01*
X162185272Y-97835007D01*
X162335007Y-97685272D01*
X162452652Y-97509203D01*
X162533688Y-97313566D01*
X162575000Y-97105878D01*
X162575000Y-96894122D01*
X162533688Y-96686434D01*
X162452652Y-96490797D01*
X162335007Y-96314728D01*
X162185272Y-96164993D01*
X162009203Y-96047348D01*
X161813566Y-95966312D01*
X161605878Y-95925000D01*
X161394122Y-95925000D01*
X161186434Y-95966312D01*
X160990797Y-96047348D01*
X160814728Y-96164993D01*
X160664993Y-96314728D01*
X160547348Y-96490797D01*
X160466312Y-96686434D01*
X160425000Y-96894122D01*
X157675672Y-96894122D01*
X157633409Y-96669243D01*
X157626155Y-96645326D01*
X157486553Y-96543777D01*
X157030330Y-97000000D01*
X155969670Y-97000000D01*
X155513447Y-96543777D01*
X155373845Y-96645326D01*
X155326290Y-96871843D01*
X155323841Y-97103284D01*
X142575000Y-97103284D01*
X142575000Y-96894122D01*
X142533688Y-96686434D01*
X142452652Y-96490797D01*
X142335007Y-96314728D01*
X142185272Y-96164993D01*
X142009203Y-96047348D01*
X141927360Y-96013447D01*
X156043777Y-96013447D01*
X156500000Y-96469670D01*
X156956223Y-96013447D01*
X156854674Y-95873845D01*
X156628157Y-95826290D01*
X156396716Y-95823841D01*
X156169243Y-95866591D01*
X156145326Y-95873845D01*
X156043777Y-96013447D01*
X141927360Y-96013447D01*
X141813566Y-95966312D01*
X141605878Y-95925000D01*
X141394122Y-95925000D01*
X141186434Y-95966312D01*
X140990797Y-96047348D01*
X140814728Y-96164993D01*
X140664993Y-96314728D01*
X140547348Y-96490797D01*
X140466312Y-96686434D01*
X140425000Y-96894122D01*
X137675672Y-96894122D01*
X137633409Y-96669243D01*
X137626155Y-96645326D01*
X137486553Y-96543777D01*
X137030330Y-97000000D01*
X135969670Y-97000000D01*
X135513447Y-96543777D01*
X135373845Y-96645326D01*
X135326290Y-96871843D01*
X135323841Y-97103284D01*
X130325000Y-97103284D01*
X130325000Y-96013447D01*
X136043777Y-96013447D01*
X136500000Y-96469670D01*
X136956223Y-96013447D01*
X136854674Y-95873845D01*
X136628157Y-95826290D01*
X136396716Y-95823841D01*
X136169243Y-95866591D01*
X136145326Y-95873845D01*
X136043777Y-96013447D01*
X130325000Y-96013447D01*
X130325000Y-91072133D01*
X136721107Y-91072133D01*
X136721107Y-91727867D01*
X136849035Y-92371002D01*
X137099973Y-92976822D01*
X137464280Y-93522046D01*
X137927954Y-93985720D01*
X138473178Y-94350027D01*
X139078998Y-94600965D01*
X139722133Y-94728893D01*
X140377867Y-94728893D01*
X141021002Y-94600965D01*
X141626822Y-94350027D01*
X142172046Y-93985720D01*
X142635720Y-93522046D01*
X143000027Y-92976822D01*
X143250965Y-92371002D01*
X143378893Y-91727867D01*
X143378893Y-91072133D01*
X155771107Y-91072133D01*
X155771107Y-91727867D01*
X155899035Y-92371002D01*
X156149973Y-92976822D01*
X156514280Y-93522046D01*
X156977954Y-93985720D01*
X157523178Y-94350027D01*
X158128998Y-94600965D01*
X158772133Y-94728893D01*
X159427867Y-94728893D01*
X160071002Y-94600965D01*
X160676822Y-94350027D01*
X161222046Y-93985720D01*
X161685720Y-93522046D01*
X162050027Y-92976822D01*
X162300965Y-92371002D01*
X162428893Y-91727867D01*
X162428893Y-91072133D01*
X162300965Y-90428998D01*
X162050027Y-89823178D01*
X161685720Y-89277954D01*
X161222046Y-88814280D01*
X160676822Y-88449973D01*
X160071002Y-88199035D01*
X159427867Y-88071107D01*
X158772133Y-88071107D01*
X158128998Y-88199035D01*
X157523178Y-88449973D01*
X156977954Y-88814280D01*
X156514280Y-89277954D01*
X156149973Y-89823178D01*
X155899035Y-90428998D01*
X155771107Y-91072133D01*
X143378893Y-91072133D01*
X143250965Y-90428998D01*
X143000027Y-89823178D01*
X142635720Y-89277954D01*
X142172046Y-88814280D01*
X141626822Y-88449973D01*
X141021002Y-88199035D01*
X140377867Y-88071107D01*
X139722133Y-88071107D01*
X139078998Y-88199035D01*
X138473178Y-88449973D01*
X137927954Y-88814280D01*
X137464280Y-89277954D01*
X137099973Y-89823178D01*
X136849035Y-90428998D01*
X136721107Y-91072133D01*
X130325000Y-91072133D01*
X130325000Y-70325000D01*
X174675001Y-70325000D01*
X174675000Y-142675000D01*
M02*
