M48
; DRILL file {KiCad 5.1.6} date Thu Sep 24 11:39:42 2020
; FORMAT={-:-/ absolute / metric / decimal}
; #@! TF.CreationDate,2020-09-24T11:39:42+02:00
; #@! TF.GenerationSoftware,Kicad,Pcbnew,5.1.6
; #@! TF.FileFunction,Plated,1,2,PTH
FMAT,2
METRIC
T1C0.300
T2C0.800
T3C1.000
T4C1.700
T5C2.000
%
G90
G05
T1
X166.0Y-126.0
X166.0Y-128.0
X166.0Y-130.0
X166.0Y-132.0
X166.0Y-134.0
X168.0Y-126.0
X168.0Y-128.0
X168.0Y-132.0
X168.0Y-134.0
X170.0Y-126.0
X170.0Y-128.0
X170.0Y-132.0
X170.0Y-134.0
X172.0Y-126.0
X172.0Y-128.0
X172.0Y-130.0
X172.0Y-132.0
X172.0Y-134.0
X174.0Y-126.0
X174.0Y-128.0
X174.0Y-130.0
X174.0Y-132.0
X174.0Y-134.0
T2
X167.0Y-118.5
X167.0Y-123.5
X156.5Y-97.0
X161.5Y-97.0
X136.5Y-97.0
X141.5Y-97.0
X140.5Y-124.5
X140.5Y-129.5
T3
X134.0Y-101.5
X144.0Y-101.5
X154.0Y-101.5
X164.0Y-101.5
T4
X150.5Y-120.5
X150.5Y-124.46
X150.5Y-128.42
X150.5Y-132.38
T5
X166.0Y-137.5
T0
M30
