G04 #@! TF.GenerationSoftware,KiCad,Pcbnew,5.1.6*
G04 #@! TF.CreationDate,2020-09-24T11:39:39+02:00*
G04 #@! TF.ProjectId,main,6d61696e-2e6b-4696-9361-645f70636258,v1.00*
G04 #@! TF.SameCoordinates,Original*
G04 #@! TF.FileFunction,Soldermask,Top*
G04 #@! TF.FilePolarity,Negative*
%FSLAX46Y46*%
G04 Gerber Fmt 4.6, Leading zero omitted, Abs format (unit mm)*
G04 Created by KiCad (PCBNEW 5.1.6) date 2020-09-24 11:39:39*
%MOMM*%
%LPD*%
G01*
G04 APERTURE LIST*
%ADD10C,0.100000*%
G04 APERTURE END LIST*
D10*
G36*
X166583377Y-135576858D02*
G01*
X166947353Y-135727622D01*
X166947355Y-135727623D01*
X167112251Y-135837803D01*
X167274925Y-135946498D01*
X167553502Y-136225075D01*
X167772378Y-136552647D01*
X167923142Y-136916623D01*
X168000000Y-137303016D01*
X168000000Y-137696984D01*
X167923142Y-138083377D01*
X167772378Y-138447353D01*
X167772377Y-138447355D01*
X167553501Y-138774926D01*
X167274926Y-139053501D01*
X166947355Y-139272377D01*
X166947354Y-139272378D01*
X166947353Y-139272378D01*
X166583377Y-139423142D01*
X166196984Y-139500000D01*
X165803016Y-139500000D01*
X165416623Y-139423142D01*
X165052647Y-139272378D01*
X165052646Y-139272378D01*
X165052645Y-139272377D01*
X164725074Y-139053501D01*
X164446499Y-138774926D01*
X164227623Y-138447355D01*
X164227622Y-138447353D01*
X164076858Y-138083377D01*
X164000000Y-137696984D01*
X164000000Y-137303016D01*
X164076858Y-136916623D01*
X164227622Y-136552647D01*
X164446498Y-136225075D01*
X164725075Y-135946498D01*
X164887749Y-135837803D01*
X165052645Y-135727623D01*
X165052647Y-135727622D01*
X165416623Y-135576858D01*
X165803016Y-135500000D01*
X166196984Y-135500000D01*
X166583377Y-135576858D01*
G37*
G36*
X151124985Y-130807621D02*
G01*
X151279734Y-130822862D01*
X151500071Y-130889701D01*
X151577569Y-130913209D01*
X151852047Y-131059921D01*
X152092634Y-131257366D01*
X152290079Y-131497953D01*
X152436791Y-131772431D01*
X152436792Y-131772435D01*
X152527138Y-132070266D01*
X152557644Y-132380000D01*
X152527138Y-132689734D01*
X152460299Y-132910071D01*
X152436791Y-132987569D01*
X152290079Y-133262047D01*
X152092634Y-133502634D01*
X151852047Y-133700079D01*
X151577569Y-133846791D01*
X151500071Y-133870299D01*
X151279734Y-133937138D01*
X151124985Y-133952379D01*
X151047612Y-133960000D01*
X149952388Y-133960000D01*
X149875015Y-133952379D01*
X149720266Y-133937138D01*
X149499929Y-133870299D01*
X149422431Y-133846791D01*
X149147953Y-133700079D01*
X148907366Y-133502634D01*
X148709921Y-133262047D01*
X148563209Y-132987569D01*
X148539701Y-132910071D01*
X148472862Y-132689734D01*
X148442356Y-132380000D01*
X148472862Y-132070266D01*
X148563208Y-131772435D01*
X148563209Y-131772431D01*
X148709921Y-131497953D01*
X148907366Y-131257366D01*
X149147953Y-131059921D01*
X149422431Y-130913209D01*
X149499929Y-130889701D01*
X149720266Y-130822862D01*
X149875015Y-130807621D01*
X149952388Y-130800000D01*
X151047612Y-130800000D01*
X151124985Y-130807621D01*
G37*
G36*
X170950000Y-131000000D02*
G01*
X167150000Y-131000000D01*
X167150000Y-129000000D01*
X170950000Y-129000000D01*
X170950000Y-131000000D01*
G37*
G36*
X140733351Y-128730743D02*
G01*
X140878941Y-128791048D01*
X141009970Y-128878599D01*
X141121401Y-128990030D01*
X141208952Y-129121059D01*
X141269257Y-129266649D01*
X141300000Y-129421206D01*
X141300000Y-129578794D01*
X141269257Y-129733351D01*
X141208952Y-129878941D01*
X141121401Y-130009970D01*
X141009970Y-130121401D01*
X140878941Y-130208952D01*
X140733351Y-130269257D01*
X140578794Y-130300000D01*
X140421206Y-130300000D01*
X140266649Y-130269257D01*
X140121059Y-130208952D01*
X139990030Y-130121401D01*
X139878599Y-130009970D01*
X139791048Y-129878941D01*
X139730743Y-129733351D01*
X139700000Y-129578794D01*
X139700000Y-129421206D01*
X139730743Y-129266649D01*
X139791048Y-129121059D01*
X139878599Y-128990030D01*
X139990030Y-128878599D01*
X140121059Y-128791048D01*
X140266649Y-128730743D01*
X140421206Y-128700000D01*
X140578794Y-128700000D01*
X140733351Y-128730743D01*
G37*
G36*
X151124985Y-126847621D02*
G01*
X151279734Y-126862862D01*
X151500071Y-126929701D01*
X151577569Y-126953209D01*
X151852047Y-127099921D01*
X152092634Y-127297366D01*
X152290079Y-127537953D01*
X152436791Y-127812431D01*
X152436792Y-127812435D01*
X152527138Y-128110266D01*
X152557644Y-128420000D01*
X152527138Y-128729734D01*
X152508538Y-128791049D01*
X152436791Y-129027569D01*
X152290079Y-129302047D01*
X152092634Y-129542634D01*
X151852047Y-129740079D01*
X151577569Y-129886791D01*
X151500071Y-129910299D01*
X151279734Y-129977138D01*
X151124985Y-129992379D01*
X151047612Y-130000000D01*
X149952388Y-130000000D01*
X149875015Y-129992379D01*
X149720266Y-129977138D01*
X149499929Y-129910299D01*
X149422431Y-129886791D01*
X149147953Y-129740079D01*
X148907366Y-129542634D01*
X148709921Y-129302047D01*
X148563209Y-129027569D01*
X148491462Y-128791049D01*
X148472862Y-128729734D01*
X148442356Y-128420000D01*
X148472862Y-128110266D01*
X148563208Y-127812435D01*
X148563209Y-127812431D01*
X148709921Y-127537953D01*
X148907366Y-127297366D01*
X149147953Y-127099921D01*
X149422431Y-126953209D01*
X149499929Y-126929701D01*
X149720266Y-126862862D01*
X149875015Y-126847621D01*
X149952388Y-126840000D01*
X151047612Y-126840000D01*
X151124985Y-126847621D01*
G37*
G36*
X151124985Y-122887621D02*
G01*
X151279734Y-122902862D01*
X151500071Y-122969701D01*
X151577569Y-122993209D01*
X151852047Y-123139921D01*
X152092634Y-123337366D01*
X152290079Y-123577953D01*
X152436791Y-123852431D01*
X152436792Y-123852435D01*
X152527138Y-124150266D01*
X152557644Y-124460000D01*
X152527138Y-124769734D01*
X152494010Y-124878941D01*
X152436791Y-125067569D01*
X152290079Y-125342047D01*
X152092634Y-125582634D01*
X151852047Y-125780079D01*
X151577569Y-125926791D01*
X151500071Y-125950299D01*
X151279734Y-126017138D01*
X151124985Y-126032379D01*
X151047612Y-126040000D01*
X149952388Y-126040000D01*
X149875015Y-126032379D01*
X149720266Y-126017138D01*
X149499929Y-125950299D01*
X149422431Y-125926791D01*
X149147953Y-125780079D01*
X148907366Y-125582634D01*
X148709921Y-125342047D01*
X148563209Y-125067569D01*
X148505990Y-124878941D01*
X148472862Y-124769734D01*
X148442356Y-124460000D01*
X148472862Y-124150266D01*
X148563208Y-123852435D01*
X148563209Y-123852431D01*
X148709921Y-123577953D01*
X148907366Y-123337366D01*
X149147953Y-123139921D01*
X149422431Y-122993209D01*
X149499929Y-122969701D01*
X149720266Y-122902862D01*
X149875015Y-122887621D01*
X149952388Y-122880000D01*
X151047612Y-122880000D01*
X151124985Y-122887621D01*
G37*
G36*
X140733351Y-123730743D02*
G01*
X140878941Y-123791048D01*
X141009970Y-123878599D01*
X141121401Y-123990030D01*
X141208952Y-124121059D01*
X141269257Y-124266649D01*
X141300000Y-124421206D01*
X141300000Y-124578794D01*
X141269257Y-124733351D01*
X141208952Y-124878941D01*
X141121401Y-125009970D01*
X141009970Y-125121401D01*
X140878941Y-125208952D01*
X140733351Y-125269257D01*
X140578794Y-125300000D01*
X140421206Y-125300000D01*
X140266649Y-125269257D01*
X140121059Y-125208952D01*
X139990030Y-125121401D01*
X139878599Y-125009970D01*
X139791048Y-124878941D01*
X139730743Y-124733351D01*
X139700000Y-124578794D01*
X139700000Y-124421206D01*
X139730743Y-124266649D01*
X139791048Y-124121059D01*
X139878599Y-123990030D01*
X139990030Y-123878599D01*
X140121059Y-123791048D01*
X140266649Y-123730743D01*
X140421206Y-123700000D01*
X140578794Y-123700000D01*
X140733351Y-123730743D01*
G37*
G36*
X167233351Y-122730743D02*
G01*
X167378941Y-122791048D01*
X167509970Y-122878599D01*
X167621401Y-122990030D01*
X167708952Y-123121059D01*
X167769257Y-123266649D01*
X167800000Y-123421206D01*
X167800000Y-123578794D01*
X167769257Y-123733351D01*
X167708952Y-123878941D01*
X167621401Y-124009970D01*
X167509970Y-124121401D01*
X167378941Y-124208952D01*
X167233351Y-124269257D01*
X167078794Y-124300000D01*
X166921206Y-124300000D01*
X166766649Y-124269257D01*
X166621059Y-124208952D01*
X166490030Y-124121401D01*
X166378599Y-124009970D01*
X166291048Y-123878941D01*
X166230743Y-123733351D01*
X166200000Y-123578794D01*
X166200000Y-123421206D01*
X166230743Y-123266649D01*
X166291048Y-123121059D01*
X166378599Y-122990030D01*
X166490030Y-122878599D01*
X166621059Y-122791048D01*
X166766649Y-122730743D01*
X166921206Y-122700000D01*
X167078794Y-122700000D01*
X167233351Y-122730743D01*
G37*
G36*
X152433346Y-118923375D02*
G01*
X152460398Y-118931581D01*
X152485319Y-118944902D01*
X152507168Y-118962832D01*
X152525098Y-118984681D01*
X152538419Y-119009602D01*
X152546625Y-119036654D01*
X152550000Y-119070920D01*
X152550000Y-121929080D01*
X152546625Y-121963346D01*
X152538419Y-121990398D01*
X152525098Y-122015319D01*
X152507168Y-122037168D01*
X152485319Y-122055098D01*
X152460398Y-122068419D01*
X152433346Y-122076625D01*
X152399080Y-122080000D01*
X148600920Y-122080000D01*
X148566654Y-122076625D01*
X148539602Y-122068419D01*
X148514681Y-122055098D01*
X148492832Y-122037168D01*
X148474902Y-122015319D01*
X148461581Y-121990398D01*
X148453375Y-121963346D01*
X148450000Y-121929080D01*
X148450000Y-119070920D01*
X148453375Y-119036654D01*
X148461581Y-119009602D01*
X148474902Y-118984681D01*
X148492832Y-118962832D01*
X148514681Y-118944902D01*
X148539602Y-118931581D01*
X148566654Y-118923375D01*
X148600920Y-118920000D01*
X152399080Y-118920000D01*
X152433346Y-118923375D01*
G37*
G36*
X141059024Y-119403955D02*
G01*
X141091738Y-119413879D01*
X141121885Y-119429993D01*
X141148315Y-119451685D01*
X141170007Y-119478115D01*
X141186121Y-119508262D01*
X141196045Y-119540976D01*
X141200000Y-119581138D01*
X141200000Y-121418862D01*
X141196045Y-121459024D01*
X141186121Y-121491738D01*
X141170007Y-121521885D01*
X141148315Y-121548315D01*
X141121885Y-121570007D01*
X141091738Y-121586121D01*
X141059024Y-121596045D01*
X141018862Y-121600000D01*
X140131138Y-121600000D01*
X140090976Y-121596045D01*
X140058262Y-121586121D01*
X140028115Y-121570007D01*
X140001685Y-121548315D01*
X139979993Y-121521885D01*
X139963879Y-121491738D01*
X139953955Y-121459024D01*
X139950000Y-121418862D01*
X139950000Y-119581138D01*
X139953955Y-119540976D01*
X139963879Y-119508262D01*
X139979993Y-119478115D01*
X140001685Y-119451685D01*
X140028115Y-119429993D01*
X140058262Y-119413879D01*
X140090976Y-119403955D01*
X140131138Y-119400000D01*
X141018862Y-119400000D01*
X141059024Y-119403955D01*
G37*
G36*
X138909024Y-119403955D02*
G01*
X138941738Y-119413879D01*
X138971885Y-119429993D01*
X138998315Y-119451685D01*
X139020007Y-119478115D01*
X139036121Y-119508262D01*
X139046045Y-119540976D01*
X139050000Y-119581138D01*
X139050000Y-121418862D01*
X139046045Y-121459024D01*
X139036121Y-121491738D01*
X139020007Y-121521885D01*
X138998315Y-121548315D01*
X138971885Y-121570007D01*
X138941738Y-121586121D01*
X138909024Y-121596045D01*
X138868862Y-121600000D01*
X137981138Y-121600000D01*
X137940976Y-121596045D01*
X137908262Y-121586121D01*
X137878115Y-121570007D01*
X137851685Y-121548315D01*
X137829993Y-121521885D01*
X137813879Y-121491738D01*
X137803955Y-121459024D01*
X137800000Y-121418862D01*
X137800000Y-119581138D01*
X137803955Y-119540976D01*
X137813879Y-119508262D01*
X137829993Y-119478115D01*
X137851685Y-119451685D01*
X137878115Y-119429993D01*
X137908262Y-119413879D01*
X137940976Y-119403955D01*
X137981138Y-119400000D01*
X138868862Y-119400000D01*
X138909024Y-119403955D01*
G37*
G36*
X136000000Y-119900000D02*
G01*
X134000000Y-119900000D01*
X134000000Y-116100000D01*
X136000000Y-116100000D01*
X136000000Y-119900000D01*
G37*
G36*
X167233351Y-117730743D02*
G01*
X167378941Y-117791048D01*
X167509970Y-117878599D01*
X167621401Y-117990030D01*
X167708952Y-118121059D01*
X167769257Y-118266649D01*
X167800000Y-118421206D01*
X167800000Y-118578794D01*
X167769257Y-118733351D01*
X167708952Y-118878941D01*
X167621401Y-119009970D01*
X167509970Y-119121401D01*
X167378941Y-119208952D01*
X167233351Y-119269257D01*
X167078794Y-119300000D01*
X166921206Y-119300000D01*
X166766649Y-119269257D01*
X166621059Y-119208952D01*
X166490030Y-119121401D01*
X166378599Y-119009970D01*
X166291048Y-118878941D01*
X166230743Y-118733351D01*
X166200000Y-118578794D01*
X166200000Y-118421206D01*
X166230743Y-118266649D01*
X166291048Y-118121059D01*
X166378599Y-117990030D01*
X166490030Y-117878599D01*
X166621059Y-117791048D01*
X166766649Y-117730743D01*
X166921206Y-117700000D01*
X167078794Y-117700000D01*
X167233351Y-117730743D01*
G37*
G36*
X163959024Y-117953955D02*
G01*
X163991738Y-117963879D01*
X164021885Y-117979993D01*
X164048315Y-118001685D01*
X164070007Y-118028115D01*
X164086121Y-118058262D01*
X164096045Y-118090976D01*
X164100000Y-118131138D01*
X164100000Y-119018862D01*
X164096045Y-119059024D01*
X164086121Y-119091738D01*
X164070007Y-119121885D01*
X164048315Y-119148315D01*
X164021885Y-119170007D01*
X163991738Y-119186121D01*
X163959024Y-119196045D01*
X163918862Y-119200000D01*
X162081138Y-119200000D01*
X162040976Y-119196045D01*
X162008262Y-119186121D01*
X161978115Y-119170007D01*
X161951685Y-119148315D01*
X161929993Y-119121885D01*
X161913879Y-119091738D01*
X161903955Y-119059024D01*
X161900000Y-119018862D01*
X161900000Y-118131138D01*
X161903955Y-118090976D01*
X161913879Y-118058262D01*
X161929993Y-118028115D01*
X161951685Y-118001685D01*
X161978115Y-117979993D01*
X162008262Y-117963879D01*
X162040976Y-117953955D01*
X162081138Y-117950000D01*
X163918862Y-117950000D01*
X163959024Y-117953955D01*
G37*
G36*
X163959024Y-115803955D02*
G01*
X163991738Y-115813879D01*
X164021885Y-115829993D01*
X164048315Y-115851685D01*
X164070007Y-115878115D01*
X164086121Y-115908262D01*
X164096045Y-115940976D01*
X164100000Y-115981138D01*
X164100000Y-116868862D01*
X164096045Y-116909024D01*
X164086121Y-116941738D01*
X164070007Y-116971885D01*
X164048315Y-116998315D01*
X164021885Y-117020007D01*
X163991738Y-117036121D01*
X163959024Y-117046045D01*
X163918862Y-117050000D01*
X162081138Y-117050000D01*
X162040976Y-117046045D01*
X162008262Y-117036121D01*
X161978115Y-117020007D01*
X161951685Y-116998315D01*
X161929993Y-116971885D01*
X161913879Y-116941738D01*
X161903955Y-116909024D01*
X161900000Y-116868862D01*
X161900000Y-115981138D01*
X161903955Y-115940976D01*
X161913879Y-115908262D01*
X161929993Y-115878115D01*
X161951685Y-115851685D01*
X161978115Y-115829993D01*
X162008262Y-115813879D01*
X162040976Y-115803955D01*
X162081138Y-115800000D01*
X163918862Y-115800000D01*
X163959024Y-115803955D01*
G37*
G36*
X168900000Y-115500000D02*
G01*
X165100000Y-115500000D01*
X165100000Y-113500000D01*
X168900000Y-113500000D01*
X168900000Y-115500000D01*
G37*
G36*
X169959024Y-104953955D02*
G01*
X169991738Y-104963879D01*
X170021885Y-104979993D01*
X170048315Y-105001685D01*
X170070007Y-105028115D01*
X170086121Y-105058262D01*
X170096045Y-105090976D01*
X170100000Y-105131138D01*
X170100000Y-106018862D01*
X170096045Y-106059024D01*
X170086121Y-106091738D01*
X170070007Y-106121885D01*
X170048315Y-106148315D01*
X170021885Y-106170007D01*
X169991738Y-106186121D01*
X169959024Y-106196045D01*
X169918862Y-106200000D01*
X168081138Y-106200000D01*
X168040976Y-106196045D01*
X168008262Y-106186121D01*
X167978115Y-106170007D01*
X167951685Y-106148315D01*
X167929993Y-106121885D01*
X167913879Y-106091738D01*
X167903955Y-106059024D01*
X167900000Y-106018862D01*
X167900000Y-105131138D01*
X167903955Y-105090976D01*
X167913879Y-105058262D01*
X167929993Y-105028115D01*
X167951685Y-105001685D01*
X167978115Y-104979993D01*
X168008262Y-104963879D01*
X168040976Y-104953955D01*
X168081138Y-104950000D01*
X169918862Y-104950000D01*
X169959024Y-104953955D01*
G37*
G36*
X148959024Y-104953955D02*
G01*
X148991738Y-104963879D01*
X149021885Y-104979993D01*
X149048315Y-105001685D01*
X149070007Y-105028115D01*
X149086121Y-105058262D01*
X149096045Y-105090976D01*
X149100000Y-105131138D01*
X149100000Y-106018862D01*
X149096045Y-106059024D01*
X149086121Y-106091738D01*
X149070007Y-106121885D01*
X149048315Y-106148315D01*
X149021885Y-106170007D01*
X148991738Y-106186121D01*
X148959024Y-106196045D01*
X148918862Y-106200000D01*
X147081138Y-106200000D01*
X147040976Y-106196045D01*
X147008262Y-106186121D01*
X146978115Y-106170007D01*
X146951685Y-106148315D01*
X146929993Y-106121885D01*
X146913879Y-106091738D01*
X146903955Y-106059024D01*
X146900000Y-106018862D01*
X146900000Y-105131138D01*
X146903955Y-105090976D01*
X146913879Y-105058262D01*
X146929993Y-105028115D01*
X146951685Y-105001685D01*
X146978115Y-104979993D01*
X147008262Y-104963879D01*
X147040976Y-104953955D01*
X147081138Y-104950000D01*
X148918862Y-104950000D01*
X148959024Y-104953955D01*
G37*
G36*
X148959024Y-102803955D02*
G01*
X148991738Y-102813879D01*
X149021885Y-102829993D01*
X149048315Y-102851685D01*
X149070007Y-102878115D01*
X149086121Y-102908262D01*
X149096045Y-102940976D01*
X149100000Y-102981138D01*
X149100000Y-103868862D01*
X149096045Y-103909024D01*
X149086121Y-103941738D01*
X149070007Y-103971885D01*
X149048315Y-103998315D01*
X149021885Y-104020007D01*
X148991738Y-104036121D01*
X148959024Y-104046045D01*
X148918862Y-104050000D01*
X147081138Y-104050000D01*
X147040976Y-104046045D01*
X147008262Y-104036121D01*
X146978115Y-104020007D01*
X146951685Y-103998315D01*
X146929993Y-103971885D01*
X146913879Y-103941738D01*
X146903955Y-103909024D01*
X146900000Y-103868862D01*
X146900000Y-102981138D01*
X146903955Y-102940976D01*
X146913879Y-102908262D01*
X146929993Y-102878115D01*
X146951685Y-102851685D01*
X146978115Y-102829993D01*
X147008262Y-102813879D01*
X147040976Y-102803955D01*
X147081138Y-102800000D01*
X148918862Y-102800000D01*
X148959024Y-102803955D01*
G37*
G36*
X169959024Y-102803955D02*
G01*
X169991738Y-102813879D01*
X170021885Y-102829993D01*
X170048315Y-102851685D01*
X170070007Y-102878115D01*
X170086121Y-102908262D01*
X170096045Y-102940976D01*
X170100000Y-102981138D01*
X170100000Y-103868862D01*
X170096045Y-103909024D01*
X170086121Y-103941738D01*
X170070007Y-103971885D01*
X170048315Y-103998315D01*
X170021885Y-104020007D01*
X169991738Y-104036121D01*
X169959024Y-104046045D01*
X169918862Y-104050000D01*
X168081138Y-104050000D01*
X168040976Y-104046045D01*
X168008262Y-104036121D01*
X167978115Y-104020007D01*
X167951685Y-103998315D01*
X167929993Y-103971885D01*
X167913879Y-103941738D01*
X167903955Y-103909024D01*
X167900000Y-103868862D01*
X167900000Y-102981138D01*
X167903955Y-102940976D01*
X167913879Y-102908262D01*
X167929993Y-102878115D01*
X167951685Y-102851685D01*
X167978115Y-102829993D01*
X168008262Y-102813879D01*
X168040976Y-102803955D01*
X168081138Y-102800000D01*
X169918862Y-102800000D01*
X169959024Y-102803955D01*
G37*
G36*
X144227290Y-100525619D02*
G01*
X144291689Y-100538429D01*
X144473678Y-100613811D01*
X144637463Y-100723249D01*
X144776751Y-100862537D01*
X144886189Y-101026322D01*
X144961571Y-101208311D01*
X145000000Y-101401509D01*
X145000000Y-101598491D01*
X144961571Y-101791689D01*
X144886189Y-101973678D01*
X144776751Y-102137463D01*
X144637463Y-102276751D01*
X144473678Y-102386189D01*
X144291689Y-102461571D01*
X144227290Y-102474381D01*
X144098493Y-102500000D01*
X143901507Y-102500000D01*
X143772710Y-102474381D01*
X143708311Y-102461571D01*
X143526322Y-102386189D01*
X143362537Y-102276751D01*
X143223249Y-102137463D01*
X143113811Y-101973678D01*
X143038429Y-101791689D01*
X143000000Y-101598491D01*
X143000000Y-101401509D01*
X143038429Y-101208311D01*
X143113811Y-101026322D01*
X143223249Y-100862537D01*
X143362537Y-100723249D01*
X143526322Y-100613811D01*
X143708311Y-100538429D01*
X143772710Y-100525619D01*
X143901507Y-100500000D01*
X144098493Y-100500000D01*
X144227290Y-100525619D01*
G37*
G36*
X164227290Y-100525619D02*
G01*
X164291689Y-100538429D01*
X164473678Y-100613811D01*
X164637463Y-100723249D01*
X164776751Y-100862537D01*
X164886189Y-101026322D01*
X164961571Y-101208311D01*
X165000000Y-101401509D01*
X165000000Y-101598491D01*
X164961571Y-101791689D01*
X164886189Y-101973678D01*
X164776751Y-102137463D01*
X164637463Y-102276751D01*
X164473678Y-102386189D01*
X164291689Y-102461571D01*
X164227290Y-102474381D01*
X164098493Y-102500000D01*
X163901507Y-102500000D01*
X163772710Y-102474381D01*
X163708311Y-102461571D01*
X163526322Y-102386189D01*
X163362537Y-102276751D01*
X163223249Y-102137463D01*
X163113811Y-101973678D01*
X163038429Y-101791689D01*
X163000000Y-101598491D01*
X163000000Y-101401509D01*
X163038429Y-101208311D01*
X163113811Y-101026322D01*
X163223249Y-100862537D01*
X163362537Y-100723249D01*
X163526322Y-100613811D01*
X163708311Y-100538429D01*
X163772710Y-100525619D01*
X163901507Y-100500000D01*
X164098493Y-100500000D01*
X164227290Y-100525619D01*
G37*
G36*
X134227290Y-100525619D02*
G01*
X134291689Y-100538429D01*
X134473678Y-100613811D01*
X134637463Y-100723249D01*
X134776751Y-100862537D01*
X134886189Y-101026322D01*
X134961571Y-101208311D01*
X135000000Y-101401509D01*
X135000000Y-101598491D01*
X134961571Y-101791689D01*
X134886189Y-101973678D01*
X134776751Y-102137463D01*
X134637463Y-102276751D01*
X134473678Y-102386189D01*
X134291689Y-102461571D01*
X134227290Y-102474381D01*
X134098493Y-102500000D01*
X133901507Y-102500000D01*
X133772710Y-102474381D01*
X133708311Y-102461571D01*
X133526322Y-102386189D01*
X133362537Y-102276751D01*
X133223249Y-102137463D01*
X133113811Y-101973678D01*
X133038429Y-101791689D01*
X133000000Y-101598491D01*
X133000000Y-101401509D01*
X133038429Y-101208311D01*
X133113811Y-101026322D01*
X133223249Y-100862537D01*
X133362537Y-100723249D01*
X133526322Y-100613811D01*
X133708311Y-100538429D01*
X133772710Y-100525619D01*
X133901507Y-100500000D01*
X134098493Y-100500000D01*
X134227290Y-100525619D01*
G37*
G36*
X154227290Y-100525619D02*
G01*
X154291689Y-100538429D01*
X154473678Y-100613811D01*
X154637463Y-100723249D01*
X154776751Y-100862537D01*
X154886189Y-101026322D01*
X154961571Y-101208311D01*
X155000000Y-101401509D01*
X155000000Y-101598491D01*
X154961571Y-101791689D01*
X154886189Y-101973678D01*
X154776751Y-102137463D01*
X154637463Y-102276751D01*
X154473678Y-102386189D01*
X154291689Y-102461571D01*
X154227290Y-102474381D01*
X154098493Y-102500000D01*
X153901507Y-102500000D01*
X153772710Y-102474381D01*
X153708311Y-102461571D01*
X153526322Y-102386189D01*
X153362537Y-102276751D01*
X153223249Y-102137463D01*
X153113811Y-101973678D01*
X153038429Y-101791689D01*
X153000000Y-101598491D01*
X153000000Y-101401509D01*
X153038429Y-101208311D01*
X153113811Y-101026322D01*
X153223249Y-100862537D01*
X153362537Y-100723249D01*
X153526322Y-100613811D01*
X153708311Y-100538429D01*
X153772710Y-100525619D01*
X153901507Y-100500000D01*
X154098493Y-100500000D01*
X154227290Y-100525619D01*
G37*
G36*
X148959024Y-97453955D02*
G01*
X148991738Y-97463879D01*
X149021885Y-97479993D01*
X149048315Y-97501685D01*
X149070007Y-97528115D01*
X149086121Y-97558262D01*
X149096045Y-97590976D01*
X149100000Y-97631138D01*
X149100000Y-98518862D01*
X149096045Y-98559024D01*
X149086121Y-98591738D01*
X149070007Y-98621885D01*
X149048315Y-98648315D01*
X149021885Y-98670007D01*
X148991738Y-98686121D01*
X148959024Y-98696045D01*
X148918862Y-98700000D01*
X147081138Y-98700000D01*
X147040976Y-98696045D01*
X147008262Y-98686121D01*
X146978115Y-98670007D01*
X146951685Y-98648315D01*
X146929993Y-98621885D01*
X146913879Y-98591738D01*
X146903955Y-98559024D01*
X146900000Y-98518862D01*
X146900000Y-97631138D01*
X146903955Y-97590976D01*
X146913879Y-97558262D01*
X146929993Y-97528115D01*
X146951685Y-97501685D01*
X146978115Y-97479993D01*
X147008262Y-97463879D01*
X147040976Y-97453955D01*
X147081138Y-97450000D01*
X148918862Y-97450000D01*
X148959024Y-97453955D01*
G37*
G36*
X169959024Y-97453955D02*
G01*
X169991738Y-97463879D01*
X170021885Y-97479993D01*
X170048315Y-97501685D01*
X170070007Y-97528115D01*
X170086121Y-97558262D01*
X170096045Y-97590976D01*
X170100000Y-97631138D01*
X170100000Y-98518862D01*
X170096045Y-98559024D01*
X170086121Y-98591738D01*
X170070007Y-98621885D01*
X170048315Y-98648315D01*
X170021885Y-98670007D01*
X169991738Y-98686121D01*
X169959024Y-98696045D01*
X169918862Y-98700000D01*
X168081138Y-98700000D01*
X168040976Y-98696045D01*
X168008262Y-98686121D01*
X167978115Y-98670007D01*
X167951685Y-98648315D01*
X167929993Y-98621885D01*
X167913879Y-98591738D01*
X167903955Y-98559024D01*
X167900000Y-98518862D01*
X167900000Y-97631138D01*
X167903955Y-97590976D01*
X167913879Y-97558262D01*
X167929993Y-97528115D01*
X167951685Y-97501685D01*
X167978115Y-97479993D01*
X168008262Y-97463879D01*
X168040976Y-97453955D01*
X168081138Y-97450000D01*
X169918862Y-97450000D01*
X169959024Y-97453955D01*
G37*
G36*
X161733351Y-96230743D02*
G01*
X161878941Y-96291048D01*
X162009970Y-96378599D01*
X162121401Y-96490030D01*
X162208952Y-96621059D01*
X162269257Y-96766649D01*
X162300000Y-96921206D01*
X162300000Y-97078794D01*
X162269257Y-97233351D01*
X162208952Y-97378941D01*
X162121401Y-97509970D01*
X162009970Y-97621401D01*
X161878941Y-97708952D01*
X161733351Y-97769257D01*
X161578794Y-97800000D01*
X161421206Y-97800000D01*
X161266649Y-97769257D01*
X161121059Y-97708952D01*
X160990030Y-97621401D01*
X160878599Y-97509970D01*
X160791048Y-97378941D01*
X160730743Y-97233351D01*
X160700000Y-97078794D01*
X160700000Y-96921206D01*
X160730743Y-96766649D01*
X160791048Y-96621059D01*
X160878599Y-96490030D01*
X160990030Y-96378599D01*
X161121059Y-96291048D01*
X161266649Y-96230743D01*
X161421206Y-96200000D01*
X161578794Y-96200000D01*
X161733351Y-96230743D01*
G37*
G36*
X156733351Y-96230743D02*
G01*
X156878941Y-96291048D01*
X157009970Y-96378599D01*
X157121401Y-96490030D01*
X157208952Y-96621059D01*
X157269257Y-96766649D01*
X157300000Y-96921206D01*
X157300000Y-97078794D01*
X157269257Y-97233351D01*
X157208952Y-97378941D01*
X157121401Y-97509970D01*
X157009970Y-97621401D01*
X156878941Y-97708952D01*
X156733351Y-97769257D01*
X156578794Y-97800000D01*
X156421206Y-97800000D01*
X156266649Y-97769257D01*
X156121059Y-97708952D01*
X155990030Y-97621401D01*
X155878599Y-97509970D01*
X155791048Y-97378941D01*
X155730743Y-97233351D01*
X155700000Y-97078794D01*
X155700000Y-96921206D01*
X155730743Y-96766649D01*
X155791048Y-96621059D01*
X155878599Y-96490030D01*
X155990030Y-96378599D01*
X156121059Y-96291048D01*
X156266649Y-96230743D01*
X156421206Y-96200000D01*
X156578794Y-96200000D01*
X156733351Y-96230743D01*
G37*
G36*
X136733351Y-96230743D02*
G01*
X136878941Y-96291048D01*
X137009970Y-96378599D01*
X137121401Y-96490030D01*
X137208952Y-96621059D01*
X137269257Y-96766649D01*
X137300000Y-96921206D01*
X137300000Y-97078794D01*
X137269257Y-97233351D01*
X137208952Y-97378941D01*
X137121401Y-97509970D01*
X137009970Y-97621401D01*
X136878941Y-97708952D01*
X136733351Y-97769257D01*
X136578794Y-97800000D01*
X136421206Y-97800000D01*
X136266649Y-97769257D01*
X136121059Y-97708952D01*
X135990030Y-97621401D01*
X135878599Y-97509970D01*
X135791048Y-97378941D01*
X135730743Y-97233351D01*
X135700000Y-97078794D01*
X135700000Y-96921206D01*
X135730743Y-96766649D01*
X135791048Y-96621059D01*
X135878599Y-96490030D01*
X135990030Y-96378599D01*
X136121059Y-96291048D01*
X136266649Y-96230743D01*
X136421206Y-96200000D01*
X136578794Y-96200000D01*
X136733351Y-96230743D01*
G37*
G36*
X141733351Y-96230743D02*
G01*
X141878941Y-96291048D01*
X142009970Y-96378599D01*
X142121401Y-96490030D01*
X142208952Y-96621059D01*
X142269257Y-96766649D01*
X142300000Y-96921206D01*
X142300000Y-97078794D01*
X142269257Y-97233351D01*
X142208952Y-97378941D01*
X142121401Y-97509970D01*
X142009970Y-97621401D01*
X141878941Y-97708952D01*
X141733351Y-97769257D01*
X141578794Y-97800000D01*
X141421206Y-97800000D01*
X141266649Y-97769257D01*
X141121059Y-97708952D01*
X140990030Y-97621401D01*
X140878599Y-97509970D01*
X140791048Y-97378941D01*
X140730743Y-97233351D01*
X140700000Y-97078794D01*
X140700000Y-96921206D01*
X140730743Y-96766649D01*
X140791048Y-96621059D01*
X140878599Y-96490030D01*
X140990030Y-96378599D01*
X141121059Y-96291048D01*
X141266649Y-96230743D01*
X141421206Y-96200000D01*
X141578794Y-96200000D01*
X141733351Y-96230743D01*
G37*
G36*
X169959024Y-95303955D02*
G01*
X169991738Y-95313879D01*
X170021885Y-95329993D01*
X170048315Y-95351685D01*
X170070007Y-95378115D01*
X170086121Y-95408262D01*
X170096045Y-95440976D01*
X170100000Y-95481138D01*
X170100000Y-96368862D01*
X170096045Y-96409024D01*
X170086121Y-96441738D01*
X170070007Y-96471885D01*
X170048315Y-96498315D01*
X170021885Y-96520007D01*
X169991738Y-96536121D01*
X169959024Y-96546045D01*
X169918862Y-96550000D01*
X168081138Y-96550000D01*
X168040976Y-96546045D01*
X168008262Y-96536121D01*
X167978115Y-96520007D01*
X167951685Y-96498315D01*
X167929993Y-96471885D01*
X167913879Y-96441738D01*
X167903955Y-96409024D01*
X167900000Y-96368862D01*
X167900000Y-95481138D01*
X167903955Y-95440976D01*
X167913879Y-95408262D01*
X167929993Y-95378115D01*
X167951685Y-95351685D01*
X167978115Y-95329993D01*
X168008262Y-95313879D01*
X168040976Y-95303955D01*
X168081138Y-95300000D01*
X169918862Y-95300000D01*
X169959024Y-95303955D01*
G37*
G36*
X148959024Y-95303955D02*
G01*
X148991738Y-95313879D01*
X149021885Y-95329993D01*
X149048315Y-95351685D01*
X149070007Y-95378115D01*
X149086121Y-95408262D01*
X149096045Y-95440976D01*
X149100000Y-95481138D01*
X149100000Y-96368862D01*
X149096045Y-96409024D01*
X149086121Y-96441738D01*
X149070007Y-96471885D01*
X149048315Y-96498315D01*
X149021885Y-96520007D01*
X148991738Y-96536121D01*
X148959024Y-96546045D01*
X148918862Y-96550000D01*
X147081138Y-96550000D01*
X147040976Y-96546045D01*
X147008262Y-96536121D01*
X146978115Y-96520007D01*
X146951685Y-96498315D01*
X146929993Y-96471885D01*
X146913879Y-96441738D01*
X146903955Y-96409024D01*
X146900000Y-96368862D01*
X146900000Y-95481138D01*
X146903955Y-95440976D01*
X146913879Y-95408262D01*
X146929993Y-95378115D01*
X146951685Y-95351685D01*
X146978115Y-95329993D01*
X147008262Y-95313879D01*
X147040976Y-95303955D01*
X147081138Y-95300000D01*
X148918862Y-95300000D01*
X148959024Y-95303955D01*
G37*
G36*
X170525000Y-91900000D02*
G01*
X166725000Y-91900000D01*
X166725000Y-89900000D01*
X170525000Y-89900000D01*
X170525000Y-91900000D01*
G37*
G36*
X151475000Y-91900000D02*
G01*
X147675000Y-91900000D01*
X147675000Y-89900000D01*
X151475000Y-89900000D01*
X151475000Y-91900000D01*
G37*
M02*
