M48
; DRILL file {KiCad 5.1.7} date Fri Oct 23 23:02:30 2020
; FORMAT={-:-/ absolute / metric / decimal}
; #@! TF.CreationDate,2020-10-23T23:02:30+02:00
; #@! TF.GenerationSoftware,Kicad,Pcbnew,5.1.7
; #@! TF.FileFunction,Plated,1,2,PTH
FMAT,2
METRIC
T1C0.300
T2C0.800
T3C1.000
T4C1.700
%
G90
G05
T1
X121.0Y-106.0
X121.0Y-108.0
X121.0Y-110.0
X121.0Y-112.0
X121.0Y-114.0
X123.0Y-106.0
X123.0Y-108.0
X123.0Y-112.0
X123.0Y-114.0
X125.0Y-106.0
X125.0Y-108.0
X125.0Y-112.0
X125.0Y-114.0
X127.0Y-106.0
X127.0Y-108.0
X127.0Y-110.0
X127.0Y-112.0
X127.0Y-114.0
X129.0Y-106.0
X129.0Y-108.0
X129.0Y-110.0
X129.0Y-112.0
X129.0Y-114.0
T2
X91.5Y-77.0
X96.5Y-77.0
X95.5Y-104.5
X95.5Y-109.5
X122.0Y-98.5
X122.0Y-103.5
X111.5Y-77.0
X116.5Y-77.0
T3
X89.0Y-81.5
X99.0Y-81.5
X109.0Y-81.5
X119.0Y-81.5
X121.0Y-117.5
T4
X105.0Y-100.5
X105.0Y-104.46
X105.0Y-108.42
X105.0Y-112.38
T0
M30
