G04 #@! TF.GenerationSoftware,KiCad,Pcbnew,5.1.6*
G04 #@! TF.CreationDate,2020-09-24T11:39:39+02:00*
G04 #@! TF.ProjectId,main,6d61696e-2e6b-4696-9361-645f70636258,v1.00*
G04 #@! TF.SameCoordinates,Original*
G04 #@! TF.FileFunction,Legend,Top*
G04 #@! TF.FilePolarity,Positive*
%FSLAX46Y46*%
G04 Gerber Fmt 4.6, Leading zero omitted, Abs format (unit mm)*
G04 Created by KiCad (PCBNEW 5.1.6) date 2020-09-24 11:39:39*
%MOMM*%
%LPD*%
G01*
G04 APERTURE LIST*
%ADD10C,0.150000*%
%ADD11C,0.300000*%
%ADD12C,0.120000*%
%ADD13C,0.250000*%
%ADD14C,0.010000*%
G04 APERTURE END LIST*
D10*
X131287976Y-71836904D02*
X131287976Y-71036904D01*
X131287976Y-71417857D02*
X131745119Y-71417857D01*
X131745119Y-71836904D02*
X131745119Y-71036904D01*
X132126071Y-71836904D02*
X132126071Y-71036904D01*
X132430833Y-71036904D01*
X132507023Y-71075000D01*
X132545119Y-71113095D01*
X132583214Y-71189285D01*
X132583214Y-71303571D01*
X132545119Y-71379761D01*
X132507023Y-71417857D01*
X132430833Y-71455952D01*
X132126071Y-71455952D01*
X133878452Y-71036904D02*
X133726071Y-71036904D01*
X133649880Y-71075000D01*
X133611785Y-71113095D01*
X133535595Y-71227380D01*
X133497500Y-71379761D01*
X133497500Y-71684523D01*
X133535595Y-71760714D01*
X133573690Y-71798809D01*
X133649880Y-71836904D01*
X133802261Y-71836904D01*
X133878452Y-71798809D01*
X133916547Y-71760714D01*
X133954642Y-71684523D01*
X133954642Y-71494047D01*
X133916547Y-71417857D01*
X133878452Y-71379761D01*
X133802261Y-71341666D01*
X133649880Y-71341666D01*
X133573690Y-71379761D01*
X133535595Y-71417857D01*
X133497500Y-71494047D01*
X134640357Y-71036904D02*
X134487976Y-71036904D01*
X134411785Y-71075000D01*
X134373690Y-71113095D01*
X134297500Y-71227380D01*
X134259404Y-71379761D01*
X134259404Y-71684523D01*
X134297500Y-71760714D01*
X134335595Y-71798809D01*
X134411785Y-71836904D01*
X134564166Y-71836904D01*
X134640357Y-71798809D01*
X134678452Y-71760714D01*
X134716547Y-71684523D01*
X134716547Y-71494047D01*
X134678452Y-71417857D01*
X134640357Y-71379761D01*
X134564166Y-71341666D01*
X134411785Y-71341666D01*
X134335595Y-71379761D01*
X134297500Y-71417857D01*
X134259404Y-71494047D01*
X134983214Y-71036904D02*
X135478452Y-71036904D01*
X135211785Y-71341666D01*
X135326071Y-71341666D01*
X135402261Y-71379761D01*
X135440357Y-71417857D01*
X135478452Y-71494047D01*
X135478452Y-71684523D01*
X135440357Y-71760714D01*
X135402261Y-71798809D01*
X135326071Y-71836904D01*
X135097500Y-71836904D01*
X135021309Y-71798809D01*
X134983214Y-71760714D01*
X135783214Y-71113095D02*
X135821309Y-71075000D01*
X135897500Y-71036904D01*
X136087976Y-71036904D01*
X136164166Y-71075000D01*
X136202261Y-71113095D01*
X136240357Y-71189285D01*
X136240357Y-71265476D01*
X136202261Y-71379761D01*
X135745119Y-71836904D01*
X136240357Y-71836904D01*
X136849880Y-71417857D02*
X136964166Y-71455952D01*
X137002261Y-71494047D01*
X137040357Y-71570238D01*
X137040357Y-71684523D01*
X137002261Y-71760714D01*
X136964166Y-71798809D01*
X136887976Y-71836904D01*
X136583214Y-71836904D01*
X136583214Y-71036904D01*
X136849880Y-71036904D01*
X136926071Y-71075000D01*
X136964166Y-71113095D01*
X137002261Y-71189285D01*
X137002261Y-71265476D01*
X136964166Y-71341666D01*
X136926071Y-71379761D01*
X136849880Y-71417857D01*
X136583214Y-71417857D01*
X138259404Y-71417857D02*
X137992738Y-71417857D01*
X137992738Y-71836904D02*
X137992738Y-71036904D01*
X138373690Y-71036904D01*
X138678452Y-71836904D02*
X138678452Y-71303571D01*
X138678452Y-71455952D02*
X138716547Y-71379761D01*
X138754642Y-71341666D01*
X138830833Y-71303571D01*
X138907023Y-71303571D01*
X139287976Y-71836904D02*
X139211785Y-71798809D01*
X139173690Y-71760714D01*
X139135595Y-71684523D01*
X139135595Y-71455952D01*
X139173690Y-71379761D01*
X139211785Y-71341666D01*
X139287976Y-71303571D01*
X139402261Y-71303571D01*
X139478452Y-71341666D01*
X139516547Y-71379761D01*
X139554642Y-71455952D01*
X139554642Y-71684523D01*
X139516547Y-71760714D01*
X139478452Y-71798809D01*
X139402261Y-71836904D01*
X139287976Y-71836904D01*
X139897500Y-71303571D02*
X139897500Y-71836904D01*
X139897500Y-71379761D02*
X139935595Y-71341666D01*
X140011785Y-71303571D01*
X140126071Y-71303571D01*
X140202261Y-71341666D01*
X140240357Y-71417857D01*
X140240357Y-71836904D01*
X140507023Y-71303571D02*
X140811785Y-71303571D01*
X140621309Y-71036904D02*
X140621309Y-71722619D01*
X140659404Y-71798809D01*
X140735595Y-71836904D01*
X140811785Y-71836904D01*
X141078452Y-71303571D02*
X141078452Y-72103571D01*
X141078452Y-71341666D02*
X141154642Y-71303571D01*
X141307023Y-71303571D01*
X141383214Y-71341666D01*
X141421309Y-71379761D01*
X141459404Y-71455952D01*
X141459404Y-71684523D01*
X141421309Y-71760714D01*
X141383214Y-71798809D01*
X141307023Y-71836904D01*
X141154642Y-71836904D01*
X141078452Y-71798809D01*
X142145119Y-71836904D02*
X142145119Y-71417857D01*
X142107023Y-71341666D01*
X142030833Y-71303571D01*
X141878452Y-71303571D01*
X141802261Y-71341666D01*
X142145119Y-71798809D02*
X142068928Y-71836904D01*
X141878452Y-71836904D01*
X141802261Y-71798809D01*
X141764166Y-71722619D01*
X141764166Y-71646428D01*
X141802261Y-71570238D01*
X141878452Y-71532142D01*
X142068928Y-71532142D01*
X142145119Y-71494047D01*
X142526071Y-71303571D02*
X142526071Y-71836904D01*
X142526071Y-71379761D02*
X142564166Y-71341666D01*
X142640357Y-71303571D01*
X142754642Y-71303571D01*
X142830833Y-71341666D01*
X142868928Y-71417857D01*
X142868928Y-71836904D01*
X143554642Y-71798809D02*
X143478452Y-71836904D01*
X143326071Y-71836904D01*
X143249880Y-71798809D01*
X143211785Y-71722619D01*
X143211785Y-71417857D01*
X143249880Y-71341666D01*
X143326071Y-71303571D01*
X143478452Y-71303571D01*
X143554642Y-71341666D01*
X143592738Y-71417857D01*
X143592738Y-71494047D01*
X143211785Y-71570238D01*
X144049880Y-71836904D02*
X143973690Y-71798809D01*
X143935595Y-71722619D01*
X143935595Y-71036904D01*
X145230833Y-71417857D02*
X145345119Y-71455952D01*
X145383214Y-71494047D01*
X145421309Y-71570238D01*
X145421309Y-71684523D01*
X145383214Y-71760714D01*
X145345119Y-71798809D01*
X145268928Y-71836904D01*
X144964166Y-71836904D01*
X144964166Y-71036904D01*
X145230833Y-71036904D01*
X145307023Y-71075000D01*
X145345119Y-71113095D01*
X145383214Y-71189285D01*
X145383214Y-71265476D01*
X145345119Y-71341666D01*
X145307023Y-71379761D01*
X145230833Y-71417857D01*
X144964166Y-71417857D01*
X145764166Y-71836904D02*
X145764166Y-71303571D01*
X145764166Y-71036904D02*
X145726071Y-71075000D01*
X145764166Y-71113095D01*
X145802261Y-71075000D01*
X145764166Y-71036904D01*
X145764166Y-71113095D01*
X146145119Y-71303571D02*
X146145119Y-71836904D01*
X146145119Y-71379761D02*
X146183214Y-71341666D01*
X146259404Y-71303571D01*
X146373690Y-71303571D01*
X146449880Y-71341666D01*
X146487976Y-71417857D01*
X146487976Y-71836904D01*
X147211785Y-71836904D02*
X147211785Y-71036904D01*
X147211785Y-71798809D02*
X147135595Y-71836904D01*
X146983214Y-71836904D01*
X146907023Y-71798809D01*
X146868928Y-71760714D01*
X146830833Y-71684523D01*
X146830833Y-71455952D01*
X146868928Y-71379761D01*
X146907023Y-71341666D01*
X146983214Y-71303571D01*
X147135595Y-71303571D01*
X147211785Y-71341666D01*
X147592738Y-71836904D02*
X147592738Y-71303571D01*
X147592738Y-71036904D02*
X147554642Y-71075000D01*
X147592738Y-71113095D01*
X147630833Y-71075000D01*
X147592738Y-71036904D01*
X147592738Y-71113095D01*
X147973690Y-71303571D02*
X147973690Y-71836904D01*
X147973690Y-71379761D02*
X148011785Y-71341666D01*
X148087976Y-71303571D01*
X148202261Y-71303571D01*
X148278452Y-71341666D01*
X148316547Y-71417857D01*
X148316547Y-71836904D01*
X149040357Y-71303571D02*
X149040357Y-71951190D01*
X149002261Y-72027380D01*
X148964166Y-72065476D01*
X148887976Y-72103571D01*
X148773690Y-72103571D01*
X148697500Y-72065476D01*
X149040357Y-71798809D02*
X148964166Y-71836904D01*
X148811785Y-71836904D01*
X148735595Y-71798809D01*
X148697500Y-71760714D01*
X148659404Y-71684523D01*
X148659404Y-71455952D01*
X148697500Y-71379761D01*
X148735595Y-71341666D01*
X148811785Y-71303571D01*
X148964166Y-71303571D01*
X149040357Y-71341666D01*
X150030833Y-71836904D02*
X150030833Y-71036904D01*
X150335595Y-71036904D01*
X150411785Y-71075000D01*
X150449880Y-71113095D01*
X150487976Y-71189285D01*
X150487976Y-71303571D01*
X150449880Y-71379761D01*
X150411785Y-71417857D01*
X150335595Y-71455952D01*
X150030833Y-71455952D01*
X150945119Y-71836904D02*
X150868928Y-71798809D01*
X150830833Y-71760714D01*
X150792738Y-71684523D01*
X150792738Y-71455952D01*
X150830833Y-71379761D01*
X150868928Y-71341666D01*
X150945119Y-71303571D01*
X151059404Y-71303571D01*
X151135595Y-71341666D01*
X151173690Y-71379761D01*
X151211785Y-71455952D01*
X151211785Y-71684523D01*
X151173690Y-71760714D01*
X151135595Y-71798809D01*
X151059404Y-71836904D01*
X150945119Y-71836904D01*
X151516547Y-71798809D02*
X151592738Y-71836904D01*
X151745119Y-71836904D01*
X151821309Y-71798809D01*
X151859404Y-71722619D01*
X151859404Y-71684523D01*
X151821309Y-71608333D01*
X151745119Y-71570238D01*
X151630833Y-71570238D01*
X151554642Y-71532142D01*
X151516547Y-71455952D01*
X151516547Y-71417857D01*
X151554642Y-71341666D01*
X151630833Y-71303571D01*
X151745119Y-71303571D01*
X151821309Y-71341666D01*
X152087976Y-71303571D02*
X152392738Y-71303571D01*
X152202261Y-71036904D02*
X152202261Y-71722619D01*
X152240357Y-71798809D01*
X152316547Y-71836904D01*
X152392738Y-71836904D01*
X153268928Y-71836904D02*
X153268928Y-71036904D01*
X153573690Y-71036904D01*
X153649880Y-71075000D01*
X153687976Y-71113095D01*
X153726071Y-71189285D01*
X153726071Y-71303571D01*
X153687976Y-71379761D01*
X153649880Y-71417857D01*
X153573690Y-71455952D01*
X153268928Y-71455952D01*
X154526071Y-71760714D02*
X154487976Y-71798809D01*
X154373690Y-71836904D01*
X154297500Y-71836904D01*
X154183214Y-71798809D01*
X154107023Y-71722619D01*
X154068928Y-71646428D01*
X154030833Y-71494047D01*
X154030833Y-71379761D01*
X154068928Y-71227380D01*
X154107023Y-71151190D01*
X154183214Y-71075000D01*
X154297500Y-71036904D01*
X154373690Y-71036904D01*
X154487976Y-71075000D01*
X154526071Y-71113095D01*
X155135595Y-71417857D02*
X155249880Y-71455952D01*
X155287976Y-71494047D01*
X155326071Y-71570238D01*
X155326071Y-71684523D01*
X155287976Y-71760714D01*
X155249880Y-71798809D01*
X155173690Y-71836904D01*
X154868928Y-71836904D01*
X154868928Y-71036904D01*
X155135595Y-71036904D01*
X155211785Y-71075000D01*
X155249880Y-71113095D01*
X155287976Y-71189285D01*
X155287976Y-71265476D01*
X155249880Y-71341666D01*
X155211785Y-71379761D01*
X155135595Y-71417857D01*
X154868928Y-71417857D01*
X156202261Y-71303571D02*
X156392738Y-71836904D01*
X156583214Y-71303571D01*
X157307023Y-71836904D02*
X156849880Y-71836904D01*
X157078452Y-71836904D02*
X157078452Y-71036904D01*
X157002261Y-71151190D01*
X156926071Y-71227380D01*
X156849880Y-71265476D01*
X157649880Y-71760714D02*
X157687976Y-71798809D01*
X157649880Y-71836904D01*
X157611785Y-71798809D01*
X157649880Y-71760714D01*
X157649880Y-71836904D01*
X158183214Y-71036904D02*
X158259404Y-71036904D01*
X158335595Y-71075000D01*
X158373690Y-71113095D01*
X158411785Y-71189285D01*
X158449880Y-71341666D01*
X158449880Y-71532142D01*
X158411785Y-71684523D01*
X158373690Y-71760714D01*
X158335595Y-71798809D01*
X158259404Y-71836904D01*
X158183214Y-71836904D01*
X158107023Y-71798809D01*
X158068928Y-71760714D01*
X158030833Y-71684523D01*
X157992738Y-71532142D01*
X157992738Y-71341666D01*
X158030833Y-71189285D01*
X158068928Y-71113095D01*
X158107023Y-71075000D01*
X158183214Y-71036904D01*
X158945119Y-71036904D02*
X159021309Y-71036904D01*
X159097500Y-71075000D01*
X159135595Y-71113095D01*
X159173690Y-71189285D01*
X159211785Y-71341666D01*
X159211785Y-71532142D01*
X159173690Y-71684523D01*
X159135595Y-71760714D01*
X159097500Y-71798809D01*
X159021309Y-71836904D01*
X158945119Y-71836904D01*
X158868928Y-71798809D01*
X158830833Y-71760714D01*
X158792738Y-71684523D01*
X158754642Y-71532142D01*
X158754642Y-71341666D01*
X158792738Y-71189285D01*
X158830833Y-71113095D01*
X158868928Y-71075000D01*
X158945119Y-71036904D01*
X131287976Y-73186904D02*
X131287976Y-72386904D01*
X131478452Y-72386904D01*
X131592738Y-72425000D01*
X131668928Y-72501190D01*
X131707023Y-72577380D01*
X131745119Y-72729761D01*
X131745119Y-72844047D01*
X131707023Y-72996428D01*
X131668928Y-73072619D01*
X131592738Y-73148809D01*
X131478452Y-73186904D01*
X131287976Y-73186904D01*
X132392738Y-73148809D02*
X132316547Y-73186904D01*
X132164166Y-73186904D01*
X132087976Y-73148809D01*
X132049880Y-73072619D01*
X132049880Y-72767857D01*
X132087976Y-72691666D01*
X132164166Y-72653571D01*
X132316547Y-72653571D01*
X132392738Y-72691666D01*
X132430833Y-72767857D01*
X132430833Y-72844047D01*
X132049880Y-72920238D01*
X132735595Y-73148809D02*
X132811785Y-73186904D01*
X132964166Y-73186904D01*
X133040357Y-73148809D01*
X133078452Y-73072619D01*
X133078452Y-73034523D01*
X133040357Y-72958333D01*
X132964166Y-72920238D01*
X132849880Y-72920238D01*
X132773690Y-72882142D01*
X132735595Y-72805952D01*
X132735595Y-72767857D01*
X132773690Y-72691666D01*
X132849880Y-72653571D01*
X132964166Y-72653571D01*
X133040357Y-72691666D01*
X133421309Y-73186904D02*
X133421309Y-72653571D01*
X133421309Y-72386904D02*
X133383214Y-72425000D01*
X133421309Y-72463095D01*
X133459404Y-72425000D01*
X133421309Y-72386904D01*
X133421309Y-72463095D01*
X134145119Y-72653571D02*
X134145119Y-73301190D01*
X134107023Y-73377380D01*
X134068928Y-73415476D01*
X133992738Y-73453571D01*
X133878452Y-73453571D01*
X133802261Y-73415476D01*
X134145119Y-73148809D02*
X134068928Y-73186904D01*
X133916547Y-73186904D01*
X133840357Y-73148809D01*
X133802261Y-73110714D01*
X133764166Y-73034523D01*
X133764166Y-72805952D01*
X133802261Y-72729761D01*
X133840357Y-72691666D01*
X133916547Y-72653571D01*
X134068928Y-72653571D01*
X134145119Y-72691666D01*
X134526071Y-72653571D02*
X134526071Y-73186904D01*
X134526071Y-72729761D02*
X134564166Y-72691666D01*
X134640357Y-72653571D01*
X134754642Y-72653571D01*
X134830833Y-72691666D01*
X134868928Y-72767857D01*
X134868928Y-73186904D01*
X135249880Y-73110714D02*
X135287976Y-73148809D01*
X135249880Y-73186904D01*
X135211785Y-73148809D01*
X135249880Y-73110714D01*
X135249880Y-73186904D01*
X135249880Y-72691666D02*
X135287976Y-72729761D01*
X135249880Y-72767857D01*
X135211785Y-72729761D01*
X135249880Y-72691666D01*
X135249880Y-72767857D01*
X136240357Y-73186904D02*
X136240357Y-72386904D01*
X136545119Y-72386904D01*
X136621309Y-72425000D01*
X136659404Y-72463095D01*
X136697500Y-72539285D01*
X136697500Y-72653571D01*
X136659404Y-72729761D01*
X136621309Y-72767857D01*
X136545119Y-72805952D01*
X136240357Y-72805952D01*
X137383214Y-73186904D02*
X137383214Y-72767857D01*
X137345119Y-72691666D01*
X137268928Y-72653571D01*
X137116547Y-72653571D01*
X137040357Y-72691666D01*
X137383214Y-73148809D02*
X137307023Y-73186904D01*
X137116547Y-73186904D01*
X137040357Y-73148809D01*
X137002261Y-73072619D01*
X137002261Y-72996428D01*
X137040357Y-72920238D01*
X137116547Y-72882142D01*
X137307023Y-72882142D01*
X137383214Y-72844047D01*
X137649880Y-72653571D02*
X137954642Y-72653571D01*
X137764166Y-72386904D02*
X137764166Y-73072619D01*
X137802261Y-73148809D01*
X137878452Y-73186904D01*
X137954642Y-73186904D01*
X138221309Y-73186904D02*
X138221309Y-72653571D01*
X138221309Y-72805952D02*
X138259404Y-72729761D01*
X138297500Y-72691666D01*
X138373690Y-72653571D01*
X138449880Y-72653571D01*
X138716547Y-73186904D02*
X138716547Y-72653571D01*
X138716547Y-72386904D02*
X138678452Y-72425000D01*
X138716547Y-72463095D01*
X138754642Y-72425000D01*
X138716547Y-72386904D01*
X138716547Y-72463095D01*
X139440357Y-73148809D02*
X139364166Y-73186904D01*
X139211785Y-73186904D01*
X139135595Y-73148809D01*
X139097500Y-73110714D01*
X139059404Y-73034523D01*
X139059404Y-72805952D01*
X139097500Y-72729761D01*
X139135595Y-72691666D01*
X139211785Y-72653571D01*
X139364166Y-72653571D01*
X139440357Y-72691666D01*
X139783214Y-73186904D02*
X139783214Y-72386904D01*
X139859404Y-72882142D02*
X140087976Y-73186904D01*
X140087976Y-72653571D02*
X139783214Y-72958333D01*
X141307023Y-72767857D02*
X141421309Y-72805952D01*
X141459404Y-72844047D01*
X141497500Y-72920238D01*
X141497500Y-73034523D01*
X141459404Y-73110714D01*
X141421309Y-73148809D01*
X141345119Y-73186904D01*
X141040357Y-73186904D01*
X141040357Y-72386904D01*
X141307023Y-72386904D01*
X141383214Y-72425000D01*
X141421309Y-72463095D01*
X141459404Y-72539285D01*
X141459404Y-72615476D01*
X141421309Y-72691666D01*
X141383214Y-72729761D01*
X141307023Y-72767857D01*
X141040357Y-72767857D01*
X142183214Y-73186904D02*
X142183214Y-72767857D01*
X142145119Y-72691666D01*
X142068928Y-72653571D01*
X141916547Y-72653571D01*
X141840357Y-72691666D01*
X142183214Y-73148809D02*
X142107023Y-73186904D01*
X141916547Y-73186904D01*
X141840357Y-73148809D01*
X141802261Y-73072619D01*
X141802261Y-72996428D01*
X141840357Y-72920238D01*
X141916547Y-72882142D01*
X142107023Y-72882142D01*
X142183214Y-72844047D01*
X142907023Y-72653571D02*
X142907023Y-73186904D01*
X142564166Y-72653571D02*
X142564166Y-73072619D01*
X142602261Y-73148809D01*
X142678452Y-73186904D01*
X142792738Y-73186904D01*
X142868928Y-73148809D01*
X142907023Y-73110714D01*
X143249880Y-73148809D02*
X143326071Y-73186904D01*
X143478452Y-73186904D01*
X143554642Y-73148809D01*
X143592738Y-73072619D01*
X143592738Y-73034523D01*
X143554642Y-72958333D01*
X143478452Y-72920238D01*
X143364166Y-72920238D01*
X143287976Y-72882142D01*
X143249880Y-72805952D01*
X143249880Y-72767857D01*
X143287976Y-72691666D01*
X143364166Y-72653571D01*
X143478452Y-72653571D01*
X143554642Y-72691666D01*
X131287976Y-74536904D02*
X131287976Y-73736904D01*
X131478452Y-73736904D01*
X131592738Y-73775000D01*
X131668928Y-73851190D01*
X131707023Y-73927380D01*
X131745119Y-74079761D01*
X131745119Y-74194047D01*
X131707023Y-74346428D01*
X131668928Y-74422619D01*
X131592738Y-74498809D01*
X131478452Y-74536904D01*
X131287976Y-74536904D01*
X132430833Y-74536904D02*
X132430833Y-74117857D01*
X132392738Y-74041666D01*
X132316547Y-74003571D01*
X132164166Y-74003571D01*
X132087976Y-74041666D01*
X132430833Y-74498809D02*
X132354642Y-74536904D01*
X132164166Y-74536904D01*
X132087976Y-74498809D01*
X132049880Y-74422619D01*
X132049880Y-74346428D01*
X132087976Y-74270238D01*
X132164166Y-74232142D01*
X132354642Y-74232142D01*
X132430833Y-74194047D01*
X132697500Y-74003571D02*
X133002261Y-74003571D01*
X132811785Y-73736904D02*
X132811785Y-74422619D01*
X132849880Y-74498809D01*
X132926071Y-74536904D01*
X133002261Y-74536904D01*
X133573690Y-74498809D02*
X133497500Y-74536904D01*
X133345119Y-74536904D01*
X133268928Y-74498809D01*
X133230833Y-74422619D01*
X133230833Y-74117857D01*
X133268928Y-74041666D01*
X133345119Y-74003571D01*
X133497500Y-74003571D01*
X133573690Y-74041666D01*
X133611785Y-74117857D01*
X133611785Y-74194047D01*
X133230833Y-74270238D01*
X133954642Y-74460714D02*
X133992738Y-74498809D01*
X133954642Y-74536904D01*
X133916547Y-74498809D01*
X133954642Y-74460714D01*
X133954642Y-74536904D01*
X133954642Y-74041666D02*
X133992738Y-74079761D01*
X133954642Y-74117857D01*
X133916547Y-74079761D01*
X133954642Y-74041666D01*
X133954642Y-74117857D01*
X134907023Y-73813095D02*
X134945119Y-73775000D01*
X135021309Y-73736904D01*
X135211785Y-73736904D01*
X135287976Y-73775000D01*
X135326071Y-73813095D01*
X135364166Y-73889285D01*
X135364166Y-73965476D01*
X135326071Y-74079761D01*
X134868928Y-74536904D01*
X135364166Y-74536904D01*
X135859404Y-73736904D02*
X135935595Y-73736904D01*
X136011785Y-73775000D01*
X136049880Y-73813095D01*
X136087976Y-73889285D01*
X136126071Y-74041666D01*
X136126071Y-74232142D01*
X136087976Y-74384523D01*
X136049880Y-74460714D01*
X136011785Y-74498809D01*
X135935595Y-74536904D01*
X135859404Y-74536904D01*
X135783214Y-74498809D01*
X135745119Y-74460714D01*
X135707023Y-74384523D01*
X135668928Y-74232142D01*
X135668928Y-74041666D01*
X135707023Y-73889285D01*
X135745119Y-73813095D01*
X135783214Y-73775000D01*
X135859404Y-73736904D01*
X136430833Y-73813095D02*
X136468928Y-73775000D01*
X136545119Y-73736904D01*
X136735595Y-73736904D01*
X136811785Y-73775000D01*
X136849880Y-73813095D01*
X136887976Y-73889285D01*
X136887976Y-73965476D01*
X136849880Y-74079761D01*
X136392738Y-74536904D01*
X136887976Y-74536904D01*
X137383214Y-73736904D02*
X137459404Y-73736904D01*
X137535595Y-73775000D01*
X137573690Y-73813095D01*
X137611785Y-73889285D01*
X137649880Y-74041666D01*
X137649880Y-74232142D01*
X137611785Y-74384523D01*
X137573690Y-74460714D01*
X137535595Y-74498809D01*
X137459404Y-74536904D01*
X137383214Y-74536904D01*
X137307023Y-74498809D01*
X137268928Y-74460714D01*
X137230833Y-74384523D01*
X137192738Y-74232142D01*
X137192738Y-74041666D01*
X137230833Y-73889285D01*
X137268928Y-73813095D01*
X137307023Y-73775000D01*
X137383214Y-73736904D01*
X137992738Y-74232142D02*
X138602261Y-74232142D01*
X139135595Y-73736904D02*
X139211785Y-73736904D01*
X139287976Y-73775000D01*
X139326071Y-73813095D01*
X139364166Y-73889285D01*
X139402261Y-74041666D01*
X139402261Y-74232142D01*
X139364166Y-74384523D01*
X139326071Y-74460714D01*
X139287976Y-74498809D01*
X139211785Y-74536904D01*
X139135595Y-74536904D01*
X139059404Y-74498809D01*
X139021309Y-74460714D01*
X138983214Y-74384523D01*
X138945119Y-74232142D01*
X138945119Y-74041666D01*
X138983214Y-73889285D01*
X139021309Y-73813095D01*
X139059404Y-73775000D01*
X139135595Y-73736904D01*
X139783214Y-74536904D02*
X139935595Y-74536904D01*
X140011785Y-74498809D01*
X140049880Y-74460714D01*
X140126071Y-74346428D01*
X140164166Y-74194047D01*
X140164166Y-73889285D01*
X140126071Y-73813095D01*
X140087976Y-73775000D01*
X140011785Y-73736904D01*
X139859404Y-73736904D01*
X139783214Y-73775000D01*
X139745119Y-73813095D01*
X139707023Y-73889285D01*
X139707023Y-74079761D01*
X139745119Y-74155952D01*
X139783214Y-74194047D01*
X139859404Y-74232142D01*
X140011785Y-74232142D01*
X140087976Y-74194047D01*
X140126071Y-74155952D01*
X140164166Y-74079761D01*
X131287976Y-75886904D02*
X131287976Y-75086904D01*
X131630833Y-75886904D02*
X131630833Y-75467857D01*
X131592738Y-75391666D01*
X131516547Y-75353571D01*
X131402261Y-75353571D01*
X131326071Y-75391666D01*
X131287976Y-75429761D01*
X131897500Y-75353571D02*
X132202261Y-75353571D01*
X132011785Y-75086904D02*
X132011785Y-75772619D01*
X132049880Y-75848809D01*
X132126071Y-75886904D01*
X132202261Y-75886904D01*
X132354642Y-75353571D02*
X132659404Y-75353571D01*
X132468928Y-75086904D02*
X132468928Y-75772619D01*
X132507023Y-75848809D01*
X132583214Y-75886904D01*
X132659404Y-75886904D01*
X132926071Y-75353571D02*
X132926071Y-76153571D01*
X132926071Y-75391666D02*
X133002261Y-75353571D01*
X133154642Y-75353571D01*
X133230833Y-75391666D01*
X133268928Y-75429761D01*
X133307023Y-75505952D01*
X133307023Y-75734523D01*
X133268928Y-75810714D01*
X133230833Y-75848809D01*
X133154642Y-75886904D01*
X133002261Y-75886904D01*
X132926071Y-75848809D01*
X133611785Y-75848809D02*
X133687976Y-75886904D01*
X133840357Y-75886904D01*
X133916547Y-75848809D01*
X133954642Y-75772619D01*
X133954642Y-75734523D01*
X133916547Y-75658333D01*
X133840357Y-75620238D01*
X133726071Y-75620238D01*
X133649880Y-75582142D01*
X133611785Y-75505952D01*
X133611785Y-75467857D01*
X133649880Y-75391666D01*
X133726071Y-75353571D01*
X133840357Y-75353571D01*
X133916547Y-75391666D01*
X134297500Y-75810714D02*
X134335595Y-75848809D01*
X134297500Y-75886904D01*
X134259404Y-75848809D01*
X134297500Y-75810714D01*
X134297500Y-75886904D01*
X134297500Y-75391666D02*
X134335595Y-75429761D01*
X134297500Y-75467857D01*
X134259404Y-75429761D01*
X134297500Y-75391666D01*
X134297500Y-75467857D01*
X135249880Y-75048809D02*
X134564166Y-76077380D01*
X136087976Y-75048809D02*
X135402261Y-76077380D01*
X136697500Y-75353571D02*
X136697500Y-76001190D01*
X136659404Y-76077380D01*
X136621309Y-76115476D01*
X136545119Y-76153571D01*
X136430833Y-76153571D01*
X136354642Y-76115476D01*
X136697500Y-75848809D02*
X136621309Y-75886904D01*
X136468928Y-75886904D01*
X136392738Y-75848809D01*
X136354642Y-75810714D01*
X136316547Y-75734523D01*
X136316547Y-75505952D01*
X136354642Y-75429761D01*
X136392738Y-75391666D01*
X136468928Y-75353571D01*
X136621309Y-75353571D01*
X136697500Y-75391666D01*
X137078452Y-75886904D02*
X137078452Y-75353571D01*
X137078452Y-75086904D02*
X137040357Y-75125000D01*
X137078452Y-75163095D01*
X137116547Y-75125000D01*
X137078452Y-75086904D01*
X137078452Y-75163095D01*
X137345119Y-75353571D02*
X137649880Y-75353571D01*
X137459404Y-75086904D02*
X137459404Y-75772619D01*
X137497500Y-75848809D01*
X137573690Y-75886904D01*
X137649880Y-75886904D01*
X137916547Y-75886904D02*
X137916547Y-75086904D01*
X138259404Y-75886904D02*
X138259404Y-75467857D01*
X138221309Y-75391666D01*
X138145119Y-75353571D01*
X138030833Y-75353571D01*
X137954642Y-75391666D01*
X137916547Y-75429761D01*
X138983214Y-75353571D02*
X138983214Y-75886904D01*
X138640357Y-75353571D02*
X138640357Y-75772619D01*
X138678452Y-75848809D01*
X138754642Y-75886904D01*
X138868928Y-75886904D01*
X138945119Y-75848809D01*
X138983214Y-75810714D01*
X139364166Y-75886904D02*
X139364166Y-75086904D01*
X139364166Y-75391666D02*
X139440357Y-75353571D01*
X139592738Y-75353571D01*
X139668928Y-75391666D01*
X139707023Y-75429761D01*
X139745119Y-75505952D01*
X139745119Y-75734523D01*
X139707023Y-75810714D01*
X139668928Y-75848809D01*
X139592738Y-75886904D01*
X139440357Y-75886904D01*
X139364166Y-75848809D01*
X140087976Y-75810714D02*
X140126071Y-75848809D01*
X140087976Y-75886904D01*
X140049880Y-75848809D01*
X140087976Y-75810714D01*
X140087976Y-75886904D01*
X140811785Y-75848809D02*
X140735595Y-75886904D01*
X140583214Y-75886904D01*
X140507023Y-75848809D01*
X140468928Y-75810714D01*
X140430833Y-75734523D01*
X140430833Y-75505952D01*
X140468928Y-75429761D01*
X140507023Y-75391666D01*
X140583214Y-75353571D01*
X140735595Y-75353571D01*
X140811785Y-75391666D01*
X141268928Y-75886904D02*
X141192738Y-75848809D01*
X141154642Y-75810714D01*
X141116547Y-75734523D01*
X141116547Y-75505952D01*
X141154642Y-75429761D01*
X141192738Y-75391666D01*
X141268928Y-75353571D01*
X141383214Y-75353571D01*
X141459404Y-75391666D01*
X141497500Y-75429761D01*
X141535595Y-75505952D01*
X141535595Y-75734523D01*
X141497500Y-75810714D01*
X141459404Y-75848809D01*
X141383214Y-75886904D01*
X141268928Y-75886904D01*
X141878452Y-75886904D02*
X141878452Y-75353571D01*
X141878452Y-75429761D02*
X141916547Y-75391666D01*
X141992738Y-75353571D01*
X142107023Y-75353571D01*
X142183214Y-75391666D01*
X142221309Y-75467857D01*
X142221309Y-75886904D01*
X142221309Y-75467857D02*
X142259404Y-75391666D01*
X142335595Y-75353571D01*
X142449880Y-75353571D01*
X142526071Y-75391666D01*
X142564166Y-75467857D01*
X142564166Y-75886904D01*
X143516547Y-75048809D02*
X142830833Y-76077380D01*
X143783214Y-75886904D02*
X143783214Y-75086904D01*
X144087976Y-75086904D01*
X144164166Y-75125000D01*
X144202261Y-75163095D01*
X144240357Y-75239285D01*
X144240357Y-75353571D01*
X144202261Y-75429761D01*
X144164166Y-75467857D01*
X144087976Y-75505952D01*
X143783214Y-75505952D01*
X144926071Y-75886904D02*
X144926071Y-75467857D01*
X144887976Y-75391666D01*
X144811785Y-75353571D01*
X144659404Y-75353571D01*
X144583214Y-75391666D01*
X144926071Y-75848809D02*
X144849880Y-75886904D01*
X144659404Y-75886904D01*
X144583214Y-75848809D01*
X144545119Y-75772619D01*
X144545119Y-75696428D01*
X144583214Y-75620238D01*
X144659404Y-75582142D01*
X144849880Y-75582142D01*
X144926071Y-75544047D01*
X145192738Y-75353571D02*
X145497500Y-75353571D01*
X145307023Y-75086904D02*
X145307023Y-75772619D01*
X145345119Y-75848809D01*
X145421309Y-75886904D01*
X145497500Y-75886904D01*
X145764166Y-75886904D02*
X145764166Y-75353571D01*
X145764166Y-75505952D02*
X145802261Y-75429761D01*
X145840357Y-75391666D01*
X145916547Y-75353571D01*
X145992738Y-75353571D01*
X146259404Y-75886904D02*
X146259404Y-75353571D01*
X146259404Y-75086904D02*
X146221309Y-75125000D01*
X146259404Y-75163095D01*
X146297500Y-75125000D01*
X146259404Y-75086904D01*
X146259404Y-75163095D01*
X146983214Y-75848809D02*
X146907023Y-75886904D01*
X146754642Y-75886904D01*
X146678452Y-75848809D01*
X146640357Y-75810714D01*
X146602261Y-75734523D01*
X146602261Y-75505952D01*
X146640357Y-75429761D01*
X146678452Y-75391666D01*
X146754642Y-75353571D01*
X146907023Y-75353571D01*
X146983214Y-75391666D01*
X147326071Y-75886904D02*
X147326071Y-75086904D01*
X147402261Y-75582142D02*
X147630833Y-75886904D01*
X147630833Y-75353571D02*
X147326071Y-75658333D01*
X148240357Y-75467857D02*
X148354642Y-75505952D01*
X148392738Y-75544047D01*
X148430833Y-75620238D01*
X148430833Y-75734523D01*
X148392738Y-75810714D01*
X148354642Y-75848809D01*
X148278452Y-75886904D01*
X147973690Y-75886904D01*
X147973690Y-75086904D01*
X148240357Y-75086904D01*
X148316547Y-75125000D01*
X148354642Y-75163095D01*
X148392738Y-75239285D01*
X148392738Y-75315476D01*
X148354642Y-75391666D01*
X148316547Y-75429761D01*
X148240357Y-75467857D01*
X147973690Y-75467857D01*
X149116547Y-75886904D02*
X149116547Y-75467857D01*
X149078452Y-75391666D01*
X149002261Y-75353571D01*
X148849880Y-75353571D01*
X148773690Y-75391666D01*
X149116547Y-75848809D02*
X149040357Y-75886904D01*
X148849880Y-75886904D01*
X148773690Y-75848809D01*
X148735595Y-75772619D01*
X148735595Y-75696428D01*
X148773690Y-75620238D01*
X148849880Y-75582142D01*
X149040357Y-75582142D01*
X149116547Y-75544047D01*
X149840357Y-75353571D02*
X149840357Y-75886904D01*
X149497500Y-75353571D02*
X149497500Y-75772619D01*
X149535595Y-75848809D01*
X149611785Y-75886904D01*
X149726071Y-75886904D01*
X149802261Y-75848809D01*
X149840357Y-75810714D01*
X150183214Y-75848809D02*
X150259404Y-75886904D01*
X150411785Y-75886904D01*
X150487976Y-75848809D01*
X150526071Y-75772619D01*
X150526071Y-75734523D01*
X150487976Y-75658333D01*
X150411785Y-75620238D01*
X150297500Y-75620238D01*
X150221309Y-75582142D01*
X150183214Y-75505952D01*
X150183214Y-75467857D01*
X150221309Y-75391666D01*
X150297500Y-75353571D01*
X150411785Y-75353571D01*
X150487976Y-75391666D01*
D11*
X166428571Y-132892857D02*
X166928571Y-132892857D01*
X167142857Y-133678571D02*
X166428571Y-133678571D01*
X166428571Y-132178571D01*
X167142857Y-132178571D01*
X168428571Y-133678571D02*
X168428571Y-132892857D01*
X168357142Y-132750000D01*
X168214285Y-132678571D01*
X167928571Y-132678571D01*
X167785714Y-132750000D01*
X168428571Y-133607142D02*
X168285714Y-133678571D01*
X167928571Y-133678571D01*
X167785714Y-133607142D01*
X167714285Y-133464285D01*
X167714285Y-133321428D01*
X167785714Y-133178571D01*
X167928571Y-133107142D01*
X168285714Y-133107142D01*
X168428571Y-133035714D01*
X169142857Y-133678571D02*
X169142857Y-132678571D01*
X169142857Y-132964285D02*
X169214285Y-132821428D01*
X169285714Y-132750000D01*
X169428571Y-132678571D01*
X169571428Y-132678571D01*
X169857142Y-132678571D02*
X170428571Y-132678571D01*
X170071428Y-132178571D02*
X170071428Y-133464285D01*
X170142857Y-133607142D01*
X170285714Y-133678571D01*
X170428571Y-133678571D01*
X170928571Y-133678571D02*
X170928571Y-132178571D01*
X171571428Y-133678571D02*
X171571428Y-132892857D01*
X171500000Y-132750000D01*
X171357142Y-132678571D01*
X171142857Y-132678571D01*
X171000000Y-132750000D01*
X170928571Y-132821428D01*
X131178571Y-120035714D02*
X132678571Y-119535714D01*
X131178571Y-119035714D01*
X132607142Y-118607142D02*
X132678571Y-118464285D01*
X132678571Y-118178571D01*
X132607142Y-118035714D01*
X132464285Y-117964285D01*
X132392857Y-117964285D01*
X132250000Y-118035714D01*
X132178571Y-118178571D01*
X132178571Y-118392857D01*
X132107142Y-118535714D01*
X131964285Y-118607142D01*
X131892857Y-118607142D01*
X131750000Y-118535714D01*
X131678571Y-118392857D01*
X131678571Y-118178571D01*
X131750000Y-118035714D01*
X132107142Y-117321428D02*
X132107142Y-116178571D01*
X169464285Y-108678571D02*
X169964285Y-110178571D01*
X170464285Y-108678571D01*
X170892857Y-110107142D02*
X171035714Y-110178571D01*
X171321428Y-110178571D01*
X171464285Y-110107142D01*
X171535714Y-109964285D01*
X171535714Y-109892857D01*
X171464285Y-109750000D01*
X171321428Y-109678571D01*
X171107142Y-109678571D01*
X170964285Y-109607142D01*
X170892857Y-109464285D01*
X170892857Y-109392857D01*
X170964285Y-109250000D01*
X171107142Y-109178571D01*
X171321428Y-109178571D01*
X171464285Y-109250000D01*
X172178571Y-109607142D02*
X173321428Y-109607142D01*
X172750000Y-110178571D02*
X172750000Y-109035714D01*
X147571428Y-87178571D02*
X148071428Y-88678571D01*
X148571428Y-87178571D01*
X149071428Y-88107142D02*
X150214285Y-88107142D01*
X166571428Y-87178571D02*
X167071428Y-88678571D01*
X167571428Y-87178571D01*
X168071428Y-88107142D02*
X169214285Y-88107142D01*
X168642857Y-88678571D02*
X168642857Y-87535714D01*
D12*
X168250000Y-137500000D02*
G75*
G03*
X168250000Y-137500000I-2250000J0D01*
G01*
D10*
X171150000Y-131200000D02*
X166950000Y-131200000D01*
X166950000Y-131200000D02*
X166950000Y-128800000D01*
X166950000Y-128800000D02*
X171150000Y-128800000D01*
X171150000Y-128800000D02*
X171150000Y-131200000D01*
D12*
X141425000Y-123880000D02*
X142821000Y-123880000D01*
X138179000Y-123880000D02*
X139575000Y-123880000D01*
X141425000Y-130120000D02*
X142821000Y-130120000D01*
X138179000Y-130120000D02*
X139575000Y-130120000D01*
X142821000Y-130120000D02*
X142821000Y-123880000D01*
X138179000Y-130120000D02*
X138179000Y-123880000D01*
X169321000Y-117880000D02*
X169321000Y-124120000D01*
X164679000Y-117880000D02*
X164679000Y-124120000D01*
X169321000Y-117880000D02*
X167925000Y-117880000D01*
X166075000Y-117880000D02*
X164679000Y-117880000D01*
X169321000Y-124120000D02*
X167925000Y-124120000D01*
X166075000Y-124120000D02*
X164679000Y-124120000D01*
X139761252Y-121610000D02*
X139238748Y-121610000D01*
X139761252Y-119390000D02*
X139238748Y-119390000D01*
X161890000Y-117761252D02*
X161890000Y-117238748D01*
X164110000Y-117761252D02*
X164110000Y-117238748D01*
D10*
X136200000Y-115900000D02*
X136200000Y-120100000D01*
X136200000Y-120100000D02*
X133800000Y-120100000D01*
X133800000Y-120100000D02*
X133800000Y-115900000D01*
X133800000Y-115900000D02*
X136200000Y-115900000D01*
X169100000Y-115700000D02*
X164900000Y-115700000D01*
X164900000Y-115700000D02*
X164900000Y-113300000D01*
X164900000Y-113300000D02*
X169100000Y-113300000D01*
X169100000Y-113300000D02*
X169100000Y-115700000D01*
X151675000Y-89700000D02*
X151675000Y-92100000D01*
X147475000Y-89700000D02*
X151675000Y-89700000D01*
X147475000Y-92100000D02*
X147475000Y-89700000D01*
X151675000Y-92100000D02*
X147475000Y-92100000D01*
X170725000Y-89700000D02*
X170725000Y-92100000D01*
X166525000Y-89700000D02*
X170725000Y-89700000D01*
X166525000Y-92100000D02*
X166525000Y-89700000D01*
X170725000Y-92100000D02*
X166525000Y-92100000D01*
D13*
X172625000Y-72000000D02*
G75*
G03*
X172625000Y-72000000I-125000J0D01*
G01*
X171625000Y-72000000D02*
G75*
G03*
X171625000Y-72000000I-125000J0D01*
G01*
X170625000Y-72000000D02*
G75*
G03*
X170625000Y-72000000I-125000J0D01*
G01*
X170625000Y-73000000D02*
G75*
G03*
X170625000Y-73000000I-125000J0D01*
G01*
X171625000Y-73000000D02*
G75*
G03*
X171625000Y-73000000I-125000J0D01*
G01*
X172625000Y-73000000D02*
G75*
G03*
X172625000Y-73000000I-125000J0D01*
G01*
X171625000Y-74000000D02*
G75*
G03*
X171625000Y-74000000I-125000J0D01*
G01*
X172625000Y-74000000D02*
G75*
G03*
X172625000Y-74000000I-125000J0D01*
G01*
X170625000Y-74000000D02*
G75*
G03*
X170625000Y-74000000I-125000J0D01*
G01*
D14*
G36*
X169000964Y-75898576D02*
G01*
X169076513Y-76299322D01*
X169634041Y-76529154D01*
X169968465Y-76301748D01*
X170062122Y-76238431D01*
X170146782Y-76181896D01*
X170218495Y-76134727D01*
X170273311Y-76099502D01*
X170307280Y-76078805D01*
X170316530Y-76074342D01*
X170333195Y-76085820D01*
X170368806Y-76117551D01*
X170419371Y-76165483D01*
X170480900Y-76225562D01*
X170549399Y-76293733D01*
X170620879Y-76365945D01*
X170691347Y-76438142D01*
X170756811Y-76506273D01*
X170813280Y-76566283D01*
X170856763Y-76614119D01*
X170883268Y-76645727D01*
X170889605Y-76656305D01*
X170880486Y-76675806D01*
X170854920Y-76718531D01*
X170815597Y-76780298D01*
X170765203Y-76856931D01*
X170706427Y-76944248D01*
X170672368Y-76994052D01*
X170610289Y-77084993D01*
X170555126Y-77167059D01*
X170509554Y-77236163D01*
X170476250Y-77288222D01*
X170457890Y-77319150D01*
X170455131Y-77325650D01*
X170461385Y-77344121D01*
X170478434Y-77387172D01*
X170503703Y-77448749D01*
X170534622Y-77522799D01*
X170568618Y-77603270D01*
X170603118Y-77684107D01*
X170635551Y-77759258D01*
X170663343Y-77822671D01*
X170683923Y-77868293D01*
X170694719Y-77890069D01*
X170695356Y-77890926D01*
X170712307Y-77895084D01*
X170757451Y-77904361D01*
X170826110Y-77917844D01*
X170913602Y-77934621D01*
X171015250Y-77953781D01*
X171074556Y-77964830D01*
X171183172Y-77985510D01*
X171281277Y-78005189D01*
X171363909Y-78022789D01*
X171426104Y-78037233D01*
X171462899Y-78047446D01*
X171470296Y-78050686D01*
X171477540Y-78072617D01*
X171483385Y-78122147D01*
X171487835Y-78193485D01*
X171490893Y-78280839D01*
X171492565Y-78378417D01*
X171492853Y-78480426D01*
X171491761Y-78581075D01*
X171489294Y-78674572D01*
X171485456Y-78755125D01*
X171480250Y-78816942D01*
X171473681Y-78854230D01*
X171469741Y-78861993D01*
X171446188Y-78871298D01*
X171396282Y-78884600D01*
X171326623Y-78900337D01*
X171243813Y-78916946D01*
X171214905Y-78922319D01*
X171075531Y-78947848D01*
X170965436Y-78968408D01*
X170880982Y-78984815D01*
X170818530Y-78997887D01*
X170774444Y-79008441D01*
X170745085Y-79017294D01*
X170726815Y-79025263D01*
X170715998Y-79033165D01*
X170714485Y-79034727D01*
X170699377Y-79059886D01*
X170676329Y-79108850D01*
X170647644Y-79175621D01*
X170615622Y-79254205D01*
X170582565Y-79338607D01*
X170550773Y-79422830D01*
X170522549Y-79500879D01*
X170500193Y-79566759D01*
X170486007Y-79614473D01*
X170482293Y-79638027D01*
X170482602Y-79638852D01*
X170495189Y-79658104D01*
X170523744Y-79700463D01*
X170565267Y-79761521D01*
X170616756Y-79836868D01*
X170675211Y-79922096D01*
X170691858Y-79946315D01*
X170751215Y-80034123D01*
X170803447Y-80114238D01*
X170845708Y-80182062D01*
X170875153Y-80232993D01*
X170888937Y-80262431D01*
X170889605Y-80266048D01*
X170878024Y-80285057D01*
X170846024Y-80322714D01*
X170797718Y-80374973D01*
X170737220Y-80437786D01*
X170668644Y-80507106D01*
X170596104Y-80578885D01*
X170523712Y-80649077D01*
X170455584Y-80713635D01*
X170395832Y-80768510D01*
X170348571Y-80809656D01*
X170317913Y-80833026D01*
X170309432Y-80836842D01*
X170289691Y-80827855D01*
X170249274Y-80803616D01*
X170194763Y-80768209D01*
X170152823Y-80739711D01*
X170076829Y-80687418D01*
X169986834Y-80625845D01*
X169896564Y-80564370D01*
X169848032Y-80531469D01*
X169683762Y-80420359D01*
X169545869Y-80494916D01*
X169483049Y-80527578D01*
X169429629Y-80552966D01*
X169393484Y-80567446D01*
X169384284Y-80569460D01*
X169373221Y-80554584D01*
X169351394Y-80512547D01*
X169320434Y-80447227D01*
X169281970Y-80362500D01*
X169237632Y-80262245D01*
X169189047Y-80150339D01*
X169137846Y-80030659D01*
X169085659Y-79907084D01*
X169034113Y-79783491D01*
X168984840Y-79663757D01*
X168939467Y-79551759D01*
X168899625Y-79451377D01*
X168866942Y-79366486D01*
X168843049Y-79300965D01*
X168829574Y-79258690D01*
X168827406Y-79244172D01*
X168844583Y-79225653D01*
X168882190Y-79195590D01*
X168932366Y-79160232D01*
X168936578Y-79157434D01*
X169066264Y-79053625D01*
X169170834Y-78932515D01*
X169249381Y-78797976D01*
X169300999Y-78653882D01*
X169324782Y-78504105D01*
X169319823Y-78352517D01*
X169285217Y-78202992D01*
X169220057Y-78059400D01*
X169200886Y-78027984D01*
X169101174Y-77901125D01*
X168983377Y-77799255D01*
X168851571Y-77722904D01*
X168709833Y-77672602D01*
X168562242Y-77648879D01*
X168412873Y-77652265D01*
X168265803Y-77683288D01*
X168125111Y-77742480D01*
X167994873Y-77830369D01*
X167954586Y-77866042D01*
X167852055Y-77977706D01*
X167777341Y-78095257D01*
X167726090Y-78227020D01*
X167697546Y-78357507D01*
X167690500Y-78504216D01*
X167713996Y-78651653D01*
X167765649Y-78794834D01*
X167843071Y-78928777D01*
X167943875Y-79048498D01*
X168065676Y-79149014D01*
X168081684Y-79159609D01*
X168132398Y-79194306D01*
X168170950Y-79224370D01*
X168189381Y-79243565D01*
X168189649Y-79244172D01*
X168185692Y-79264936D01*
X168170007Y-79312062D01*
X168144222Y-79381673D01*
X168109969Y-79469893D01*
X168068877Y-79572844D01*
X168022576Y-79686650D01*
X167972696Y-79807435D01*
X167920867Y-79931321D01*
X167868719Y-80054432D01*
X167817882Y-80172891D01*
X167769987Y-80282823D01*
X167726662Y-80380349D01*
X167689538Y-80461593D01*
X167660244Y-80522679D01*
X167640412Y-80559730D01*
X167632426Y-80569460D01*
X167608021Y-80561883D01*
X167562358Y-80541560D01*
X167503310Y-80512125D01*
X167470840Y-80494916D01*
X167332947Y-80420359D01*
X167168677Y-80531469D01*
X167084821Y-80588390D01*
X166993013Y-80651030D01*
X166906980Y-80710011D01*
X166863887Y-80739711D01*
X166803277Y-80780410D01*
X166751955Y-80812663D01*
X166716615Y-80832384D01*
X166705137Y-80836554D01*
X166688430Y-80825307D01*
X166651454Y-80793911D01*
X166597795Y-80745624D01*
X166531038Y-80683708D01*
X166454766Y-80611421D01*
X166406527Y-80565008D01*
X166322133Y-80482087D01*
X166249197Y-80407920D01*
X166190669Y-80345680D01*
X166149497Y-80298541D01*
X166128628Y-80269673D01*
X166126626Y-80263815D01*
X166135917Y-80241532D01*
X166161591Y-80196477D01*
X166200800Y-80133211D01*
X166250697Y-80056295D01*
X166308433Y-79970292D01*
X166324851Y-79946315D01*
X166384677Y-79859170D01*
X166438350Y-79780710D01*
X166482870Y-79715345D01*
X166515235Y-79667484D01*
X166532445Y-79641535D01*
X166534107Y-79638852D01*
X166531621Y-79618172D01*
X166518423Y-79572704D01*
X166496814Y-79508444D01*
X166469096Y-79431387D01*
X166437570Y-79347529D01*
X166404537Y-79262866D01*
X166372299Y-79183392D01*
X166343157Y-79115104D01*
X166319412Y-79063997D01*
X166303365Y-79036067D01*
X166302225Y-79034727D01*
X166292412Y-79026745D01*
X166275839Y-79018851D01*
X166248868Y-79010229D01*
X166207861Y-79000062D01*
X166149180Y-78987531D01*
X166069187Y-78971821D01*
X165964245Y-78952113D01*
X165830715Y-78927592D01*
X165801804Y-78922319D01*
X165716118Y-78905764D01*
X165641418Y-78889569D01*
X165584306Y-78875296D01*
X165551383Y-78864508D01*
X165546969Y-78861993D01*
X165539694Y-78839696D01*
X165533781Y-78789869D01*
X165529234Y-78718304D01*
X165526055Y-78630793D01*
X165524251Y-78533128D01*
X165523823Y-78431101D01*
X165524777Y-78330503D01*
X165527116Y-78237127D01*
X165530844Y-78156765D01*
X165535966Y-78095209D01*
X165542484Y-78058250D01*
X165546414Y-78050686D01*
X165568292Y-78043056D01*
X165618109Y-78030642D01*
X165690903Y-78014522D01*
X165781711Y-77995773D01*
X165885569Y-77975471D01*
X165942154Y-77964830D01*
X166049514Y-77944760D01*
X166145254Y-77926580D01*
X166224694Y-77911199D01*
X166283154Y-77899531D01*
X166315955Y-77892488D01*
X166321354Y-77890926D01*
X166330478Y-77873322D01*
X166349765Y-77830918D01*
X166376645Y-77769772D01*
X166408546Y-77695943D01*
X166442898Y-77615489D01*
X166477129Y-77534468D01*
X166508669Y-77458937D01*
X166534946Y-77394955D01*
X166553389Y-77348580D01*
X166561429Y-77325869D01*
X166561578Y-77324876D01*
X166552465Y-77306961D01*
X166526914Y-77265733D01*
X166487612Y-77205291D01*
X166437243Y-77129731D01*
X166378494Y-77043152D01*
X166344342Y-76993421D01*
X166282110Y-76902236D01*
X166226836Y-76819449D01*
X166181218Y-76749249D01*
X166147952Y-76695824D01*
X166129736Y-76663361D01*
X166127105Y-76656083D01*
X166138414Y-76639145D01*
X166169681Y-76602978D01*
X166216910Y-76551635D01*
X166276108Y-76489167D01*
X166343281Y-76419626D01*
X166414434Y-76347065D01*
X166485574Y-76275535D01*
X166552707Y-76209087D01*
X166611839Y-76151774D01*
X166658975Y-76107647D01*
X166690123Y-76080759D01*
X166700543Y-76074342D01*
X166717509Y-76083365D01*
X166758089Y-76108715D01*
X166818337Y-76147810D01*
X166894307Y-76198071D01*
X166982054Y-76256917D01*
X167048244Y-76301748D01*
X167382668Y-76529154D01*
X167661433Y-76414238D01*
X167940197Y-76299322D01*
X168015746Y-75898576D01*
X168091294Y-75497829D01*
X168925415Y-75497829D01*
X169000964Y-75898576D01*
G37*
X169000964Y-75898576D02*
X169076513Y-76299322D01*
X169634041Y-76529154D01*
X169968465Y-76301748D01*
X170062122Y-76238431D01*
X170146782Y-76181896D01*
X170218495Y-76134727D01*
X170273311Y-76099502D01*
X170307280Y-76078805D01*
X170316530Y-76074342D01*
X170333195Y-76085820D01*
X170368806Y-76117551D01*
X170419371Y-76165483D01*
X170480900Y-76225562D01*
X170549399Y-76293733D01*
X170620879Y-76365945D01*
X170691347Y-76438142D01*
X170756811Y-76506273D01*
X170813280Y-76566283D01*
X170856763Y-76614119D01*
X170883268Y-76645727D01*
X170889605Y-76656305D01*
X170880486Y-76675806D01*
X170854920Y-76718531D01*
X170815597Y-76780298D01*
X170765203Y-76856931D01*
X170706427Y-76944248D01*
X170672368Y-76994052D01*
X170610289Y-77084993D01*
X170555126Y-77167059D01*
X170509554Y-77236163D01*
X170476250Y-77288222D01*
X170457890Y-77319150D01*
X170455131Y-77325650D01*
X170461385Y-77344121D01*
X170478434Y-77387172D01*
X170503703Y-77448749D01*
X170534622Y-77522799D01*
X170568618Y-77603270D01*
X170603118Y-77684107D01*
X170635551Y-77759258D01*
X170663343Y-77822671D01*
X170683923Y-77868293D01*
X170694719Y-77890069D01*
X170695356Y-77890926D01*
X170712307Y-77895084D01*
X170757451Y-77904361D01*
X170826110Y-77917844D01*
X170913602Y-77934621D01*
X171015250Y-77953781D01*
X171074556Y-77964830D01*
X171183172Y-77985510D01*
X171281277Y-78005189D01*
X171363909Y-78022789D01*
X171426104Y-78037233D01*
X171462899Y-78047446D01*
X171470296Y-78050686D01*
X171477540Y-78072617D01*
X171483385Y-78122147D01*
X171487835Y-78193485D01*
X171490893Y-78280839D01*
X171492565Y-78378417D01*
X171492853Y-78480426D01*
X171491761Y-78581075D01*
X171489294Y-78674572D01*
X171485456Y-78755125D01*
X171480250Y-78816942D01*
X171473681Y-78854230D01*
X171469741Y-78861993D01*
X171446188Y-78871298D01*
X171396282Y-78884600D01*
X171326623Y-78900337D01*
X171243813Y-78916946D01*
X171214905Y-78922319D01*
X171075531Y-78947848D01*
X170965436Y-78968408D01*
X170880982Y-78984815D01*
X170818530Y-78997887D01*
X170774444Y-79008441D01*
X170745085Y-79017294D01*
X170726815Y-79025263D01*
X170715998Y-79033165D01*
X170714485Y-79034727D01*
X170699377Y-79059886D01*
X170676329Y-79108850D01*
X170647644Y-79175621D01*
X170615622Y-79254205D01*
X170582565Y-79338607D01*
X170550773Y-79422830D01*
X170522549Y-79500879D01*
X170500193Y-79566759D01*
X170486007Y-79614473D01*
X170482293Y-79638027D01*
X170482602Y-79638852D01*
X170495189Y-79658104D01*
X170523744Y-79700463D01*
X170565267Y-79761521D01*
X170616756Y-79836868D01*
X170675211Y-79922096D01*
X170691858Y-79946315D01*
X170751215Y-80034123D01*
X170803447Y-80114238D01*
X170845708Y-80182062D01*
X170875153Y-80232993D01*
X170888937Y-80262431D01*
X170889605Y-80266048D01*
X170878024Y-80285057D01*
X170846024Y-80322714D01*
X170797718Y-80374973D01*
X170737220Y-80437786D01*
X170668644Y-80507106D01*
X170596104Y-80578885D01*
X170523712Y-80649077D01*
X170455584Y-80713635D01*
X170395832Y-80768510D01*
X170348571Y-80809656D01*
X170317913Y-80833026D01*
X170309432Y-80836842D01*
X170289691Y-80827855D01*
X170249274Y-80803616D01*
X170194763Y-80768209D01*
X170152823Y-80739711D01*
X170076829Y-80687418D01*
X169986834Y-80625845D01*
X169896564Y-80564370D01*
X169848032Y-80531469D01*
X169683762Y-80420359D01*
X169545869Y-80494916D01*
X169483049Y-80527578D01*
X169429629Y-80552966D01*
X169393484Y-80567446D01*
X169384284Y-80569460D01*
X169373221Y-80554584D01*
X169351394Y-80512547D01*
X169320434Y-80447227D01*
X169281970Y-80362500D01*
X169237632Y-80262245D01*
X169189047Y-80150339D01*
X169137846Y-80030659D01*
X169085659Y-79907084D01*
X169034113Y-79783491D01*
X168984840Y-79663757D01*
X168939467Y-79551759D01*
X168899625Y-79451377D01*
X168866942Y-79366486D01*
X168843049Y-79300965D01*
X168829574Y-79258690D01*
X168827406Y-79244172D01*
X168844583Y-79225653D01*
X168882190Y-79195590D01*
X168932366Y-79160232D01*
X168936578Y-79157434D01*
X169066264Y-79053625D01*
X169170834Y-78932515D01*
X169249381Y-78797976D01*
X169300999Y-78653882D01*
X169324782Y-78504105D01*
X169319823Y-78352517D01*
X169285217Y-78202992D01*
X169220057Y-78059400D01*
X169200886Y-78027984D01*
X169101174Y-77901125D01*
X168983377Y-77799255D01*
X168851571Y-77722904D01*
X168709833Y-77672602D01*
X168562242Y-77648879D01*
X168412873Y-77652265D01*
X168265803Y-77683288D01*
X168125111Y-77742480D01*
X167994873Y-77830369D01*
X167954586Y-77866042D01*
X167852055Y-77977706D01*
X167777341Y-78095257D01*
X167726090Y-78227020D01*
X167697546Y-78357507D01*
X167690500Y-78504216D01*
X167713996Y-78651653D01*
X167765649Y-78794834D01*
X167843071Y-78928777D01*
X167943875Y-79048498D01*
X168065676Y-79149014D01*
X168081684Y-79159609D01*
X168132398Y-79194306D01*
X168170950Y-79224370D01*
X168189381Y-79243565D01*
X168189649Y-79244172D01*
X168185692Y-79264936D01*
X168170007Y-79312062D01*
X168144222Y-79381673D01*
X168109969Y-79469893D01*
X168068877Y-79572844D01*
X168022576Y-79686650D01*
X167972696Y-79807435D01*
X167920867Y-79931321D01*
X167868719Y-80054432D01*
X167817882Y-80172891D01*
X167769987Y-80282823D01*
X167726662Y-80380349D01*
X167689538Y-80461593D01*
X167660244Y-80522679D01*
X167640412Y-80559730D01*
X167632426Y-80569460D01*
X167608021Y-80561883D01*
X167562358Y-80541560D01*
X167503310Y-80512125D01*
X167470840Y-80494916D01*
X167332947Y-80420359D01*
X167168677Y-80531469D01*
X167084821Y-80588390D01*
X166993013Y-80651030D01*
X166906980Y-80710011D01*
X166863887Y-80739711D01*
X166803277Y-80780410D01*
X166751955Y-80812663D01*
X166716615Y-80832384D01*
X166705137Y-80836554D01*
X166688430Y-80825307D01*
X166651454Y-80793911D01*
X166597795Y-80745624D01*
X166531038Y-80683708D01*
X166454766Y-80611421D01*
X166406527Y-80565008D01*
X166322133Y-80482087D01*
X166249197Y-80407920D01*
X166190669Y-80345680D01*
X166149497Y-80298541D01*
X166128628Y-80269673D01*
X166126626Y-80263815D01*
X166135917Y-80241532D01*
X166161591Y-80196477D01*
X166200800Y-80133211D01*
X166250697Y-80056295D01*
X166308433Y-79970292D01*
X166324851Y-79946315D01*
X166384677Y-79859170D01*
X166438350Y-79780710D01*
X166482870Y-79715345D01*
X166515235Y-79667484D01*
X166532445Y-79641535D01*
X166534107Y-79638852D01*
X166531621Y-79618172D01*
X166518423Y-79572704D01*
X166496814Y-79508444D01*
X166469096Y-79431387D01*
X166437570Y-79347529D01*
X166404537Y-79262866D01*
X166372299Y-79183392D01*
X166343157Y-79115104D01*
X166319412Y-79063997D01*
X166303365Y-79036067D01*
X166302225Y-79034727D01*
X166292412Y-79026745D01*
X166275839Y-79018851D01*
X166248868Y-79010229D01*
X166207861Y-79000062D01*
X166149180Y-78987531D01*
X166069187Y-78971821D01*
X165964245Y-78952113D01*
X165830715Y-78927592D01*
X165801804Y-78922319D01*
X165716118Y-78905764D01*
X165641418Y-78889569D01*
X165584306Y-78875296D01*
X165551383Y-78864508D01*
X165546969Y-78861993D01*
X165539694Y-78839696D01*
X165533781Y-78789869D01*
X165529234Y-78718304D01*
X165526055Y-78630793D01*
X165524251Y-78533128D01*
X165523823Y-78431101D01*
X165524777Y-78330503D01*
X165527116Y-78237127D01*
X165530844Y-78156765D01*
X165535966Y-78095209D01*
X165542484Y-78058250D01*
X165546414Y-78050686D01*
X165568292Y-78043056D01*
X165618109Y-78030642D01*
X165690903Y-78014522D01*
X165781711Y-77995773D01*
X165885569Y-77975471D01*
X165942154Y-77964830D01*
X166049514Y-77944760D01*
X166145254Y-77926580D01*
X166224694Y-77911199D01*
X166283154Y-77899531D01*
X166315955Y-77892488D01*
X166321354Y-77890926D01*
X166330478Y-77873322D01*
X166349765Y-77830918D01*
X166376645Y-77769772D01*
X166408546Y-77695943D01*
X166442898Y-77615489D01*
X166477129Y-77534468D01*
X166508669Y-77458937D01*
X166534946Y-77394955D01*
X166553389Y-77348580D01*
X166561429Y-77325869D01*
X166561578Y-77324876D01*
X166552465Y-77306961D01*
X166526914Y-77265733D01*
X166487612Y-77205291D01*
X166437243Y-77129731D01*
X166378494Y-77043152D01*
X166344342Y-76993421D01*
X166282110Y-76902236D01*
X166226836Y-76819449D01*
X166181218Y-76749249D01*
X166147952Y-76695824D01*
X166129736Y-76663361D01*
X166127105Y-76656083D01*
X166138414Y-76639145D01*
X166169681Y-76602978D01*
X166216910Y-76551635D01*
X166276108Y-76489167D01*
X166343281Y-76419626D01*
X166414434Y-76347065D01*
X166485574Y-76275535D01*
X166552707Y-76209087D01*
X166611839Y-76151774D01*
X166658975Y-76107647D01*
X166690123Y-76080759D01*
X166700543Y-76074342D01*
X166717509Y-76083365D01*
X166758089Y-76108715D01*
X166818337Y-76147810D01*
X166894307Y-76198071D01*
X166982054Y-76256917D01*
X167048244Y-76301748D01*
X167382668Y-76529154D01*
X167661433Y-76414238D01*
X167940197Y-76299322D01*
X168015746Y-75898576D01*
X168091294Y-75497829D01*
X168925415Y-75497829D01*
X169000964Y-75898576D01*
G36*
X170891388Y-81437645D02*
G01*
X170948865Y-81455206D01*
X170985872Y-81477395D01*
X170997927Y-81494942D01*
X170994609Y-81515742D01*
X170973079Y-81548419D01*
X170954874Y-81571562D01*
X170917344Y-81613402D01*
X170889148Y-81631005D01*
X170865111Y-81629856D01*
X170793808Y-81611710D01*
X170741442Y-81612534D01*
X170698918Y-81633098D01*
X170684642Y-81645134D01*
X170638947Y-81687483D01*
X170638947Y-82240526D01*
X170455131Y-82240526D01*
X170455131Y-81438421D01*
X170547039Y-81438421D01*
X170602219Y-81440603D01*
X170630688Y-81448351D01*
X170638943Y-81463468D01*
X170638947Y-81463916D01*
X170642845Y-81479749D01*
X170660474Y-81477684D01*
X170684901Y-81466261D01*
X170735350Y-81445005D01*
X170776316Y-81432216D01*
X170829028Y-81428938D01*
X170891388Y-81437645D01*
G37*
X170891388Y-81437645D02*
X170948865Y-81455206D01*
X170985872Y-81477395D01*
X170997927Y-81494942D01*
X170994609Y-81515742D01*
X170973079Y-81548419D01*
X170954874Y-81571562D01*
X170917344Y-81613402D01*
X170889148Y-81631005D01*
X170865111Y-81629856D01*
X170793808Y-81611710D01*
X170741442Y-81612534D01*
X170698918Y-81633098D01*
X170684642Y-81645134D01*
X170638947Y-81687483D01*
X170638947Y-82240526D01*
X170455131Y-82240526D01*
X170455131Y-81438421D01*
X170547039Y-81438421D01*
X170602219Y-81440603D01*
X170630688Y-81448351D01*
X170638943Y-81463468D01*
X170638947Y-81463916D01*
X170642845Y-81479749D01*
X170660474Y-81477684D01*
X170684901Y-81466261D01*
X170735350Y-81445005D01*
X170776316Y-81432216D01*
X170829028Y-81428938D01*
X170891388Y-81437645D01*
G36*
X167497957Y-81452226D02*
G01*
X167539546Y-81472090D01*
X167579825Y-81500784D01*
X167610510Y-81533809D01*
X167632861Y-81575931D01*
X167648136Y-81631915D01*
X167657592Y-81706528D01*
X167662487Y-81804535D01*
X167664081Y-81930702D01*
X167664106Y-81943914D01*
X167664473Y-82240526D01*
X167480657Y-82240526D01*
X167480657Y-81967081D01*
X167480527Y-81865777D01*
X167479621Y-81792353D01*
X167477173Y-81741271D01*
X167472414Y-81706990D01*
X167464574Y-81683971D01*
X167452885Y-81666673D01*
X167436602Y-81649581D01*
X167379634Y-81612857D01*
X167317445Y-81606042D01*
X167258199Y-81629261D01*
X167237595Y-81646543D01*
X167222470Y-81662791D01*
X167211610Y-81680191D01*
X167204310Y-81704212D01*
X167199863Y-81740322D01*
X167197564Y-81793988D01*
X167196704Y-81870680D01*
X167196578Y-81964043D01*
X167196578Y-82240526D01*
X167012763Y-82240526D01*
X167012763Y-81438421D01*
X167104671Y-81438421D01*
X167159851Y-81440603D01*
X167188320Y-81448351D01*
X167196575Y-81463468D01*
X167196578Y-81463916D01*
X167200408Y-81478720D01*
X167217301Y-81477040D01*
X167250888Y-81460773D01*
X167327063Y-81436840D01*
X167414200Y-81434178D01*
X167497957Y-81452226D01*
G37*
X167497957Y-81452226D02*
X167539546Y-81472090D01*
X167579825Y-81500784D01*
X167610510Y-81533809D01*
X167632861Y-81575931D01*
X167648136Y-81631915D01*
X167657592Y-81706528D01*
X167662487Y-81804535D01*
X167664081Y-81930702D01*
X167664106Y-81943914D01*
X167664473Y-82240526D01*
X167480657Y-82240526D01*
X167480657Y-81967081D01*
X167480527Y-81865777D01*
X167479621Y-81792353D01*
X167477173Y-81741271D01*
X167472414Y-81706990D01*
X167464574Y-81683971D01*
X167452885Y-81666673D01*
X167436602Y-81649581D01*
X167379634Y-81612857D01*
X167317445Y-81606042D01*
X167258199Y-81629261D01*
X167237595Y-81646543D01*
X167222470Y-81662791D01*
X167211610Y-81680191D01*
X167204310Y-81704212D01*
X167199863Y-81740322D01*
X167197564Y-81793988D01*
X167196704Y-81870680D01*
X167196578Y-81964043D01*
X167196578Y-82240526D01*
X167012763Y-82240526D01*
X167012763Y-81438421D01*
X167104671Y-81438421D01*
X167159851Y-81440603D01*
X167188320Y-81448351D01*
X167196575Y-81463468D01*
X167196578Y-81463916D01*
X167200408Y-81478720D01*
X167217301Y-81477040D01*
X167250888Y-81460773D01*
X167327063Y-81436840D01*
X167414200Y-81434178D01*
X167497957Y-81452226D01*
G36*
X172058784Y-81435554D02*
G01*
X172101574Y-81445949D01*
X172183609Y-81484013D01*
X172253757Y-81542149D01*
X172302305Y-81611852D01*
X172308975Y-81627502D01*
X172318124Y-81668496D01*
X172324529Y-81729138D01*
X172326710Y-81790430D01*
X172326710Y-81906316D01*
X172084407Y-81906316D01*
X171984471Y-81906693D01*
X171914069Y-81908987D01*
X171869313Y-81914938D01*
X171846315Y-81926285D01*
X171841189Y-81944771D01*
X171850048Y-81972136D01*
X171865917Y-82004155D01*
X171910184Y-82057592D01*
X171971699Y-82084215D01*
X172046885Y-82083347D01*
X172132053Y-82054371D01*
X172205659Y-82018611D01*
X172266734Y-82066904D01*
X172327810Y-82115197D01*
X172270351Y-82168285D01*
X172193641Y-82218445D01*
X172099302Y-82248688D01*
X171997827Y-82257151D01*
X171899711Y-82241974D01*
X171883881Y-82236824D01*
X171797647Y-82191791D01*
X171733501Y-82124652D01*
X171690091Y-82033405D01*
X171666064Y-81916044D01*
X171665784Y-81913529D01*
X171663633Y-81785627D01*
X171672329Y-81739997D01*
X171842105Y-81739997D01*
X171857697Y-81747013D01*
X171900029Y-81752388D01*
X171962434Y-81755457D01*
X172001981Y-81755921D01*
X172075728Y-81755630D01*
X172121840Y-81753783D01*
X172146100Y-81748912D01*
X172154294Y-81739555D01*
X172152206Y-81724245D01*
X172150455Y-81718322D01*
X172120560Y-81662668D01*
X172073542Y-81617815D01*
X172032049Y-81598105D01*
X171976926Y-81599295D01*
X171921068Y-81623875D01*
X171874212Y-81664570D01*
X171846094Y-81714108D01*
X171842105Y-81739997D01*
X171672329Y-81739997D01*
X171685074Y-81673133D01*
X171727611Y-81578727D01*
X171788747Y-81505088D01*
X171865985Y-81454893D01*
X171956830Y-81430822D01*
X172058784Y-81435554D01*
G37*
X172058784Y-81435554D02*
X172101574Y-81445949D01*
X172183609Y-81484013D01*
X172253757Y-81542149D01*
X172302305Y-81611852D01*
X172308975Y-81627502D01*
X172318124Y-81668496D01*
X172324529Y-81729138D01*
X172326710Y-81790430D01*
X172326710Y-81906316D01*
X172084407Y-81906316D01*
X171984471Y-81906693D01*
X171914069Y-81908987D01*
X171869313Y-81914938D01*
X171846315Y-81926285D01*
X171841189Y-81944771D01*
X171850048Y-81972136D01*
X171865917Y-82004155D01*
X171910184Y-82057592D01*
X171971699Y-82084215D01*
X172046885Y-82083347D01*
X172132053Y-82054371D01*
X172205659Y-82018611D01*
X172266734Y-82066904D01*
X172327810Y-82115197D01*
X172270351Y-82168285D01*
X172193641Y-82218445D01*
X172099302Y-82248688D01*
X171997827Y-82257151D01*
X171899711Y-82241974D01*
X171883881Y-82236824D01*
X171797647Y-82191791D01*
X171733501Y-82124652D01*
X171690091Y-82033405D01*
X171666064Y-81916044D01*
X171665784Y-81913529D01*
X171663633Y-81785627D01*
X171672329Y-81739997D01*
X171842105Y-81739997D01*
X171857697Y-81747013D01*
X171900029Y-81752388D01*
X171962434Y-81755457D01*
X172001981Y-81755921D01*
X172075728Y-81755630D01*
X172121840Y-81753783D01*
X172146100Y-81748912D01*
X172154294Y-81739555D01*
X172152206Y-81724245D01*
X172150455Y-81718322D01*
X172120560Y-81662668D01*
X172073542Y-81617815D01*
X172032049Y-81598105D01*
X171976926Y-81599295D01*
X171921068Y-81623875D01*
X171874212Y-81664570D01*
X171846094Y-81714108D01*
X171842105Y-81739997D01*
X171672329Y-81739997D01*
X171685074Y-81673133D01*
X171727611Y-81578727D01*
X171788747Y-81505088D01*
X171865985Y-81454893D01*
X171956830Y-81430822D01*
X172058784Y-81435554D01*
G36*
X171446576Y-81445419D02*
G01*
X171543395Y-81486549D01*
X171573890Y-81506571D01*
X171612865Y-81537340D01*
X171637331Y-81561533D01*
X171641578Y-81569413D01*
X171629584Y-81586899D01*
X171598887Y-81616570D01*
X171574312Y-81637279D01*
X171507046Y-81691336D01*
X171453930Y-81646642D01*
X171412884Y-81617789D01*
X171372863Y-81607829D01*
X171327059Y-81610261D01*
X171254324Y-81628345D01*
X171204256Y-81665881D01*
X171173829Y-81726562D01*
X171160017Y-81814081D01*
X171160013Y-81814136D01*
X171161208Y-81911958D01*
X171179772Y-81983730D01*
X171216804Y-82032595D01*
X171242050Y-82049143D01*
X171309097Y-82069749D01*
X171380709Y-82069762D01*
X171443015Y-82049768D01*
X171457763Y-82040000D01*
X171494750Y-82015047D01*
X171523668Y-82010958D01*
X171554856Y-82029530D01*
X171589336Y-82062887D01*
X171643912Y-82119196D01*
X171583318Y-82169142D01*
X171489698Y-82225513D01*
X171384125Y-82253293D01*
X171273798Y-82251282D01*
X171201343Y-82232862D01*
X171116656Y-82187310D01*
X171048927Y-82115650D01*
X171018157Y-82065066D01*
X170993236Y-81992488D01*
X170980766Y-81900569D01*
X170980670Y-81800948D01*
X170992870Y-81705267D01*
X171017290Y-81625169D01*
X171021136Y-81616956D01*
X171078093Y-81536413D01*
X171155209Y-81477771D01*
X171246390Y-81442247D01*
X171345543Y-81431057D01*
X171446576Y-81445419D01*
G37*
X171446576Y-81445419D02*
X171543395Y-81486549D01*
X171573890Y-81506571D01*
X171612865Y-81537340D01*
X171637331Y-81561533D01*
X171641578Y-81569413D01*
X171629584Y-81586899D01*
X171598887Y-81616570D01*
X171574312Y-81637279D01*
X171507046Y-81691336D01*
X171453930Y-81646642D01*
X171412884Y-81617789D01*
X171372863Y-81607829D01*
X171327059Y-81610261D01*
X171254324Y-81628345D01*
X171204256Y-81665881D01*
X171173829Y-81726562D01*
X171160017Y-81814081D01*
X171160013Y-81814136D01*
X171161208Y-81911958D01*
X171179772Y-81983730D01*
X171216804Y-82032595D01*
X171242050Y-82049143D01*
X171309097Y-82069749D01*
X171380709Y-82069762D01*
X171443015Y-82049768D01*
X171457763Y-82040000D01*
X171494750Y-82015047D01*
X171523668Y-82010958D01*
X171554856Y-82029530D01*
X171589336Y-82062887D01*
X171643912Y-82119196D01*
X171583318Y-82169142D01*
X171489698Y-82225513D01*
X171384125Y-82253293D01*
X171273798Y-82251282D01*
X171201343Y-82232862D01*
X171116656Y-82187310D01*
X171048927Y-82115650D01*
X171018157Y-82065066D01*
X170993236Y-81992488D01*
X170980766Y-81900569D01*
X170980670Y-81800948D01*
X170992870Y-81705267D01*
X171017290Y-81625169D01*
X171021136Y-81616956D01*
X171078093Y-81536413D01*
X171155209Y-81477771D01*
X171246390Y-81442247D01*
X171345543Y-81431057D01*
X171446576Y-81445419D01*
G36*
X169820131Y-81698533D02*
G01*
X169821710Y-81821089D01*
X169827481Y-81914179D01*
X169838991Y-81981651D01*
X169857790Y-82027355D01*
X169885426Y-82055139D01*
X169923448Y-82068854D01*
X169970526Y-82072358D01*
X170019832Y-82068432D01*
X170057283Y-82054089D01*
X170084428Y-82025478D01*
X170102815Y-81978751D01*
X170113993Y-81910058D01*
X170119511Y-81815550D01*
X170120921Y-81698533D01*
X170120921Y-81438421D01*
X170304736Y-81438421D01*
X170304736Y-82240526D01*
X170212828Y-82240526D01*
X170157422Y-82238281D01*
X170128891Y-82230396D01*
X170120921Y-82215428D01*
X170116120Y-82202097D01*
X170097014Y-82204917D01*
X170058504Y-82223783D01*
X169970239Y-82252887D01*
X169876623Y-82250825D01*
X169786921Y-82219221D01*
X169744204Y-82194257D01*
X169711621Y-82167226D01*
X169687817Y-82133405D01*
X169671439Y-82088068D01*
X169661131Y-82026489D01*
X169655541Y-81943943D01*
X169653312Y-81835705D01*
X169653026Y-81752004D01*
X169653026Y-81438421D01*
X169820131Y-81438421D01*
X169820131Y-81698533D01*
G37*
X169820131Y-81698533D02*
X169821710Y-81821089D01*
X169827481Y-81914179D01*
X169838991Y-81981651D01*
X169857790Y-82027355D01*
X169885426Y-82055139D01*
X169923448Y-82068854D01*
X169970526Y-82072358D01*
X170019832Y-82068432D01*
X170057283Y-82054089D01*
X170084428Y-82025478D01*
X170102815Y-81978751D01*
X170113993Y-81910058D01*
X170119511Y-81815550D01*
X170120921Y-81698533D01*
X170120921Y-81438421D01*
X170304736Y-81438421D01*
X170304736Y-82240526D01*
X170212828Y-82240526D01*
X170157422Y-82238281D01*
X170128891Y-82230396D01*
X170120921Y-82215428D01*
X170116120Y-82202097D01*
X170097014Y-82204917D01*
X170058504Y-82223783D01*
X169970239Y-82252887D01*
X169876623Y-82250825D01*
X169786921Y-82219221D01*
X169744204Y-82194257D01*
X169711621Y-82167226D01*
X169687817Y-82133405D01*
X169671439Y-82088068D01*
X169661131Y-82026489D01*
X169655541Y-81943943D01*
X169653312Y-81835705D01*
X169653026Y-81752004D01*
X169653026Y-81438421D01*
X169820131Y-81438421D01*
X169820131Y-81698533D01*
G36*
X169311669Y-81448310D02*
G01*
X169396192Y-81494340D01*
X169462321Y-81567006D01*
X169493478Y-81626106D01*
X169506855Y-81678305D01*
X169515522Y-81752719D01*
X169519237Y-81838442D01*
X169517754Y-81924569D01*
X169510831Y-82000193D01*
X169502745Y-82040584D01*
X169475465Y-82095840D01*
X169428220Y-82154530D01*
X169371282Y-82205852D01*
X169314924Y-82239005D01*
X169313550Y-82239531D01*
X169243616Y-82254018D01*
X169160737Y-82254377D01*
X169081977Y-82241188D01*
X169051566Y-82230617D01*
X168973239Y-82186201D01*
X168917143Y-82128007D01*
X168880286Y-82050965D01*
X168859680Y-81950001D01*
X168855018Y-81897116D01*
X168855613Y-81830663D01*
X169034736Y-81830663D01*
X169040770Y-81927630D01*
X169058138Y-82001523D01*
X169085740Y-82048736D01*
X169105404Y-82062237D01*
X169155787Y-82071651D01*
X169215673Y-82068864D01*
X169267449Y-82055316D01*
X169281027Y-82047862D01*
X169316849Y-82004451D01*
X169340493Y-81938014D01*
X169350558Y-81857161D01*
X169345642Y-81770502D01*
X169334655Y-81718349D01*
X169303109Y-81657951D01*
X169253311Y-81620197D01*
X169193337Y-81607143D01*
X169131264Y-81620849D01*
X169083582Y-81654372D01*
X169058525Y-81682031D01*
X169043900Y-81709294D01*
X169036929Y-81746190D01*
X169034833Y-81802750D01*
X169034736Y-81830663D01*
X168855613Y-81830663D01*
X168856282Y-81755994D01*
X168879265Y-81640271D01*
X168923972Y-81549941D01*
X168990405Y-81485000D01*
X169078565Y-81445445D01*
X169097495Y-81440858D01*
X169211266Y-81430090D01*
X169311669Y-81448310D01*
G37*
X169311669Y-81448310D02*
X169396192Y-81494340D01*
X169462321Y-81567006D01*
X169493478Y-81626106D01*
X169506855Y-81678305D01*
X169515522Y-81752719D01*
X169519237Y-81838442D01*
X169517754Y-81924569D01*
X169510831Y-82000193D01*
X169502745Y-82040584D01*
X169475465Y-82095840D01*
X169428220Y-82154530D01*
X169371282Y-82205852D01*
X169314924Y-82239005D01*
X169313550Y-82239531D01*
X169243616Y-82254018D01*
X169160737Y-82254377D01*
X169081977Y-82241188D01*
X169051566Y-82230617D01*
X168973239Y-82186201D01*
X168917143Y-82128007D01*
X168880286Y-82050965D01*
X168859680Y-81950001D01*
X168855018Y-81897116D01*
X168855613Y-81830663D01*
X169034736Y-81830663D01*
X169040770Y-81927630D01*
X169058138Y-82001523D01*
X169085740Y-82048736D01*
X169105404Y-82062237D01*
X169155787Y-82071651D01*
X169215673Y-82068864D01*
X169267449Y-82055316D01*
X169281027Y-82047862D01*
X169316849Y-82004451D01*
X169340493Y-81938014D01*
X169350558Y-81857161D01*
X169345642Y-81770502D01*
X169334655Y-81718349D01*
X169303109Y-81657951D01*
X169253311Y-81620197D01*
X169193337Y-81607143D01*
X169131264Y-81620849D01*
X169083582Y-81654372D01*
X169058525Y-81682031D01*
X169043900Y-81709294D01*
X169036929Y-81746190D01*
X169034833Y-81802750D01*
X169034736Y-81830663D01*
X168855613Y-81830663D01*
X168856282Y-81755994D01*
X168879265Y-81640271D01*
X168923972Y-81549941D01*
X168990405Y-81485000D01*
X169078565Y-81445445D01*
X169097495Y-81440858D01*
X169211266Y-81430090D01*
X169311669Y-81448310D01*
G36*
X168518628Y-81435547D02*
G01*
X168581908Y-81447548D01*
X168647557Y-81472648D01*
X168654572Y-81475848D01*
X168704356Y-81502026D01*
X168738834Y-81526353D01*
X168749978Y-81541937D01*
X168739366Y-81567353D01*
X168713588Y-81604853D01*
X168702146Y-81618852D01*
X168654992Y-81673954D01*
X168594201Y-81638086D01*
X168536347Y-81614192D01*
X168469500Y-81601420D01*
X168405394Y-81600613D01*
X168355764Y-81612615D01*
X168343854Y-81620105D01*
X168321172Y-81654450D01*
X168318416Y-81694013D01*
X168335388Y-81724920D01*
X168345427Y-81730913D01*
X168375510Y-81738357D01*
X168428389Y-81747106D01*
X168493575Y-81755467D01*
X168505600Y-81756778D01*
X168610297Y-81774888D01*
X168686232Y-81805651D01*
X168736592Y-81851907D01*
X168764564Y-81916497D01*
X168773278Y-81995387D01*
X168761240Y-82085065D01*
X168722151Y-82155486D01*
X168655855Y-82206777D01*
X168562194Y-82239067D01*
X168458223Y-82251807D01*
X168373438Y-82251654D01*
X168304665Y-82240083D01*
X168257697Y-82224109D01*
X168198350Y-82196275D01*
X168143506Y-82163973D01*
X168124013Y-82149755D01*
X168073881Y-82108835D01*
X168194803Y-81986477D01*
X168263543Y-82031967D01*
X168332488Y-82066133D01*
X168406111Y-82084004D01*
X168476883Y-82085889D01*
X168537274Y-82072101D01*
X168579757Y-82042949D01*
X168593474Y-82018352D01*
X168591417Y-81978904D01*
X168557330Y-81948737D01*
X168491308Y-81927906D01*
X168418974Y-81918279D01*
X168307652Y-81899910D01*
X168224952Y-81865254D01*
X168169765Y-81813297D01*
X168140988Y-81743023D01*
X168137001Y-81659707D01*
X168156693Y-81572681D01*
X168201589Y-81506902D01*
X168272091Y-81462068D01*
X168368601Y-81437879D01*
X168440100Y-81433137D01*
X168518628Y-81435547D01*
G37*
X168518628Y-81435547D02*
X168581908Y-81447548D01*
X168647557Y-81472648D01*
X168654572Y-81475848D01*
X168704356Y-81502026D01*
X168738834Y-81526353D01*
X168749978Y-81541937D01*
X168739366Y-81567353D01*
X168713588Y-81604853D01*
X168702146Y-81618852D01*
X168654992Y-81673954D01*
X168594201Y-81638086D01*
X168536347Y-81614192D01*
X168469500Y-81601420D01*
X168405394Y-81600613D01*
X168355764Y-81612615D01*
X168343854Y-81620105D01*
X168321172Y-81654450D01*
X168318416Y-81694013D01*
X168335388Y-81724920D01*
X168345427Y-81730913D01*
X168375510Y-81738357D01*
X168428389Y-81747106D01*
X168493575Y-81755467D01*
X168505600Y-81756778D01*
X168610297Y-81774888D01*
X168686232Y-81805651D01*
X168736592Y-81851907D01*
X168764564Y-81916497D01*
X168773278Y-81995387D01*
X168761240Y-82085065D01*
X168722151Y-82155486D01*
X168655855Y-82206777D01*
X168562194Y-82239067D01*
X168458223Y-82251807D01*
X168373438Y-82251654D01*
X168304665Y-82240083D01*
X168257697Y-82224109D01*
X168198350Y-82196275D01*
X168143506Y-82163973D01*
X168124013Y-82149755D01*
X168073881Y-82108835D01*
X168194803Y-81986477D01*
X168263543Y-82031967D01*
X168332488Y-82066133D01*
X168406111Y-82084004D01*
X168476883Y-82085889D01*
X168537274Y-82072101D01*
X168579757Y-82042949D01*
X168593474Y-82018352D01*
X168591417Y-81978904D01*
X168557330Y-81948737D01*
X168491308Y-81927906D01*
X168418974Y-81918279D01*
X168307652Y-81899910D01*
X168224952Y-81865254D01*
X168169765Y-81813297D01*
X168140988Y-81743023D01*
X168137001Y-81659707D01*
X168156693Y-81572681D01*
X168201589Y-81506902D01*
X168272091Y-81462068D01*
X168368601Y-81437879D01*
X168440100Y-81433137D01*
X168518628Y-81435547D01*
G36*
X166697018Y-81457027D02*
G01*
X166713670Y-81464866D01*
X166771305Y-81507086D01*
X166825805Y-81568700D01*
X166866499Y-81636543D01*
X166878074Y-81667734D01*
X166888634Y-81723449D01*
X166894931Y-81790781D01*
X166895696Y-81818585D01*
X166895789Y-81906316D01*
X166390850Y-81906316D01*
X166401613Y-81952270D01*
X166428033Y-82006620D01*
X166474222Y-82053591D01*
X166529172Y-82083848D01*
X166564189Y-82090131D01*
X166611677Y-82082506D01*
X166668335Y-82063383D01*
X166687582Y-82054584D01*
X166758759Y-82019036D01*
X166819502Y-82065367D01*
X166854552Y-82096703D01*
X166873202Y-82122567D01*
X166874147Y-82130158D01*
X166857485Y-82148556D01*
X166820970Y-82176515D01*
X166787828Y-82198327D01*
X166698393Y-82237537D01*
X166598129Y-82255285D01*
X166498754Y-82250670D01*
X166419539Y-82226551D01*
X166337880Y-82174884D01*
X166279849Y-82106856D01*
X166243546Y-82018843D01*
X166227072Y-81907216D01*
X166225611Y-81856138D01*
X166231457Y-81739091D01*
X166232175Y-81735686D01*
X166399489Y-81735686D01*
X166404097Y-81746662D01*
X166423036Y-81752715D01*
X166462098Y-81755310D01*
X166527077Y-81755910D01*
X166552097Y-81755921D01*
X166628221Y-81755014D01*
X166676496Y-81751720D01*
X166702460Y-81745181D01*
X166711648Y-81734537D01*
X166711973Y-81731119D01*
X166701487Y-81703956D01*
X166675242Y-81665903D01*
X166663959Y-81652579D01*
X166622072Y-81614896D01*
X166578409Y-81600080D01*
X166554885Y-81598842D01*
X166491243Y-81614329D01*
X166437873Y-81655930D01*
X166404019Y-81716353D01*
X166403419Y-81718322D01*
X166399489Y-81735686D01*
X166232175Y-81735686D01*
X166250899Y-81646928D01*
X166285922Y-81573190D01*
X166328756Y-81520848D01*
X166407948Y-81464092D01*
X166501040Y-81433762D01*
X166600055Y-81431021D01*
X166697018Y-81457027D01*
G37*
X166697018Y-81457027D02*
X166713670Y-81464866D01*
X166771305Y-81507086D01*
X166825805Y-81568700D01*
X166866499Y-81636543D01*
X166878074Y-81667734D01*
X166888634Y-81723449D01*
X166894931Y-81790781D01*
X166895696Y-81818585D01*
X166895789Y-81906316D01*
X166390850Y-81906316D01*
X166401613Y-81952270D01*
X166428033Y-82006620D01*
X166474222Y-82053591D01*
X166529172Y-82083848D01*
X166564189Y-82090131D01*
X166611677Y-82082506D01*
X166668335Y-82063383D01*
X166687582Y-82054584D01*
X166758759Y-82019036D01*
X166819502Y-82065367D01*
X166854552Y-82096703D01*
X166873202Y-82122567D01*
X166874147Y-82130158D01*
X166857485Y-82148556D01*
X166820970Y-82176515D01*
X166787828Y-82198327D01*
X166698393Y-82237537D01*
X166598129Y-82255285D01*
X166498754Y-82250670D01*
X166419539Y-82226551D01*
X166337880Y-82174884D01*
X166279849Y-82106856D01*
X166243546Y-82018843D01*
X166227072Y-81907216D01*
X166225611Y-81856138D01*
X166231457Y-81739091D01*
X166232175Y-81735686D01*
X166399489Y-81735686D01*
X166404097Y-81746662D01*
X166423036Y-81752715D01*
X166462098Y-81755310D01*
X166527077Y-81755910D01*
X166552097Y-81755921D01*
X166628221Y-81755014D01*
X166676496Y-81751720D01*
X166702460Y-81745181D01*
X166711648Y-81734537D01*
X166711973Y-81731119D01*
X166701487Y-81703956D01*
X166675242Y-81665903D01*
X166663959Y-81652579D01*
X166622072Y-81614896D01*
X166578409Y-81600080D01*
X166554885Y-81598842D01*
X166491243Y-81614329D01*
X166437873Y-81655930D01*
X166404019Y-81716353D01*
X166403419Y-81718322D01*
X166399489Y-81735686D01*
X166232175Y-81735686D01*
X166250899Y-81646928D01*
X166285922Y-81573190D01*
X166328756Y-81520848D01*
X166407948Y-81464092D01*
X166501040Y-81433762D01*
X166600055Y-81431021D01*
X166697018Y-81457027D01*
G36*
X165126784Y-81447104D02*
G01*
X165214205Y-81485754D01*
X165280570Y-81550290D01*
X165325976Y-81640812D01*
X165350518Y-81757418D01*
X165352277Y-81775624D01*
X165353656Y-81903984D01*
X165335784Y-82016496D01*
X165299750Y-82107688D01*
X165280455Y-82137022D01*
X165213245Y-82199106D01*
X165127650Y-82239316D01*
X165031890Y-82256003D01*
X164934187Y-82247517D01*
X164859917Y-82221380D01*
X164796047Y-82177335D01*
X164743846Y-82119587D01*
X164742943Y-82118236D01*
X164721744Y-82082593D01*
X164707967Y-82046752D01*
X164699624Y-82001519D01*
X164694727Y-81937701D01*
X164692569Y-81885368D01*
X164691671Y-81837910D01*
X164858743Y-81837910D01*
X164860376Y-81885154D01*
X164866304Y-81948046D01*
X164876761Y-81988407D01*
X164895619Y-82017122D01*
X164913281Y-82033896D01*
X164975894Y-82069016D01*
X165041408Y-82073710D01*
X165102421Y-82048440D01*
X165132928Y-82020124D01*
X165154911Y-81991589D01*
X165167769Y-81964284D01*
X165173412Y-81928750D01*
X165173751Y-81875524D01*
X165172012Y-81826506D01*
X165168271Y-81756482D01*
X165162341Y-81711064D01*
X165151653Y-81681440D01*
X165133639Y-81658797D01*
X165119363Y-81645855D01*
X165059651Y-81611860D01*
X164995234Y-81610165D01*
X164941219Y-81630301D01*
X164895140Y-81672352D01*
X164867689Y-81741428D01*
X164858743Y-81837910D01*
X164691671Y-81837910D01*
X164690599Y-81781299D01*
X164693964Y-81703468D01*
X164704045Y-81644930D01*
X164722226Y-81598737D01*
X164749890Y-81557942D01*
X164760146Y-81545828D01*
X164824278Y-81485474D01*
X164893066Y-81450220D01*
X164977189Y-81435450D01*
X165018209Y-81434243D01*
X165126784Y-81447104D01*
G37*
X165126784Y-81447104D02*
X165214205Y-81485754D01*
X165280570Y-81550290D01*
X165325976Y-81640812D01*
X165350518Y-81757418D01*
X165352277Y-81775624D01*
X165353656Y-81903984D01*
X165335784Y-82016496D01*
X165299750Y-82107688D01*
X165280455Y-82137022D01*
X165213245Y-82199106D01*
X165127650Y-82239316D01*
X165031890Y-82256003D01*
X164934187Y-82247517D01*
X164859917Y-82221380D01*
X164796047Y-82177335D01*
X164743846Y-82119587D01*
X164742943Y-82118236D01*
X164721744Y-82082593D01*
X164707967Y-82046752D01*
X164699624Y-82001519D01*
X164694727Y-81937701D01*
X164692569Y-81885368D01*
X164691671Y-81837910D01*
X164858743Y-81837910D01*
X164860376Y-81885154D01*
X164866304Y-81948046D01*
X164876761Y-81988407D01*
X164895619Y-82017122D01*
X164913281Y-82033896D01*
X164975894Y-82069016D01*
X165041408Y-82073710D01*
X165102421Y-82048440D01*
X165132928Y-82020124D01*
X165154911Y-81991589D01*
X165167769Y-81964284D01*
X165173412Y-81928750D01*
X165173751Y-81875524D01*
X165172012Y-81826506D01*
X165168271Y-81756482D01*
X165162341Y-81711064D01*
X165151653Y-81681440D01*
X165133639Y-81658797D01*
X165119363Y-81645855D01*
X165059651Y-81611860D01*
X164995234Y-81610165D01*
X164941219Y-81630301D01*
X164895140Y-81672352D01*
X164867689Y-81741428D01*
X164858743Y-81837910D01*
X164691671Y-81837910D01*
X164690599Y-81781299D01*
X164693964Y-81703468D01*
X164704045Y-81644930D01*
X164722226Y-81598737D01*
X164749890Y-81557942D01*
X164760146Y-81545828D01*
X164824278Y-81485474D01*
X164893066Y-81450220D01*
X164977189Y-81435450D01*
X165018209Y-81434243D01*
X165126784Y-81447104D01*
G36*
X171201193Y-82696078D02*
G01*
X171281068Y-82716845D01*
X171347962Y-82759705D01*
X171380351Y-82791723D01*
X171433445Y-82867413D01*
X171463873Y-82955216D01*
X171474327Y-83063150D01*
X171474380Y-83071875D01*
X171474473Y-83159605D01*
X170969534Y-83159605D01*
X170980298Y-83205559D01*
X170999732Y-83247178D01*
X171033745Y-83290544D01*
X171040860Y-83297467D01*
X171102003Y-83334935D01*
X171171729Y-83341289D01*
X171251987Y-83316638D01*
X171265592Y-83310000D01*
X171307319Y-83289819D01*
X171335268Y-83278321D01*
X171340145Y-83277258D01*
X171357168Y-83287583D01*
X171389633Y-83312845D01*
X171406114Y-83326650D01*
X171440264Y-83358361D01*
X171451478Y-83379299D01*
X171443695Y-83398560D01*
X171439535Y-83403827D01*
X171411357Y-83426878D01*
X171364862Y-83454892D01*
X171332434Y-83471246D01*
X171240385Y-83500059D01*
X171138476Y-83509395D01*
X171041963Y-83498332D01*
X171014934Y-83490412D01*
X170931276Y-83445581D01*
X170869266Y-83376598D01*
X170828545Y-83282794D01*
X170808755Y-83163498D01*
X170806582Y-83101118D01*
X170812926Y-83010298D01*
X170973157Y-83010298D01*
X170988655Y-83017012D01*
X171030312Y-83022280D01*
X171090876Y-83025389D01*
X171131907Y-83025921D01*
X171205711Y-83025408D01*
X171252293Y-83023006D01*
X171277848Y-83017422D01*
X171288569Y-83007361D01*
X171290657Y-82992763D01*
X171276331Y-82947796D01*
X171240262Y-82903353D01*
X171192815Y-82869242D01*
X171145349Y-82855288D01*
X171080879Y-82867666D01*
X171025070Y-82903452D01*
X170986374Y-82955033D01*
X170973157Y-83010298D01*
X170812926Y-83010298D01*
X170815821Y-82968866D01*
X170844336Y-82863498D01*
X170892729Y-82784178D01*
X170961604Y-82730071D01*
X171051565Y-82700343D01*
X171100300Y-82694618D01*
X171201193Y-82696078D01*
G37*
X171201193Y-82696078D02*
X171281068Y-82716845D01*
X171347962Y-82759705D01*
X171380351Y-82791723D01*
X171433445Y-82867413D01*
X171463873Y-82955216D01*
X171474327Y-83063150D01*
X171474380Y-83071875D01*
X171474473Y-83159605D01*
X170969534Y-83159605D01*
X170980298Y-83205559D01*
X170999732Y-83247178D01*
X171033745Y-83290544D01*
X171040860Y-83297467D01*
X171102003Y-83334935D01*
X171171729Y-83341289D01*
X171251987Y-83316638D01*
X171265592Y-83310000D01*
X171307319Y-83289819D01*
X171335268Y-83278321D01*
X171340145Y-83277258D01*
X171357168Y-83287583D01*
X171389633Y-83312845D01*
X171406114Y-83326650D01*
X171440264Y-83358361D01*
X171451478Y-83379299D01*
X171443695Y-83398560D01*
X171439535Y-83403827D01*
X171411357Y-83426878D01*
X171364862Y-83454892D01*
X171332434Y-83471246D01*
X171240385Y-83500059D01*
X171138476Y-83509395D01*
X171041963Y-83498332D01*
X171014934Y-83490412D01*
X170931276Y-83445581D01*
X170869266Y-83376598D01*
X170828545Y-83282794D01*
X170808755Y-83163498D01*
X170806582Y-83101118D01*
X170812926Y-83010298D01*
X170973157Y-83010298D01*
X170988655Y-83017012D01*
X171030312Y-83022280D01*
X171090876Y-83025389D01*
X171131907Y-83025921D01*
X171205711Y-83025408D01*
X171252293Y-83023006D01*
X171277848Y-83017422D01*
X171288569Y-83007361D01*
X171290657Y-82992763D01*
X171276331Y-82947796D01*
X171240262Y-82903353D01*
X171192815Y-82869242D01*
X171145349Y-82855288D01*
X171080879Y-82867666D01*
X171025070Y-82903452D01*
X170986374Y-82955033D01*
X170973157Y-83010298D01*
X170812926Y-83010298D01*
X170815821Y-82968866D01*
X170844336Y-82863498D01*
X170892729Y-82784178D01*
X170961604Y-82730071D01*
X171051565Y-82700343D01*
X171100300Y-82694618D01*
X171201193Y-82696078D01*
G36*
X170673167Y-82691447D02*
G01*
X170737408Y-82704112D01*
X170773980Y-82722864D01*
X170812453Y-82754017D01*
X170757717Y-82823127D01*
X170723969Y-82864979D01*
X170701053Y-82885398D01*
X170678279Y-82888517D01*
X170644956Y-82878472D01*
X170629314Y-82872789D01*
X170565542Y-82864404D01*
X170507140Y-82882378D01*
X170464264Y-82922982D01*
X170457299Y-82935929D01*
X170449713Y-82970224D01*
X170443859Y-83033427D01*
X170440011Y-83121060D01*
X170438443Y-83228640D01*
X170438421Y-83243944D01*
X170438421Y-83510526D01*
X170254605Y-83510526D01*
X170254605Y-82691710D01*
X170346513Y-82691710D01*
X170399507Y-82693094D01*
X170427115Y-82699252D01*
X170437324Y-82713194D01*
X170438421Y-82726344D01*
X170438421Y-82760978D01*
X170482450Y-82726344D01*
X170532937Y-82702716D01*
X170600760Y-82691033D01*
X170673167Y-82691447D01*
G37*
X170673167Y-82691447D02*
X170737408Y-82704112D01*
X170773980Y-82722864D01*
X170812453Y-82754017D01*
X170757717Y-82823127D01*
X170723969Y-82864979D01*
X170701053Y-82885398D01*
X170678279Y-82888517D01*
X170644956Y-82878472D01*
X170629314Y-82872789D01*
X170565542Y-82864404D01*
X170507140Y-82882378D01*
X170464264Y-82922982D01*
X170457299Y-82935929D01*
X170449713Y-82970224D01*
X170443859Y-83033427D01*
X170440011Y-83121060D01*
X170438443Y-83228640D01*
X170438421Y-83243944D01*
X170438421Y-83510526D01*
X170254605Y-83510526D01*
X170254605Y-82691710D01*
X170346513Y-82691710D01*
X170399507Y-82693094D01*
X170427115Y-82699252D01*
X170437324Y-82713194D01*
X170438421Y-82726344D01*
X170438421Y-82760978D01*
X170482450Y-82726344D01*
X170532937Y-82702716D01*
X170600760Y-82691033D01*
X170673167Y-82691447D01*
G36*
X169879992Y-82696673D02*
G01*
X169950427Y-82713780D01*
X169970787Y-82722844D01*
X170010253Y-82746583D01*
X170040541Y-82773321D01*
X170062952Y-82807699D01*
X170078786Y-82854360D01*
X170089343Y-82917946D01*
X170095924Y-83003099D01*
X170099828Y-83114462D01*
X170101310Y-83188849D01*
X170106765Y-83510526D01*
X170013580Y-83510526D01*
X169957047Y-83508156D01*
X169927922Y-83500055D01*
X169920394Y-83486451D01*
X169916420Y-83471741D01*
X169898652Y-83474554D01*
X169874440Y-83486348D01*
X169813828Y-83504427D01*
X169735929Y-83509299D01*
X169653995Y-83501330D01*
X169581281Y-83480889D01*
X169574759Y-83478051D01*
X169508302Y-83431365D01*
X169464491Y-83366464D01*
X169444332Y-83290600D01*
X169445872Y-83263344D01*
X169610345Y-83263344D01*
X169624837Y-83300024D01*
X169667805Y-83326309D01*
X169737129Y-83340417D01*
X169774177Y-83342290D01*
X169835919Y-83337494D01*
X169876960Y-83318858D01*
X169886973Y-83310000D01*
X169914100Y-83261806D01*
X169920394Y-83218092D01*
X169920394Y-83159605D01*
X169838930Y-83159605D01*
X169744234Y-83164432D01*
X169677813Y-83179613D01*
X169635846Y-83206200D01*
X169626449Y-83218052D01*
X169610345Y-83263344D01*
X169445872Y-83263344D01*
X169448829Y-83211026D01*
X169478985Y-83134995D01*
X169520131Y-83083612D01*
X169545052Y-83061397D01*
X169569448Y-83046798D01*
X169601191Y-83037897D01*
X169648152Y-83032775D01*
X169718204Y-83029515D01*
X169745990Y-83028577D01*
X169920394Y-83022879D01*
X169920138Y-82970091D01*
X169913384Y-82914603D01*
X169888964Y-82881052D01*
X169839630Y-82859618D01*
X169838306Y-82859236D01*
X169768360Y-82850808D01*
X169699914Y-82861816D01*
X169649047Y-82888585D01*
X169628637Y-82901803D01*
X169606654Y-82899974D01*
X169572826Y-82880824D01*
X169552961Y-82867308D01*
X169514106Y-82838432D01*
X169490038Y-82816786D01*
X169486176Y-82810589D01*
X169502079Y-82778519D01*
X169549065Y-82740219D01*
X169569473Y-82727297D01*
X169628143Y-82705041D01*
X169707212Y-82692432D01*
X169795041Y-82689600D01*
X169879992Y-82696673D01*
G37*
X169879992Y-82696673D02*
X169950427Y-82713780D01*
X169970787Y-82722844D01*
X170010253Y-82746583D01*
X170040541Y-82773321D01*
X170062952Y-82807699D01*
X170078786Y-82854360D01*
X170089343Y-82917946D01*
X170095924Y-83003099D01*
X170099828Y-83114462D01*
X170101310Y-83188849D01*
X170106765Y-83510526D01*
X170013580Y-83510526D01*
X169957047Y-83508156D01*
X169927922Y-83500055D01*
X169920394Y-83486451D01*
X169916420Y-83471741D01*
X169898652Y-83474554D01*
X169874440Y-83486348D01*
X169813828Y-83504427D01*
X169735929Y-83509299D01*
X169653995Y-83501330D01*
X169581281Y-83480889D01*
X169574759Y-83478051D01*
X169508302Y-83431365D01*
X169464491Y-83366464D01*
X169444332Y-83290600D01*
X169445872Y-83263344D01*
X169610345Y-83263344D01*
X169624837Y-83300024D01*
X169667805Y-83326309D01*
X169737129Y-83340417D01*
X169774177Y-83342290D01*
X169835919Y-83337494D01*
X169876960Y-83318858D01*
X169886973Y-83310000D01*
X169914100Y-83261806D01*
X169920394Y-83218092D01*
X169920394Y-83159605D01*
X169838930Y-83159605D01*
X169744234Y-83164432D01*
X169677813Y-83179613D01*
X169635846Y-83206200D01*
X169626449Y-83218052D01*
X169610345Y-83263344D01*
X169445872Y-83263344D01*
X169448829Y-83211026D01*
X169478985Y-83134995D01*
X169520131Y-83083612D01*
X169545052Y-83061397D01*
X169569448Y-83046798D01*
X169601191Y-83037897D01*
X169648152Y-83032775D01*
X169718204Y-83029515D01*
X169745990Y-83028577D01*
X169920394Y-83022879D01*
X169920138Y-82970091D01*
X169913384Y-82914603D01*
X169888964Y-82881052D01*
X169839630Y-82859618D01*
X169838306Y-82859236D01*
X169768360Y-82850808D01*
X169699914Y-82861816D01*
X169649047Y-82888585D01*
X169628637Y-82901803D01*
X169606654Y-82899974D01*
X169572826Y-82880824D01*
X169552961Y-82867308D01*
X169514106Y-82838432D01*
X169490038Y-82816786D01*
X169486176Y-82810589D01*
X169502079Y-82778519D01*
X169549065Y-82740219D01*
X169569473Y-82727297D01*
X169628143Y-82705041D01*
X169707212Y-82692432D01*
X169795041Y-82689600D01*
X169879992Y-82696673D01*
G36*
X168874130Y-82695104D02*
G01*
X168940220Y-82700066D01*
X169026626Y-82959079D01*
X169113031Y-83218092D01*
X169140124Y-83126184D01*
X169156428Y-83069384D01*
X169177875Y-82992625D01*
X169201035Y-82908251D01*
X169213280Y-82862993D01*
X169259344Y-82691710D01*
X169449387Y-82691710D01*
X169392582Y-82871349D01*
X169364607Y-82959704D01*
X169330813Y-83066281D01*
X169295520Y-83177454D01*
X169264013Y-83276579D01*
X169192250Y-83502171D01*
X169037286Y-83512253D01*
X168995270Y-83373528D01*
X168969359Y-83287351D01*
X168941083Y-83192347D01*
X168916369Y-83108441D01*
X168915394Y-83105102D01*
X168896935Y-83048248D01*
X168880649Y-83009456D01*
X168869242Y-82994787D01*
X168866898Y-82996483D01*
X168858671Y-83019225D01*
X168843038Y-83067940D01*
X168821904Y-83136502D01*
X168797170Y-83218785D01*
X168783787Y-83264046D01*
X168711311Y-83510526D01*
X168557495Y-83510526D01*
X168434531Y-83122006D01*
X168399988Y-83013022D01*
X168368521Y-82914048D01*
X168341616Y-82829736D01*
X168320759Y-82764734D01*
X168307438Y-82723692D01*
X168303388Y-82711701D01*
X168306594Y-82699423D01*
X168331765Y-82694046D01*
X168384146Y-82694584D01*
X168392345Y-82694990D01*
X168489482Y-82700066D01*
X168553100Y-82934013D01*
X168576484Y-83019333D01*
X168597381Y-83094335D01*
X168613951Y-83152507D01*
X168624354Y-83187337D01*
X168626276Y-83193016D01*
X168634241Y-83186486D01*
X168650304Y-83152654D01*
X168672621Y-83096127D01*
X168699345Y-83021510D01*
X168721937Y-82954107D01*
X168808041Y-82690143D01*
X168874130Y-82695104D01*
G37*
X168874130Y-82695104D02*
X168940220Y-82700066D01*
X169026626Y-82959079D01*
X169113031Y-83218092D01*
X169140124Y-83126184D01*
X169156428Y-83069384D01*
X169177875Y-82992625D01*
X169201035Y-82908251D01*
X169213280Y-82862993D01*
X169259344Y-82691710D01*
X169449387Y-82691710D01*
X169392582Y-82871349D01*
X169364607Y-82959704D01*
X169330813Y-83066281D01*
X169295520Y-83177454D01*
X169264013Y-83276579D01*
X169192250Y-83502171D01*
X169037286Y-83512253D01*
X168995270Y-83373528D01*
X168969359Y-83287351D01*
X168941083Y-83192347D01*
X168916369Y-83108441D01*
X168915394Y-83105102D01*
X168896935Y-83048248D01*
X168880649Y-83009456D01*
X168869242Y-82994787D01*
X168866898Y-82996483D01*
X168858671Y-83019225D01*
X168843038Y-83067940D01*
X168821904Y-83136502D01*
X168797170Y-83218785D01*
X168783787Y-83264046D01*
X168711311Y-83510526D01*
X168557495Y-83510526D01*
X168434531Y-83122006D01*
X168399988Y-83013022D01*
X168368521Y-82914048D01*
X168341616Y-82829736D01*
X168320759Y-82764734D01*
X168307438Y-82723692D01*
X168303388Y-82711701D01*
X168306594Y-82699423D01*
X168331765Y-82694046D01*
X168384146Y-82694584D01*
X168392345Y-82694990D01*
X168489482Y-82700066D01*
X168553100Y-82934013D01*
X168576484Y-83019333D01*
X168597381Y-83094335D01*
X168613951Y-83152507D01*
X168624354Y-83187337D01*
X168626276Y-83193016D01*
X168634241Y-83186486D01*
X168650304Y-83152654D01*
X168672621Y-83096127D01*
X168699345Y-83021510D01*
X168721937Y-82954107D01*
X168808041Y-82690143D01*
X168874130Y-82695104D01*
G36*
X168232631Y-83510526D02*
G01*
X168140723Y-83510526D01*
X168087377Y-83508962D01*
X168059593Y-83502485D01*
X168049590Y-83488418D01*
X168048815Y-83478906D01*
X168047128Y-83459832D01*
X168036490Y-83456174D01*
X168008535Y-83467932D01*
X167986795Y-83478906D01*
X167903332Y-83504911D01*
X167812604Y-83506416D01*
X167738842Y-83487021D01*
X167670154Y-83440165D01*
X167617794Y-83371004D01*
X167589122Y-83289427D01*
X167588392Y-83284866D01*
X167584132Y-83235101D01*
X167582014Y-83163659D01*
X167582184Y-83109626D01*
X167764720Y-83109626D01*
X167768949Y-83181441D01*
X167778568Y-83240634D01*
X167791590Y-83274060D01*
X167840856Y-83319740D01*
X167899350Y-83336115D01*
X167959671Y-83322873D01*
X168011217Y-83283373D01*
X168030738Y-83256807D01*
X168042152Y-83225106D01*
X168047498Y-83178832D01*
X168048815Y-83109328D01*
X168046458Y-83040499D01*
X168040233Y-82980026D01*
X168031408Y-82939556D01*
X168029937Y-82935929D01*
X167994347Y-82892802D01*
X167942400Y-82869124D01*
X167884278Y-82865301D01*
X167830160Y-82881738D01*
X167790226Y-82918840D01*
X167786083Y-82926222D01*
X167773116Y-82971239D01*
X167766052Y-83035967D01*
X167764720Y-83109626D01*
X167582184Y-83109626D01*
X167582271Y-83082230D01*
X167583472Y-83038405D01*
X167591645Y-82929988D01*
X167608630Y-82848588D01*
X167636887Y-82788412D01*
X167678872Y-82743666D01*
X167719632Y-82717400D01*
X167776581Y-82698935D01*
X167847411Y-82692602D01*
X167919941Y-82697760D01*
X167981986Y-82713769D01*
X168014768Y-82732920D01*
X168048815Y-82763732D01*
X168048815Y-82374210D01*
X168232631Y-82374210D01*
X168232631Y-83510526D01*
G37*
X168232631Y-83510526D02*
X168140723Y-83510526D01*
X168087377Y-83508962D01*
X168059593Y-83502485D01*
X168049590Y-83488418D01*
X168048815Y-83478906D01*
X168047128Y-83459832D01*
X168036490Y-83456174D01*
X168008535Y-83467932D01*
X167986795Y-83478906D01*
X167903332Y-83504911D01*
X167812604Y-83506416D01*
X167738842Y-83487021D01*
X167670154Y-83440165D01*
X167617794Y-83371004D01*
X167589122Y-83289427D01*
X167588392Y-83284866D01*
X167584132Y-83235101D01*
X167582014Y-83163659D01*
X167582184Y-83109626D01*
X167764720Y-83109626D01*
X167768949Y-83181441D01*
X167778568Y-83240634D01*
X167791590Y-83274060D01*
X167840856Y-83319740D01*
X167899350Y-83336115D01*
X167959671Y-83322873D01*
X168011217Y-83283373D01*
X168030738Y-83256807D01*
X168042152Y-83225106D01*
X168047498Y-83178832D01*
X168048815Y-83109328D01*
X168046458Y-83040499D01*
X168040233Y-82980026D01*
X168031408Y-82939556D01*
X168029937Y-82935929D01*
X167994347Y-82892802D01*
X167942400Y-82869124D01*
X167884278Y-82865301D01*
X167830160Y-82881738D01*
X167790226Y-82918840D01*
X167786083Y-82926222D01*
X167773116Y-82971239D01*
X167766052Y-83035967D01*
X167764720Y-83109626D01*
X167582184Y-83109626D01*
X167582271Y-83082230D01*
X167583472Y-83038405D01*
X167591645Y-82929988D01*
X167608630Y-82848588D01*
X167636887Y-82788412D01*
X167678872Y-82743666D01*
X167719632Y-82717400D01*
X167776581Y-82698935D01*
X167847411Y-82692602D01*
X167919941Y-82697760D01*
X167981986Y-82713769D01*
X168014768Y-82732920D01*
X168048815Y-82763732D01*
X168048815Y-82374210D01*
X168232631Y-82374210D01*
X168232631Y-83510526D01*
G36*
X167179881Y-82693486D02*
G01*
X167204888Y-82700982D01*
X167212950Y-82717451D01*
X167213289Y-82724886D01*
X167214736Y-82745594D01*
X167224698Y-82748845D01*
X167251612Y-82734648D01*
X167267598Y-82724948D01*
X167318033Y-82704175D01*
X167378272Y-82693904D01*
X167441434Y-82693114D01*
X167500637Y-82700786D01*
X167549002Y-82715898D01*
X167579646Y-82737432D01*
X167585689Y-82764366D01*
X167582639Y-82771660D01*
X167560406Y-82801937D01*
X167525930Y-82839175D01*
X167519694Y-82845195D01*
X167486833Y-82872875D01*
X167458480Y-82881818D01*
X167418827Y-82875576D01*
X167402942Y-82871429D01*
X167353509Y-82861467D01*
X167318752Y-82865947D01*
X167289400Y-82881746D01*
X167262513Y-82902949D01*
X167242710Y-82929614D01*
X167228948Y-82966827D01*
X167220184Y-83019673D01*
X167215374Y-83093237D01*
X167213474Y-83192605D01*
X167213289Y-83252601D01*
X167213289Y-83510526D01*
X167046184Y-83510526D01*
X167046184Y-82691710D01*
X167129736Y-82691710D01*
X167179881Y-82693486D01*
G37*
X167179881Y-82693486D02*
X167204888Y-82700982D01*
X167212950Y-82717451D01*
X167213289Y-82724886D01*
X167214736Y-82745594D01*
X167224698Y-82748845D01*
X167251612Y-82734648D01*
X167267598Y-82724948D01*
X167318033Y-82704175D01*
X167378272Y-82693904D01*
X167441434Y-82693114D01*
X167500637Y-82700786D01*
X167549002Y-82715898D01*
X167579646Y-82737432D01*
X167585689Y-82764366D01*
X167582639Y-82771660D01*
X167560406Y-82801937D01*
X167525930Y-82839175D01*
X167519694Y-82845195D01*
X167486833Y-82872875D01*
X167458480Y-82881818D01*
X167418827Y-82875576D01*
X167402942Y-82871429D01*
X167353509Y-82861467D01*
X167318752Y-82865947D01*
X167289400Y-82881746D01*
X167262513Y-82902949D01*
X167242710Y-82929614D01*
X167228948Y-82966827D01*
X167220184Y-83019673D01*
X167215374Y-83093237D01*
X167213474Y-83192605D01*
X167213289Y-83252601D01*
X167213289Y-83510526D01*
X167046184Y-83510526D01*
X167046184Y-82691710D01*
X167129736Y-82691710D01*
X167179881Y-82693486D01*
G36*
X166660457Y-82698184D02*
G01*
X166739070Y-82719160D01*
X166798916Y-82757180D01*
X166841147Y-82806978D01*
X166854275Y-82828230D01*
X166863968Y-82850492D01*
X166870744Y-82878970D01*
X166875123Y-82918871D01*
X166877624Y-82975401D01*
X166878768Y-83053767D01*
X166879072Y-83159176D01*
X166879078Y-83187142D01*
X166879078Y-83510526D01*
X166798868Y-83510526D01*
X166747706Y-83506943D01*
X166709877Y-83497866D01*
X166700399Y-83492268D01*
X166674488Y-83482606D01*
X166648024Y-83492268D01*
X166604452Y-83504330D01*
X166541160Y-83509185D01*
X166471010Y-83507078D01*
X166406860Y-83498256D01*
X166369407Y-83486937D01*
X166296933Y-83440412D01*
X166251640Y-83375846D01*
X166231278Y-83290000D01*
X166231088Y-83287796D01*
X166232875Y-83249713D01*
X166394473Y-83249713D01*
X166408601Y-83293030D01*
X166431612Y-83317408D01*
X166477804Y-83335845D01*
X166538775Y-83343205D01*
X166600949Y-83339583D01*
X166650751Y-83325074D01*
X166664703Y-83315765D01*
X166689085Y-83272753D01*
X166695263Y-83223857D01*
X166695263Y-83159605D01*
X166602818Y-83159605D01*
X166514995Y-83166366D01*
X166448418Y-83185520D01*
X166407002Y-83215376D01*
X166394473Y-83249713D01*
X166232875Y-83249713D01*
X166235490Y-83194004D01*
X166266424Y-83119847D01*
X166324581Y-83063767D01*
X166332620Y-83058665D01*
X166367163Y-83042055D01*
X166409918Y-83031996D01*
X166469686Y-83027107D01*
X166540690Y-83025983D01*
X166695263Y-83025921D01*
X166695263Y-82961125D01*
X166688706Y-82910850D01*
X166671975Y-82877169D01*
X166670016Y-82875376D01*
X166632783Y-82860642D01*
X166576580Y-82854931D01*
X166514467Y-82857737D01*
X166459510Y-82868556D01*
X166426899Y-82884782D01*
X166409228Y-82897780D01*
X166390569Y-82900262D01*
X166364819Y-82889613D01*
X166325873Y-82863218D01*
X166267630Y-82818465D01*
X166262284Y-82814273D01*
X166265023Y-82798760D01*
X166287876Y-82772960D01*
X166322609Y-82744289D01*
X166360990Y-82720166D01*
X166373048Y-82714470D01*
X166417034Y-82703103D01*
X166481487Y-82694995D01*
X166553497Y-82691743D01*
X166556864Y-82691736D01*
X166660457Y-82698184D01*
G37*
X166660457Y-82698184D02*
X166739070Y-82719160D01*
X166798916Y-82757180D01*
X166841147Y-82806978D01*
X166854275Y-82828230D01*
X166863968Y-82850492D01*
X166870744Y-82878970D01*
X166875123Y-82918871D01*
X166877624Y-82975401D01*
X166878768Y-83053767D01*
X166879072Y-83159176D01*
X166879078Y-83187142D01*
X166879078Y-83510526D01*
X166798868Y-83510526D01*
X166747706Y-83506943D01*
X166709877Y-83497866D01*
X166700399Y-83492268D01*
X166674488Y-83482606D01*
X166648024Y-83492268D01*
X166604452Y-83504330D01*
X166541160Y-83509185D01*
X166471010Y-83507078D01*
X166406860Y-83498256D01*
X166369407Y-83486937D01*
X166296933Y-83440412D01*
X166251640Y-83375846D01*
X166231278Y-83290000D01*
X166231088Y-83287796D01*
X166232875Y-83249713D01*
X166394473Y-83249713D01*
X166408601Y-83293030D01*
X166431612Y-83317408D01*
X166477804Y-83335845D01*
X166538775Y-83343205D01*
X166600949Y-83339583D01*
X166650751Y-83325074D01*
X166664703Y-83315765D01*
X166689085Y-83272753D01*
X166695263Y-83223857D01*
X166695263Y-83159605D01*
X166602818Y-83159605D01*
X166514995Y-83166366D01*
X166448418Y-83185520D01*
X166407002Y-83215376D01*
X166394473Y-83249713D01*
X166232875Y-83249713D01*
X166235490Y-83194004D01*
X166266424Y-83119847D01*
X166324581Y-83063767D01*
X166332620Y-83058665D01*
X166367163Y-83042055D01*
X166409918Y-83031996D01*
X166469686Y-83027107D01*
X166540690Y-83025983D01*
X166695263Y-83025921D01*
X166695263Y-82961125D01*
X166688706Y-82910850D01*
X166671975Y-82877169D01*
X166670016Y-82875376D01*
X166632783Y-82860642D01*
X166576580Y-82854931D01*
X166514467Y-82857737D01*
X166459510Y-82868556D01*
X166426899Y-82884782D01*
X166409228Y-82897780D01*
X166390569Y-82900262D01*
X166364819Y-82889613D01*
X166325873Y-82863218D01*
X166267630Y-82818465D01*
X166262284Y-82814273D01*
X166265023Y-82798760D01*
X166287876Y-82772960D01*
X166322609Y-82744289D01*
X166360990Y-82720166D01*
X166373048Y-82714470D01*
X166417034Y-82703103D01*
X166481487Y-82694995D01*
X166553497Y-82691743D01*
X166556864Y-82691736D01*
X166660457Y-82698184D01*
G36*
X165963360Y-81452468D02*
G01*
X165998592Y-81469874D01*
X166042040Y-81500206D01*
X166073706Y-81533283D01*
X166095394Y-81574817D01*
X166108903Y-81630522D01*
X166116038Y-81706111D01*
X166118600Y-81807296D01*
X166118750Y-81850797D01*
X166118312Y-81946135D01*
X166116496Y-82014271D01*
X166112545Y-82061418D01*
X166105702Y-82093790D01*
X166095211Y-82117600D01*
X166084296Y-82133843D01*
X166014619Y-82202952D01*
X165932566Y-82244521D01*
X165844050Y-82257023D01*
X165754981Y-82238934D01*
X165726763Y-82226142D01*
X165659210Y-82190931D01*
X165659210Y-82742700D01*
X165708512Y-82717205D01*
X165773473Y-82697480D01*
X165853320Y-82692427D01*
X165933052Y-82701756D01*
X165993265Y-82722714D01*
X166043208Y-82762627D01*
X166085881Y-82819741D01*
X166089090Y-82825605D01*
X166102622Y-82853227D01*
X166112505Y-82881068D01*
X166119309Y-82914794D01*
X166123601Y-82960071D01*
X166125951Y-83022562D01*
X166126928Y-83107935D01*
X166127105Y-83204010D01*
X166127105Y-83510526D01*
X165943289Y-83510526D01*
X165943289Y-82945339D01*
X165891875Y-82902077D01*
X165838466Y-82867472D01*
X165787888Y-82861180D01*
X165737030Y-82877372D01*
X165709925Y-82893227D01*
X165689751Y-82915810D01*
X165675403Y-82949940D01*
X165665776Y-83000434D01*
X165659763Y-83072111D01*
X165656260Y-83169788D01*
X165655026Y-83234802D01*
X165650855Y-83502171D01*
X165563125Y-83507222D01*
X165475394Y-83512273D01*
X165475394Y-81853101D01*
X165659210Y-81853101D01*
X165663896Y-81945600D01*
X165679688Y-82009809D01*
X165709183Y-82049759D01*
X165754980Y-82069480D01*
X165801250Y-82073421D01*
X165853628Y-82068892D01*
X165888390Y-82051069D01*
X165910128Y-82027519D01*
X165927240Y-82002189D01*
X165937427Y-81973969D01*
X165941960Y-81934431D01*
X165942109Y-81875142D01*
X165940584Y-81825498D01*
X165937081Y-81750710D01*
X165931867Y-81701611D01*
X165923087Y-81670467D01*
X165908886Y-81649545D01*
X165895484Y-81637452D01*
X165839487Y-81611081D01*
X165773211Y-81606822D01*
X165735156Y-81615906D01*
X165697477Y-81648196D01*
X165672519Y-81711006D01*
X165660422Y-81803894D01*
X165659210Y-81853101D01*
X165475394Y-81853101D01*
X165475394Y-81438421D01*
X165567302Y-81438421D01*
X165622483Y-81440603D01*
X165650952Y-81448351D01*
X165659206Y-81463468D01*
X165659210Y-81463916D01*
X165663040Y-81478720D01*
X165679933Y-81477039D01*
X165713519Y-81460772D01*
X165791778Y-81435887D01*
X165879827Y-81433271D01*
X165963360Y-81452468D01*
G37*
X165963360Y-81452468D02*
X165998592Y-81469874D01*
X166042040Y-81500206D01*
X166073706Y-81533283D01*
X166095394Y-81574817D01*
X166108903Y-81630522D01*
X166116038Y-81706111D01*
X166118600Y-81807296D01*
X166118750Y-81850797D01*
X166118312Y-81946135D01*
X166116496Y-82014271D01*
X166112545Y-82061418D01*
X166105702Y-82093790D01*
X166095211Y-82117600D01*
X166084296Y-82133843D01*
X166014619Y-82202952D01*
X165932566Y-82244521D01*
X165844050Y-82257023D01*
X165754981Y-82238934D01*
X165726763Y-82226142D01*
X165659210Y-82190931D01*
X165659210Y-82742700D01*
X165708512Y-82717205D01*
X165773473Y-82697480D01*
X165853320Y-82692427D01*
X165933052Y-82701756D01*
X165993265Y-82722714D01*
X166043208Y-82762627D01*
X166085881Y-82819741D01*
X166089090Y-82825605D01*
X166102622Y-82853227D01*
X166112505Y-82881068D01*
X166119309Y-82914794D01*
X166123601Y-82960071D01*
X166125951Y-83022562D01*
X166126928Y-83107935D01*
X166127105Y-83204010D01*
X166127105Y-83510526D01*
X165943289Y-83510526D01*
X165943289Y-82945339D01*
X165891875Y-82902077D01*
X165838466Y-82867472D01*
X165787888Y-82861180D01*
X165737030Y-82877372D01*
X165709925Y-82893227D01*
X165689751Y-82915810D01*
X165675403Y-82949940D01*
X165665776Y-83000434D01*
X165659763Y-83072111D01*
X165656260Y-83169788D01*
X165655026Y-83234802D01*
X165650855Y-83502171D01*
X165563125Y-83507222D01*
X165475394Y-83512273D01*
X165475394Y-81853101D01*
X165659210Y-81853101D01*
X165663896Y-81945600D01*
X165679688Y-82009809D01*
X165709183Y-82049759D01*
X165754980Y-82069480D01*
X165801250Y-82073421D01*
X165853628Y-82068892D01*
X165888390Y-82051069D01*
X165910128Y-82027519D01*
X165927240Y-82002189D01*
X165937427Y-81973969D01*
X165941960Y-81934431D01*
X165942109Y-81875142D01*
X165940584Y-81825498D01*
X165937081Y-81750710D01*
X165931867Y-81701611D01*
X165923087Y-81670467D01*
X165908886Y-81649545D01*
X165895484Y-81637452D01*
X165839487Y-81611081D01*
X165773211Y-81606822D01*
X165735156Y-81615906D01*
X165697477Y-81648196D01*
X165672519Y-81711006D01*
X165660422Y-81803894D01*
X165659210Y-81853101D01*
X165475394Y-81853101D01*
X165475394Y-81438421D01*
X165567302Y-81438421D01*
X165622483Y-81440603D01*
X165650952Y-81448351D01*
X165659206Y-81463468D01*
X165659210Y-81463916D01*
X165663040Y-81478720D01*
X165679933Y-81477039D01*
X165713519Y-81460772D01*
X165791778Y-81435887D01*
X165879827Y-81433271D01*
X165963360Y-81452468D01*
D12*
X146890000Y-97261252D02*
X146890000Y-96738748D01*
X149110000Y-97261252D02*
X149110000Y-96738748D01*
X146890000Y-104761252D02*
X146890000Y-104238748D01*
X149110000Y-104761252D02*
X149110000Y-104238748D01*
X167890000Y-104761252D02*
X167890000Y-104238748D01*
X170110000Y-104761252D02*
X170110000Y-104238748D01*
X167890000Y-97261252D02*
X167890000Y-96738748D01*
X170110000Y-97261252D02*
X170110000Y-96738748D01*
X155120000Y-133180000D02*
X155720000Y-133180000D01*
X155120000Y-131580000D02*
X155120000Y-133180000D01*
X155720000Y-131580000D02*
X155120000Y-131580000D01*
X155120000Y-129220000D02*
X155720000Y-129220000D01*
X155120000Y-127620000D02*
X155120000Y-129220000D01*
X155720000Y-127620000D02*
X155120000Y-127620000D01*
X155120000Y-125260000D02*
X155720000Y-125260000D01*
X155120000Y-123660000D02*
X155120000Y-125260000D01*
X155720000Y-123660000D02*
X155120000Y-123660000D01*
X155120000Y-121300000D02*
X155720000Y-121300000D01*
X155120000Y-119700000D02*
X155120000Y-121300000D01*
X155720000Y-119700000D02*
X155120000Y-119700000D01*
X148160000Y-132380000D02*
X146490000Y-132380000D01*
X148160000Y-120500000D02*
X148160000Y-132380000D01*
X146490000Y-120500000D02*
X148160000Y-120500000D01*
X146490000Y-132380000D02*
X145490000Y-132380000D01*
X146490000Y-120500000D02*
X146490000Y-132380000D01*
X145490000Y-120500000D02*
X146490000Y-120500000D01*
X152500000Y-118190000D02*
X148500000Y-118190000D01*
X146495000Y-118480000D02*
X155720000Y-118480000D01*
X146495000Y-120385000D02*
X146495000Y-118480000D01*
X145490000Y-120385000D02*
X146495000Y-120385000D01*
X145490000Y-132495000D02*
X145490000Y-120385000D01*
X146495000Y-132495000D02*
X145490000Y-132495000D01*
X146495000Y-134400000D02*
X146495000Y-132495000D01*
X155720000Y-134400000D02*
X146495000Y-134400000D01*
X155720000Y-118480000D02*
X155720000Y-134400000D01*
X135880000Y-94679000D02*
X142120000Y-94679000D01*
X135880000Y-99321000D02*
X142120000Y-99321000D01*
X135880000Y-94679000D02*
X135880000Y-96075000D01*
X135880000Y-97925000D02*
X135880000Y-99321000D01*
X142120000Y-94679000D02*
X142120000Y-96075000D01*
X142120000Y-97925000D02*
X142120000Y-99321000D01*
X162120000Y-99321000D02*
X155880000Y-99321000D01*
X162120000Y-94679000D02*
X155880000Y-94679000D01*
X162120000Y-99321000D02*
X162120000Y-97925000D01*
X162120000Y-96075000D02*
X162120000Y-94679000D01*
X155880000Y-99321000D02*
X155880000Y-97925000D01*
X155880000Y-96075000D02*
X155880000Y-94679000D01*
D10*
X165666666Y-139952380D02*
X165666666Y-140666666D01*
X165619047Y-140809523D01*
X165523809Y-140904761D01*
X165380952Y-140952380D01*
X165285714Y-140952380D01*
X166666666Y-140952380D02*
X166095238Y-140952380D01*
X166380952Y-140952380D02*
X166380952Y-139952380D01*
X166285714Y-140095238D01*
X166190476Y-140190476D01*
X166095238Y-140238095D01*
X168095238Y-126928571D02*
X168238095Y-126976190D01*
X168285714Y-127023809D01*
X168333333Y-127119047D01*
X168333333Y-127261904D01*
X168285714Y-127357142D01*
X168238095Y-127404761D01*
X168142857Y-127452380D01*
X167761904Y-127452380D01*
X167761904Y-126452380D01*
X168095238Y-126452380D01*
X168190476Y-126500000D01*
X168238095Y-126547619D01*
X168285714Y-126642857D01*
X168285714Y-126738095D01*
X168238095Y-126833333D01*
X168190476Y-126880952D01*
X168095238Y-126928571D01*
X167761904Y-126928571D01*
X168761904Y-127452380D02*
X168761904Y-126452380D01*
X169142857Y-126452380D01*
X169238095Y-126500000D01*
X169285714Y-126547619D01*
X169333333Y-126642857D01*
X169333333Y-126785714D01*
X169285714Y-126880952D01*
X169238095Y-126928571D01*
X169142857Y-126976190D01*
X168761904Y-126976190D01*
X170238095Y-126452380D02*
X169761904Y-126452380D01*
X169714285Y-126928571D01*
X169761904Y-126880952D01*
X169857142Y-126833333D01*
X170095238Y-126833333D01*
X170190476Y-126880952D01*
X170238095Y-126928571D01*
X170285714Y-127023809D01*
X170285714Y-127261904D01*
X170238095Y-127357142D01*
X170190476Y-127404761D01*
X170095238Y-127452380D01*
X169857142Y-127452380D01*
X169761904Y-127404761D01*
X169714285Y-127357142D01*
X140857142Y-134119047D02*
X140904761Y-134166666D01*
X140952380Y-134309523D01*
X140952380Y-134404761D01*
X140904761Y-134547619D01*
X140809523Y-134642857D01*
X140714285Y-134690476D01*
X140523809Y-134738095D01*
X140380952Y-134738095D01*
X140190476Y-134690476D01*
X140095238Y-134642857D01*
X140000000Y-134547619D01*
X139952380Y-134404761D01*
X139952380Y-134309523D01*
X140000000Y-134166666D01*
X140047619Y-134119047D01*
X139952380Y-133261904D02*
X139952380Y-133452380D01*
X140000000Y-133547619D01*
X140047619Y-133595238D01*
X140190476Y-133690476D01*
X140380952Y-133738095D01*
X140761904Y-133738095D01*
X140857142Y-133690476D01*
X140904761Y-133642857D01*
X140952380Y-133547619D01*
X140952380Y-133357142D01*
X140904761Y-133261904D01*
X140857142Y-133214285D01*
X140761904Y-133166666D01*
X140523809Y-133166666D01*
X140428571Y-133214285D01*
X140380952Y-133261904D01*
X140333333Y-133357142D01*
X140333333Y-133547619D01*
X140380952Y-133642857D01*
X140428571Y-133690476D01*
X140523809Y-133738095D01*
X139952380Y-132547619D02*
X139952380Y-132452380D01*
X140000000Y-132357142D01*
X140047619Y-132309523D01*
X140142857Y-132261904D01*
X140333333Y-132214285D01*
X140571428Y-132214285D01*
X140761904Y-132261904D01*
X140857142Y-132309523D01*
X140904761Y-132357142D01*
X140952380Y-132452380D01*
X140952380Y-132547619D01*
X140904761Y-132642857D01*
X140857142Y-132690476D01*
X140761904Y-132738095D01*
X140571428Y-132785714D01*
X140333333Y-132785714D01*
X140142857Y-132738095D01*
X140047619Y-132690476D01*
X140000000Y-132642857D01*
X139952380Y-132547619D01*
X140380952Y-131642857D02*
X140333333Y-131738095D01*
X140285714Y-131785714D01*
X140190476Y-131833333D01*
X140142857Y-131833333D01*
X140047619Y-131785714D01*
X140000000Y-131738095D01*
X139952380Y-131642857D01*
X139952380Y-131452380D01*
X140000000Y-131357142D01*
X140047619Y-131309523D01*
X140142857Y-131261904D01*
X140190476Y-131261904D01*
X140285714Y-131309523D01*
X140333333Y-131357142D01*
X140380952Y-131452380D01*
X140380952Y-131642857D01*
X140428571Y-131738095D01*
X140476190Y-131785714D01*
X140571428Y-131833333D01*
X140761904Y-131833333D01*
X140857142Y-131785714D01*
X140904761Y-131738095D01*
X140952380Y-131642857D01*
X140952380Y-131452380D01*
X140904761Y-131357142D01*
X140857142Y-131309523D01*
X140761904Y-131261904D01*
X140571428Y-131261904D01*
X140476190Y-131309523D01*
X140428571Y-131357142D01*
X140380952Y-131452380D01*
X170807142Y-122119047D02*
X170854761Y-122166666D01*
X170902380Y-122309523D01*
X170902380Y-122404761D01*
X170854761Y-122547619D01*
X170759523Y-122642857D01*
X170664285Y-122690476D01*
X170473809Y-122738095D01*
X170330952Y-122738095D01*
X170140476Y-122690476D01*
X170045238Y-122642857D01*
X169950000Y-122547619D01*
X169902380Y-122404761D01*
X169902380Y-122309523D01*
X169950000Y-122166666D01*
X169997619Y-122119047D01*
X169902380Y-121261904D02*
X169902380Y-121452380D01*
X169950000Y-121547619D01*
X169997619Y-121595238D01*
X170140476Y-121690476D01*
X170330952Y-121738095D01*
X170711904Y-121738095D01*
X170807142Y-121690476D01*
X170854761Y-121642857D01*
X170902380Y-121547619D01*
X170902380Y-121357142D01*
X170854761Y-121261904D01*
X170807142Y-121214285D01*
X170711904Y-121166666D01*
X170473809Y-121166666D01*
X170378571Y-121214285D01*
X170330952Y-121261904D01*
X170283333Y-121357142D01*
X170283333Y-121547619D01*
X170330952Y-121642857D01*
X170378571Y-121690476D01*
X170473809Y-121738095D01*
X169902380Y-120547619D02*
X169902380Y-120452380D01*
X169950000Y-120357142D01*
X169997619Y-120309523D01*
X170092857Y-120261904D01*
X170283333Y-120214285D01*
X170521428Y-120214285D01*
X170711904Y-120261904D01*
X170807142Y-120309523D01*
X170854761Y-120357142D01*
X170902380Y-120452380D01*
X170902380Y-120547619D01*
X170854761Y-120642857D01*
X170807142Y-120690476D01*
X170711904Y-120738095D01*
X170521428Y-120785714D01*
X170283333Y-120785714D01*
X170092857Y-120738095D01*
X169997619Y-120690476D01*
X169950000Y-120642857D01*
X169902380Y-120547619D01*
X169902380Y-119880952D02*
X169902380Y-119214285D01*
X170902380Y-119642857D01*
X138380952Y-118452380D02*
X137904761Y-118452380D01*
X137904761Y-117452380D01*
X139142857Y-117452380D02*
X138952380Y-117452380D01*
X138857142Y-117500000D01*
X138809523Y-117547619D01*
X138714285Y-117690476D01*
X138666666Y-117880952D01*
X138666666Y-118261904D01*
X138714285Y-118357142D01*
X138761904Y-118404761D01*
X138857142Y-118452380D01*
X139047619Y-118452380D01*
X139142857Y-118404761D01*
X139190476Y-118357142D01*
X139238095Y-118261904D01*
X139238095Y-118023809D01*
X139190476Y-117928571D01*
X139142857Y-117880952D01*
X139047619Y-117833333D01*
X138857142Y-117833333D01*
X138761904Y-117880952D01*
X138714285Y-117928571D01*
X138666666Y-118023809D01*
X139857142Y-117452380D02*
X139952380Y-117452380D01*
X140047619Y-117500000D01*
X140095238Y-117547619D01*
X140142857Y-117642857D01*
X140190476Y-117833333D01*
X140190476Y-118071428D01*
X140142857Y-118261904D01*
X140095238Y-118357142D01*
X140047619Y-118404761D01*
X139952380Y-118452380D01*
X139857142Y-118452380D01*
X139761904Y-118404761D01*
X139714285Y-118357142D01*
X139666666Y-118261904D01*
X139619047Y-118071428D01*
X139619047Y-117833333D01*
X139666666Y-117642857D01*
X139714285Y-117547619D01*
X139761904Y-117500000D01*
X139857142Y-117452380D01*
X141047619Y-117452380D02*
X140857142Y-117452380D01*
X140761904Y-117500000D01*
X140714285Y-117547619D01*
X140619047Y-117690476D01*
X140571428Y-117880952D01*
X140571428Y-118261904D01*
X140619047Y-118357142D01*
X140666666Y-118404761D01*
X140761904Y-118452380D01*
X140952380Y-118452380D01*
X141047619Y-118404761D01*
X141095238Y-118357142D01*
X141142857Y-118261904D01*
X141142857Y-118023809D01*
X141095238Y-117928571D01*
X141047619Y-117880952D01*
X140952380Y-117833333D01*
X140761904Y-117833333D01*
X140666666Y-117880952D01*
X140619047Y-117928571D01*
X140571428Y-118023809D01*
X160952380Y-118619047D02*
X160952380Y-119095238D01*
X159952380Y-119095238D01*
X159952380Y-117857142D02*
X159952380Y-118047619D01*
X160000000Y-118142857D01*
X160047619Y-118190476D01*
X160190476Y-118285714D01*
X160380952Y-118333333D01*
X160761904Y-118333333D01*
X160857142Y-118285714D01*
X160904761Y-118238095D01*
X160952380Y-118142857D01*
X160952380Y-117952380D01*
X160904761Y-117857142D01*
X160857142Y-117809523D01*
X160761904Y-117761904D01*
X160523809Y-117761904D01*
X160428571Y-117809523D01*
X160380952Y-117857142D01*
X160333333Y-117952380D01*
X160333333Y-118142857D01*
X160380952Y-118238095D01*
X160428571Y-118285714D01*
X160523809Y-118333333D01*
X159952380Y-117142857D02*
X159952380Y-117047619D01*
X160000000Y-116952380D01*
X160047619Y-116904761D01*
X160142857Y-116857142D01*
X160333333Y-116809523D01*
X160571428Y-116809523D01*
X160761904Y-116857142D01*
X160857142Y-116904761D01*
X160904761Y-116952380D01*
X160952380Y-117047619D01*
X160952380Y-117142857D01*
X160904761Y-117238095D01*
X160857142Y-117285714D01*
X160761904Y-117333333D01*
X160571428Y-117380952D01*
X160333333Y-117380952D01*
X160142857Y-117333333D01*
X160047619Y-117285714D01*
X160000000Y-117238095D01*
X159952380Y-117142857D01*
X159952380Y-115904761D02*
X159952380Y-116380952D01*
X160428571Y-116428571D01*
X160380952Y-116380952D01*
X160333333Y-116285714D01*
X160333333Y-116047619D01*
X160380952Y-115952380D01*
X160428571Y-115904761D01*
X160523809Y-115857142D01*
X160761904Y-115857142D01*
X160857142Y-115904761D01*
X160904761Y-115952380D01*
X160952380Y-116047619D01*
X160952380Y-116285714D01*
X160904761Y-116380952D01*
X160857142Y-116428571D01*
X134928571Y-114404761D02*
X134976190Y-114261904D01*
X135023809Y-114214285D01*
X135119047Y-114166666D01*
X135261904Y-114166666D01*
X135357142Y-114214285D01*
X135404761Y-114261904D01*
X135452380Y-114357142D01*
X135452380Y-114738095D01*
X134452380Y-114738095D01*
X134452380Y-114404761D01*
X134500000Y-114309523D01*
X134547619Y-114261904D01*
X134642857Y-114214285D01*
X134738095Y-114214285D01*
X134833333Y-114261904D01*
X134880952Y-114309523D01*
X134928571Y-114404761D01*
X134928571Y-114738095D01*
X135452380Y-113738095D02*
X134452380Y-113738095D01*
X134452380Y-113357142D01*
X134500000Y-113261904D01*
X134547619Y-113214285D01*
X134642857Y-113166666D01*
X134785714Y-113166666D01*
X134880952Y-113214285D01*
X134928571Y-113261904D01*
X134976190Y-113357142D01*
X134976190Y-113738095D01*
X134785714Y-112309523D02*
X135452380Y-112309523D01*
X134404761Y-112547619D02*
X135119047Y-112785714D01*
X135119047Y-112166666D01*
X166095238Y-111928571D02*
X166238095Y-111976190D01*
X166285714Y-112023809D01*
X166333333Y-112119047D01*
X166333333Y-112261904D01*
X166285714Y-112357142D01*
X166238095Y-112404761D01*
X166142857Y-112452380D01*
X165761904Y-112452380D01*
X165761904Y-111452380D01*
X166095238Y-111452380D01*
X166190476Y-111500000D01*
X166238095Y-111547619D01*
X166285714Y-111642857D01*
X166285714Y-111738095D01*
X166238095Y-111833333D01*
X166190476Y-111880952D01*
X166095238Y-111928571D01*
X165761904Y-111928571D01*
X166761904Y-112452380D02*
X166761904Y-111452380D01*
X167142857Y-111452380D01*
X167238095Y-111500000D01*
X167285714Y-111547619D01*
X167333333Y-111642857D01*
X167333333Y-111785714D01*
X167285714Y-111880952D01*
X167238095Y-111928571D01*
X167142857Y-111976190D01*
X166761904Y-111976190D01*
X167666666Y-111452380D02*
X168285714Y-111452380D01*
X167952380Y-111833333D01*
X168095238Y-111833333D01*
X168190476Y-111880952D01*
X168238095Y-111928571D01*
X168285714Y-112023809D01*
X168285714Y-112261904D01*
X168238095Y-112357142D01*
X168190476Y-112404761D01*
X168095238Y-112452380D01*
X167809523Y-112452380D01*
X167714285Y-112404761D01*
X167666666Y-112357142D01*
X148670238Y-93078571D02*
X148813095Y-93126190D01*
X148860714Y-93173809D01*
X148908333Y-93269047D01*
X148908333Y-93411904D01*
X148860714Y-93507142D01*
X148813095Y-93554761D01*
X148717857Y-93602380D01*
X148336904Y-93602380D01*
X148336904Y-92602380D01*
X148670238Y-92602380D01*
X148765476Y-92650000D01*
X148813095Y-92697619D01*
X148860714Y-92792857D01*
X148860714Y-92888095D01*
X148813095Y-92983333D01*
X148765476Y-93030952D01*
X148670238Y-93078571D01*
X148336904Y-93078571D01*
X149336904Y-93602380D02*
X149336904Y-92602380D01*
X149717857Y-92602380D01*
X149813095Y-92650000D01*
X149860714Y-92697619D01*
X149908333Y-92792857D01*
X149908333Y-92935714D01*
X149860714Y-93030952D01*
X149813095Y-93078571D01*
X149717857Y-93126190D01*
X149336904Y-93126190D01*
X150289285Y-92697619D02*
X150336904Y-92650000D01*
X150432142Y-92602380D01*
X150670238Y-92602380D01*
X150765476Y-92650000D01*
X150813095Y-92697619D01*
X150860714Y-92792857D01*
X150860714Y-92888095D01*
X150813095Y-93030952D01*
X150241666Y-93602380D01*
X150860714Y-93602380D01*
X167720238Y-93078571D02*
X167863095Y-93126190D01*
X167910714Y-93173809D01*
X167958333Y-93269047D01*
X167958333Y-93411904D01*
X167910714Y-93507142D01*
X167863095Y-93554761D01*
X167767857Y-93602380D01*
X167386904Y-93602380D01*
X167386904Y-92602380D01*
X167720238Y-92602380D01*
X167815476Y-92650000D01*
X167863095Y-92697619D01*
X167910714Y-92792857D01*
X167910714Y-92888095D01*
X167863095Y-92983333D01*
X167815476Y-93030952D01*
X167720238Y-93078571D01*
X167386904Y-93078571D01*
X168386904Y-93602380D02*
X168386904Y-92602380D01*
X168767857Y-92602380D01*
X168863095Y-92650000D01*
X168910714Y-92697619D01*
X168958333Y-92792857D01*
X168958333Y-92935714D01*
X168910714Y-93030952D01*
X168863095Y-93078571D01*
X168767857Y-93126190D01*
X168386904Y-93126190D01*
X169910714Y-93602380D02*
X169339285Y-93602380D01*
X169625000Y-93602380D02*
X169625000Y-92602380D01*
X169529761Y-92745238D01*
X169434523Y-92840476D01*
X169339285Y-92888095D01*
D11*
X163973809Y-73366666D02*
X165021428Y-73366666D01*
X163764285Y-73995238D02*
X164497619Y-71795238D01*
X165230952Y-73995238D01*
X165964285Y-73995238D02*
X165964285Y-71795238D01*
X166802380Y-71795238D01*
X167011904Y-71900000D01*
X167116666Y-72004761D01*
X167221428Y-72214285D01*
X167221428Y-72528571D01*
X167116666Y-72738095D01*
X167011904Y-72842857D01*
X166802380Y-72947619D01*
X165964285Y-72947619D01*
X169630952Y-74204761D02*
X169421428Y-74100000D01*
X169211904Y-73890476D01*
X168897619Y-73576190D01*
X168688095Y-73471428D01*
X168478571Y-73471428D01*
X168583333Y-73995238D02*
X168373809Y-73890476D01*
X168164285Y-73680952D01*
X168059523Y-73261904D01*
X168059523Y-72528571D01*
X168164285Y-72109523D01*
X168373809Y-71900000D01*
X168583333Y-71795238D01*
X169002380Y-71795238D01*
X169211904Y-71900000D01*
X169421428Y-72109523D01*
X169526190Y-72528571D01*
X169526190Y-73261904D01*
X169421428Y-73680952D01*
X169211904Y-73890476D01*
X169002380Y-73995238D01*
X168583333Y-73995238D01*
D10*
X150952380Y-98119047D02*
X150952380Y-98595238D01*
X149952380Y-98595238D01*
X149952380Y-97357142D02*
X149952380Y-97547619D01*
X150000000Y-97642857D01*
X150047619Y-97690476D01*
X150190476Y-97785714D01*
X150380952Y-97833333D01*
X150761904Y-97833333D01*
X150857142Y-97785714D01*
X150904761Y-97738095D01*
X150952380Y-97642857D01*
X150952380Y-97452380D01*
X150904761Y-97357142D01*
X150857142Y-97309523D01*
X150761904Y-97261904D01*
X150523809Y-97261904D01*
X150428571Y-97309523D01*
X150380952Y-97357142D01*
X150333333Y-97452380D01*
X150333333Y-97642857D01*
X150380952Y-97738095D01*
X150428571Y-97785714D01*
X150523809Y-97833333D01*
X149952380Y-96642857D02*
X149952380Y-96547619D01*
X150000000Y-96452380D01*
X150047619Y-96404761D01*
X150142857Y-96357142D01*
X150333333Y-96309523D01*
X150571428Y-96309523D01*
X150761904Y-96357142D01*
X150857142Y-96404761D01*
X150904761Y-96452380D01*
X150952380Y-96547619D01*
X150952380Y-96642857D01*
X150904761Y-96738095D01*
X150857142Y-96785714D01*
X150761904Y-96833333D01*
X150571428Y-96880952D01*
X150333333Y-96880952D01*
X150142857Y-96833333D01*
X150047619Y-96785714D01*
X150000000Y-96738095D01*
X149952380Y-96642857D01*
X150285714Y-95452380D02*
X150952380Y-95452380D01*
X149904761Y-95690476D02*
X150619047Y-95928571D01*
X150619047Y-95309523D01*
X150952380Y-105619047D02*
X150952380Y-106095238D01*
X149952380Y-106095238D01*
X149952380Y-104857142D02*
X149952380Y-105047619D01*
X150000000Y-105142857D01*
X150047619Y-105190476D01*
X150190476Y-105285714D01*
X150380952Y-105333333D01*
X150761904Y-105333333D01*
X150857142Y-105285714D01*
X150904761Y-105238095D01*
X150952380Y-105142857D01*
X150952380Y-104952380D01*
X150904761Y-104857142D01*
X150857142Y-104809523D01*
X150761904Y-104761904D01*
X150523809Y-104761904D01*
X150428571Y-104809523D01*
X150380952Y-104857142D01*
X150333333Y-104952380D01*
X150333333Y-105142857D01*
X150380952Y-105238095D01*
X150428571Y-105285714D01*
X150523809Y-105333333D01*
X149952380Y-104142857D02*
X149952380Y-104047619D01*
X150000000Y-103952380D01*
X150047619Y-103904761D01*
X150142857Y-103857142D01*
X150333333Y-103809523D01*
X150571428Y-103809523D01*
X150761904Y-103857142D01*
X150857142Y-103904761D01*
X150904761Y-103952380D01*
X150952380Y-104047619D01*
X150952380Y-104142857D01*
X150904761Y-104238095D01*
X150857142Y-104285714D01*
X150761904Y-104333333D01*
X150571428Y-104380952D01*
X150333333Y-104380952D01*
X150142857Y-104333333D01*
X150047619Y-104285714D01*
X150000000Y-104238095D01*
X149952380Y-104142857D01*
X149952380Y-103476190D02*
X149952380Y-102857142D01*
X150333333Y-103190476D01*
X150333333Y-103047619D01*
X150380952Y-102952380D01*
X150428571Y-102904761D01*
X150523809Y-102857142D01*
X150761904Y-102857142D01*
X150857142Y-102904761D01*
X150904761Y-102952380D01*
X150952380Y-103047619D01*
X150952380Y-103333333D01*
X150904761Y-103428571D01*
X150857142Y-103476190D01*
X171952380Y-105619047D02*
X171952380Y-106095238D01*
X170952380Y-106095238D01*
X170952380Y-104857142D02*
X170952380Y-105047619D01*
X171000000Y-105142857D01*
X171047619Y-105190476D01*
X171190476Y-105285714D01*
X171380952Y-105333333D01*
X171761904Y-105333333D01*
X171857142Y-105285714D01*
X171904761Y-105238095D01*
X171952380Y-105142857D01*
X171952380Y-104952380D01*
X171904761Y-104857142D01*
X171857142Y-104809523D01*
X171761904Y-104761904D01*
X171523809Y-104761904D01*
X171428571Y-104809523D01*
X171380952Y-104857142D01*
X171333333Y-104952380D01*
X171333333Y-105142857D01*
X171380952Y-105238095D01*
X171428571Y-105285714D01*
X171523809Y-105333333D01*
X170952380Y-104142857D02*
X170952380Y-104047619D01*
X171000000Y-103952380D01*
X171047619Y-103904761D01*
X171142857Y-103857142D01*
X171333333Y-103809523D01*
X171571428Y-103809523D01*
X171761904Y-103857142D01*
X171857142Y-103904761D01*
X171904761Y-103952380D01*
X171952380Y-104047619D01*
X171952380Y-104142857D01*
X171904761Y-104238095D01*
X171857142Y-104285714D01*
X171761904Y-104333333D01*
X171571428Y-104380952D01*
X171333333Y-104380952D01*
X171142857Y-104333333D01*
X171047619Y-104285714D01*
X171000000Y-104238095D01*
X170952380Y-104142857D01*
X171047619Y-103428571D02*
X171000000Y-103380952D01*
X170952380Y-103285714D01*
X170952380Y-103047619D01*
X171000000Y-102952380D01*
X171047619Y-102904761D01*
X171142857Y-102857142D01*
X171238095Y-102857142D01*
X171380952Y-102904761D01*
X171952380Y-103476190D01*
X171952380Y-102857142D01*
X171952380Y-98119047D02*
X171952380Y-98595238D01*
X170952380Y-98595238D01*
X170952380Y-97357142D02*
X170952380Y-97547619D01*
X171000000Y-97642857D01*
X171047619Y-97690476D01*
X171190476Y-97785714D01*
X171380952Y-97833333D01*
X171761904Y-97833333D01*
X171857142Y-97785714D01*
X171904761Y-97738095D01*
X171952380Y-97642857D01*
X171952380Y-97452380D01*
X171904761Y-97357142D01*
X171857142Y-97309523D01*
X171761904Y-97261904D01*
X171523809Y-97261904D01*
X171428571Y-97309523D01*
X171380952Y-97357142D01*
X171333333Y-97452380D01*
X171333333Y-97642857D01*
X171380952Y-97738095D01*
X171428571Y-97785714D01*
X171523809Y-97833333D01*
X170952380Y-96642857D02*
X170952380Y-96547619D01*
X171000000Y-96452380D01*
X171047619Y-96404761D01*
X171142857Y-96357142D01*
X171333333Y-96309523D01*
X171571428Y-96309523D01*
X171761904Y-96357142D01*
X171857142Y-96404761D01*
X171904761Y-96452380D01*
X171952380Y-96547619D01*
X171952380Y-96642857D01*
X171904761Y-96738095D01*
X171857142Y-96785714D01*
X171761904Y-96833333D01*
X171571428Y-96880952D01*
X171333333Y-96880952D01*
X171142857Y-96833333D01*
X171047619Y-96785714D01*
X171000000Y-96738095D01*
X170952380Y-96642857D01*
X171952380Y-95357142D02*
X171952380Y-95928571D01*
X171952380Y-95642857D02*
X170952380Y-95642857D01*
X171095238Y-95738095D01*
X171190476Y-95833333D01*
X171238095Y-95928571D01*
X149214285Y-115952380D02*
X149214285Y-116666666D01*
X149166666Y-116809523D01*
X149071428Y-116904761D01*
X148928571Y-116952380D01*
X148833333Y-116952380D01*
X150119047Y-115952380D02*
X149928571Y-115952380D01*
X149833333Y-116000000D01*
X149785714Y-116047619D01*
X149690476Y-116190476D01*
X149642857Y-116380952D01*
X149642857Y-116761904D01*
X149690476Y-116857142D01*
X149738095Y-116904761D01*
X149833333Y-116952380D01*
X150023809Y-116952380D01*
X150119047Y-116904761D01*
X150166666Y-116857142D01*
X150214285Y-116761904D01*
X150214285Y-116523809D01*
X150166666Y-116428571D01*
X150119047Y-116380952D01*
X150023809Y-116333333D01*
X149833333Y-116333333D01*
X149738095Y-116380952D01*
X149690476Y-116428571D01*
X149642857Y-116523809D01*
X151166666Y-116952380D02*
X150595238Y-116952380D01*
X150880952Y-116952380D02*
X150880952Y-115952380D01*
X150785714Y-116095238D01*
X150690476Y-116190476D01*
X150595238Y-116238095D01*
X152071428Y-115952380D02*
X151595238Y-115952380D01*
X151547619Y-116428571D01*
X151595238Y-116380952D01*
X151690476Y-116333333D01*
X151928571Y-116333333D01*
X152023809Y-116380952D01*
X152071428Y-116428571D01*
X152119047Y-116523809D01*
X152119047Y-116761904D01*
X152071428Y-116857142D01*
X152023809Y-116904761D01*
X151928571Y-116952380D01*
X151690476Y-116952380D01*
X151595238Y-116904761D01*
X151547619Y-116857142D01*
X137880952Y-100857142D02*
X137833333Y-100904761D01*
X137690476Y-100952380D01*
X137595238Y-100952380D01*
X137452380Y-100904761D01*
X137357142Y-100809523D01*
X137309523Y-100714285D01*
X137261904Y-100523809D01*
X137261904Y-100380952D01*
X137309523Y-100190476D01*
X137357142Y-100095238D01*
X137452380Y-100000000D01*
X137595238Y-99952380D01*
X137690476Y-99952380D01*
X137833333Y-100000000D01*
X137880952Y-100047619D01*
X138738095Y-99952380D02*
X138547619Y-99952380D01*
X138452380Y-100000000D01*
X138404761Y-100047619D01*
X138309523Y-100190476D01*
X138261904Y-100380952D01*
X138261904Y-100761904D01*
X138309523Y-100857142D01*
X138357142Y-100904761D01*
X138452380Y-100952380D01*
X138642857Y-100952380D01*
X138738095Y-100904761D01*
X138785714Y-100857142D01*
X138833333Y-100761904D01*
X138833333Y-100523809D01*
X138785714Y-100428571D01*
X138738095Y-100380952D01*
X138642857Y-100333333D01*
X138452380Y-100333333D01*
X138357142Y-100380952D01*
X138309523Y-100428571D01*
X138261904Y-100523809D01*
X139452380Y-99952380D02*
X139547619Y-99952380D01*
X139642857Y-100000000D01*
X139690476Y-100047619D01*
X139738095Y-100142857D01*
X139785714Y-100333333D01*
X139785714Y-100571428D01*
X139738095Y-100761904D01*
X139690476Y-100857142D01*
X139642857Y-100904761D01*
X139547619Y-100952380D01*
X139452380Y-100952380D01*
X139357142Y-100904761D01*
X139309523Y-100857142D01*
X139261904Y-100761904D01*
X139214285Y-100571428D01*
X139214285Y-100333333D01*
X139261904Y-100142857D01*
X139309523Y-100047619D01*
X139357142Y-100000000D01*
X139452380Y-99952380D01*
X140642857Y-99952380D02*
X140452380Y-99952380D01*
X140357142Y-100000000D01*
X140309523Y-100047619D01*
X140214285Y-100190476D01*
X140166666Y-100380952D01*
X140166666Y-100761904D01*
X140214285Y-100857142D01*
X140261904Y-100904761D01*
X140357142Y-100952380D01*
X140547619Y-100952380D01*
X140642857Y-100904761D01*
X140690476Y-100857142D01*
X140738095Y-100761904D01*
X140738095Y-100523809D01*
X140690476Y-100428571D01*
X140642857Y-100380952D01*
X140547619Y-100333333D01*
X140357142Y-100333333D01*
X140261904Y-100380952D01*
X140214285Y-100428571D01*
X140166666Y-100523809D01*
X157880952Y-100857142D02*
X157833333Y-100904761D01*
X157690476Y-100952380D01*
X157595238Y-100952380D01*
X157452380Y-100904761D01*
X157357142Y-100809523D01*
X157309523Y-100714285D01*
X157261904Y-100523809D01*
X157261904Y-100380952D01*
X157309523Y-100190476D01*
X157357142Y-100095238D01*
X157452380Y-100000000D01*
X157595238Y-99952380D01*
X157690476Y-99952380D01*
X157833333Y-100000000D01*
X157880952Y-100047619D01*
X158738095Y-99952380D02*
X158547619Y-99952380D01*
X158452380Y-100000000D01*
X158404761Y-100047619D01*
X158309523Y-100190476D01*
X158261904Y-100380952D01*
X158261904Y-100761904D01*
X158309523Y-100857142D01*
X158357142Y-100904761D01*
X158452380Y-100952380D01*
X158642857Y-100952380D01*
X158738095Y-100904761D01*
X158785714Y-100857142D01*
X158833333Y-100761904D01*
X158833333Y-100523809D01*
X158785714Y-100428571D01*
X158738095Y-100380952D01*
X158642857Y-100333333D01*
X158452380Y-100333333D01*
X158357142Y-100380952D01*
X158309523Y-100428571D01*
X158261904Y-100523809D01*
X159452380Y-99952380D02*
X159547619Y-99952380D01*
X159642857Y-100000000D01*
X159690476Y-100047619D01*
X159738095Y-100142857D01*
X159785714Y-100333333D01*
X159785714Y-100571428D01*
X159738095Y-100761904D01*
X159690476Y-100857142D01*
X159642857Y-100904761D01*
X159547619Y-100952380D01*
X159452380Y-100952380D01*
X159357142Y-100904761D01*
X159309523Y-100857142D01*
X159261904Y-100761904D01*
X159214285Y-100571428D01*
X159214285Y-100333333D01*
X159261904Y-100142857D01*
X159309523Y-100047619D01*
X159357142Y-100000000D01*
X159452380Y-99952380D01*
X160690476Y-99952380D02*
X160214285Y-99952380D01*
X160166666Y-100428571D01*
X160214285Y-100380952D01*
X160309523Y-100333333D01*
X160547619Y-100333333D01*
X160642857Y-100380952D01*
X160690476Y-100428571D01*
X160738095Y-100523809D01*
X160738095Y-100761904D01*
X160690476Y-100857142D01*
X160642857Y-100904761D01*
X160547619Y-100952380D01*
X160309523Y-100952380D01*
X160214285Y-100904761D01*
X160166666Y-100857142D01*
M02*
