G04 #@! TF.GenerationSoftware,KiCad,Pcbnew,5.1.7*
G04 #@! TF.CreationDate,2020-10-23T23:02:46+02:00*
G04 #@! TF.ProjectId,main,6d61696e-2e6b-4696-9361-645f70636258,v1.10*
G04 #@! TF.SameCoordinates,Original*
G04 #@! TF.FileFunction,Legend,Top*
G04 #@! TF.FilePolarity,Positive*
%FSLAX46Y46*%
G04 Gerber Fmt 4.6, Leading zero omitted, Abs format (unit mm)*
G04 Created by KiCad (PCBNEW 5.1.7) date 2020-10-23 23:02:46*
%MOMM*%
%LPD*%
G01*
G04 APERTURE LIST*
%ADD10C,0.150000*%
%ADD11C,0.300000*%
%ADD12C,0.120000*%
%ADD13C,0.250000*%
%ADD14C,0.010000*%
G04 APERTURE END LIST*
D10*
X86287976Y-51836904D02*
X86287976Y-51036904D01*
X86287976Y-51417857D02*
X86745119Y-51417857D01*
X86745119Y-51836904D02*
X86745119Y-51036904D01*
X87126071Y-51836904D02*
X87126071Y-51036904D01*
X87430833Y-51036904D01*
X87507023Y-51075000D01*
X87545119Y-51113095D01*
X87583214Y-51189285D01*
X87583214Y-51303571D01*
X87545119Y-51379761D01*
X87507023Y-51417857D01*
X87430833Y-51455952D01*
X87126071Y-51455952D01*
X88878452Y-51036904D02*
X88726071Y-51036904D01*
X88649880Y-51075000D01*
X88611785Y-51113095D01*
X88535595Y-51227380D01*
X88497500Y-51379761D01*
X88497500Y-51684523D01*
X88535595Y-51760714D01*
X88573690Y-51798809D01*
X88649880Y-51836904D01*
X88802261Y-51836904D01*
X88878452Y-51798809D01*
X88916547Y-51760714D01*
X88954642Y-51684523D01*
X88954642Y-51494047D01*
X88916547Y-51417857D01*
X88878452Y-51379761D01*
X88802261Y-51341666D01*
X88649880Y-51341666D01*
X88573690Y-51379761D01*
X88535595Y-51417857D01*
X88497500Y-51494047D01*
X89640357Y-51036904D02*
X89487976Y-51036904D01*
X89411785Y-51075000D01*
X89373690Y-51113095D01*
X89297500Y-51227380D01*
X89259404Y-51379761D01*
X89259404Y-51684523D01*
X89297500Y-51760714D01*
X89335595Y-51798809D01*
X89411785Y-51836904D01*
X89564166Y-51836904D01*
X89640357Y-51798809D01*
X89678452Y-51760714D01*
X89716547Y-51684523D01*
X89716547Y-51494047D01*
X89678452Y-51417857D01*
X89640357Y-51379761D01*
X89564166Y-51341666D01*
X89411785Y-51341666D01*
X89335595Y-51379761D01*
X89297500Y-51417857D01*
X89259404Y-51494047D01*
X89983214Y-51036904D02*
X90478452Y-51036904D01*
X90211785Y-51341666D01*
X90326071Y-51341666D01*
X90402261Y-51379761D01*
X90440357Y-51417857D01*
X90478452Y-51494047D01*
X90478452Y-51684523D01*
X90440357Y-51760714D01*
X90402261Y-51798809D01*
X90326071Y-51836904D01*
X90097500Y-51836904D01*
X90021309Y-51798809D01*
X89983214Y-51760714D01*
X90783214Y-51113095D02*
X90821309Y-51075000D01*
X90897500Y-51036904D01*
X91087976Y-51036904D01*
X91164166Y-51075000D01*
X91202261Y-51113095D01*
X91240357Y-51189285D01*
X91240357Y-51265476D01*
X91202261Y-51379761D01*
X90745119Y-51836904D01*
X91240357Y-51836904D01*
X91849880Y-51417857D02*
X91964166Y-51455952D01*
X92002261Y-51494047D01*
X92040357Y-51570238D01*
X92040357Y-51684523D01*
X92002261Y-51760714D01*
X91964166Y-51798809D01*
X91887976Y-51836904D01*
X91583214Y-51836904D01*
X91583214Y-51036904D01*
X91849880Y-51036904D01*
X91926071Y-51075000D01*
X91964166Y-51113095D01*
X92002261Y-51189285D01*
X92002261Y-51265476D01*
X91964166Y-51341666D01*
X91926071Y-51379761D01*
X91849880Y-51417857D01*
X91583214Y-51417857D01*
X93259404Y-51417857D02*
X92992738Y-51417857D01*
X92992738Y-51836904D02*
X92992738Y-51036904D01*
X93373690Y-51036904D01*
X93678452Y-51836904D02*
X93678452Y-51303571D01*
X93678452Y-51455952D02*
X93716547Y-51379761D01*
X93754642Y-51341666D01*
X93830833Y-51303571D01*
X93907023Y-51303571D01*
X94287976Y-51836904D02*
X94211785Y-51798809D01*
X94173690Y-51760714D01*
X94135595Y-51684523D01*
X94135595Y-51455952D01*
X94173690Y-51379761D01*
X94211785Y-51341666D01*
X94287976Y-51303571D01*
X94402261Y-51303571D01*
X94478452Y-51341666D01*
X94516547Y-51379761D01*
X94554642Y-51455952D01*
X94554642Y-51684523D01*
X94516547Y-51760714D01*
X94478452Y-51798809D01*
X94402261Y-51836904D01*
X94287976Y-51836904D01*
X94897500Y-51303571D02*
X94897500Y-51836904D01*
X94897500Y-51379761D02*
X94935595Y-51341666D01*
X95011785Y-51303571D01*
X95126071Y-51303571D01*
X95202261Y-51341666D01*
X95240357Y-51417857D01*
X95240357Y-51836904D01*
X95507023Y-51303571D02*
X95811785Y-51303571D01*
X95621309Y-51036904D02*
X95621309Y-51722619D01*
X95659404Y-51798809D01*
X95735595Y-51836904D01*
X95811785Y-51836904D01*
X96078452Y-51303571D02*
X96078452Y-52103571D01*
X96078452Y-51341666D02*
X96154642Y-51303571D01*
X96307023Y-51303571D01*
X96383214Y-51341666D01*
X96421309Y-51379761D01*
X96459404Y-51455952D01*
X96459404Y-51684523D01*
X96421309Y-51760714D01*
X96383214Y-51798809D01*
X96307023Y-51836904D01*
X96154642Y-51836904D01*
X96078452Y-51798809D01*
X97145119Y-51836904D02*
X97145119Y-51417857D01*
X97107023Y-51341666D01*
X97030833Y-51303571D01*
X96878452Y-51303571D01*
X96802261Y-51341666D01*
X97145119Y-51798809D02*
X97068928Y-51836904D01*
X96878452Y-51836904D01*
X96802261Y-51798809D01*
X96764166Y-51722619D01*
X96764166Y-51646428D01*
X96802261Y-51570238D01*
X96878452Y-51532142D01*
X97068928Y-51532142D01*
X97145119Y-51494047D01*
X97526071Y-51303571D02*
X97526071Y-51836904D01*
X97526071Y-51379761D02*
X97564166Y-51341666D01*
X97640357Y-51303571D01*
X97754642Y-51303571D01*
X97830833Y-51341666D01*
X97868928Y-51417857D01*
X97868928Y-51836904D01*
X98554642Y-51798809D02*
X98478452Y-51836904D01*
X98326071Y-51836904D01*
X98249880Y-51798809D01*
X98211785Y-51722619D01*
X98211785Y-51417857D01*
X98249880Y-51341666D01*
X98326071Y-51303571D01*
X98478452Y-51303571D01*
X98554642Y-51341666D01*
X98592738Y-51417857D01*
X98592738Y-51494047D01*
X98211785Y-51570238D01*
X99049880Y-51836904D02*
X98973690Y-51798809D01*
X98935595Y-51722619D01*
X98935595Y-51036904D01*
X100230833Y-51417857D02*
X100345119Y-51455952D01*
X100383214Y-51494047D01*
X100421309Y-51570238D01*
X100421309Y-51684523D01*
X100383214Y-51760714D01*
X100345119Y-51798809D01*
X100268928Y-51836904D01*
X99964166Y-51836904D01*
X99964166Y-51036904D01*
X100230833Y-51036904D01*
X100307023Y-51075000D01*
X100345119Y-51113095D01*
X100383214Y-51189285D01*
X100383214Y-51265476D01*
X100345119Y-51341666D01*
X100307023Y-51379761D01*
X100230833Y-51417857D01*
X99964166Y-51417857D01*
X100764166Y-51836904D02*
X100764166Y-51303571D01*
X100764166Y-51036904D02*
X100726071Y-51075000D01*
X100764166Y-51113095D01*
X100802261Y-51075000D01*
X100764166Y-51036904D01*
X100764166Y-51113095D01*
X101145119Y-51303571D02*
X101145119Y-51836904D01*
X101145119Y-51379761D02*
X101183214Y-51341666D01*
X101259404Y-51303571D01*
X101373690Y-51303571D01*
X101449880Y-51341666D01*
X101487976Y-51417857D01*
X101487976Y-51836904D01*
X102211785Y-51836904D02*
X102211785Y-51036904D01*
X102211785Y-51798809D02*
X102135595Y-51836904D01*
X101983214Y-51836904D01*
X101907023Y-51798809D01*
X101868928Y-51760714D01*
X101830833Y-51684523D01*
X101830833Y-51455952D01*
X101868928Y-51379761D01*
X101907023Y-51341666D01*
X101983214Y-51303571D01*
X102135595Y-51303571D01*
X102211785Y-51341666D01*
X102592738Y-51836904D02*
X102592738Y-51303571D01*
X102592738Y-51036904D02*
X102554642Y-51075000D01*
X102592738Y-51113095D01*
X102630833Y-51075000D01*
X102592738Y-51036904D01*
X102592738Y-51113095D01*
X102973690Y-51303571D02*
X102973690Y-51836904D01*
X102973690Y-51379761D02*
X103011785Y-51341666D01*
X103087976Y-51303571D01*
X103202261Y-51303571D01*
X103278452Y-51341666D01*
X103316547Y-51417857D01*
X103316547Y-51836904D01*
X104040357Y-51303571D02*
X104040357Y-51951190D01*
X104002261Y-52027380D01*
X103964166Y-52065476D01*
X103887976Y-52103571D01*
X103773690Y-52103571D01*
X103697500Y-52065476D01*
X104040357Y-51798809D02*
X103964166Y-51836904D01*
X103811785Y-51836904D01*
X103735595Y-51798809D01*
X103697500Y-51760714D01*
X103659404Y-51684523D01*
X103659404Y-51455952D01*
X103697500Y-51379761D01*
X103735595Y-51341666D01*
X103811785Y-51303571D01*
X103964166Y-51303571D01*
X104040357Y-51341666D01*
X105030833Y-51836904D02*
X105030833Y-51036904D01*
X105335595Y-51036904D01*
X105411785Y-51075000D01*
X105449880Y-51113095D01*
X105487976Y-51189285D01*
X105487976Y-51303571D01*
X105449880Y-51379761D01*
X105411785Y-51417857D01*
X105335595Y-51455952D01*
X105030833Y-51455952D01*
X105945119Y-51836904D02*
X105868928Y-51798809D01*
X105830833Y-51760714D01*
X105792738Y-51684523D01*
X105792738Y-51455952D01*
X105830833Y-51379761D01*
X105868928Y-51341666D01*
X105945119Y-51303571D01*
X106059404Y-51303571D01*
X106135595Y-51341666D01*
X106173690Y-51379761D01*
X106211785Y-51455952D01*
X106211785Y-51684523D01*
X106173690Y-51760714D01*
X106135595Y-51798809D01*
X106059404Y-51836904D01*
X105945119Y-51836904D01*
X106516547Y-51798809D02*
X106592738Y-51836904D01*
X106745119Y-51836904D01*
X106821309Y-51798809D01*
X106859404Y-51722619D01*
X106859404Y-51684523D01*
X106821309Y-51608333D01*
X106745119Y-51570238D01*
X106630833Y-51570238D01*
X106554642Y-51532142D01*
X106516547Y-51455952D01*
X106516547Y-51417857D01*
X106554642Y-51341666D01*
X106630833Y-51303571D01*
X106745119Y-51303571D01*
X106821309Y-51341666D01*
X107087976Y-51303571D02*
X107392738Y-51303571D01*
X107202261Y-51036904D02*
X107202261Y-51722619D01*
X107240357Y-51798809D01*
X107316547Y-51836904D01*
X107392738Y-51836904D01*
X108268928Y-51836904D02*
X108268928Y-51036904D01*
X108573690Y-51036904D01*
X108649880Y-51075000D01*
X108687976Y-51113095D01*
X108726071Y-51189285D01*
X108726071Y-51303571D01*
X108687976Y-51379761D01*
X108649880Y-51417857D01*
X108573690Y-51455952D01*
X108268928Y-51455952D01*
X109526071Y-51760714D02*
X109487976Y-51798809D01*
X109373690Y-51836904D01*
X109297500Y-51836904D01*
X109183214Y-51798809D01*
X109107023Y-51722619D01*
X109068928Y-51646428D01*
X109030833Y-51494047D01*
X109030833Y-51379761D01*
X109068928Y-51227380D01*
X109107023Y-51151190D01*
X109183214Y-51075000D01*
X109297500Y-51036904D01*
X109373690Y-51036904D01*
X109487976Y-51075000D01*
X109526071Y-51113095D01*
X110135595Y-51417857D02*
X110249880Y-51455952D01*
X110287976Y-51494047D01*
X110326071Y-51570238D01*
X110326071Y-51684523D01*
X110287976Y-51760714D01*
X110249880Y-51798809D01*
X110173690Y-51836904D01*
X109868928Y-51836904D01*
X109868928Y-51036904D01*
X110135595Y-51036904D01*
X110211785Y-51075000D01*
X110249880Y-51113095D01*
X110287976Y-51189285D01*
X110287976Y-51265476D01*
X110249880Y-51341666D01*
X110211785Y-51379761D01*
X110135595Y-51417857D01*
X109868928Y-51417857D01*
X111202261Y-51303571D02*
X111392738Y-51836904D01*
X111583214Y-51303571D01*
X112307023Y-51836904D02*
X111849880Y-51836904D01*
X112078452Y-51836904D02*
X112078452Y-51036904D01*
X112002261Y-51151190D01*
X111926071Y-51227380D01*
X111849880Y-51265476D01*
X112649880Y-51760714D02*
X112687976Y-51798809D01*
X112649880Y-51836904D01*
X112611785Y-51798809D01*
X112649880Y-51760714D01*
X112649880Y-51836904D01*
X113449880Y-51836904D02*
X112992738Y-51836904D01*
X113221309Y-51836904D02*
X113221309Y-51036904D01*
X113145119Y-51151190D01*
X113068928Y-51227380D01*
X112992738Y-51265476D01*
X113945119Y-51036904D02*
X114021309Y-51036904D01*
X114097500Y-51075000D01*
X114135595Y-51113095D01*
X114173690Y-51189285D01*
X114211785Y-51341666D01*
X114211785Y-51532142D01*
X114173690Y-51684523D01*
X114135595Y-51760714D01*
X114097500Y-51798809D01*
X114021309Y-51836904D01*
X113945119Y-51836904D01*
X113868928Y-51798809D01*
X113830833Y-51760714D01*
X113792738Y-51684523D01*
X113754642Y-51532142D01*
X113754642Y-51341666D01*
X113792738Y-51189285D01*
X113830833Y-51113095D01*
X113868928Y-51075000D01*
X113945119Y-51036904D01*
X86287976Y-53186904D02*
X86287976Y-52386904D01*
X86478452Y-52386904D01*
X86592738Y-52425000D01*
X86668928Y-52501190D01*
X86707023Y-52577380D01*
X86745119Y-52729761D01*
X86745119Y-52844047D01*
X86707023Y-52996428D01*
X86668928Y-53072619D01*
X86592738Y-53148809D01*
X86478452Y-53186904D01*
X86287976Y-53186904D01*
X87392738Y-53148809D02*
X87316547Y-53186904D01*
X87164166Y-53186904D01*
X87087976Y-53148809D01*
X87049880Y-53072619D01*
X87049880Y-52767857D01*
X87087976Y-52691666D01*
X87164166Y-52653571D01*
X87316547Y-52653571D01*
X87392738Y-52691666D01*
X87430833Y-52767857D01*
X87430833Y-52844047D01*
X87049880Y-52920238D01*
X87735595Y-53148809D02*
X87811785Y-53186904D01*
X87964166Y-53186904D01*
X88040357Y-53148809D01*
X88078452Y-53072619D01*
X88078452Y-53034523D01*
X88040357Y-52958333D01*
X87964166Y-52920238D01*
X87849880Y-52920238D01*
X87773690Y-52882142D01*
X87735595Y-52805952D01*
X87735595Y-52767857D01*
X87773690Y-52691666D01*
X87849880Y-52653571D01*
X87964166Y-52653571D01*
X88040357Y-52691666D01*
X88421309Y-53186904D02*
X88421309Y-52653571D01*
X88421309Y-52386904D02*
X88383214Y-52425000D01*
X88421309Y-52463095D01*
X88459404Y-52425000D01*
X88421309Y-52386904D01*
X88421309Y-52463095D01*
X89145119Y-52653571D02*
X89145119Y-53301190D01*
X89107023Y-53377380D01*
X89068928Y-53415476D01*
X88992738Y-53453571D01*
X88878452Y-53453571D01*
X88802261Y-53415476D01*
X89145119Y-53148809D02*
X89068928Y-53186904D01*
X88916547Y-53186904D01*
X88840357Y-53148809D01*
X88802261Y-53110714D01*
X88764166Y-53034523D01*
X88764166Y-52805952D01*
X88802261Y-52729761D01*
X88840357Y-52691666D01*
X88916547Y-52653571D01*
X89068928Y-52653571D01*
X89145119Y-52691666D01*
X89526071Y-52653571D02*
X89526071Y-53186904D01*
X89526071Y-52729761D02*
X89564166Y-52691666D01*
X89640357Y-52653571D01*
X89754642Y-52653571D01*
X89830833Y-52691666D01*
X89868928Y-52767857D01*
X89868928Y-53186904D01*
X90249880Y-53110714D02*
X90287976Y-53148809D01*
X90249880Y-53186904D01*
X90211785Y-53148809D01*
X90249880Y-53110714D01*
X90249880Y-53186904D01*
X90249880Y-52691666D02*
X90287976Y-52729761D01*
X90249880Y-52767857D01*
X90211785Y-52729761D01*
X90249880Y-52691666D01*
X90249880Y-52767857D01*
X91240357Y-53186904D02*
X91240357Y-52386904D01*
X91545119Y-52386904D01*
X91621309Y-52425000D01*
X91659404Y-52463095D01*
X91697500Y-52539285D01*
X91697500Y-52653571D01*
X91659404Y-52729761D01*
X91621309Y-52767857D01*
X91545119Y-52805952D01*
X91240357Y-52805952D01*
X92383214Y-53186904D02*
X92383214Y-52767857D01*
X92345119Y-52691666D01*
X92268928Y-52653571D01*
X92116547Y-52653571D01*
X92040357Y-52691666D01*
X92383214Y-53148809D02*
X92307023Y-53186904D01*
X92116547Y-53186904D01*
X92040357Y-53148809D01*
X92002261Y-53072619D01*
X92002261Y-52996428D01*
X92040357Y-52920238D01*
X92116547Y-52882142D01*
X92307023Y-52882142D01*
X92383214Y-52844047D01*
X92649880Y-52653571D02*
X92954642Y-52653571D01*
X92764166Y-52386904D02*
X92764166Y-53072619D01*
X92802261Y-53148809D01*
X92878452Y-53186904D01*
X92954642Y-53186904D01*
X93221309Y-53186904D02*
X93221309Y-52653571D01*
X93221309Y-52805952D02*
X93259404Y-52729761D01*
X93297500Y-52691666D01*
X93373690Y-52653571D01*
X93449880Y-52653571D01*
X93716547Y-53186904D02*
X93716547Y-52653571D01*
X93716547Y-52386904D02*
X93678452Y-52425000D01*
X93716547Y-52463095D01*
X93754642Y-52425000D01*
X93716547Y-52386904D01*
X93716547Y-52463095D01*
X94440357Y-53148809D02*
X94364166Y-53186904D01*
X94211785Y-53186904D01*
X94135595Y-53148809D01*
X94097500Y-53110714D01*
X94059404Y-53034523D01*
X94059404Y-52805952D01*
X94097500Y-52729761D01*
X94135595Y-52691666D01*
X94211785Y-52653571D01*
X94364166Y-52653571D01*
X94440357Y-52691666D01*
X94783214Y-53186904D02*
X94783214Y-52386904D01*
X94859404Y-52882142D02*
X95087976Y-53186904D01*
X95087976Y-52653571D02*
X94783214Y-52958333D01*
X96307023Y-52767857D02*
X96421309Y-52805952D01*
X96459404Y-52844047D01*
X96497500Y-52920238D01*
X96497500Y-53034523D01*
X96459404Y-53110714D01*
X96421309Y-53148809D01*
X96345119Y-53186904D01*
X96040357Y-53186904D01*
X96040357Y-52386904D01*
X96307023Y-52386904D01*
X96383214Y-52425000D01*
X96421309Y-52463095D01*
X96459404Y-52539285D01*
X96459404Y-52615476D01*
X96421309Y-52691666D01*
X96383214Y-52729761D01*
X96307023Y-52767857D01*
X96040357Y-52767857D01*
X97183214Y-53186904D02*
X97183214Y-52767857D01*
X97145119Y-52691666D01*
X97068928Y-52653571D01*
X96916547Y-52653571D01*
X96840357Y-52691666D01*
X97183214Y-53148809D02*
X97107023Y-53186904D01*
X96916547Y-53186904D01*
X96840357Y-53148809D01*
X96802261Y-53072619D01*
X96802261Y-52996428D01*
X96840357Y-52920238D01*
X96916547Y-52882142D01*
X97107023Y-52882142D01*
X97183214Y-52844047D01*
X97907023Y-52653571D02*
X97907023Y-53186904D01*
X97564166Y-52653571D02*
X97564166Y-53072619D01*
X97602261Y-53148809D01*
X97678452Y-53186904D01*
X97792738Y-53186904D01*
X97868928Y-53148809D01*
X97907023Y-53110714D01*
X98249880Y-53148809D02*
X98326071Y-53186904D01*
X98478452Y-53186904D01*
X98554642Y-53148809D01*
X98592738Y-53072619D01*
X98592738Y-53034523D01*
X98554642Y-52958333D01*
X98478452Y-52920238D01*
X98364166Y-52920238D01*
X98287976Y-52882142D01*
X98249880Y-52805952D01*
X98249880Y-52767857D01*
X98287976Y-52691666D01*
X98364166Y-52653571D01*
X98478452Y-52653571D01*
X98554642Y-52691666D01*
X86287976Y-54536904D02*
X86287976Y-53736904D01*
X86478452Y-53736904D01*
X86592738Y-53775000D01*
X86668928Y-53851190D01*
X86707023Y-53927380D01*
X86745119Y-54079761D01*
X86745119Y-54194047D01*
X86707023Y-54346428D01*
X86668928Y-54422619D01*
X86592738Y-54498809D01*
X86478452Y-54536904D01*
X86287976Y-54536904D01*
X87430833Y-54536904D02*
X87430833Y-54117857D01*
X87392738Y-54041666D01*
X87316547Y-54003571D01*
X87164166Y-54003571D01*
X87087976Y-54041666D01*
X87430833Y-54498809D02*
X87354642Y-54536904D01*
X87164166Y-54536904D01*
X87087976Y-54498809D01*
X87049880Y-54422619D01*
X87049880Y-54346428D01*
X87087976Y-54270238D01*
X87164166Y-54232142D01*
X87354642Y-54232142D01*
X87430833Y-54194047D01*
X87697500Y-54003571D02*
X88002261Y-54003571D01*
X87811785Y-53736904D02*
X87811785Y-54422619D01*
X87849880Y-54498809D01*
X87926071Y-54536904D01*
X88002261Y-54536904D01*
X88573690Y-54498809D02*
X88497500Y-54536904D01*
X88345119Y-54536904D01*
X88268928Y-54498809D01*
X88230833Y-54422619D01*
X88230833Y-54117857D01*
X88268928Y-54041666D01*
X88345119Y-54003571D01*
X88497500Y-54003571D01*
X88573690Y-54041666D01*
X88611785Y-54117857D01*
X88611785Y-54194047D01*
X88230833Y-54270238D01*
X88954642Y-54460714D02*
X88992738Y-54498809D01*
X88954642Y-54536904D01*
X88916547Y-54498809D01*
X88954642Y-54460714D01*
X88954642Y-54536904D01*
X88954642Y-54041666D02*
X88992738Y-54079761D01*
X88954642Y-54117857D01*
X88916547Y-54079761D01*
X88954642Y-54041666D01*
X88954642Y-54117857D01*
X89907023Y-53813095D02*
X89945119Y-53775000D01*
X90021309Y-53736904D01*
X90211785Y-53736904D01*
X90287976Y-53775000D01*
X90326071Y-53813095D01*
X90364166Y-53889285D01*
X90364166Y-53965476D01*
X90326071Y-54079761D01*
X89868928Y-54536904D01*
X90364166Y-54536904D01*
X90859404Y-53736904D02*
X90935595Y-53736904D01*
X91011785Y-53775000D01*
X91049880Y-53813095D01*
X91087976Y-53889285D01*
X91126071Y-54041666D01*
X91126071Y-54232142D01*
X91087976Y-54384523D01*
X91049880Y-54460714D01*
X91011785Y-54498809D01*
X90935595Y-54536904D01*
X90859404Y-54536904D01*
X90783214Y-54498809D01*
X90745119Y-54460714D01*
X90707023Y-54384523D01*
X90668928Y-54232142D01*
X90668928Y-54041666D01*
X90707023Y-53889285D01*
X90745119Y-53813095D01*
X90783214Y-53775000D01*
X90859404Y-53736904D01*
X91430833Y-53813095D02*
X91468928Y-53775000D01*
X91545119Y-53736904D01*
X91735595Y-53736904D01*
X91811785Y-53775000D01*
X91849880Y-53813095D01*
X91887976Y-53889285D01*
X91887976Y-53965476D01*
X91849880Y-54079761D01*
X91392738Y-54536904D01*
X91887976Y-54536904D01*
X92383214Y-53736904D02*
X92459404Y-53736904D01*
X92535595Y-53775000D01*
X92573690Y-53813095D01*
X92611785Y-53889285D01*
X92649880Y-54041666D01*
X92649880Y-54232142D01*
X92611785Y-54384523D01*
X92573690Y-54460714D01*
X92535595Y-54498809D01*
X92459404Y-54536904D01*
X92383214Y-54536904D01*
X92307023Y-54498809D01*
X92268928Y-54460714D01*
X92230833Y-54384523D01*
X92192738Y-54232142D01*
X92192738Y-54041666D01*
X92230833Y-53889285D01*
X92268928Y-53813095D01*
X92307023Y-53775000D01*
X92383214Y-53736904D01*
X92992738Y-54232142D02*
X93602261Y-54232142D01*
X94402261Y-54536904D02*
X93945119Y-54536904D01*
X94173690Y-54536904D02*
X94173690Y-53736904D01*
X94097500Y-53851190D01*
X94021309Y-53927380D01*
X93945119Y-53965476D01*
X94897500Y-53736904D02*
X94973690Y-53736904D01*
X95049880Y-53775000D01*
X95087976Y-53813095D01*
X95126071Y-53889285D01*
X95164166Y-54041666D01*
X95164166Y-54232142D01*
X95126071Y-54384523D01*
X95087976Y-54460714D01*
X95049880Y-54498809D01*
X94973690Y-54536904D01*
X94897500Y-54536904D01*
X94821309Y-54498809D01*
X94783214Y-54460714D01*
X94745119Y-54384523D01*
X94707023Y-54232142D01*
X94707023Y-54041666D01*
X94745119Y-53889285D01*
X94783214Y-53813095D01*
X94821309Y-53775000D01*
X94897500Y-53736904D01*
X86287976Y-55886904D02*
X86287976Y-55086904D01*
X86630833Y-55886904D02*
X86630833Y-55467857D01*
X86592738Y-55391666D01*
X86516547Y-55353571D01*
X86402261Y-55353571D01*
X86326071Y-55391666D01*
X86287976Y-55429761D01*
X86897500Y-55353571D02*
X87202261Y-55353571D01*
X87011785Y-55086904D02*
X87011785Y-55772619D01*
X87049880Y-55848809D01*
X87126071Y-55886904D01*
X87202261Y-55886904D01*
X87354642Y-55353571D02*
X87659404Y-55353571D01*
X87468928Y-55086904D02*
X87468928Y-55772619D01*
X87507023Y-55848809D01*
X87583214Y-55886904D01*
X87659404Y-55886904D01*
X87926071Y-55353571D02*
X87926071Y-56153571D01*
X87926071Y-55391666D02*
X88002261Y-55353571D01*
X88154642Y-55353571D01*
X88230833Y-55391666D01*
X88268928Y-55429761D01*
X88307023Y-55505952D01*
X88307023Y-55734523D01*
X88268928Y-55810714D01*
X88230833Y-55848809D01*
X88154642Y-55886904D01*
X88002261Y-55886904D01*
X87926071Y-55848809D01*
X88611785Y-55848809D02*
X88687976Y-55886904D01*
X88840357Y-55886904D01*
X88916547Y-55848809D01*
X88954642Y-55772619D01*
X88954642Y-55734523D01*
X88916547Y-55658333D01*
X88840357Y-55620238D01*
X88726071Y-55620238D01*
X88649880Y-55582142D01*
X88611785Y-55505952D01*
X88611785Y-55467857D01*
X88649880Y-55391666D01*
X88726071Y-55353571D01*
X88840357Y-55353571D01*
X88916547Y-55391666D01*
X89297500Y-55810714D02*
X89335595Y-55848809D01*
X89297500Y-55886904D01*
X89259404Y-55848809D01*
X89297500Y-55810714D01*
X89297500Y-55886904D01*
X89297500Y-55391666D02*
X89335595Y-55429761D01*
X89297500Y-55467857D01*
X89259404Y-55429761D01*
X89297500Y-55391666D01*
X89297500Y-55467857D01*
X90249880Y-55048809D02*
X89564166Y-56077380D01*
X91087976Y-55048809D02*
X90402261Y-56077380D01*
X91697500Y-55353571D02*
X91697500Y-56001190D01*
X91659404Y-56077380D01*
X91621309Y-56115476D01*
X91545119Y-56153571D01*
X91430833Y-56153571D01*
X91354642Y-56115476D01*
X91697500Y-55848809D02*
X91621309Y-55886904D01*
X91468928Y-55886904D01*
X91392738Y-55848809D01*
X91354642Y-55810714D01*
X91316547Y-55734523D01*
X91316547Y-55505952D01*
X91354642Y-55429761D01*
X91392738Y-55391666D01*
X91468928Y-55353571D01*
X91621309Y-55353571D01*
X91697500Y-55391666D01*
X92078452Y-55886904D02*
X92078452Y-55353571D01*
X92078452Y-55086904D02*
X92040357Y-55125000D01*
X92078452Y-55163095D01*
X92116547Y-55125000D01*
X92078452Y-55086904D01*
X92078452Y-55163095D01*
X92345119Y-55353571D02*
X92649880Y-55353571D01*
X92459404Y-55086904D02*
X92459404Y-55772619D01*
X92497500Y-55848809D01*
X92573690Y-55886904D01*
X92649880Y-55886904D01*
X92916547Y-55886904D02*
X92916547Y-55086904D01*
X93259404Y-55886904D02*
X93259404Y-55467857D01*
X93221309Y-55391666D01*
X93145119Y-55353571D01*
X93030833Y-55353571D01*
X92954642Y-55391666D01*
X92916547Y-55429761D01*
X93983214Y-55353571D02*
X93983214Y-55886904D01*
X93640357Y-55353571D02*
X93640357Y-55772619D01*
X93678452Y-55848809D01*
X93754642Y-55886904D01*
X93868928Y-55886904D01*
X93945119Y-55848809D01*
X93983214Y-55810714D01*
X94364166Y-55886904D02*
X94364166Y-55086904D01*
X94364166Y-55391666D02*
X94440357Y-55353571D01*
X94592738Y-55353571D01*
X94668928Y-55391666D01*
X94707023Y-55429761D01*
X94745119Y-55505952D01*
X94745119Y-55734523D01*
X94707023Y-55810714D01*
X94668928Y-55848809D01*
X94592738Y-55886904D01*
X94440357Y-55886904D01*
X94364166Y-55848809D01*
X95087976Y-55810714D02*
X95126071Y-55848809D01*
X95087976Y-55886904D01*
X95049880Y-55848809D01*
X95087976Y-55810714D01*
X95087976Y-55886904D01*
X95811785Y-55848809D02*
X95735595Y-55886904D01*
X95583214Y-55886904D01*
X95507023Y-55848809D01*
X95468928Y-55810714D01*
X95430833Y-55734523D01*
X95430833Y-55505952D01*
X95468928Y-55429761D01*
X95507023Y-55391666D01*
X95583214Y-55353571D01*
X95735595Y-55353571D01*
X95811785Y-55391666D01*
X96268928Y-55886904D02*
X96192738Y-55848809D01*
X96154642Y-55810714D01*
X96116547Y-55734523D01*
X96116547Y-55505952D01*
X96154642Y-55429761D01*
X96192738Y-55391666D01*
X96268928Y-55353571D01*
X96383214Y-55353571D01*
X96459404Y-55391666D01*
X96497500Y-55429761D01*
X96535595Y-55505952D01*
X96535595Y-55734523D01*
X96497500Y-55810714D01*
X96459404Y-55848809D01*
X96383214Y-55886904D01*
X96268928Y-55886904D01*
X96878452Y-55886904D02*
X96878452Y-55353571D01*
X96878452Y-55429761D02*
X96916547Y-55391666D01*
X96992738Y-55353571D01*
X97107023Y-55353571D01*
X97183214Y-55391666D01*
X97221309Y-55467857D01*
X97221309Y-55886904D01*
X97221309Y-55467857D02*
X97259404Y-55391666D01*
X97335595Y-55353571D01*
X97449880Y-55353571D01*
X97526071Y-55391666D01*
X97564166Y-55467857D01*
X97564166Y-55886904D01*
X98516547Y-55048809D02*
X97830833Y-56077380D01*
X98783214Y-55886904D02*
X98783214Y-55086904D01*
X99087976Y-55086904D01*
X99164166Y-55125000D01*
X99202261Y-55163095D01*
X99240357Y-55239285D01*
X99240357Y-55353571D01*
X99202261Y-55429761D01*
X99164166Y-55467857D01*
X99087976Y-55505952D01*
X98783214Y-55505952D01*
X99926071Y-55886904D02*
X99926071Y-55467857D01*
X99887976Y-55391666D01*
X99811785Y-55353571D01*
X99659404Y-55353571D01*
X99583214Y-55391666D01*
X99926071Y-55848809D02*
X99849880Y-55886904D01*
X99659404Y-55886904D01*
X99583214Y-55848809D01*
X99545119Y-55772619D01*
X99545119Y-55696428D01*
X99583214Y-55620238D01*
X99659404Y-55582142D01*
X99849880Y-55582142D01*
X99926071Y-55544047D01*
X100192738Y-55353571D02*
X100497500Y-55353571D01*
X100307023Y-55086904D02*
X100307023Y-55772619D01*
X100345119Y-55848809D01*
X100421309Y-55886904D01*
X100497500Y-55886904D01*
X100764166Y-55886904D02*
X100764166Y-55353571D01*
X100764166Y-55505952D02*
X100802261Y-55429761D01*
X100840357Y-55391666D01*
X100916547Y-55353571D01*
X100992738Y-55353571D01*
X101259404Y-55886904D02*
X101259404Y-55353571D01*
X101259404Y-55086904D02*
X101221309Y-55125000D01*
X101259404Y-55163095D01*
X101297500Y-55125000D01*
X101259404Y-55086904D01*
X101259404Y-55163095D01*
X101983214Y-55848809D02*
X101907023Y-55886904D01*
X101754642Y-55886904D01*
X101678452Y-55848809D01*
X101640357Y-55810714D01*
X101602261Y-55734523D01*
X101602261Y-55505952D01*
X101640357Y-55429761D01*
X101678452Y-55391666D01*
X101754642Y-55353571D01*
X101907023Y-55353571D01*
X101983214Y-55391666D01*
X102326071Y-55886904D02*
X102326071Y-55086904D01*
X102402261Y-55582142D02*
X102630833Y-55886904D01*
X102630833Y-55353571D02*
X102326071Y-55658333D01*
X103240357Y-55467857D02*
X103354642Y-55505952D01*
X103392738Y-55544047D01*
X103430833Y-55620238D01*
X103430833Y-55734523D01*
X103392738Y-55810714D01*
X103354642Y-55848809D01*
X103278452Y-55886904D01*
X102973690Y-55886904D01*
X102973690Y-55086904D01*
X103240357Y-55086904D01*
X103316547Y-55125000D01*
X103354642Y-55163095D01*
X103392738Y-55239285D01*
X103392738Y-55315476D01*
X103354642Y-55391666D01*
X103316547Y-55429761D01*
X103240357Y-55467857D01*
X102973690Y-55467857D01*
X104116547Y-55886904D02*
X104116547Y-55467857D01*
X104078452Y-55391666D01*
X104002261Y-55353571D01*
X103849880Y-55353571D01*
X103773690Y-55391666D01*
X104116547Y-55848809D02*
X104040357Y-55886904D01*
X103849880Y-55886904D01*
X103773690Y-55848809D01*
X103735595Y-55772619D01*
X103735595Y-55696428D01*
X103773690Y-55620238D01*
X103849880Y-55582142D01*
X104040357Y-55582142D01*
X104116547Y-55544047D01*
X104840357Y-55353571D02*
X104840357Y-55886904D01*
X104497500Y-55353571D02*
X104497500Y-55772619D01*
X104535595Y-55848809D01*
X104611785Y-55886904D01*
X104726071Y-55886904D01*
X104802261Y-55848809D01*
X104840357Y-55810714D01*
X105183214Y-55848809D02*
X105259404Y-55886904D01*
X105411785Y-55886904D01*
X105487976Y-55848809D01*
X105526071Y-55772619D01*
X105526071Y-55734523D01*
X105487976Y-55658333D01*
X105411785Y-55620238D01*
X105297500Y-55620238D01*
X105221309Y-55582142D01*
X105183214Y-55505952D01*
X105183214Y-55467857D01*
X105221309Y-55391666D01*
X105297500Y-55353571D01*
X105411785Y-55353571D01*
X105487976Y-55391666D01*
D11*
X121428571Y-112892857D02*
X121928571Y-112892857D01*
X122142857Y-113678571D02*
X121428571Y-113678571D01*
X121428571Y-112178571D01*
X122142857Y-112178571D01*
X123428571Y-113678571D02*
X123428571Y-112892857D01*
X123357142Y-112750000D01*
X123214285Y-112678571D01*
X122928571Y-112678571D01*
X122785714Y-112750000D01*
X123428571Y-113607142D02*
X123285714Y-113678571D01*
X122928571Y-113678571D01*
X122785714Y-113607142D01*
X122714285Y-113464285D01*
X122714285Y-113321428D01*
X122785714Y-113178571D01*
X122928571Y-113107142D01*
X123285714Y-113107142D01*
X123428571Y-113035714D01*
X124142857Y-113678571D02*
X124142857Y-112678571D01*
X124142857Y-112964285D02*
X124214285Y-112821428D01*
X124285714Y-112750000D01*
X124428571Y-112678571D01*
X124571428Y-112678571D01*
X124857142Y-112678571D02*
X125428571Y-112678571D01*
X125071428Y-112178571D02*
X125071428Y-113464285D01*
X125142857Y-113607142D01*
X125285714Y-113678571D01*
X125428571Y-113678571D01*
X125928571Y-113678571D02*
X125928571Y-112178571D01*
X126571428Y-113678571D02*
X126571428Y-112892857D01*
X126500000Y-112750000D01*
X126357142Y-112678571D01*
X126142857Y-112678571D01*
X126000000Y-112750000D01*
X125928571Y-112821428D01*
X86178571Y-100035714D02*
X87678571Y-99535714D01*
X86178571Y-99035714D01*
X87607142Y-98607142D02*
X87678571Y-98464285D01*
X87678571Y-98178571D01*
X87607142Y-98035714D01*
X87464285Y-97964285D01*
X87392857Y-97964285D01*
X87250000Y-98035714D01*
X87178571Y-98178571D01*
X87178571Y-98392857D01*
X87107142Y-98535714D01*
X86964285Y-98607142D01*
X86892857Y-98607142D01*
X86750000Y-98535714D01*
X86678571Y-98392857D01*
X86678571Y-98178571D01*
X86750000Y-98035714D01*
X87107142Y-97321428D02*
X87107142Y-96178571D01*
X124464285Y-88678571D02*
X124964285Y-90178571D01*
X125464285Y-88678571D01*
X125892857Y-90107142D02*
X126035714Y-90178571D01*
X126321428Y-90178571D01*
X126464285Y-90107142D01*
X126535714Y-89964285D01*
X126535714Y-89892857D01*
X126464285Y-89750000D01*
X126321428Y-89678571D01*
X126107142Y-89678571D01*
X125964285Y-89607142D01*
X125892857Y-89464285D01*
X125892857Y-89392857D01*
X125964285Y-89250000D01*
X126107142Y-89178571D01*
X126321428Y-89178571D01*
X126464285Y-89250000D01*
X127178571Y-89607142D02*
X128321428Y-89607142D01*
X127750000Y-90178571D02*
X127750000Y-89035714D01*
X102571428Y-67178571D02*
X103071428Y-68678571D01*
X103571428Y-67178571D01*
X104071428Y-68107142D02*
X105214285Y-68107142D01*
X121571428Y-67178571D02*
X122071428Y-68678571D01*
X122571428Y-67178571D01*
X123071428Y-68107142D02*
X124214285Y-68107142D01*
X123642857Y-68678571D02*
X123642857Y-67535714D01*
D10*
X91200000Y-95900000D02*
X91200000Y-100100000D01*
X91200000Y-100100000D02*
X88800000Y-100100000D01*
X88800000Y-100100000D02*
X88800000Y-95900000D01*
X88800000Y-95900000D02*
X91200000Y-95900000D01*
D12*
X122200000Y-117500000D02*
G75*
G03*
X122200000Y-117500000I-1200000J0D01*
G01*
D10*
X126150000Y-111200000D02*
X121950000Y-111200000D01*
X121950000Y-111200000D02*
X121950000Y-108800000D01*
X121950000Y-108800000D02*
X126150000Y-108800000D01*
X126150000Y-108800000D02*
X126150000Y-111200000D01*
D12*
X93179000Y-110120000D02*
X93179000Y-103880000D01*
X97821000Y-110120000D02*
X97821000Y-103880000D01*
X93179000Y-110120000D02*
X94575000Y-110120000D01*
X96425000Y-110120000D02*
X97821000Y-110120000D01*
X93179000Y-103880000D02*
X94575000Y-103880000D01*
X96425000Y-103880000D02*
X97821000Y-103880000D01*
X124321000Y-97880000D02*
X124321000Y-104120000D01*
X119679000Y-97880000D02*
X119679000Y-104120000D01*
X124321000Y-97880000D02*
X122925000Y-97880000D01*
X121075000Y-97880000D02*
X119679000Y-97880000D01*
X124321000Y-104120000D02*
X122925000Y-104120000D01*
X121075000Y-104120000D02*
X119679000Y-104120000D01*
X94761252Y-101610000D02*
X94238748Y-101610000D01*
X94761252Y-99390000D02*
X94238748Y-99390000D01*
X116890000Y-97761252D02*
X116890000Y-97238748D01*
X119110000Y-97761252D02*
X119110000Y-97238748D01*
D10*
X124100000Y-95700000D02*
X119900000Y-95700000D01*
X119900000Y-95700000D02*
X119900000Y-93300000D01*
X119900000Y-93300000D02*
X124100000Y-93300000D01*
X124100000Y-93300000D02*
X124100000Y-95700000D01*
X106675000Y-72100000D02*
X102475000Y-72100000D01*
X102475000Y-72100000D02*
X102475000Y-69700000D01*
X102475000Y-69700000D02*
X106675000Y-69700000D01*
X106675000Y-69700000D02*
X106675000Y-72100000D01*
X125725000Y-72100000D02*
X121525000Y-72100000D01*
X121525000Y-72100000D02*
X121525000Y-69700000D01*
X121525000Y-69700000D02*
X125725000Y-69700000D01*
X125725000Y-69700000D02*
X125725000Y-72100000D01*
D13*
X127625000Y-52000000D02*
G75*
G03*
X127625000Y-52000000I-125000J0D01*
G01*
X126625000Y-52000000D02*
G75*
G03*
X126625000Y-52000000I-125000J0D01*
G01*
X125625000Y-52000000D02*
G75*
G03*
X125625000Y-52000000I-125000J0D01*
G01*
X125625000Y-53000000D02*
G75*
G03*
X125625000Y-53000000I-125000J0D01*
G01*
X126625000Y-53000000D02*
G75*
G03*
X126625000Y-53000000I-125000J0D01*
G01*
X127625000Y-53000000D02*
G75*
G03*
X127625000Y-53000000I-125000J0D01*
G01*
X126625000Y-54000000D02*
G75*
G03*
X126625000Y-54000000I-125000J0D01*
G01*
X127625000Y-54000000D02*
G75*
G03*
X127625000Y-54000000I-125000J0D01*
G01*
X125625000Y-54000000D02*
G75*
G03*
X125625000Y-54000000I-125000J0D01*
G01*
D14*
G36*
X120963360Y-61452468D02*
G01*
X120998592Y-61469874D01*
X121042040Y-61500206D01*
X121073706Y-61533283D01*
X121095394Y-61574817D01*
X121108903Y-61630522D01*
X121116038Y-61706111D01*
X121118600Y-61807296D01*
X121118750Y-61850797D01*
X121118312Y-61946135D01*
X121116496Y-62014271D01*
X121112545Y-62061418D01*
X121105702Y-62093790D01*
X121095211Y-62117600D01*
X121084296Y-62133843D01*
X121014619Y-62202952D01*
X120932566Y-62244521D01*
X120844050Y-62257023D01*
X120754981Y-62238934D01*
X120726763Y-62226142D01*
X120659210Y-62190931D01*
X120659210Y-62742700D01*
X120708512Y-62717205D01*
X120773473Y-62697480D01*
X120853320Y-62692427D01*
X120933052Y-62701756D01*
X120993265Y-62722714D01*
X121043208Y-62762627D01*
X121085881Y-62819741D01*
X121089090Y-62825605D01*
X121102622Y-62853227D01*
X121112505Y-62881068D01*
X121119309Y-62914794D01*
X121123601Y-62960071D01*
X121125951Y-63022562D01*
X121126928Y-63107935D01*
X121127105Y-63204010D01*
X121127105Y-63510526D01*
X120943289Y-63510526D01*
X120943289Y-62945339D01*
X120891875Y-62902077D01*
X120838466Y-62867472D01*
X120787888Y-62861180D01*
X120737030Y-62877372D01*
X120709925Y-62893227D01*
X120689751Y-62915810D01*
X120675403Y-62949940D01*
X120665776Y-63000434D01*
X120659763Y-63072111D01*
X120656260Y-63169788D01*
X120655026Y-63234802D01*
X120650855Y-63502171D01*
X120563125Y-63507222D01*
X120475394Y-63512273D01*
X120475394Y-61853101D01*
X120659210Y-61853101D01*
X120663896Y-61945600D01*
X120679688Y-62009809D01*
X120709183Y-62049759D01*
X120754980Y-62069480D01*
X120801250Y-62073421D01*
X120853628Y-62068892D01*
X120888390Y-62051069D01*
X120910128Y-62027519D01*
X120927240Y-62002189D01*
X120937427Y-61973969D01*
X120941960Y-61934431D01*
X120942109Y-61875142D01*
X120940584Y-61825498D01*
X120937081Y-61750710D01*
X120931867Y-61701611D01*
X120923087Y-61670467D01*
X120908886Y-61649545D01*
X120895484Y-61637452D01*
X120839487Y-61611081D01*
X120773211Y-61606822D01*
X120735156Y-61615906D01*
X120697477Y-61648196D01*
X120672519Y-61711006D01*
X120660422Y-61803894D01*
X120659210Y-61853101D01*
X120475394Y-61853101D01*
X120475394Y-61438421D01*
X120567302Y-61438421D01*
X120622483Y-61440603D01*
X120650952Y-61448351D01*
X120659206Y-61463468D01*
X120659210Y-61463916D01*
X120663040Y-61478720D01*
X120679933Y-61477039D01*
X120713519Y-61460772D01*
X120791778Y-61435887D01*
X120879827Y-61433271D01*
X120963360Y-61452468D01*
G37*
X120963360Y-61452468D02*
X120998592Y-61469874D01*
X121042040Y-61500206D01*
X121073706Y-61533283D01*
X121095394Y-61574817D01*
X121108903Y-61630522D01*
X121116038Y-61706111D01*
X121118600Y-61807296D01*
X121118750Y-61850797D01*
X121118312Y-61946135D01*
X121116496Y-62014271D01*
X121112545Y-62061418D01*
X121105702Y-62093790D01*
X121095211Y-62117600D01*
X121084296Y-62133843D01*
X121014619Y-62202952D01*
X120932566Y-62244521D01*
X120844050Y-62257023D01*
X120754981Y-62238934D01*
X120726763Y-62226142D01*
X120659210Y-62190931D01*
X120659210Y-62742700D01*
X120708512Y-62717205D01*
X120773473Y-62697480D01*
X120853320Y-62692427D01*
X120933052Y-62701756D01*
X120993265Y-62722714D01*
X121043208Y-62762627D01*
X121085881Y-62819741D01*
X121089090Y-62825605D01*
X121102622Y-62853227D01*
X121112505Y-62881068D01*
X121119309Y-62914794D01*
X121123601Y-62960071D01*
X121125951Y-63022562D01*
X121126928Y-63107935D01*
X121127105Y-63204010D01*
X121127105Y-63510526D01*
X120943289Y-63510526D01*
X120943289Y-62945339D01*
X120891875Y-62902077D01*
X120838466Y-62867472D01*
X120787888Y-62861180D01*
X120737030Y-62877372D01*
X120709925Y-62893227D01*
X120689751Y-62915810D01*
X120675403Y-62949940D01*
X120665776Y-63000434D01*
X120659763Y-63072111D01*
X120656260Y-63169788D01*
X120655026Y-63234802D01*
X120650855Y-63502171D01*
X120563125Y-63507222D01*
X120475394Y-63512273D01*
X120475394Y-61853101D01*
X120659210Y-61853101D01*
X120663896Y-61945600D01*
X120679688Y-62009809D01*
X120709183Y-62049759D01*
X120754980Y-62069480D01*
X120801250Y-62073421D01*
X120853628Y-62068892D01*
X120888390Y-62051069D01*
X120910128Y-62027519D01*
X120927240Y-62002189D01*
X120937427Y-61973969D01*
X120941960Y-61934431D01*
X120942109Y-61875142D01*
X120940584Y-61825498D01*
X120937081Y-61750710D01*
X120931867Y-61701611D01*
X120923087Y-61670467D01*
X120908886Y-61649545D01*
X120895484Y-61637452D01*
X120839487Y-61611081D01*
X120773211Y-61606822D01*
X120735156Y-61615906D01*
X120697477Y-61648196D01*
X120672519Y-61711006D01*
X120660422Y-61803894D01*
X120659210Y-61853101D01*
X120475394Y-61853101D01*
X120475394Y-61438421D01*
X120567302Y-61438421D01*
X120622483Y-61440603D01*
X120650952Y-61448351D01*
X120659206Y-61463468D01*
X120659210Y-61463916D01*
X120663040Y-61478720D01*
X120679933Y-61477039D01*
X120713519Y-61460772D01*
X120791778Y-61435887D01*
X120879827Y-61433271D01*
X120963360Y-61452468D01*
G36*
X121660457Y-62698184D02*
G01*
X121739070Y-62719160D01*
X121798916Y-62757180D01*
X121841147Y-62806978D01*
X121854275Y-62828230D01*
X121863968Y-62850492D01*
X121870744Y-62878970D01*
X121875123Y-62918871D01*
X121877624Y-62975401D01*
X121878768Y-63053767D01*
X121879072Y-63159176D01*
X121879078Y-63187142D01*
X121879078Y-63510526D01*
X121798868Y-63510526D01*
X121747706Y-63506943D01*
X121709877Y-63497866D01*
X121700399Y-63492268D01*
X121674488Y-63482606D01*
X121648024Y-63492268D01*
X121604452Y-63504330D01*
X121541160Y-63509185D01*
X121471010Y-63507078D01*
X121406860Y-63498256D01*
X121369407Y-63486937D01*
X121296933Y-63440412D01*
X121251640Y-63375846D01*
X121231278Y-63290000D01*
X121231088Y-63287796D01*
X121232875Y-63249713D01*
X121394473Y-63249713D01*
X121408601Y-63293030D01*
X121431612Y-63317408D01*
X121477804Y-63335845D01*
X121538775Y-63343205D01*
X121600949Y-63339583D01*
X121650751Y-63325074D01*
X121664703Y-63315765D01*
X121689085Y-63272753D01*
X121695263Y-63223857D01*
X121695263Y-63159605D01*
X121602818Y-63159605D01*
X121514995Y-63166366D01*
X121448418Y-63185520D01*
X121407002Y-63215376D01*
X121394473Y-63249713D01*
X121232875Y-63249713D01*
X121235490Y-63194004D01*
X121266424Y-63119847D01*
X121324581Y-63063767D01*
X121332620Y-63058665D01*
X121367163Y-63042055D01*
X121409918Y-63031996D01*
X121469686Y-63027107D01*
X121540690Y-63025983D01*
X121695263Y-63025921D01*
X121695263Y-62961125D01*
X121688706Y-62910850D01*
X121671975Y-62877169D01*
X121670016Y-62875376D01*
X121632783Y-62860642D01*
X121576580Y-62854931D01*
X121514467Y-62857737D01*
X121459510Y-62868556D01*
X121426899Y-62884782D01*
X121409228Y-62897780D01*
X121390569Y-62900262D01*
X121364819Y-62889613D01*
X121325873Y-62863218D01*
X121267630Y-62818465D01*
X121262284Y-62814273D01*
X121265023Y-62798760D01*
X121287876Y-62772960D01*
X121322609Y-62744289D01*
X121360990Y-62720166D01*
X121373048Y-62714470D01*
X121417034Y-62703103D01*
X121481487Y-62694995D01*
X121553497Y-62691743D01*
X121556864Y-62691736D01*
X121660457Y-62698184D01*
G37*
X121660457Y-62698184D02*
X121739070Y-62719160D01*
X121798916Y-62757180D01*
X121841147Y-62806978D01*
X121854275Y-62828230D01*
X121863968Y-62850492D01*
X121870744Y-62878970D01*
X121875123Y-62918871D01*
X121877624Y-62975401D01*
X121878768Y-63053767D01*
X121879072Y-63159176D01*
X121879078Y-63187142D01*
X121879078Y-63510526D01*
X121798868Y-63510526D01*
X121747706Y-63506943D01*
X121709877Y-63497866D01*
X121700399Y-63492268D01*
X121674488Y-63482606D01*
X121648024Y-63492268D01*
X121604452Y-63504330D01*
X121541160Y-63509185D01*
X121471010Y-63507078D01*
X121406860Y-63498256D01*
X121369407Y-63486937D01*
X121296933Y-63440412D01*
X121251640Y-63375846D01*
X121231278Y-63290000D01*
X121231088Y-63287796D01*
X121232875Y-63249713D01*
X121394473Y-63249713D01*
X121408601Y-63293030D01*
X121431612Y-63317408D01*
X121477804Y-63335845D01*
X121538775Y-63343205D01*
X121600949Y-63339583D01*
X121650751Y-63325074D01*
X121664703Y-63315765D01*
X121689085Y-63272753D01*
X121695263Y-63223857D01*
X121695263Y-63159605D01*
X121602818Y-63159605D01*
X121514995Y-63166366D01*
X121448418Y-63185520D01*
X121407002Y-63215376D01*
X121394473Y-63249713D01*
X121232875Y-63249713D01*
X121235490Y-63194004D01*
X121266424Y-63119847D01*
X121324581Y-63063767D01*
X121332620Y-63058665D01*
X121367163Y-63042055D01*
X121409918Y-63031996D01*
X121469686Y-63027107D01*
X121540690Y-63025983D01*
X121695263Y-63025921D01*
X121695263Y-62961125D01*
X121688706Y-62910850D01*
X121671975Y-62877169D01*
X121670016Y-62875376D01*
X121632783Y-62860642D01*
X121576580Y-62854931D01*
X121514467Y-62857737D01*
X121459510Y-62868556D01*
X121426899Y-62884782D01*
X121409228Y-62897780D01*
X121390569Y-62900262D01*
X121364819Y-62889613D01*
X121325873Y-62863218D01*
X121267630Y-62818465D01*
X121262284Y-62814273D01*
X121265023Y-62798760D01*
X121287876Y-62772960D01*
X121322609Y-62744289D01*
X121360990Y-62720166D01*
X121373048Y-62714470D01*
X121417034Y-62703103D01*
X121481487Y-62694995D01*
X121553497Y-62691743D01*
X121556864Y-62691736D01*
X121660457Y-62698184D01*
G36*
X122179881Y-62693486D02*
G01*
X122204888Y-62700982D01*
X122212950Y-62717451D01*
X122213289Y-62724886D01*
X122214736Y-62745594D01*
X122224698Y-62748845D01*
X122251612Y-62734648D01*
X122267598Y-62724948D01*
X122318033Y-62704175D01*
X122378272Y-62693904D01*
X122441434Y-62693114D01*
X122500637Y-62700786D01*
X122549002Y-62715898D01*
X122579646Y-62737432D01*
X122585689Y-62764366D01*
X122582639Y-62771660D01*
X122560406Y-62801937D01*
X122525930Y-62839175D01*
X122519694Y-62845195D01*
X122486833Y-62872875D01*
X122458480Y-62881818D01*
X122418827Y-62875576D01*
X122402942Y-62871429D01*
X122353509Y-62861467D01*
X122318752Y-62865947D01*
X122289400Y-62881746D01*
X122262513Y-62902949D01*
X122242710Y-62929614D01*
X122228948Y-62966827D01*
X122220184Y-63019673D01*
X122215374Y-63093237D01*
X122213474Y-63192605D01*
X122213289Y-63252601D01*
X122213289Y-63510526D01*
X122046184Y-63510526D01*
X122046184Y-62691710D01*
X122129736Y-62691710D01*
X122179881Y-62693486D01*
G37*
X122179881Y-62693486D02*
X122204888Y-62700982D01*
X122212950Y-62717451D01*
X122213289Y-62724886D01*
X122214736Y-62745594D01*
X122224698Y-62748845D01*
X122251612Y-62734648D01*
X122267598Y-62724948D01*
X122318033Y-62704175D01*
X122378272Y-62693904D01*
X122441434Y-62693114D01*
X122500637Y-62700786D01*
X122549002Y-62715898D01*
X122579646Y-62737432D01*
X122585689Y-62764366D01*
X122582639Y-62771660D01*
X122560406Y-62801937D01*
X122525930Y-62839175D01*
X122519694Y-62845195D01*
X122486833Y-62872875D01*
X122458480Y-62881818D01*
X122418827Y-62875576D01*
X122402942Y-62871429D01*
X122353509Y-62861467D01*
X122318752Y-62865947D01*
X122289400Y-62881746D01*
X122262513Y-62902949D01*
X122242710Y-62929614D01*
X122228948Y-62966827D01*
X122220184Y-63019673D01*
X122215374Y-63093237D01*
X122213474Y-63192605D01*
X122213289Y-63252601D01*
X122213289Y-63510526D01*
X122046184Y-63510526D01*
X122046184Y-62691710D01*
X122129736Y-62691710D01*
X122179881Y-62693486D01*
G36*
X123232631Y-63510526D02*
G01*
X123140723Y-63510526D01*
X123087377Y-63508962D01*
X123059593Y-63502485D01*
X123049590Y-63488418D01*
X123048815Y-63478906D01*
X123047128Y-63459832D01*
X123036490Y-63456174D01*
X123008535Y-63467932D01*
X122986795Y-63478906D01*
X122903332Y-63504911D01*
X122812604Y-63506416D01*
X122738842Y-63487021D01*
X122670154Y-63440165D01*
X122617794Y-63371004D01*
X122589122Y-63289427D01*
X122588392Y-63284866D01*
X122584132Y-63235101D01*
X122582014Y-63163659D01*
X122582184Y-63109626D01*
X122764720Y-63109626D01*
X122768949Y-63181441D01*
X122778568Y-63240634D01*
X122791590Y-63274060D01*
X122840856Y-63319740D01*
X122899350Y-63336115D01*
X122959671Y-63322873D01*
X123011217Y-63283373D01*
X123030738Y-63256807D01*
X123042152Y-63225106D01*
X123047498Y-63178832D01*
X123048815Y-63109328D01*
X123046458Y-63040499D01*
X123040233Y-62980026D01*
X123031408Y-62939556D01*
X123029937Y-62935929D01*
X122994347Y-62892802D01*
X122942400Y-62869124D01*
X122884278Y-62865301D01*
X122830160Y-62881738D01*
X122790226Y-62918840D01*
X122786083Y-62926222D01*
X122773116Y-62971239D01*
X122766052Y-63035967D01*
X122764720Y-63109626D01*
X122582184Y-63109626D01*
X122582271Y-63082230D01*
X122583472Y-63038405D01*
X122591645Y-62929988D01*
X122608630Y-62848588D01*
X122636887Y-62788412D01*
X122678872Y-62743666D01*
X122719632Y-62717400D01*
X122776581Y-62698935D01*
X122847411Y-62692602D01*
X122919941Y-62697760D01*
X122981986Y-62713769D01*
X123014768Y-62732920D01*
X123048815Y-62763732D01*
X123048815Y-62374210D01*
X123232631Y-62374210D01*
X123232631Y-63510526D01*
G37*
X123232631Y-63510526D02*
X123140723Y-63510526D01*
X123087377Y-63508962D01*
X123059593Y-63502485D01*
X123049590Y-63488418D01*
X123048815Y-63478906D01*
X123047128Y-63459832D01*
X123036490Y-63456174D01*
X123008535Y-63467932D01*
X122986795Y-63478906D01*
X122903332Y-63504911D01*
X122812604Y-63506416D01*
X122738842Y-63487021D01*
X122670154Y-63440165D01*
X122617794Y-63371004D01*
X122589122Y-63289427D01*
X122588392Y-63284866D01*
X122584132Y-63235101D01*
X122582014Y-63163659D01*
X122582184Y-63109626D01*
X122764720Y-63109626D01*
X122768949Y-63181441D01*
X122778568Y-63240634D01*
X122791590Y-63274060D01*
X122840856Y-63319740D01*
X122899350Y-63336115D01*
X122959671Y-63322873D01*
X123011217Y-63283373D01*
X123030738Y-63256807D01*
X123042152Y-63225106D01*
X123047498Y-63178832D01*
X123048815Y-63109328D01*
X123046458Y-63040499D01*
X123040233Y-62980026D01*
X123031408Y-62939556D01*
X123029937Y-62935929D01*
X122994347Y-62892802D01*
X122942400Y-62869124D01*
X122884278Y-62865301D01*
X122830160Y-62881738D01*
X122790226Y-62918840D01*
X122786083Y-62926222D01*
X122773116Y-62971239D01*
X122766052Y-63035967D01*
X122764720Y-63109626D01*
X122582184Y-63109626D01*
X122582271Y-63082230D01*
X122583472Y-63038405D01*
X122591645Y-62929988D01*
X122608630Y-62848588D01*
X122636887Y-62788412D01*
X122678872Y-62743666D01*
X122719632Y-62717400D01*
X122776581Y-62698935D01*
X122847411Y-62692602D01*
X122919941Y-62697760D01*
X122981986Y-62713769D01*
X123014768Y-62732920D01*
X123048815Y-62763732D01*
X123048815Y-62374210D01*
X123232631Y-62374210D01*
X123232631Y-63510526D01*
G36*
X123874130Y-62695104D02*
G01*
X123940220Y-62700066D01*
X124026626Y-62959079D01*
X124113031Y-63218092D01*
X124140124Y-63126184D01*
X124156428Y-63069384D01*
X124177875Y-62992625D01*
X124201035Y-62908251D01*
X124213280Y-62862993D01*
X124259344Y-62691710D01*
X124449387Y-62691710D01*
X124392582Y-62871349D01*
X124364607Y-62959704D01*
X124330813Y-63066281D01*
X124295520Y-63177454D01*
X124264013Y-63276579D01*
X124192250Y-63502171D01*
X124037286Y-63512253D01*
X123995270Y-63373528D01*
X123969359Y-63287351D01*
X123941083Y-63192347D01*
X123916369Y-63108441D01*
X123915394Y-63105102D01*
X123896935Y-63048248D01*
X123880649Y-63009456D01*
X123869242Y-62994787D01*
X123866898Y-62996483D01*
X123858671Y-63019225D01*
X123843038Y-63067940D01*
X123821904Y-63136502D01*
X123797170Y-63218785D01*
X123783787Y-63264046D01*
X123711311Y-63510526D01*
X123557495Y-63510526D01*
X123434531Y-63122006D01*
X123399988Y-63013022D01*
X123368521Y-62914048D01*
X123341616Y-62829736D01*
X123320759Y-62764734D01*
X123307438Y-62723692D01*
X123303388Y-62711701D01*
X123306594Y-62699423D01*
X123331765Y-62694046D01*
X123384146Y-62694584D01*
X123392345Y-62694990D01*
X123489482Y-62700066D01*
X123553100Y-62934013D01*
X123576484Y-63019333D01*
X123597381Y-63094335D01*
X123613951Y-63152507D01*
X123624354Y-63187337D01*
X123626276Y-63193016D01*
X123634241Y-63186486D01*
X123650304Y-63152654D01*
X123672621Y-63096127D01*
X123699345Y-63021510D01*
X123721937Y-62954107D01*
X123808041Y-62690143D01*
X123874130Y-62695104D01*
G37*
X123874130Y-62695104D02*
X123940220Y-62700066D01*
X124026626Y-62959079D01*
X124113031Y-63218092D01*
X124140124Y-63126184D01*
X124156428Y-63069384D01*
X124177875Y-62992625D01*
X124201035Y-62908251D01*
X124213280Y-62862993D01*
X124259344Y-62691710D01*
X124449387Y-62691710D01*
X124392582Y-62871349D01*
X124364607Y-62959704D01*
X124330813Y-63066281D01*
X124295520Y-63177454D01*
X124264013Y-63276579D01*
X124192250Y-63502171D01*
X124037286Y-63512253D01*
X123995270Y-63373528D01*
X123969359Y-63287351D01*
X123941083Y-63192347D01*
X123916369Y-63108441D01*
X123915394Y-63105102D01*
X123896935Y-63048248D01*
X123880649Y-63009456D01*
X123869242Y-62994787D01*
X123866898Y-62996483D01*
X123858671Y-63019225D01*
X123843038Y-63067940D01*
X123821904Y-63136502D01*
X123797170Y-63218785D01*
X123783787Y-63264046D01*
X123711311Y-63510526D01*
X123557495Y-63510526D01*
X123434531Y-63122006D01*
X123399988Y-63013022D01*
X123368521Y-62914048D01*
X123341616Y-62829736D01*
X123320759Y-62764734D01*
X123307438Y-62723692D01*
X123303388Y-62711701D01*
X123306594Y-62699423D01*
X123331765Y-62694046D01*
X123384146Y-62694584D01*
X123392345Y-62694990D01*
X123489482Y-62700066D01*
X123553100Y-62934013D01*
X123576484Y-63019333D01*
X123597381Y-63094335D01*
X123613951Y-63152507D01*
X123624354Y-63187337D01*
X123626276Y-63193016D01*
X123634241Y-63186486D01*
X123650304Y-63152654D01*
X123672621Y-63096127D01*
X123699345Y-63021510D01*
X123721937Y-62954107D01*
X123808041Y-62690143D01*
X123874130Y-62695104D01*
G36*
X124879992Y-62696673D02*
G01*
X124950427Y-62713780D01*
X124970787Y-62722844D01*
X125010253Y-62746583D01*
X125040541Y-62773321D01*
X125062952Y-62807699D01*
X125078786Y-62854360D01*
X125089343Y-62917946D01*
X125095924Y-63003099D01*
X125099828Y-63114462D01*
X125101310Y-63188849D01*
X125106765Y-63510526D01*
X125013580Y-63510526D01*
X124957047Y-63508156D01*
X124927922Y-63500055D01*
X124920394Y-63486451D01*
X124916420Y-63471741D01*
X124898652Y-63474554D01*
X124874440Y-63486348D01*
X124813828Y-63504427D01*
X124735929Y-63509299D01*
X124653995Y-63501330D01*
X124581281Y-63480889D01*
X124574759Y-63478051D01*
X124508302Y-63431365D01*
X124464491Y-63366464D01*
X124444332Y-63290600D01*
X124445872Y-63263344D01*
X124610345Y-63263344D01*
X124624837Y-63300024D01*
X124667805Y-63326309D01*
X124737129Y-63340417D01*
X124774177Y-63342290D01*
X124835919Y-63337494D01*
X124876960Y-63318858D01*
X124886973Y-63310000D01*
X124914100Y-63261806D01*
X124920394Y-63218092D01*
X124920394Y-63159605D01*
X124838930Y-63159605D01*
X124744234Y-63164432D01*
X124677813Y-63179613D01*
X124635846Y-63206200D01*
X124626449Y-63218052D01*
X124610345Y-63263344D01*
X124445872Y-63263344D01*
X124448829Y-63211026D01*
X124478985Y-63134995D01*
X124520131Y-63083612D01*
X124545052Y-63061397D01*
X124569448Y-63046798D01*
X124601191Y-63037897D01*
X124648152Y-63032775D01*
X124718204Y-63029515D01*
X124745990Y-63028577D01*
X124920394Y-63022879D01*
X124920138Y-62970091D01*
X124913384Y-62914603D01*
X124888964Y-62881052D01*
X124839630Y-62859618D01*
X124838306Y-62859236D01*
X124768360Y-62850808D01*
X124699914Y-62861816D01*
X124649047Y-62888585D01*
X124628637Y-62901803D01*
X124606654Y-62899974D01*
X124572826Y-62880824D01*
X124552961Y-62867308D01*
X124514106Y-62838432D01*
X124490038Y-62816786D01*
X124486176Y-62810589D01*
X124502079Y-62778519D01*
X124549065Y-62740219D01*
X124569473Y-62727297D01*
X124628143Y-62705041D01*
X124707212Y-62692432D01*
X124795041Y-62689600D01*
X124879992Y-62696673D01*
G37*
X124879992Y-62696673D02*
X124950427Y-62713780D01*
X124970787Y-62722844D01*
X125010253Y-62746583D01*
X125040541Y-62773321D01*
X125062952Y-62807699D01*
X125078786Y-62854360D01*
X125089343Y-62917946D01*
X125095924Y-63003099D01*
X125099828Y-63114462D01*
X125101310Y-63188849D01*
X125106765Y-63510526D01*
X125013580Y-63510526D01*
X124957047Y-63508156D01*
X124927922Y-63500055D01*
X124920394Y-63486451D01*
X124916420Y-63471741D01*
X124898652Y-63474554D01*
X124874440Y-63486348D01*
X124813828Y-63504427D01*
X124735929Y-63509299D01*
X124653995Y-63501330D01*
X124581281Y-63480889D01*
X124574759Y-63478051D01*
X124508302Y-63431365D01*
X124464491Y-63366464D01*
X124444332Y-63290600D01*
X124445872Y-63263344D01*
X124610345Y-63263344D01*
X124624837Y-63300024D01*
X124667805Y-63326309D01*
X124737129Y-63340417D01*
X124774177Y-63342290D01*
X124835919Y-63337494D01*
X124876960Y-63318858D01*
X124886973Y-63310000D01*
X124914100Y-63261806D01*
X124920394Y-63218092D01*
X124920394Y-63159605D01*
X124838930Y-63159605D01*
X124744234Y-63164432D01*
X124677813Y-63179613D01*
X124635846Y-63206200D01*
X124626449Y-63218052D01*
X124610345Y-63263344D01*
X124445872Y-63263344D01*
X124448829Y-63211026D01*
X124478985Y-63134995D01*
X124520131Y-63083612D01*
X124545052Y-63061397D01*
X124569448Y-63046798D01*
X124601191Y-63037897D01*
X124648152Y-63032775D01*
X124718204Y-63029515D01*
X124745990Y-63028577D01*
X124920394Y-63022879D01*
X124920138Y-62970091D01*
X124913384Y-62914603D01*
X124888964Y-62881052D01*
X124839630Y-62859618D01*
X124838306Y-62859236D01*
X124768360Y-62850808D01*
X124699914Y-62861816D01*
X124649047Y-62888585D01*
X124628637Y-62901803D01*
X124606654Y-62899974D01*
X124572826Y-62880824D01*
X124552961Y-62867308D01*
X124514106Y-62838432D01*
X124490038Y-62816786D01*
X124486176Y-62810589D01*
X124502079Y-62778519D01*
X124549065Y-62740219D01*
X124569473Y-62727297D01*
X124628143Y-62705041D01*
X124707212Y-62692432D01*
X124795041Y-62689600D01*
X124879992Y-62696673D01*
G36*
X125673167Y-62691447D02*
G01*
X125737408Y-62704112D01*
X125773980Y-62722864D01*
X125812453Y-62754017D01*
X125757717Y-62823127D01*
X125723969Y-62864979D01*
X125701053Y-62885398D01*
X125678279Y-62888517D01*
X125644956Y-62878472D01*
X125629314Y-62872789D01*
X125565542Y-62864404D01*
X125507140Y-62882378D01*
X125464264Y-62922982D01*
X125457299Y-62935929D01*
X125449713Y-62970224D01*
X125443859Y-63033427D01*
X125440011Y-63121060D01*
X125438443Y-63228640D01*
X125438421Y-63243944D01*
X125438421Y-63510526D01*
X125254605Y-63510526D01*
X125254605Y-62691710D01*
X125346513Y-62691710D01*
X125399507Y-62693094D01*
X125427115Y-62699252D01*
X125437324Y-62713194D01*
X125438421Y-62726344D01*
X125438421Y-62760978D01*
X125482450Y-62726344D01*
X125532937Y-62702716D01*
X125600760Y-62691033D01*
X125673167Y-62691447D01*
G37*
X125673167Y-62691447D02*
X125737408Y-62704112D01*
X125773980Y-62722864D01*
X125812453Y-62754017D01*
X125757717Y-62823127D01*
X125723969Y-62864979D01*
X125701053Y-62885398D01*
X125678279Y-62888517D01*
X125644956Y-62878472D01*
X125629314Y-62872789D01*
X125565542Y-62864404D01*
X125507140Y-62882378D01*
X125464264Y-62922982D01*
X125457299Y-62935929D01*
X125449713Y-62970224D01*
X125443859Y-63033427D01*
X125440011Y-63121060D01*
X125438443Y-63228640D01*
X125438421Y-63243944D01*
X125438421Y-63510526D01*
X125254605Y-63510526D01*
X125254605Y-62691710D01*
X125346513Y-62691710D01*
X125399507Y-62693094D01*
X125427115Y-62699252D01*
X125437324Y-62713194D01*
X125438421Y-62726344D01*
X125438421Y-62760978D01*
X125482450Y-62726344D01*
X125532937Y-62702716D01*
X125600760Y-62691033D01*
X125673167Y-62691447D01*
G36*
X126201193Y-62696078D02*
G01*
X126281068Y-62716845D01*
X126347962Y-62759705D01*
X126380351Y-62791723D01*
X126433445Y-62867413D01*
X126463873Y-62955216D01*
X126474327Y-63063150D01*
X126474380Y-63071875D01*
X126474473Y-63159605D01*
X125969534Y-63159605D01*
X125980298Y-63205559D01*
X125999732Y-63247178D01*
X126033745Y-63290544D01*
X126040860Y-63297467D01*
X126102003Y-63334935D01*
X126171729Y-63341289D01*
X126251987Y-63316638D01*
X126265592Y-63310000D01*
X126307319Y-63289819D01*
X126335268Y-63278321D01*
X126340145Y-63277258D01*
X126357168Y-63287583D01*
X126389633Y-63312845D01*
X126406114Y-63326650D01*
X126440264Y-63358361D01*
X126451478Y-63379299D01*
X126443695Y-63398560D01*
X126439535Y-63403827D01*
X126411357Y-63426878D01*
X126364862Y-63454892D01*
X126332434Y-63471246D01*
X126240385Y-63500059D01*
X126138476Y-63509395D01*
X126041963Y-63498332D01*
X126014934Y-63490412D01*
X125931276Y-63445581D01*
X125869266Y-63376598D01*
X125828545Y-63282794D01*
X125808755Y-63163498D01*
X125806582Y-63101118D01*
X125812926Y-63010298D01*
X125973157Y-63010298D01*
X125988655Y-63017012D01*
X126030312Y-63022280D01*
X126090876Y-63025389D01*
X126131907Y-63025921D01*
X126205711Y-63025408D01*
X126252293Y-63023006D01*
X126277848Y-63017422D01*
X126288569Y-63007361D01*
X126290657Y-62992763D01*
X126276331Y-62947796D01*
X126240262Y-62903353D01*
X126192815Y-62869242D01*
X126145349Y-62855288D01*
X126080879Y-62867666D01*
X126025070Y-62903452D01*
X125986374Y-62955033D01*
X125973157Y-63010298D01*
X125812926Y-63010298D01*
X125815821Y-62968866D01*
X125844336Y-62863498D01*
X125892729Y-62784178D01*
X125961604Y-62730071D01*
X126051565Y-62700343D01*
X126100300Y-62694618D01*
X126201193Y-62696078D01*
G37*
X126201193Y-62696078D02*
X126281068Y-62716845D01*
X126347962Y-62759705D01*
X126380351Y-62791723D01*
X126433445Y-62867413D01*
X126463873Y-62955216D01*
X126474327Y-63063150D01*
X126474380Y-63071875D01*
X126474473Y-63159605D01*
X125969534Y-63159605D01*
X125980298Y-63205559D01*
X125999732Y-63247178D01*
X126033745Y-63290544D01*
X126040860Y-63297467D01*
X126102003Y-63334935D01*
X126171729Y-63341289D01*
X126251987Y-63316638D01*
X126265592Y-63310000D01*
X126307319Y-63289819D01*
X126335268Y-63278321D01*
X126340145Y-63277258D01*
X126357168Y-63287583D01*
X126389633Y-63312845D01*
X126406114Y-63326650D01*
X126440264Y-63358361D01*
X126451478Y-63379299D01*
X126443695Y-63398560D01*
X126439535Y-63403827D01*
X126411357Y-63426878D01*
X126364862Y-63454892D01*
X126332434Y-63471246D01*
X126240385Y-63500059D01*
X126138476Y-63509395D01*
X126041963Y-63498332D01*
X126014934Y-63490412D01*
X125931276Y-63445581D01*
X125869266Y-63376598D01*
X125828545Y-63282794D01*
X125808755Y-63163498D01*
X125806582Y-63101118D01*
X125812926Y-63010298D01*
X125973157Y-63010298D01*
X125988655Y-63017012D01*
X126030312Y-63022280D01*
X126090876Y-63025389D01*
X126131907Y-63025921D01*
X126205711Y-63025408D01*
X126252293Y-63023006D01*
X126277848Y-63017422D01*
X126288569Y-63007361D01*
X126290657Y-62992763D01*
X126276331Y-62947796D01*
X126240262Y-62903353D01*
X126192815Y-62869242D01*
X126145349Y-62855288D01*
X126080879Y-62867666D01*
X126025070Y-62903452D01*
X125986374Y-62955033D01*
X125973157Y-63010298D01*
X125812926Y-63010298D01*
X125815821Y-62968866D01*
X125844336Y-62863498D01*
X125892729Y-62784178D01*
X125961604Y-62730071D01*
X126051565Y-62700343D01*
X126100300Y-62694618D01*
X126201193Y-62696078D01*
G36*
X120126784Y-61447104D02*
G01*
X120214205Y-61485754D01*
X120280570Y-61550290D01*
X120325976Y-61640812D01*
X120350518Y-61757418D01*
X120352277Y-61775624D01*
X120353656Y-61903984D01*
X120335784Y-62016496D01*
X120299750Y-62107688D01*
X120280455Y-62137022D01*
X120213245Y-62199106D01*
X120127650Y-62239316D01*
X120031890Y-62256003D01*
X119934187Y-62247517D01*
X119859917Y-62221380D01*
X119796047Y-62177335D01*
X119743846Y-62119587D01*
X119742943Y-62118236D01*
X119721744Y-62082593D01*
X119707967Y-62046752D01*
X119699624Y-62001519D01*
X119694727Y-61937701D01*
X119692569Y-61885368D01*
X119691671Y-61837910D01*
X119858743Y-61837910D01*
X119860376Y-61885154D01*
X119866304Y-61948046D01*
X119876761Y-61988407D01*
X119895619Y-62017122D01*
X119913281Y-62033896D01*
X119975894Y-62069016D01*
X120041408Y-62073710D01*
X120102421Y-62048440D01*
X120132928Y-62020124D01*
X120154911Y-61991589D01*
X120167769Y-61964284D01*
X120173412Y-61928750D01*
X120173751Y-61875524D01*
X120172012Y-61826506D01*
X120168271Y-61756482D01*
X120162341Y-61711064D01*
X120151653Y-61681440D01*
X120133639Y-61658797D01*
X120119363Y-61645855D01*
X120059651Y-61611860D01*
X119995234Y-61610165D01*
X119941219Y-61630301D01*
X119895140Y-61672352D01*
X119867689Y-61741428D01*
X119858743Y-61837910D01*
X119691671Y-61837910D01*
X119690599Y-61781299D01*
X119693964Y-61703468D01*
X119704045Y-61644930D01*
X119722226Y-61598737D01*
X119749890Y-61557942D01*
X119760146Y-61545828D01*
X119824278Y-61485474D01*
X119893066Y-61450220D01*
X119977189Y-61435450D01*
X120018209Y-61434243D01*
X120126784Y-61447104D01*
G37*
X120126784Y-61447104D02*
X120214205Y-61485754D01*
X120280570Y-61550290D01*
X120325976Y-61640812D01*
X120350518Y-61757418D01*
X120352277Y-61775624D01*
X120353656Y-61903984D01*
X120335784Y-62016496D01*
X120299750Y-62107688D01*
X120280455Y-62137022D01*
X120213245Y-62199106D01*
X120127650Y-62239316D01*
X120031890Y-62256003D01*
X119934187Y-62247517D01*
X119859917Y-62221380D01*
X119796047Y-62177335D01*
X119743846Y-62119587D01*
X119742943Y-62118236D01*
X119721744Y-62082593D01*
X119707967Y-62046752D01*
X119699624Y-62001519D01*
X119694727Y-61937701D01*
X119692569Y-61885368D01*
X119691671Y-61837910D01*
X119858743Y-61837910D01*
X119860376Y-61885154D01*
X119866304Y-61948046D01*
X119876761Y-61988407D01*
X119895619Y-62017122D01*
X119913281Y-62033896D01*
X119975894Y-62069016D01*
X120041408Y-62073710D01*
X120102421Y-62048440D01*
X120132928Y-62020124D01*
X120154911Y-61991589D01*
X120167769Y-61964284D01*
X120173412Y-61928750D01*
X120173751Y-61875524D01*
X120172012Y-61826506D01*
X120168271Y-61756482D01*
X120162341Y-61711064D01*
X120151653Y-61681440D01*
X120133639Y-61658797D01*
X120119363Y-61645855D01*
X120059651Y-61611860D01*
X119995234Y-61610165D01*
X119941219Y-61630301D01*
X119895140Y-61672352D01*
X119867689Y-61741428D01*
X119858743Y-61837910D01*
X119691671Y-61837910D01*
X119690599Y-61781299D01*
X119693964Y-61703468D01*
X119704045Y-61644930D01*
X119722226Y-61598737D01*
X119749890Y-61557942D01*
X119760146Y-61545828D01*
X119824278Y-61485474D01*
X119893066Y-61450220D01*
X119977189Y-61435450D01*
X120018209Y-61434243D01*
X120126784Y-61447104D01*
G36*
X121697018Y-61457027D02*
G01*
X121713670Y-61464866D01*
X121771305Y-61507086D01*
X121825805Y-61568700D01*
X121866499Y-61636543D01*
X121878074Y-61667734D01*
X121888634Y-61723449D01*
X121894931Y-61790781D01*
X121895696Y-61818585D01*
X121895789Y-61906316D01*
X121390850Y-61906316D01*
X121401613Y-61952270D01*
X121428033Y-62006620D01*
X121474222Y-62053591D01*
X121529172Y-62083848D01*
X121564189Y-62090131D01*
X121611677Y-62082506D01*
X121668335Y-62063383D01*
X121687582Y-62054584D01*
X121758759Y-62019036D01*
X121819502Y-62065367D01*
X121854552Y-62096703D01*
X121873202Y-62122567D01*
X121874147Y-62130158D01*
X121857485Y-62148556D01*
X121820970Y-62176515D01*
X121787828Y-62198327D01*
X121698393Y-62237537D01*
X121598129Y-62255285D01*
X121498754Y-62250670D01*
X121419539Y-62226551D01*
X121337880Y-62174884D01*
X121279849Y-62106856D01*
X121243546Y-62018843D01*
X121227072Y-61907216D01*
X121225611Y-61856138D01*
X121231457Y-61739091D01*
X121232175Y-61735686D01*
X121399489Y-61735686D01*
X121404097Y-61746662D01*
X121423036Y-61752715D01*
X121462098Y-61755310D01*
X121527077Y-61755910D01*
X121552097Y-61755921D01*
X121628221Y-61755014D01*
X121676496Y-61751720D01*
X121702460Y-61745181D01*
X121711648Y-61734537D01*
X121711973Y-61731119D01*
X121701487Y-61703956D01*
X121675242Y-61665903D01*
X121663959Y-61652579D01*
X121622072Y-61614896D01*
X121578409Y-61600080D01*
X121554885Y-61598842D01*
X121491243Y-61614329D01*
X121437873Y-61655930D01*
X121404019Y-61716353D01*
X121403419Y-61718322D01*
X121399489Y-61735686D01*
X121232175Y-61735686D01*
X121250899Y-61646928D01*
X121285922Y-61573190D01*
X121328756Y-61520848D01*
X121407948Y-61464092D01*
X121501040Y-61433762D01*
X121600055Y-61431021D01*
X121697018Y-61457027D01*
G37*
X121697018Y-61457027D02*
X121713670Y-61464866D01*
X121771305Y-61507086D01*
X121825805Y-61568700D01*
X121866499Y-61636543D01*
X121878074Y-61667734D01*
X121888634Y-61723449D01*
X121894931Y-61790781D01*
X121895696Y-61818585D01*
X121895789Y-61906316D01*
X121390850Y-61906316D01*
X121401613Y-61952270D01*
X121428033Y-62006620D01*
X121474222Y-62053591D01*
X121529172Y-62083848D01*
X121564189Y-62090131D01*
X121611677Y-62082506D01*
X121668335Y-62063383D01*
X121687582Y-62054584D01*
X121758759Y-62019036D01*
X121819502Y-62065367D01*
X121854552Y-62096703D01*
X121873202Y-62122567D01*
X121874147Y-62130158D01*
X121857485Y-62148556D01*
X121820970Y-62176515D01*
X121787828Y-62198327D01*
X121698393Y-62237537D01*
X121598129Y-62255285D01*
X121498754Y-62250670D01*
X121419539Y-62226551D01*
X121337880Y-62174884D01*
X121279849Y-62106856D01*
X121243546Y-62018843D01*
X121227072Y-61907216D01*
X121225611Y-61856138D01*
X121231457Y-61739091D01*
X121232175Y-61735686D01*
X121399489Y-61735686D01*
X121404097Y-61746662D01*
X121423036Y-61752715D01*
X121462098Y-61755310D01*
X121527077Y-61755910D01*
X121552097Y-61755921D01*
X121628221Y-61755014D01*
X121676496Y-61751720D01*
X121702460Y-61745181D01*
X121711648Y-61734537D01*
X121711973Y-61731119D01*
X121701487Y-61703956D01*
X121675242Y-61665903D01*
X121663959Y-61652579D01*
X121622072Y-61614896D01*
X121578409Y-61600080D01*
X121554885Y-61598842D01*
X121491243Y-61614329D01*
X121437873Y-61655930D01*
X121404019Y-61716353D01*
X121403419Y-61718322D01*
X121399489Y-61735686D01*
X121232175Y-61735686D01*
X121250899Y-61646928D01*
X121285922Y-61573190D01*
X121328756Y-61520848D01*
X121407948Y-61464092D01*
X121501040Y-61433762D01*
X121600055Y-61431021D01*
X121697018Y-61457027D01*
G36*
X123518628Y-61435547D02*
G01*
X123581908Y-61447548D01*
X123647557Y-61472648D01*
X123654572Y-61475848D01*
X123704356Y-61502026D01*
X123738834Y-61526353D01*
X123749978Y-61541937D01*
X123739366Y-61567353D01*
X123713588Y-61604853D01*
X123702146Y-61618852D01*
X123654992Y-61673954D01*
X123594201Y-61638086D01*
X123536347Y-61614192D01*
X123469500Y-61601420D01*
X123405394Y-61600613D01*
X123355764Y-61612615D01*
X123343854Y-61620105D01*
X123321172Y-61654450D01*
X123318416Y-61694013D01*
X123335388Y-61724920D01*
X123345427Y-61730913D01*
X123375510Y-61738357D01*
X123428389Y-61747106D01*
X123493575Y-61755467D01*
X123505600Y-61756778D01*
X123610297Y-61774888D01*
X123686232Y-61805651D01*
X123736592Y-61851907D01*
X123764564Y-61916497D01*
X123773278Y-61995387D01*
X123761240Y-62085065D01*
X123722151Y-62155486D01*
X123655855Y-62206777D01*
X123562194Y-62239067D01*
X123458223Y-62251807D01*
X123373438Y-62251654D01*
X123304665Y-62240083D01*
X123257697Y-62224109D01*
X123198350Y-62196275D01*
X123143506Y-62163973D01*
X123124013Y-62149755D01*
X123073881Y-62108835D01*
X123194803Y-61986477D01*
X123263543Y-62031967D01*
X123332488Y-62066133D01*
X123406111Y-62084004D01*
X123476883Y-62085889D01*
X123537274Y-62072101D01*
X123579757Y-62042949D01*
X123593474Y-62018352D01*
X123591417Y-61978904D01*
X123557330Y-61948737D01*
X123491308Y-61927906D01*
X123418974Y-61918279D01*
X123307652Y-61899910D01*
X123224952Y-61865254D01*
X123169765Y-61813297D01*
X123140988Y-61743023D01*
X123137001Y-61659707D01*
X123156693Y-61572681D01*
X123201589Y-61506902D01*
X123272091Y-61462068D01*
X123368601Y-61437879D01*
X123440100Y-61433137D01*
X123518628Y-61435547D01*
G37*
X123518628Y-61435547D02*
X123581908Y-61447548D01*
X123647557Y-61472648D01*
X123654572Y-61475848D01*
X123704356Y-61502026D01*
X123738834Y-61526353D01*
X123749978Y-61541937D01*
X123739366Y-61567353D01*
X123713588Y-61604853D01*
X123702146Y-61618852D01*
X123654992Y-61673954D01*
X123594201Y-61638086D01*
X123536347Y-61614192D01*
X123469500Y-61601420D01*
X123405394Y-61600613D01*
X123355764Y-61612615D01*
X123343854Y-61620105D01*
X123321172Y-61654450D01*
X123318416Y-61694013D01*
X123335388Y-61724920D01*
X123345427Y-61730913D01*
X123375510Y-61738357D01*
X123428389Y-61747106D01*
X123493575Y-61755467D01*
X123505600Y-61756778D01*
X123610297Y-61774888D01*
X123686232Y-61805651D01*
X123736592Y-61851907D01*
X123764564Y-61916497D01*
X123773278Y-61995387D01*
X123761240Y-62085065D01*
X123722151Y-62155486D01*
X123655855Y-62206777D01*
X123562194Y-62239067D01*
X123458223Y-62251807D01*
X123373438Y-62251654D01*
X123304665Y-62240083D01*
X123257697Y-62224109D01*
X123198350Y-62196275D01*
X123143506Y-62163973D01*
X123124013Y-62149755D01*
X123073881Y-62108835D01*
X123194803Y-61986477D01*
X123263543Y-62031967D01*
X123332488Y-62066133D01*
X123406111Y-62084004D01*
X123476883Y-62085889D01*
X123537274Y-62072101D01*
X123579757Y-62042949D01*
X123593474Y-62018352D01*
X123591417Y-61978904D01*
X123557330Y-61948737D01*
X123491308Y-61927906D01*
X123418974Y-61918279D01*
X123307652Y-61899910D01*
X123224952Y-61865254D01*
X123169765Y-61813297D01*
X123140988Y-61743023D01*
X123137001Y-61659707D01*
X123156693Y-61572681D01*
X123201589Y-61506902D01*
X123272091Y-61462068D01*
X123368601Y-61437879D01*
X123440100Y-61433137D01*
X123518628Y-61435547D01*
G36*
X124311669Y-61448310D02*
G01*
X124396192Y-61494340D01*
X124462321Y-61567006D01*
X124493478Y-61626106D01*
X124506855Y-61678305D01*
X124515522Y-61752719D01*
X124519237Y-61838442D01*
X124517754Y-61924569D01*
X124510831Y-62000193D01*
X124502745Y-62040584D01*
X124475465Y-62095840D01*
X124428220Y-62154530D01*
X124371282Y-62205852D01*
X124314924Y-62239005D01*
X124313550Y-62239531D01*
X124243616Y-62254018D01*
X124160737Y-62254377D01*
X124081977Y-62241188D01*
X124051566Y-62230617D01*
X123973239Y-62186201D01*
X123917143Y-62128007D01*
X123880286Y-62050965D01*
X123859680Y-61950001D01*
X123855018Y-61897116D01*
X123855613Y-61830663D01*
X124034736Y-61830663D01*
X124040770Y-61927630D01*
X124058138Y-62001523D01*
X124085740Y-62048736D01*
X124105404Y-62062237D01*
X124155787Y-62071651D01*
X124215673Y-62068864D01*
X124267449Y-62055316D01*
X124281027Y-62047862D01*
X124316849Y-62004451D01*
X124340493Y-61938014D01*
X124350558Y-61857161D01*
X124345642Y-61770502D01*
X124334655Y-61718349D01*
X124303109Y-61657951D01*
X124253311Y-61620197D01*
X124193337Y-61607143D01*
X124131264Y-61620849D01*
X124083582Y-61654372D01*
X124058525Y-61682031D01*
X124043900Y-61709294D01*
X124036929Y-61746190D01*
X124034833Y-61802750D01*
X124034736Y-61830663D01*
X123855613Y-61830663D01*
X123856282Y-61755994D01*
X123879265Y-61640271D01*
X123923972Y-61549941D01*
X123990405Y-61485000D01*
X124078565Y-61445445D01*
X124097495Y-61440858D01*
X124211266Y-61430090D01*
X124311669Y-61448310D01*
G37*
X124311669Y-61448310D02*
X124396192Y-61494340D01*
X124462321Y-61567006D01*
X124493478Y-61626106D01*
X124506855Y-61678305D01*
X124515522Y-61752719D01*
X124519237Y-61838442D01*
X124517754Y-61924569D01*
X124510831Y-62000193D01*
X124502745Y-62040584D01*
X124475465Y-62095840D01*
X124428220Y-62154530D01*
X124371282Y-62205852D01*
X124314924Y-62239005D01*
X124313550Y-62239531D01*
X124243616Y-62254018D01*
X124160737Y-62254377D01*
X124081977Y-62241188D01*
X124051566Y-62230617D01*
X123973239Y-62186201D01*
X123917143Y-62128007D01*
X123880286Y-62050965D01*
X123859680Y-61950001D01*
X123855018Y-61897116D01*
X123855613Y-61830663D01*
X124034736Y-61830663D01*
X124040770Y-61927630D01*
X124058138Y-62001523D01*
X124085740Y-62048736D01*
X124105404Y-62062237D01*
X124155787Y-62071651D01*
X124215673Y-62068864D01*
X124267449Y-62055316D01*
X124281027Y-62047862D01*
X124316849Y-62004451D01*
X124340493Y-61938014D01*
X124350558Y-61857161D01*
X124345642Y-61770502D01*
X124334655Y-61718349D01*
X124303109Y-61657951D01*
X124253311Y-61620197D01*
X124193337Y-61607143D01*
X124131264Y-61620849D01*
X124083582Y-61654372D01*
X124058525Y-61682031D01*
X124043900Y-61709294D01*
X124036929Y-61746190D01*
X124034833Y-61802750D01*
X124034736Y-61830663D01*
X123855613Y-61830663D01*
X123856282Y-61755994D01*
X123879265Y-61640271D01*
X123923972Y-61549941D01*
X123990405Y-61485000D01*
X124078565Y-61445445D01*
X124097495Y-61440858D01*
X124211266Y-61430090D01*
X124311669Y-61448310D01*
G36*
X124820131Y-61698533D02*
G01*
X124821710Y-61821089D01*
X124827481Y-61914179D01*
X124838991Y-61981651D01*
X124857790Y-62027355D01*
X124885426Y-62055139D01*
X124923448Y-62068854D01*
X124970526Y-62072358D01*
X125019832Y-62068432D01*
X125057283Y-62054089D01*
X125084428Y-62025478D01*
X125102815Y-61978751D01*
X125113993Y-61910058D01*
X125119511Y-61815550D01*
X125120921Y-61698533D01*
X125120921Y-61438421D01*
X125304736Y-61438421D01*
X125304736Y-62240526D01*
X125212828Y-62240526D01*
X125157422Y-62238281D01*
X125128891Y-62230396D01*
X125120921Y-62215428D01*
X125116120Y-62202097D01*
X125097014Y-62204917D01*
X125058504Y-62223783D01*
X124970239Y-62252887D01*
X124876623Y-62250825D01*
X124786921Y-62219221D01*
X124744204Y-62194257D01*
X124711621Y-62167226D01*
X124687817Y-62133405D01*
X124671439Y-62088068D01*
X124661131Y-62026489D01*
X124655541Y-61943943D01*
X124653312Y-61835705D01*
X124653026Y-61752004D01*
X124653026Y-61438421D01*
X124820131Y-61438421D01*
X124820131Y-61698533D01*
G37*
X124820131Y-61698533D02*
X124821710Y-61821089D01*
X124827481Y-61914179D01*
X124838991Y-61981651D01*
X124857790Y-62027355D01*
X124885426Y-62055139D01*
X124923448Y-62068854D01*
X124970526Y-62072358D01*
X125019832Y-62068432D01*
X125057283Y-62054089D01*
X125084428Y-62025478D01*
X125102815Y-61978751D01*
X125113993Y-61910058D01*
X125119511Y-61815550D01*
X125120921Y-61698533D01*
X125120921Y-61438421D01*
X125304736Y-61438421D01*
X125304736Y-62240526D01*
X125212828Y-62240526D01*
X125157422Y-62238281D01*
X125128891Y-62230396D01*
X125120921Y-62215428D01*
X125116120Y-62202097D01*
X125097014Y-62204917D01*
X125058504Y-62223783D01*
X124970239Y-62252887D01*
X124876623Y-62250825D01*
X124786921Y-62219221D01*
X124744204Y-62194257D01*
X124711621Y-62167226D01*
X124687817Y-62133405D01*
X124671439Y-62088068D01*
X124661131Y-62026489D01*
X124655541Y-61943943D01*
X124653312Y-61835705D01*
X124653026Y-61752004D01*
X124653026Y-61438421D01*
X124820131Y-61438421D01*
X124820131Y-61698533D01*
G36*
X126446576Y-61445419D02*
G01*
X126543395Y-61486549D01*
X126573890Y-61506571D01*
X126612865Y-61537340D01*
X126637331Y-61561533D01*
X126641578Y-61569413D01*
X126629584Y-61586899D01*
X126598887Y-61616570D01*
X126574312Y-61637279D01*
X126507046Y-61691336D01*
X126453930Y-61646642D01*
X126412884Y-61617789D01*
X126372863Y-61607829D01*
X126327059Y-61610261D01*
X126254324Y-61628345D01*
X126204256Y-61665881D01*
X126173829Y-61726562D01*
X126160017Y-61814081D01*
X126160013Y-61814136D01*
X126161208Y-61911958D01*
X126179772Y-61983730D01*
X126216804Y-62032595D01*
X126242050Y-62049143D01*
X126309097Y-62069749D01*
X126380709Y-62069762D01*
X126443015Y-62049768D01*
X126457763Y-62040000D01*
X126494750Y-62015047D01*
X126523668Y-62010958D01*
X126554856Y-62029530D01*
X126589336Y-62062887D01*
X126643912Y-62119196D01*
X126583318Y-62169142D01*
X126489698Y-62225513D01*
X126384125Y-62253293D01*
X126273798Y-62251282D01*
X126201343Y-62232862D01*
X126116656Y-62187310D01*
X126048927Y-62115650D01*
X126018157Y-62065066D01*
X125993236Y-61992488D01*
X125980766Y-61900569D01*
X125980670Y-61800948D01*
X125992870Y-61705267D01*
X126017290Y-61625169D01*
X126021136Y-61616956D01*
X126078093Y-61536413D01*
X126155209Y-61477771D01*
X126246390Y-61442247D01*
X126345543Y-61431057D01*
X126446576Y-61445419D01*
G37*
X126446576Y-61445419D02*
X126543395Y-61486549D01*
X126573890Y-61506571D01*
X126612865Y-61537340D01*
X126637331Y-61561533D01*
X126641578Y-61569413D01*
X126629584Y-61586899D01*
X126598887Y-61616570D01*
X126574312Y-61637279D01*
X126507046Y-61691336D01*
X126453930Y-61646642D01*
X126412884Y-61617789D01*
X126372863Y-61607829D01*
X126327059Y-61610261D01*
X126254324Y-61628345D01*
X126204256Y-61665881D01*
X126173829Y-61726562D01*
X126160017Y-61814081D01*
X126160013Y-61814136D01*
X126161208Y-61911958D01*
X126179772Y-61983730D01*
X126216804Y-62032595D01*
X126242050Y-62049143D01*
X126309097Y-62069749D01*
X126380709Y-62069762D01*
X126443015Y-62049768D01*
X126457763Y-62040000D01*
X126494750Y-62015047D01*
X126523668Y-62010958D01*
X126554856Y-62029530D01*
X126589336Y-62062887D01*
X126643912Y-62119196D01*
X126583318Y-62169142D01*
X126489698Y-62225513D01*
X126384125Y-62253293D01*
X126273798Y-62251282D01*
X126201343Y-62232862D01*
X126116656Y-62187310D01*
X126048927Y-62115650D01*
X126018157Y-62065066D01*
X125993236Y-61992488D01*
X125980766Y-61900569D01*
X125980670Y-61800948D01*
X125992870Y-61705267D01*
X126017290Y-61625169D01*
X126021136Y-61616956D01*
X126078093Y-61536413D01*
X126155209Y-61477771D01*
X126246390Y-61442247D01*
X126345543Y-61431057D01*
X126446576Y-61445419D01*
G36*
X127058784Y-61435554D02*
G01*
X127101574Y-61445949D01*
X127183609Y-61484013D01*
X127253757Y-61542149D01*
X127302305Y-61611852D01*
X127308975Y-61627502D01*
X127318124Y-61668496D01*
X127324529Y-61729138D01*
X127326710Y-61790430D01*
X127326710Y-61906316D01*
X127084407Y-61906316D01*
X126984471Y-61906693D01*
X126914069Y-61908987D01*
X126869313Y-61914938D01*
X126846315Y-61926285D01*
X126841189Y-61944771D01*
X126850048Y-61972136D01*
X126865917Y-62004155D01*
X126910184Y-62057592D01*
X126971699Y-62084215D01*
X127046885Y-62083347D01*
X127132053Y-62054371D01*
X127205659Y-62018611D01*
X127266734Y-62066904D01*
X127327810Y-62115197D01*
X127270351Y-62168285D01*
X127193641Y-62218445D01*
X127099302Y-62248688D01*
X126997827Y-62257151D01*
X126899711Y-62241974D01*
X126883881Y-62236824D01*
X126797647Y-62191791D01*
X126733501Y-62124652D01*
X126690091Y-62033405D01*
X126666064Y-61916044D01*
X126665784Y-61913529D01*
X126663633Y-61785627D01*
X126672329Y-61739997D01*
X126842105Y-61739997D01*
X126857697Y-61747013D01*
X126900029Y-61752388D01*
X126962434Y-61755457D01*
X127001981Y-61755921D01*
X127075728Y-61755630D01*
X127121840Y-61753783D01*
X127146100Y-61748912D01*
X127154294Y-61739555D01*
X127152206Y-61724245D01*
X127150455Y-61718322D01*
X127120560Y-61662668D01*
X127073542Y-61617815D01*
X127032049Y-61598105D01*
X126976926Y-61599295D01*
X126921068Y-61623875D01*
X126874212Y-61664570D01*
X126846094Y-61714108D01*
X126842105Y-61739997D01*
X126672329Y-61739997D01*
X126685074Y-61673133D01*
X126727611Y-61578727D01*
X126788747Y-61505088D01*
X126865985Y-61454893D01*
X126956830Y-61430822D01*
X127058784Y-61435554D01*
G37*
X127058784Y-61435554D02*
X127101574Y-61445949D01*
X127183609Y-61484013D01*
X127253757Y-61542149D01*
X127302305Y-61611852D01*
X127308975Y-61627502D01*
X127318124Y-61668496D01*
X127324529Y-61729138D01*
X127326710Y-61790430D01*
X127326710Y-61906316D01*
X127084407Y-61906316D01*
X126984471Y-61906693D01*
X126914069Y-61908987D01*
X126869313Y-61914938D01*
X126846315Y-61926285D01*
X126841189Y-61944771D01*
X126850048Y-61972136D01*
X126865917Y-62004155D01*
X126910184Y-62057592D01*
X126971699Y-62084215D01*
X127046885Y-62083347D01*
X127132053Y-62054371D01*
X127205659Y-62018611D01*
X127266734Y-62066904D01*
X127327810Y-62115197D01*
X127270351Y-62168285D01*
X127193641Y-62218445D01*
X127099302Y-62248688D01*
X126997827Y-62257151D01*
X126899711Y-62241974D01*
X126883881Y-62236824D01*
X126797647Y-62191791D01*
X126733501Y-62124652D01*
X126690091Y-62033405D01*
X126666064Y-61916044D01*
X126665784Y-61913529D01*
X126663633Y-61785627D01*
X126672329Y-61739997D01*
X126842105Y-61739997D01*
X126857697Y-61747013D01*
X126900029Y-61752388D01*
X126962434Y-61755457D01*
X127001981Y-61755921D01*
X127075728Y-61755630D01*
X127121840Y-61753783D01*
X127146100Y-61748912D01*
X127154294Y-61739555D01*
X127152206Y-61724245D01*
X127150455Y-61718322D01*
X127120560Y-61662668D01*
X127073542Y-61617815D01*
X127032049Y-61598105D01*
X126976926Y-61599295D01*
X126921068Y-61623875D01*
X126874212Y-61664570D01*
X126846094Y-61714108D01*
X126842105Y-61739997D01*
X126672329Y-61739997D01*
X126685074Y-61673133D01*
X126727611Y-61578727D01*
X126788747Y-61505088D01*
X126865985Y-61454893D01*
X126956830Y-61430822D01*
X127058784Y-61435554D01*
G36*
X122497957Y-61452226D02*
G01*
X122539546Y-61472090D01*
X122579825Y-61500784D01*
X122610510Y-61533809D01*
X122632861Y-61575931D01*
X122648136Y-61631915D01*
X122657592Y-61706528D01*
X122662487Y-61804535D01*
X122664081Y-61930702D01*
X122664106Y-61943914D01*
X122664473Y-62240526D01*
X122480657Y-62240526D01*
X122480657Y-61967081D01*
X122480527Y-61865777D01*
X122479621Y-61792353D01*
X122477173Y-61741271D01*
X122472414Y-61706990D01*
X122464574Y-61683971D01*
X122452885Y-61666673D01*
X122436602Y-61649581D01*
X122379634Y-61612857D01*
X122317445Y-61606042D01*
X122258199Y-61629261D01*
X122237595Y-61646543D01*
X122222470Y-61662791D01*
X122211610Y-61680191D01*
X122204310Y-61704212D01*
X122199863Y-61740322D01*
X122197564Y-61793988D01*
X122196704Y-61870680D01*
X122196578Y-61964043D01*
X122196578Y-62240526D01*
X122012763Y-62240526D01*
X122012763Y-61438421D01*
X122104671Y-61438421D01*
X122159851Y-61440603D01*
X122188320Y-61448351D01*
X122196575Y-61463468D01*
X122196578Y-61463916D01*
X122200408Y-61478720D01*
X122217301Y-61477040D01*
X122250888Y-61460773D01*
X122327063Y-61436840D01*
X122414200Y-61434178D01*
X122497957Y-61452226D01*
G37*
X122497957Y-61452226D02*
X122539546Y-61472090D01*
X122579825Y-61500784D01*
X122610510Y-61533809D01*
X122632861Y-61575931D01*
X122648136Y-61631915D01*
X122657592Y-61706528D01*
X122662487Y-61804535D01*
X122664081Y-61930702D01*
X122664106Y-61943914D01*
X122664473Y-62240526D01*
X122480657Y-62240526D01*
X122480657Y-61967081D01*
X122480527Y-61865777D01*
X122479621Y-61792353D01*
X122477173Y-61741271D01*
X122472414Y-61706990D01*
X122464574Y-61683971D01*
X122452885Y-61666673D01*
X122436602Y-61649581D01*
X122379634Y-61612857D01*
X122317445Y-61606042D01*
X122258199Y-61629261D01*
X122237595Y-61646543D01*
X122222470Y-61662791D01*
X122211610Y-61680191D01*
X122204310Y-61704212D01*
X122199863Y-61740322D01*
X122197564Y-61793988D01*
X122196704Y-61870680D01*
X122196578Y-61964043D01*
X122196578Y-62240526D01*
X122012763Y-62240526D01*
X122012763Y-61438421D01*
X122104671Y-61438421D01*
X122159851Y-61440603D01*
X122188320Y-61448351D01*
X122196575Y-61463468D01*
X122196578Y-61463916D01*
X122200408Y-61478720D01*
X122217301Y-61477040D01*
X122250888Y-61460773D01*
X122327063Y-61436840D01*
X122414200Y-61434178D01*
X122497957Y-61452226D01*
G36*
X125891388Y-61437645D02*
G01*
X125948865Y-61455206D01*
X125985872Y-61477395D01*
X125997927Y-61494942D01*
X125994609Y-61515742D01*
X125973079Y-61548419D01*
X125954874Y-61571562D01*
X125917344Y-61613402D01*
X125889148Y-61631005D01*
X125865111Y-61629856D01*
X125793808Y-61611710D01*
X125741442Y-61612534D01*
X125698918Y-61633098D01*
X125684642Y-61645134D01*
X125638947Y-61687483D01*
X125638947Y-62240526D01*
X125455131Y-62240526D01*
X125455131Y-61438421D01*
X125547039Y-61438421D01*
X125602219Y-61440603D01*
X125630688Y-61448351D01*
X125638943Y-61463468D01*
X125638947Y-61463916D01*
X125642845Y-61479749D01*
X125660474Y-61477684D01*
X125684901Y-61466261D01*
X125735350Y-61445005D01*
X125776316Y-61432216D01*
X125829028Y-61428938D01*
X125891388Y-61437645D01*
G37*
X125891388Y-61437645D02*
X125948865Y-61455206D01*
X125985872Y-61477395D01*
X125997927Y-61494942D01*
X125994609Y-61515742D01*
X125973079Y-61548419D01*
X125954874Y-61571562D01*
X125917344Y-61613402D01*
X125889148Y-61631005D01*
X125865111Y-61629856D01*
X125793808Y-61611710D01*
X125741442Y-61612534D01*
X125698918Y-61633098D01*
X125684642Y-61645134D01*
X125638947Y-61687483D01*
X125638947Y-62240526D01*
X125455131Y-62240526D01*
X125455131Y-61438421D01*
X125547039Y-61438421D01*
X125602219Y-61440603D01*
X125630688Y-61448351D01*
X125638943Y-61463468D01*
X125638947Y-61463916D01*
X125642845Y-61479749D01*
X125660474Y-61477684D01*
X125684901Y-61466261D01*
X125735350Y-61445005D01*
X125776316Y-61432216D01*
X125829028Y-61428938D01*
X125891388Y-61437645D01*
G36*
X124000964Y-55898576D02*
G01*
X124076513Y-56299322D01*
X124634041Y-56529154D01*
X124968465Y-56301748D01*
X125062122Y-56238431D01*
X125146782Y-56181896D01*
X125218495Y-56134727D01*
X125273311Y-56099502D01*
X125307280Y-56078805D01*
X125316530Y-56074342D01*
X125333195Y-56085820D01*
X125368806Y-56117551D01*
X125419371Y-56165483D01*
X125480900Y-56225562D01*
X125549399Y-56293733D01*
X125620879Y-56365945D01*
X125691347Y-56438142D01*
X125756811Y-56506273D01*
X125813280Y-56566283D01*
X125856763Y-56614119D01*
X125883268Y-56645727D01*
X125889605Y-56656305D01*
X125880486Y-56675806D01*
X125854920Y-56718531D01*
X125815597Y-56780298D01*
X125765203Y-56856931D01*
X125706427Y-56944248D01*
X125672368Y-56994052D01*
X125610289Y-57084993D01*
X125555126Y-57167059D01*
X125509554Y-57236163D01*
X125476250Y-57288222D01*
X125457890Y-57319150D01*
X125455131Y-57325650D01*
X125461385Y-57344121D01*
X125478434Y-57387172D01*
X125503703Y-57448749D01*
X125534622Y-57522799D01*
X125568618Y-57603270D01*
X125603118Y-57684107D01*
X125635551Y-57759258D01*
X125663343Y-57822671D01*
X125683923Y-57868293D01*
X125694719Y-57890069D01*
X125695356Y-57890926D01*
X125712307Y-57895084D01*
X125757451Y-57904361D01*
X125826110Y-57917844D01*
X125913602Y-57934621D01*
X126015250Y-57953781D01*
X126074556Y-57964830D01*
X126183172Y-57985510D01*
X126281277Y-58005189D01*
X126363909Y-58022789D01*
X126426104Y-58037233D01*
X126462899Y-58047446D01*
X126470296Y-58050686D01*
X126477540Y-58072617D01*
X126483385Y-58122147D01*
X126487835Y-58193485D01*
X126490893Y-58280839D01*
X126492565Y-58378417D01*
X126492853Y-58480426D01*
X126491761Y-58581075D01*
X126489294Y-58674572D01*
X126485456Y-58755125D01*
X126480250Y-58816942D01*
X126473681Y-58854230D01*
X126469741Y-58861993D01*
X126446188Y-58871298D01*
X126396282Y-58884600D01*
X126326623Y-58900337D01*
X126243813Y-58916946D01*
X126214905Y-58922319D01*
X126075531Y-58947848D01*
X125965436Y-58968408D01*
X125880982Y-58984815D01*
X125818530Y-58997887D01*
X125774444Y-59008441D01*
X125745085Y-59017294D01*
X125726815Y-59025263D01*
X125715998Y-59033165D01*
X125714485Y-59034727D01*
X125699377Y-59059886D01*
X125676329Y-59108850D01*
X125647644Y-59175621D01*
X125615622Y-59254205D01*
X125582565Y-59338607D01*
X125550773Y-59422830D01*
X125522549Y-59500879D01*
X125500193Y-59566759D01*
X125486007Y-59614473D01*
X125482293Y-59638027D01*
X125482602Y-59638852D01*
X125495189Y-59658104D01*
X125523744Y-59700463D01*
X125565267Y-59761521D01*
X125616756Y-59836868D01*
X125675211Y-59922096D01*
X125691858Y-59946315D01*
X125751215Y-60034123D01*
X125803447Y-60114238D01*
X125845708Y-60182062D01*
X125875153Y-60232993D01*
X125888937Y-60262431D01*
X125889605Y-60266048D01*
X125878024Y-60285057D01*
X125846024Y-60322714D01*
X125797718Y-60374973D01*
X125737220Y-60437786D01*
X125668644Y-60507106D01*
X125596104Y-60578885D01*
X125523712Y-60649077D01*
X125455584Y-60713635D01*
X125395832Y-60768510D01*
X125348571Y-60809656D01*
X125317913Y-60833026D01*
X125309432Y-60836842D01*
X125289691Y-60827855D01*
X125249274Y-60803616D01*
X125194763Y-60768209D01*
X125152823Y-60739711D01*
X125076829Y-60687418D01*
X124986834Y-60625845D01*
X124896564Y-60564370D01*
X124848032Y-60531469D01*
X124683762Y-60420359D01*
X124545869Y-60494916D01*
X124483049Y-60527578D01*
X124429629Y-60552966D01*
X124393484Y-60567446D01*
X124384284Y-60569460D01*
X124373221Y-60554584D01*
X124351394Y-60512547D01*
X124320434Y-60447227D01*
X124281970Y-60362500D01*
X124237632Y-60262245D01*
X124189047Y-60150339D01*
X124137846Y-60030659D01*
X124085659Y-59907084D01*
X124034113Y-59783491D01*
X123984840Y-59663757D01*
X123939467Y-59551759D01*
X123899625Y-59451377D01*
X123866942Y-59366486D01*
X123843049Y-59300965D01*
X123829574Y-59258690D01*
X123827406Y-59244172D01*
X123844583Y-59225653D01*
X123882190Y-59195590D01*
X123932366Y-59160232D01*
X123936578Y-59157434D01*
X124066264Y-59053625D01*
X124170834Y-58932515D01*
X124249381Y-58797976D01*
X124300999Y-58653882D01*
X124324782Y-58504105D01*
X124319823Y-58352517D01*
X124285217Y-58202992D01*
X124220057Y-58059400D01*
X124200886Y-58027984D01*
X124101174Y-57901125D01*
X123983377Y-57799255D01*
X123851571Y-57722904D01*
X123709833Y-57672602D01*
X123562242Y-57648879D01*
X123412873Y-57652265D01*
X123265803Y-57683288D01*
X123125111Y-57742480D01*
X122994873Y-57830369D01*
X122954586Y-57866042D01*
X122852055Y-57977706D01*
X122777341Y-58095257D01*
X122726090Y-58227020D01*
X122697546Y-58357507D01*
X122690500Y-58504216D01*
X122713996Y-58651653D01*
X122765649Y-58794834D01*
X122843071Y-58928777D01*
X122943875Y-59048498D01*
X123065676Y-59149014D01*
X123081684Y-59159609D01*
X123132398Y-59194306D01*
X123170950Y-59224370D01*
X123189381Y-59243565D01*
X123189649Y-59244172D01*
X123185692Y-59264936D01*
X123170007Y-59312062D01*
X123144222Y-59381673D01*
X123109969Y-59469893D01*
X123068877Y-59572844D01*
X123022576Y-59686650D01*
X122972696Y-59807435D01*
X122920867Y-59931321D01*
X122868719Y-60054432D01*
X122817882Y-60172891D01*
X122769987Y-60282823D01*
X122726662Y-60380349D01*
X122689538Y-60461593D01*
X122660244Y-60522679D01*
X122640412Y-60559730D01*
X122632426Y-60569460D01*
X122608021Y-60561883D01*
X122562358Y-60541560D01*
X122503310Y-60512125D01*
X122470840Y-60494916D01*
X122332947Y-60420359D01*
X122168677Y-60531469D01*
X122084821Y-60588390D01*
X121993013Y-60651030D01*
X121906980Y-60710011D01*
X121863887Y-60739711D01*
X121803277Y-60780410D01*
X121751955Y-60812663D01*
X121716615Y-60832384D01*
X121705137Y-60836554D01*
X121688430Y-60825307D01*
X121651454Y-60793911D01*
X121597795Y-60745624D01*
X121531038Y-60683708D01*
X121454766Y-60611421D01*
X121406527Y-60565008D01*
X121322133Y-60482087D01*
X121249197Y-60407920D01*
X121190669Y-60345680D01*
X121149497Y-60298541D01*
X121128628Y-60269673D01*
X121126626Y-60263815D01*
X121135917Y-60241532D01*
X121161591Y-60196477D01*
X121200800Y-60133211D01*
X121250697Y-60056295D01*
X121308433Y-59970292D01*
X121324851Y-59946315D01*
X121384677Y-59859170D01*
X121438350Y-59780710D01*
X121482870Y-59715345D01*
X121515235Y-59667484D01*
X121532445Y-59641535D01*
X121534107Y-59638852D01*
X121531621Y-59618172D01*
X121518423Y-59572704D01*
X121496814Y-59508444D01*
X121469096Y-59431387D01*
X121437570Y-59347529D01*
X121404537Y-59262866D01*
X121372299Y-59183392D01*
X121343157Y-59115104D01*
X121319412Y-59063997D01*
X121303365Y-59036067D01*
X121302225Y-59034727D01*
X121292412Y-59026745D01*
X121275839Y-59018851D01*
X121248868Y-59010229D01*
X121207861Y-59000062D01*
X121149180Y-58987531D01*
X121069187Y-58971821D01*
X120964245Y-58952113D01*
X120830715Y-58927592D01*
X120801804Y-58922319D01*
X120716118Y-58905764D01*
X120641418Y-58889569D01*
X120584306Y-58875296D01*
X120551383Y-58864508D01*
X120546969Y-58861993D01*
X120539694Y-58839696D01*
X120533781Y-58789869D01*
X120529234Y-58718304D01*
X120526055Y-58630793D01*
X120524251Y-58533128D01*
X120523823Y-58431101D01*
X120524777Y-58330503D01*
X120527116Y-58237127D01*
X120530844Y-58156765D01*
X120535966Y-58095209D01*
X120542484Y-58058250D01*
X120546414Y-58050686D01*
X120568292Y-58043056D01*
X120618109Y-58030642D01*
X120690903Y-58014522D01*
X120781711Y-57995773D01*
X120885569Y-57975471D01*
X120942154Y-57964830D01*
X121049514Y-57944760D01*
X121145254Y-57926580D01*
X121224694Y-57911199D01*
X121283154Y-57899531D01*
X121315955Y-57892488D01*
X121321354Y-57890926D01*
X121330478Y-57873322D01*
X121349765Y-57830918D01*
X121376645Y-57769772D01*
X121408546Y-57695943D01*
X121442898Y-57615489D01*
X121477129Y-57534468D01*
X121508669Y-57458937D01*
X121534946Y-57394955D01*
X121553389Y-57348580D01*
X121561429Y-57325869D01*
X121561578Y-57324876D01*
X121552465Y-57306961D01*
X121526914Y-57265733D01*
X121487612Y-57205291D01*
X121437243Y-57129731D01*
X121378494Y-57043152D01*
X121344342Y-56993421D01*
X121282110Y-56902236D01*
X121226836Y-56819449D01*
X121181218Y-56749249D01*
X121147952Y-56695824D01*
X121129736Y-56663361D01*
X121127105Y-56656083D01*
X121138414Y-56639145D01*
X121169681Y-56602978D01*
X121216910Y-56551635D01*
X121276108Y-56489167D01*
X121343281Y-56419626D01*
X121414434Y-56347065D01*
X121485574Y-56275535D01*
X121552707Y-56209087D01*
X121611839Y-56151774D01*
X121658975Y-56107647D01*
X121690123Y-56080759D01*
X121700543Y-56074342D01*
X121717509Y-56083365D01*
X121758089Y-56108715D01*
X121818337Y-56147810D01*
X121894307Y-56198071D01*
X121982054Y-56256917D01*
X122048244Y-56301748D01*
X122382668Y-56529154D01*
X122661433Y-56414238D01*
X122940197Y-56299322D01*
X123015746Y-55898576D01*
X123091294Y-55497829D01*
X123925415Y-55497829D01*
X124000964Y-55898576D01*
G37*
X124000964Y-55898576D02*
X124076513Y-56299322D01*
X124634041Y-56529154D01*
X124968465Y-56301748D01*
X125062122Y-56238431D01*
X125146782Y-56181896D01*
X125218495Y-56134727D01*
X125273311Y-56099502D01*
X125307280Y-56078805D01*
X125316530Y-56074342D01*
X125333195Y-56085820D01*
X125368806Y-56117551D01*
X125419371Y-56165483D01*
X125480900Y-56225562D01*
X125549399Y-56293733D01*
X125620879Y-56365945D01*
X125691347Y-56438142D01*
X125756811Y-56506273D01*
X125813280Y-56566283D01*
X125856763Y-56614119D01*
X125883268Y-56645727D01*
X125889605Y-56656305D01*
X125880486Y-56675806D01*
X125854920Y-56718531D01*
X125815597Y-56780298D01*
X125765203Y-56856931D01*
X125706427Y-56944248D01*
X125672368Y-56994052D01*
X125610289Y-57084993D01*
X125555126Y-57167059D01*
X125509554Y-57236163D01*
X125476250Y-57288222D01*
X125457890Y-57319150D01*
X125455131Y-57325650D01*
X125461385Y-57344121D01*
X125478434Y-57387172D01*
X125503703Y-57448749D01*
X125534622Y-57522799D01*
X125568618Y-57603270D01*
X125603118Y-57684107D01*
X125635551Y-57759258D01*
X125663343Y-57822671D01*
X125683923Y-57868293D01*
X125694719Y-57890069D01*
X125695356Y-57890926D01*
X125712307Y-57895084D01*
X125757451Y-57904361D01*
X125826110Y-57917844D01*
X125913602Y-57934621D01*
X126015250Y-57953781D01*
X126074556Y-57964830D01*
X126183172Y-57985510D01*
X126281277Y-58005189D01*
X126363909Y-58022789D01*
X126426104Y-58037233D01*
X126462899Y-58047446D01*
X126470296Y-58050686D01*
X126477540Y-58072617D01*
X126483385Y-58122147D01*
X126487835Y-58193485D01*
X126490893Y-58280839D01*
X126492565Y-58378417D01*
X126492853Y-58480426D01*
X126491761Y-58581075D01*
X126489294Y-58674572D01*
X126485456Y-58755125D01*
X126480250Y-58816942D01*
X126473681Y-58854230D01*
X126469741Y-58861993D01*
X126446188Y-58871298D01*
X126396282Y-58884600D01*
X126326623Y-58900337D01*
X126243813Y-58916946D01*
X126214905Y-58922319D01*
X126075531Y-58947848D01*
X125965436Y-58968408D01*
X125880982Y-58984815D01*
X125818530Y-58997887D01*
X125774444Y-59008441D01*
X125745085Y-59017294D01*
X125726815Y-59025263D01*
X125715998Y-59033165D01*
X125714485Y-59034727D01*
X125699377Y-59059886D01*
X125676329Y-59108850D01*
X125647644Y-59175621D01*
X125615622Y-59254205D01*
X125582565Y-59338607D01*
X125550773Y-59422830D01*
X125522549Y-59500879D01*
X125500193Y-59566759D01*
X125486007Y-59614473D01*
X125482293Y-59638027D01*
X125482602Y-59638852D01*
X125495189Y-59658104D01*
X125523744Y-59700463D01*
X125565267Y-59761521D01*
X125616756Y-59836868D01*
X125675211Y-59922096D01*
X125691858Y-59946315D01*
X125751215Y-60034123D01*
X125803447Y-60114238D01*
X125845708Y-60182062D01*
X125875153Y-60232993D01*
X125888937Y-60262431D01*
X125889605Y-60266048D01*
X125878024Y-60285057D01*
X125846024Y-60322714D01*
X125797718Y-60374973D01*
X125737220Y-60437786D01*
X125668644Y-60507106D01*
X125596104Y-60578885D01*
X125523712Y-60649077D01*
X125455584Y-60713635D01*
X125395832Y-60768510D01*
X125348571Y-60809656D01*
X125317913Y-60833026D01*
X125309432Y-60836842D01*
X125289691Y-60827855D01*
X125249274Y-60803616D01*
X125194763Y-60768209D01*
X125152823Y-60739711D01*
X125076829Y-60687418D01*
X124986834Y-60625845D01*
X124896564Y-60564370D01*
X124848032Y-60531469D01*
X124683762Y-60420359D01*
X124545869Y-60494916D01*
X124483049Y-60527578D01*
X124429629Y-60552966D01*
X124393484Y-60567446D01*
X124384284Y-60569460D01*
X124373221Y-60554584D01*
X124351394Y-60512547D01*
X124320434Y-60447227D01*
X124281970Y-60362500D01*
X124237632Y-60262245D01*
X124189047Y-60150339D01*
X124137846Y-60030659D01*
X124085659Y-59907084D01*
X124034113Y-59783491D01*
X123984840Y-59663757D01*
X123939467Y-59551759D01*
X123899625Y-59451377D01*
X123866942Y-59366486D01*
X123843049Y-59300965D01*
X123829574Y-59258690D01*
X123827406Y-59244172D01*
X123844583Y-59225653D01*
X123882190Y-59195590D01*
X123932366Y-59160232D01*
X123936578Y-59157434D01*
X124066264Y-59053625D01*
X124170834Y-58932515D01*
X124249381Y-58797976D01*
X124300999Y-58653882D01*
X124324782Y-58504105D01*
X124319823Y-58352517D01*
X124285217Y-58202992D01*
X124220057Y-58059400D01*
X124200886Y-58027984D01*
X124101174Y-57901125D01*
X123983377Y-57799255D01*
X123851571Y-57722904D01*
X123709833Y-57672602D01*
X123562242Y-57648879D01*
X123412873Y-57652265D01*
X123265803Y-57683288D01*
X123125111Y-57742480D01*
X122994873Y-57830369D01*
X122954586Y-57866042D01*
X122852055Y-57977706D01*
X122777341Y-58095257D01*
X122726090Y-58227020D01*
X122697546Y-58357507D01*
X122690500Y-58504216D01*
X122713996Y-58651653D01*
X122765649Y-58794834D01*
X122843071Y-58928777D01*
X122943875Y-59048498D01*
X123065676Y-59149014D01*
X123081684Y-59159609D01*
X123132398Y-59194306D01*
X123170950Y-59224370D01*
X123189381Y-59243565D01*
X123189649Y-59244172D01*
X123185692Y-59264936D01*
X123170007Y-59312062D01*
X123144222Y-59381673D01*
X123109969Y-59469893D01*
X123068877Y-59572844D01*
X123022576Y-59686650D01*
X122972696Y-59807435D01*
X122920867Y-59931321D01*
X122868719Y-60054432D01*
X122817882Y-60172891D01*
X122769987Y-60282823D01*
X122726662Y-60380349D01*
X122689538Y-60461593D01*
X122660244Y-60522679D01*
X122640412Y-60559730D01*
X122632426Y-60569460D01*
X122608021Y-60561883D01*
X122562358Y-60541560D01*
X122503310Y-60512125D01*
X122470840Y-60494916D01*
X122332947Y-60420359D01*
X122168677Y-60531469D01*
X122084821Y-60588390D01*
X121993013Y-60651030D01*
X121906980Y-60710011D01*
X121863887Y-60739711D01*
X121803277Y-60780410D01*
X121751955Y-60812663D01*
X121716615Y-60832384D01*
X121705137Y-60836554D01*
X121688430Y-60825307D01*
X121651454Y-60793911D01*
X121597795Y-60745624D01*
X121531038Y-60683708D01*
X121454766Y-60611421D01*
X121406527Y-60565008D01*
X121322133Y-60482087D01*
X121249197Y-60407920D01*
X121190669Y-60345680D01*
X121149497Y-60298541D01*
X121128628Y-60269673D01*
X121126626Y-60263815D01*
X121135917Y-60241532D01*
X121161591Y-60196477D01*
X121200800Y-60133211D01*
X121250697Y-60056295D01*
X121308433Y-59970292D01*
X121324851Y-59946315D01*
X121384677Y-59859170D01*
X121438350Y-59780710D01*
X121482870Y-59715345D01*
X121515235Y-59667484D01*
X121532445Y-59641535D01*
X121534107Y-59638852D01*
X121531621Y-59618172D01*
X121518423Y-59572704D01*
X121496814Y-59508444D01*
X121469096Y-59431387D01*
X121437570Y-59347529D01*
X121404537Y-59262866D01*
X121372299Y-59183392D01*
X121343157Y-59115104D01*
X121319412Y-59063997D01*
X121303365Y-59036067D01*
X121302225Y-59034727D01*
X121292412Y-59026745D01*
X121275839Y-59018851D01*
X121248868Y-59010229D01*
X121207861Y-59000062D01*
X121149180Y-58987531D01*
X121069187Y-58971821D01*
X120964245Y-58952113D01*
X120830715Y-58927592D01*
X120801804Y-58922319D01*
X120716118Y-58905764D01*
X120641418Y-58889569D01*
X120584306Y-58875296D01*
X120551383Y-58864508D01*
X120546969Y-58861993D01*
X120539694Y-58839696D01*
X120533781Y-58789869D01*
X120529234Y-58718304D01*
X120526055Y-58630793D01*
X120524251Y-58533128D01*
X120523823Y-58431101D01*
X120524777Y-58330503D01*
X120527116Y-58237127D01*
X120530844Y-58156765D01*
X120535966Y-58095209D01*
X120542484Y-58058250D01*
X120546414Y-58050686D01*
X120568292Y-58043056D01*
X120618109Y-58030642D01*
X120690903Y-58014522D01*
X120781711Y-57995773D01*
X120885569Y-57975471D01*
X120942154Y-57964830D01*
X121049514Y-57944760D01*
X121145254Y-57926580D01*
X121224694Y-57911199D01*
X121283154Y-57899531D01*
X121315955Y-57892488D01*
X121321354Y-57890926D01*
X121330478Y-57873322D01*
X121349765Y-57830918D01*
X121376645Y-57769772D01*
X121408546Y-57695943D01*
X121442898Y-57615489D01*
X121477129Y-57534468D01*
X121508669Y-57458937D01*
X121534946Y-57394955D01*
X121553389Y-57348580D01*
X121561429Y-57325869D01*
X121561578Y-57324876D01*
X121552465Y-57306961D01*
X121526914Y-57265733D01*
X121487612Y-57205291D01*
X121437243Y-57129731D01*
X121378494Y-57043152D01*
X121344342Y-56993421D01*
X121282110Y-56902236D01*
X121226836Y-56819449D01*
X121181218Y-56749249D01*
X121147952Y-56695824D01*
X121129736Y-56663361D01*
X121127105Y-56656083D01*
X121138414Y-56639145D01*
X121169681Y-56602978D01*
X121216910Y-56551635D01*
X121276108Y-56489167D01*
X121343281Y-56419626D01*
X121414434Y-56347065D01*
X121485574Y-56275535D01*
X121552707Y-56209087D01*
X121611839Y-56151774D01*
X121658975Y-56107647D01*
X121690123Y-56080759D01*
X121700543Y-56074342D01*
X121717509Y-56083365D01*
X121758089Y-56108715D01*
X121818337Y-56147810D01*
X121894307Y-56198071D01*
X121982054Y-56256917D01*
X122048244Y-56301748D01*
X122382668Y-56529154D01*
X122661433Y-56414238D01*
X122940197Y-56299322D01*
X123015746Y-55898576D01*
X123091294Y-55497829D01*
X123925415Y-55497829D01*
X124000964Y-55898576D01*
D12*
X101890000Y-77261252D02*
X101890000Y-76738748D01*
X104110000Y-77261252D02*
X104110000Y-76738748D01*
X101890000Y-84761252D02*
X101890000Y-84238748D01*
X104110000Y-84761252D02*
X104110000Y-84238748D01*
X122890000Y-84761252D02*
X122890000Y-84238748D01*
X125110000Y-84761252D02*
X125110000Y-84238748D01*
X122890000Y-77261252D02*
X122890000Y-76738748D01*
X125110000Y-77261252D02*
X125110000Y-76738748D01*
X110220000Y-98480000D02*
X110220000Y-114400000D01*
X110220000Y-114400000D02*
X100995000Y-114400000D01*
X100995000Y-114400000D02*
X100995000Y-112495000D01*
X100995000Y-112495000D02*
X99990000Y-112495000D01*
X99990000Y-112495000D02*
X99990000Y-100385000D01*
X99990000Y-100385000D02*
X100995000Y-100385000D01*
X100995000Y-100385000D02*
X100995000Y-98480000D01*
X100995000Y-98480000D02*
X110220000Y-98480000D01*
X107000000Y-98190000D02*
X103000000Y-98190000D01*
X99990000Y-100500000D02*
X100990000Y-100500000D01*
X100990000Y-100500000D02*
X100990000Y-112380000D01*
X100990000Y-112380000D02*
X99990000Y-112380000D01*
X100990000Y-100500000D02*
X102660000Y-100500000D01*
X102660000Y-100500000D02*
X102660000Y-112380000D01*
X102660000Y-112380000D02*
X100990000Y-112380000D01*
X110220000Y-99700000D02*
X109620000Y-99700000D01*
X109620000Y-99700000D02*
X109620000Y-101300000D01*
X109620000Y-101300000D02*
X110220000Y-101300000D01*
X110220000Y-103660000D02*
X109620000Y-103660000D01*
X109620000Y-103660000D02*
X109620000Y-105260000D01*
X109620000Y-105260000D02*
X110220000Y-105260000D01*
X110220000Y-107620000D02*
X109620000Y-107620000D01*
X109620000Y-107620000D02*
X109620000Y-109220000D01*
X109620000Y-109220000D02*
X110220000Y-109220000D01*
X110220000Y-111580000D02*
X109620000Y-111580000D01*
X109620000Y-111580000D02*
X109620000Y-113180000D01*
X109620000Y-113180000D02*
X110220000Y-113180000D01*
X90880000Y-74679000D02*
X97120000Y-74679000D01*
X90880000Y-79321000D02*
X97120000Y-79321000D01*
X90880000Y-74679000D02*
X90880000Y-76075000D01*
X90880000Y-77925000D02*
X90880000Y-79321000D01*
X97120000Y-74679000D02*
X97120000Y-76075000D01*
X97120000Y-77925000D02*
X97120000Y-79321000D01*
X117120000Y-79321000D02*
X110880000Y-79321000D01*
X117120000Y-74679000D02*
X110880000Y-74679000D01*
X117120000Y-79321000D02*
X117120000Y-77925000D01*
X117120000Y-76075000D02*
X117120000Y-74679000D01*
X110880000Y-79321000D02*
X110880000Y-77925000D01*
X110880000Y-76075000D02*
X110880000Y-74679000D01*
D10*
X89928571Y-94404761D02*
X89976190Y-94261904D01*
X90023809Y-94214285D01*
X90119047Y-94166666D01*
X90261904Y-94166666D01*
X90357142Y-94214285D01*
X90404761Y-94261904D01*
X90452380Y-94357142D01*
X90452380Y-94738095D01*
X89452380Y-94738095D01*
X89452380Y-94404761D01*
X89500000Y-94309523D01*
X89547619Y-94261904D01*
X89642857Y-94214285D01*
X89738095Y-94214285D01*
X89833333Y-94261904D01*
X89880952Y-94309523D01*
X89928571Y-94404761D01*
X89928571Y-94738095D01*
X90452380Y-93738095D02*
X89452380Y-93738095D01*
X89452380Y-93357142D01*
X89500000Y-93261904D01*
X89547619Y-93214285D01*
X89642857Y-93166666D01*
X89785714Y-93166666D01*
X89880952Y-93214285D01*
X89928571Y-93261904D01*
X89976190Y-93357142D01*
X89976190Y-93738095D01*
X89785714Y-92309523D02*
X90452380Y-92309523D01*
X89404761Y-92547619D02*
X90119047Y-92785714D01*
X90119047Y-92166666D01*
X123666666Y-116952380D02*
X123666666Y-117666666D01*
X123619047Y-117809523D01*
X123523809Y-117904761D01*
X123380952Y-117952380D01*
X123285714Y-117952380D01*
X124666666Y-117952380D02*
X124095238Y-117952380D01*
X124380952Y-117952380D02*
X124380952Y-116952380D01*
X124285714Y-117095238D01*
X124190476Y-117190476D01*
X124095238Y-117238095D01*
X123095238Y-106928571D02*
X123238095Y-106976190D01*
X123285714Y-107023809D01*
X123333333Y-107119047D01*
X123333333Y-107261904D01*
X123285714Y-107357142D01*
X123238095Y-107404761D01*
X123142857Y-107452380D01*
X122761904Y-107452380D01*
X122761904Y-106452380D01*
X123095238Y-106452380D01*
X123190476Y-106500000D01*
X123238095Y-106547619D01*
X123285714Y-106642857D01*
X123285714Y-106738095D01*
X123238095Y-106833333D01*
X123190476Y-106880952D01*
X123095238Y-106928571D01*
X122761904Y-106928571D01*
X123761904Y-107452380D02*
X123761904Y-106452380D01*
X124142857Y-106452380D01*
X124238095Y-106500000D01*
X124285714Y-106547619D01*
X124333333Y-106642857D01*
X124333333Y-106785714D01*
X124285714Y-106880952D01*
X124238095Y-106928571D01*
X124142857Y-106976190D01*
X123761904Y-106976190D01*
X125238095Y-106452380D02*
X124761904Y-106452380D01*
X124714285Y-106928571D01*
X124761904Y-106880952D01*
X124857142Y-106833333D01*
X125095238Y-106833333D01*
X125190476Y-106880952D01*
X125238095Y-106928571D01*
X125285714Y-107023809D01*
X125285714Y-107261904D01*
X125238095Y-107357142D01*
X125190476Y-107404761D01*
X125095238Y-107452380D01*
X124857142Y-107452380D01*
X124761904Y-107404761D01*
X124714285Y-107357142D01*
X95857142Y-114119047D02*
X95904761Y-114166666D01*
X95952380Y-114309523D01*
X95952380Y-114404761D01*
X95904761Y-114547619D01*
X95809523Y-114642857D01*
X95714285Y-114690476D01*
X95523809Y-114738095D01*
X95380952Y-114738095D01*
X95190476Y-114690476D01*
X95095238Y-114642857D01*
X95000000Y-114547619D01*
X94952380Y-114404761D01*
X94952380Y-114309523D01*
X95000000Y-114166666D01*
X95047619Y-114119047D01*
X94952380Y-113261904D02*
X94952380Y-113452380D01*
X95000000Y-113547619D01*
X95047619Y-113595238D01*
X95190476Y-113690476D01*
X95380952Y-113738095D01*
X95761904Y-113738095D01*
X95857142Y-113690476D01*
X95904761Y-113642857D01*
X95952380Y-113547619D01*
X95952380Y-113357142D01*
X95904761Y-113261904D01*
X95857142Y-113214285D01*
X95761904Y-113166666D01*
X95523809Y-113166666D01*
X95428571Y-113214285D01*
X95380952Y-113261904D01*
X95333333Y-113357142D01*
X95333333Y-113547619D01*
X95380952Y-113642857D01*
X95428571Y-113690476D01*
X95523809Y-113738095D01*
X94952380Y-112547619D02*
X94952380Y-112452380D01*
X95000000Y-112357142D01*
X95047619Y-112309523D01*
X95142857Y-112261904D01*
X95333333Y-112214285D01*
X95571428Y-112214285D01*
X95761904Y-112261904D01*
X95857142Y-112309523D01*
X95904761Y-112357142D01*
X95952380Y-112452380D01*
X95952380Y-112547619D01*
X95904761Y-112642857D01*
X95857142Y-112690476D01*
X95761904Y-112738095D01*
X95571428Y-112785714D01*
X95333333Y-112785714D01*
X95142857Y-112738095D01*
X95047619Y-112690476D01*
X95000000Y-112642857D01*
X94952380Y-112547619D01*
X95380952Y-111642857D02*
X95333333Y-111738095D01*
X95285714Y-111785714D01*
X95190476Y-111833333D01*
X95142857Y-111833333D01*
X95047619Y-111785714D01*
X95000000Y-111738095D01*
X94952380Y-111642857D01*
X94952380Y-111452380D01*
X95000000Y-111357142D01*
X95047619Y-111309523D01*
X95142857Y-111261904D01*
X95190476Y-111261904D01*
X95285714Y-111309523D01*
X95333333Y-111357142D01*
X95380952Y-111452380D01*
X95380952Y-111642857D01*
X95428571Y-111738095D01*
X95476190Y-111785714D01*
X95571428Y-111833333D01*
X95761904Y-111833333D01*
X95857142Y-111785714D01*
X95904761Y-111738095D01*
X95952380Y-111642857D01*
X95952380Y-111452380D01*
X95904761Y-111357142D01*
X95857142Y-111309523D01*
X95761904Y-111261904D01*
X95571428Y-111261904D01*
X95476190Y-111309523D01*
X95428571Y-111357142D01*
X95380952Y-111452380D01*
X125807142Y-102119047D02*
X125854761Y-102166666D01*
X125902380Y-102309523D01*
X125902380Y-102404761D01*
X125854761Y-102547619D01*
X125759523Y-102642857D01*
X125664285Y-102690476D01*
X125473809Y-102738095D01*
X125330952Y-102738095D01*
X125140476Y-102690476D01*
X125045238Y-102642857D01*
X124950000Y-102547619D01*
X124902380Y-102404761D01*
X124902380Y-102309523D01*
X124950000Y-102166666D01*
X124997619Y-102119047D01*
X124902380Y-101261904D02*
X124902380Y-101452380D01*
X124950000Y-101547619D01*
X124997619Y-101595238D01*
X125140476Y-101690476D01*
X125330952Y-101738095D01*
X125711904Y-101738095D01*
X125807142Y-101690476D01*
X125854761Y-101642857D01*
X125902380Y-101547619D01*
X125902380Y-101357142D01*
X125854761Y-101261904D01*
X125807142Y-101214285D01*
X125711904Y-101166666D01*
X125473809Y-101166666D01*
X125378571Y-101214285D01*
X125330952Y-101261904D01*
X125283333Y-101357142D01*
X125283333Y-101547619D01*
X125330952Y-101642857D01*
X125378571Y-101690476D01*
X125473809Y-101738095D01*
X124902380Y-100547619D02*
X124902380Y-100452380D01*
X124950000Y-100357142D01*
X124997619Y-100309523D01*
X125092857Y-100261904D01*
X125283333Y-100214285D01*
X125521428Y-100214285D01*
X125711904Y-100261904D01*
X125807142Y-100309523D01*
X125854761Y-100357142D01*
X125902380Y-100452380D01*
X125902380Y-100547619D01*
X125854761Y-100642857D01*
X125807142Y-100690476D01*
X125711904Y-100738095D01*
X125521428Y-100785714D01*
X125283333Y-100785714D01*
X125092857Y-100738095D01*
X124997619Y-100690476D01*
X124950000Y-100642857D01*
X124902380Y-100547619D01*
X124902380Y-99880952D02*
X124902380Y-99214285D01*
X125902380Y-99642857D01*
X93380952Y-98452380D02*
X92904761Y-98452380D01*
X92904761Y-97452380D01*
X94142857Y-97452380D02*
X93952380Y-97452380D01*
X93857142Y-97500000D01*
X93809523Y-97547619D01*
X93714285Y-97690476D01*
X93666666Y-97880952D01*
X93666666Y-98261904D01*
X93714285Y-98357142D01*
X93761904Y-98404761D01*
X93857142Y-98452380D01*
X94047619Y-98452380D01*
X94142857Y-98404761D01*
X94190476Y-98357142D01*
X94238095Y-98261904D01*
X94238095Y-98023809D01*
X94190476Y-97928571D01*
X94142857Y-97880952D01*
X94047619Y-97833333D01*
X93857142Y-97833333D01*
X93761904Y-97880952D01*
X93714285Y-97928571D01*
X93666666Y-98023809D01*
X94857142Y-97452380D02*
X94952380Y-97452380D01*
X95047619Y-97500000D01*
X95095238Y-97547619D01*
X95142857Y-97642857D01*
X95190476Y-97833333D01*
X95190476Y-98071428D01*
X95142857Y-98261904D01*
X95095238Y-98357142D01*
X95047619Y-98404761D01*
X94952380Y-98452380D01*
X94857142Y-98452380D01*
X94761904Y-98404761D01*
X94714285Y-98357142D01*
X94666666Y-98261904D01*
X94619047Y-98071428D01*
X94619047Y-97833333D01*
X94666666Y-97642857D01*
X94714285Y-97547619D01*
X94761904Y-97500000D01*
X94857142Y-97452380D01*
X96047619Y-97452380D02*
X95857142Y-97452380D01*
X95761904Y-97500000D01*
X95714285Y-97547619D01*
X95619047Y-97690476D01*
X95571428Y-97880952D01*
X95571428Y-98261904D01*
X95619047Y-98357142D01*
X95666666Y-98404761D01*
X95761904Y-98452380D01*
X95952380Y-98452380D01*
X96047619Y-98404761D01*
X96095238Y-98357142D01*
X96142857Y-98261904D01*
X96142857Y-98023809D01*
X96095238Y-97928571D01*
X96047619Y-97880952D01*
X95952380Y-97833333D01*
X95761904Y-97833333D01*
X95666666Y-97880952D01*
X95619047Y-97928571D01*
X95571428Y-98023809D01*
X115952380Y-98619047D02*
X115952380Y-99095238D01*
X114952380Y-99095238D01*
X114952380Y-97857142D02*
X114952380Y-98047619D01*
X115000000Y-98142857D01*
X115047619Y-98190476D01*
X115190476Y-98285714D01*
X115380952Y-98333333D01*
X115761904Y-98333333D01*
X115857142Y-98285714D01*
X115904761Y-98238095D01*
X115952380Y-98142857D01*
X115952380Y-97952380D01*
X115904761Y-97857142D01*
X115857142Y-97809523D01*
X115761904Y-97761904D01*
X115523809Y-97761904D01*
X115428571Y-97809523D01*
X115380952Y-97857142D01*
X115333333Y-97952380D01*
X115333333Y-98142857D01*
X115380952Y-98238095D01*
X115428571Y-98285714D01*
X115523809Y-98333333D01*
X114952380Y-97142857D02*
X114952380Y-97047619D01*
X115000000Y-96952380D01*
X115047619Y-96904761D01*
X115142857Y-96857142D01*
X115333333Y-96809523D01*
X115571428Y-96809523D01*
X115761904Y-96857142D01*
X115857142Y-96904761D01*
X115904761Y-96952380D01*
X115952380Y-97047619D01*
X115952380Y-97142857D01*
X115904761Y-97238095D01*
X115857142Y-97285714D01*
X115761904Y-97333333D01*
X115571428Y-97380952D01*
X115333333Y-97380952D01*
X115142857Y-97333333D01*
X115047619Y-97285714D01*
X115000000Y-97238095D01*
X114952380Y-97142857D01*
X114952380Y-95904761D02*
X114952380Y-96380952D01*
X115428571Y-96428571D01*
X115380952Y-96380952D01*
X115333333Y-96285714D01*
X115333333Y-96047619D01*
X115380952Y-95952380D01*
X115428571Y-95904761D01*
X115523809Y-95857142D01*
X115761904Y-95857142D01*
X115857142Y-95904761D01*
X115904761Y-95952380D01*
X115952380Y-96047619D01*
X115952380Y-96285714D01*
X115904761Y-96380952D01*
X115857142Y-96428571D01*
X121095238Y-91928571D02*
X121238095Y-91976190D01*
X121285714Y-92023809D01*
X121333333Y-92119047D01*
X121333333Y-92261904D01*
X121285714Y-92357142D01*
X121238095Y-92404761D01*
X121142857Y-92452380D01*
X120761904Y-92452380D01*
X120761904Y-91452380D01*
X121095238Y-91452380D01*
X121190476Y-91500000D01*
X121238095Y-91547619D01*
X121285714Y-91642857D01*
X121285714Y-91738095D01*
X121238095Y-91833333D01*
X121190476Y-91880952D01*
X121095238Y-91928571D01*
X120761904Y-91928571D01*
X121761904Y-92452380D02*
X121761904Y-91452380D01*
X122142857Y-91452380D01*
X122238095Y-91500000D01*
X122285714Y-91547619D01*
X122333333Y-91642857D01*
X122333333Y-91785714D01*
X122285714Y-91880952D01*
X122238095Y-91928571D01*
X122142857Y-91976190D01*
X121761904Y-91976190D01*
X122666666Y-91452380D02*
X123285714Y-91452380D01*
X122952380Y-91833333D01*
X123095238Y-91833333D01*
X123190476Y-91880952D01*
X123238095Y-91928571D01*
X123285714Y-92023809D01*
X123285714Y-92261904D01*
X123238095Y-92357142D01*
X123190476Y-92404761D01*
X123095238Y-92452380D01*
X122809523Y-92452380D01*
X122714285Y-92404761D01*
X122666666Y-92357142D01*
X103670238Y-73078571D02*
X103813095Y-73126190D01*
X103860714Y-73173809D01*
X103908333Y-73269047D01*
X103908333Y-73411904D01*
X103860714Y-73507142D01*
X103813095Y-73554761D01*
X103717857Y-73602380D01*
X103336904Y-73602380D01*
X103336904Y-72602380D01*
X103670238Y-72602380D01*
X103765476Y-72650000D01*
X103813095Y-72697619D01*
X103860714Y-72792857D01*
X103860714Y-72888095D01*
X103813095Y-72983333D01*
X103765476Y-73030952D01*
X103670238Y-73078571D01*
X103336904Y-73078571D01*
X104336904Y-73602380D02*
X104336904Y-72602380D01*
X104717857Y-72602380D01*
X104813095Y-72650000D01*
X104860714Y-72697619D01*
X104908333Y-72792857D01*
X104908333Y-72935714D01*
X104860714Y-73030952D01*
X104813095Y-73078571D01*
X104717857Y-73126190D01*
X104336904Y-73126190D01*
X105289285Y-72697619D02*
X105336904Y-72650000D01*
X105432142Y-72602380D01*
X105670238Y-72602380D01*
X105765476Y-72650000D01*
X105813095Y-72697619D01*
X105860714Y-72792857D01*
X105860714Y-72888095D01*
X105813095Y-73030952D01*
X105241666Y-73602380D01*
X105860714Y-73602380D01*
X122720238Y-73078571D02*
X122863095Y-73126190D01*
X122910714Y-73173809D01*
X122958333Y-73269047D01*
X122958333Y-73411904D01*
X122910714Y-73507142D01*
X122863095Y-73554761D01*
X122767857Y-73602380D01*
X122386904Y-73602380D01*
X122386904Y-72602380D01*
X122720238Y-72602380D01*
X122815476Y-72650000D01*
X122863095Y-72697619D01*
X122910714Y-72792857D01*
X122910714Y-72888095D01*
X122863095Y-72983333D01*
X122815476Y-73030952D01*
X122720238Y-73078571D01*
X122386904Y-73078571D01*
X123386904Y-73602380D02*
X123386904Y-72602380D01*
X123767857Y-72602380D01*
X123863095Y-72650000D01*
X123910714Y-72697619D01*
X123958333Y-72792857D01*
X123958333Y-72935714D01*
X123910714Y-73030952D01*
X123863095Y-73078571D01*
X123767857Y-73126190D01*
X123386904Y-73126190D01*
X124910714Y-73602380D02*
X124339285Y-73602380D01*
X124625000Y-73602380D02*
X124625000Y-72602380D01*
X124529761Y-72745238D01*
X124434523Y-72840476D01*
X124339285Y-72888095D01*
D11*
X118973809Y-53366666D02*
X120021428Y-53366666D01*
X118764285Y-53995238D02*
X119497619Y-51795238D01*
X120230952Y-53995238D01*
X120964285Y-53995238D02*
X120964285Y-51795238D01*
X121802380Y-51795238D01*
X122011904Y-51900000D01*
X122116666Y-52004761D01*
X122221428Y-52214285D01*
X122221428Y-52528571D01*
X122116666Y-52738095D01*
X122011904Y-52842857D01*
X121802380Y-52947619D01*
X120964285Y-52947619D01*
X124630952Y-54204761D02*
X124421428Y-54100000D01*
X124211904Y-53890476D01*
X123897619Y-53576190D01*
X123688095Y-53471428D01*
X123478571Y-53471428D01*
X123583333Y-53995238D02*
X123373809Y-53890476D01*
X123164285Y-53680952D01*
X123059523Y-53261904D01*
X123059523Y-52528571D01*
X123164285Y-52109523D01*
X123373809Y-51900000D01*
X123583333Y-51795238D01*
X124002380Y-51795238D01*
X124211904Y-51900000D01*
X124421428Y-52109523D01*
X124526190Y-52528571D01*
X124526190Y-53261904D01*
X124421428Y-53680952D01*
X124211904Y-53890476D01*
X124002380Y-53995238D01*
X123583333Y-53995238D01*
D10*
X105952380Y-78119047D02*
X105952380Y-78595238D01*
X104952380Y-78595238D01*
X104952380Y-77357142D02*
X104952380Y-77547619D01*
X105000000Y-77642857D01*
X105047619Y-77690476D01*
X105190476Y-77785714D01*
X105380952Y-77833333D01*
X105761904Y-77833333D01*
X105857142Y-77785714D01*
X105904761Y-77738095D01*
X105952380Y-77642857D01*
X105952380Y-77452380D01*
X105904761Y-77357142D01*
X105857142Y-77309523D01*
X105761904Y-77261904D01*
X105523809Y-77261904D01*
X105428571Y-77309523D01*
X105380952Y-77357142D01*
X105333333Y-77452380D01*
X105333333Y-77642857D01*
X105380952Y-77738095D01*
X105428571Y-77785714D01*
X105523809Y-77833333D01*
X104952380Y-76642857D02*
X104952380Y-76547619D01*
X105000000Y-76452380D01*
X105047619Y-76404761D01*
X105142857Y-76357142D01*
X105333333Y-76309523D01*
X105571428Y-76309523D01*
X105761904Y-76357142D01*
X105857142Y-76404761D01*
X105904761Y-76452380D01*
X105952380Y-76547619D01*
X105952380Y-76642857D01*
X105904761Y-76738095D01*
X105857142Y-76785714D01*
X105761904Y-76833333D01*
X105571428Y-76880952D01*
X105333333Y-76880952D01*
X105142857Y-76833333D01*
X105047619Y-76785714D01*
X105000000Y-76738095D01*
X104952380Y-76642857D01*
X105285714Y-75452380D02*
X105952380Y-75452380D01*
X104904761Y-75690476D02*
X105619047Y-75928571D01*
X105619047Y-75309523D01*
X105952380Y-85619047D02*
X105952380Y-86095238D01*
X104952380Y-86095238D01*
X104952380Y-84857142D02*
X104952380Y-85047619D01*
X105000000Y-85142857D01*
X105047619Y-85190476D01*
X105190476Y-85285714D01*
X105380952Y-85333333D01*
X105761904Y-85333333D01*
X105857142Y-85285714D01*
X105904761Y-85238095D01*
X105952380Y-85142857D01*
X105952380Y-84952380D01*
X105904761Y-84857142D01*
X105857142Y-84809523D01*
X105761904Y-84761904D01*
X105523809Y-84761904D01*
X105428571Y-84809523D01*
X105380952Y-84857142D01*
X105333333Y-84952380D01*
X105333333Y-85142857D01*
X105380952Y-85238095D01*
X105428571Y-85285714D01*
X105523809Y-85333333D01*
X104952380Y-84142857D02*
X104952380Y-84047619D01*
X105000000Y-83952380D01*
X105047619Y-83904761D01*
X105142857Y-83857142D01*
X105333333Y-83809523D01*
X105571428Y-83809523D01*
X105761904Y-83857142D01*
X105857142Y-83904761D01*
X105904761Y-83952380D01*
X105952380Y-84047619D01*
X105952380Y-84142857D01*
X105904761Y-84238095D01*
X105857142Y-84285714D01*
X105761904Y-84333333D01*
X105571428Y-84380952D01*
X105333333Y-84380952D01*
X105142857Y-84333333D01*
X105047619Y-84285714D01*
X105000000Y-84238095D01*
X104952380Y-84142857D01*
X104952380Y-83476190D02*
X104952380Y-82857142D01*
X105333333Y-83190476D01*
X105333333Y-83047619D01*
X105380952Y-82952380D01*
X105428571Y-82904761D01*
X105523809Y-82857142D01*
X105761904Y-82857142D01*
X105857142Y-82904761D01*
X105904761Y-82952380D01*
X105952380Y-83047619D01*
X105952380Y-83333333D01*
X105904761Y-83428571D01*
X105857142Y-83476190D01*
X126952380Y-85619047D02*
X126952380Y-86095238D01*
X125952380Y-86095238D01*
X125952380Y-84857142D02*
X125952380Y-85047619D01*
X126000000Y-85142857D01*
X126047619Y-85190476D01*
X126190476Y-85285714D01*
X126380952Y-85333333D01*
X126761904Y-85333333D01*
X126857142Y-85285714D01*
X126904761Y-85238095D01*
X126952380Y-85142857D01*
X126952380Y-84952380D01*
X126904761Y-84857142D01*
X126857142Y-84809523D01*
X126761904Y-84761904D01*
X126523809Y-84761904D01*
X126428571Y-84809523D01*
X126380952Y-84857142D01*
X126333333Y-84952380D01*
X126333333Y-85142857D01*
X126380952Y-85238095D01*
X126428571Y-85285714D01*
X126523809Y-85333333D01*
X125952380Y-84142857D02*
X125952380Y-84047619D01*
X126000000Y-83952380D01*
X126047619Y-83904761D01*
X126142857Y-83857142D01*
X126333333Y-83809523D01*
X126571428Y-83809523D01*
X126761904Y-83857142D01*
X126857142Y-83904761D01*
X126904761Y-83952380D01*
X126952380Y-84047619D01*
X126952380Y-84142857D01*
X126904761Y-84238095D01*
X126857142Y-84285714D01*
X126761904Y-84333333D01*
X126571428Y-84380952D01*
X126333333Y-84380952D01*
X126142857Y-84333333D01*
X126047619Y-84285714D01*
X126000000Y-84238095D01*
X125952380Y-84142857D01*
X126047619Y-83428571D02*
X126000000Y-83380952D01*
X125952380Y-83285714D01*
X125952380Y-83047619D01*
X126000000Y-82952380D01*
X126047619Y-82904761D01*
X126142857Y-82857142D01*
X126238095Y-82857142D01*
X126380952Y-82904761D01*
X126952380Y-83476190D01*
X126952380Y-82857142D01*
X126952380Y-78119047D02*
X126952380Y-78595238D01*
X125952380Y-78595238D01*
X125952380Y-77357142D02*
X125952380Y-77547619D01*
X126000000Y-77642857D01*
X126047619Y-77690476D01*
X126190476Y-77785714D01*
X126380952Y-77833333D01*
X126761904Y-77833333D01*
X126857142Y-77785714D01*
X126904761Y-77738095D01*
X126952380Y-77642857D01*
X126952380Y-77452380D01*
X126904761Y-77357142D01*
X126857142Y-77309523D01*
X126761904Y-77261904D01*
X126523809Y-77261904D01*
X126428571Y-77309523D01*
X126380952Y-77357142D01*
X126333333Y-77452380D01*
X126333333Y-77642857D01*
X126380952Y-77738095D01*
X126428571Y-77785714D01*
X126523809Y-77833333D01*
X125952380Y-76642857D02*
X125952380Y-76547619D01*
X126000000Y-76452380D01*
X126047619Y-76404761D01*
X126142857Y-76357142D01*
X126333333Y-76309523D01*
X126571428Y-76309523D01*
X126761904Y-76357142D01*
X126857142Y-76404761D01*
X126904761Y-76452380D01*
X126952380Y-76547619D01*
X126952380Y-76642857D01*
X126904761Y-76738095D01*
X126857142Y-76785714D01*
X126761904Y-76833333D01*
X126571428Y-76880952D01*
X126333333Y-76880952D01*
X126142857Y-76833333D01*
X126047619Y-76785714D01*
X126000000Y-76738095D01*
X125952380Y-76642857D01*
X126952380Y-75357142D02*
X126952380Y-75928571D01*
X126952380Y-75642857D02*
X125952380Y-75642857D01*
X126095238Y-75738095D01*
X126190476Y-75833333D01*
X126238095Y-75928571D01*
X103714285Y-95952380D02*
X103714285Y-96666666D01*
X103666666Y-96809523D01*
X103571428Y-96904761D01*
X103428571Y-96952380D01*
X103333333Y-96952380D01*
X104619047Y-95952380D02*
X104428571Y-95952380D01*
X104333333Y-96000000D01*
X104285714Y-96047619D01*
X104190476Y-96190476D01*
X104142857Y-96380952D01*
X104142857Y-96761904D01*
X104190476Y-96857142D01*
X104238095Y-96904761D01*
X104333333Y-96952380D01*
X104523809Y-96952380D01*
X104619047Y-96904761D01*
X104666666Y-96857142D01*
X104714285Y-96761904D01*
X104714285Y-96523809D01*
X104666666Y-96428571D01*
X104619047Y-96380952D01*
X104523809Y-96333333D01*
X104333333Y-96333333D01*
X104238095Y-96380952D01*
X104190476Y-96428571D01*
X104142857Y-96523809D01*
X105666666Y-96952380D02*
X105095238Y-96952380D01*
X105380952Y-96952380D02*
X105380952Y-95952380D01*
X105285714Y-96095238D01*
X105190476Y-96190476D01*
X105095238Y-96238095D01*
X106571428Y-95952380D02*
X106095238Y-95952380D01*
X106047619Y-96428571D01*
X106095238Y-96380952D01*
X106190476Y-96333333D01*
X106428571Y-96333333D01*
X106523809Y-96380952D01*
X106571428Y-96428571D01*
X106619047Y-96523809D01*
X106619047Y-96761904D01*
X106571428Y-96857142D01*
X106523809Y-96904761D01*
X106428571Y-96952380D01*
X106190476Y-96952380D01*
X106095238Y-96904761D01*
X106047619Y-96857142D01*
X92880952Y-80857142D02*
X92833333Y-80904761D01*
X92690476Y-80952380D01*
X92595238Y-80952380D01*
X92452380Y-80904761D01*
X92357142Y-80809523D01*
X92309523Y-80714285D01*
X92261904Y-80523809D01*
X92261904Y-80380952D01*
X92309523Y-80190476D01*
X92357142Y-80095238D01*
X92452380Y-80000000D01*
X92595238Y-79952380D01*
X92690476Y-79952380D01*
X92833333Y-80000000D01*
X92880952Y-80047619D01*
X93738095Y-79952380D02*
X93547619Y-79952380D01*
X93452380Y-80000000D01*
X93404761Y-80047619D01*
X93309523Y-80190476D01*
X93261904Y-80380952D01*
X93261904Y-80761904D01*
X93309523Y-80857142D01*
X93357142Y-80904761D01*
X93452380Y-80952380D01*
X93642857Y-80952380D01*
X93738095Y-80904761D01*
X93785714Y-80857142D01*
X93833333Y-80761904D01*
X93833333Y-80523809D01*
X93785714Y-80428571D01*
X93738095Y-80380952D01*
X93642857Y-80333333D01*
X93452380Y-80333333D01*
X93357142Y-80380952D01*
X93309523Y-80428571D01*
X93261904Y-80523809D01*
X94452380Y-79952380D02*
X94547619Y-79952380D01*
X94642857Y-80000000D01*
X94690476Y-80047619D01*
X94738095Y-80142857D01*
X94785714Y-80333333D01*
X94785714Y-80571428D01*
X94738095Y-80761904D01*
X94690476Y-80857142D01*
X94642857Y-80904761D01*
X94547619Y-80952380D01*
X94452380Y-80952380D01*
X94357142Y-80904761D01*
X94309523Y-80857142D01*
X94261904Y-80761904D01*
X94214285Y-80571428D01*
X94214285Y-80333333D01*
X94261904Y-80142857D01*
X94309523Y-80047619D01*
X94357142Y-80000000D01*
X94452380Y-79952380D01*
X95642857Y-79952380D02*
X95452380Y-79952380D01*
X95357142Y-80000000D01*
X95309523Y-80047619D01*
X95214285Y-80190476D01*
X95166666Y-80380952D01*
X95166666Y-80761904D01*
X95214285Y-80857142D01*
X95261904Y-80904761D01*
X95357142Y-80952380D01*
X95547619Y-80952380D01*
X95642857Y-80904761D01*
X95690476Y-80857142D01*
X95738095Y-80761904D01*
X95738095Y-80523809D01*
X95690476Y-80428571D01*
X95642857Y-80380952D01*
X95547619Y-80333333D01*
X95357142Y-80333333D01*
X95261904Y-80380952D01*
X95214285Y-80428571D01*
X95166666Y-80523809D01*
X112880952Y-80857142D02*
X112833333Y-80904761D01*
X112690476Y-80952380D01*
X112595238Y-80952380D01*
X112452380Y-80904761D01*
X112357142Y-80809523D01*
X112309523Y-80714285D01*
X112261904Y-80523809D01*
X112261904Y-80380952D01*
X112309523Y-80190476D01*
X112357142Y-80095238D01*
X112452380Y-80000000D01*
X112595238Y-79952380D01*
X112690476Y-79952380D01*
X112833333Y-80000000D01*
X112880952Y-80047619D01*
X113738095Y-79952380D02*
X113547619Y-79952380D01*
X113452380Y-80000000D01*
X113404761Y-80047619D01*
X113309523Y-80190476D01*
X113261904Y-80380952D01*
X113261904Y-80761904D01*
X113309523Y-80857142D01*
X113357142Y-80904761D01*
X113452380Y-80952380D01*
X113642857Y-80952380D01*
X113738095Y-80904761D01*
X113785714Y-80857142D01*
X113833333Y-80761904D01*
X113833333Y-80523809D01*
X113785714Y-80428571D01*
X113738095Y-80380952D01*
X113642857Y-80333333D01*
X113452380Y-80333333D01*
X113357142Y-80380952D01*
X113309523Y-80428571D01*
X113261904Y-80523809D01*
X114452380Y-79952380D02*
X114547619Y-79952380D01*
X114642857Y-80000000D01*
X114690476Y-80047619D01*
X114738095Y-80142857D01*
X114785714Y-80333333D01*
X114785714Y-80571428D01*
X114738095Y-80761904D01*
X114690476Y-80857142D01*
X114642857Y-80904761D01*
X114547619Y-80952380D01*
X114452380Y-80952380D01*
X114357142Y-80904761D01*
X114309523Y-80857142D01*
X114261904Y-80761904D01*
X114214285Y-80571428D01*
X114214285Y-80333333D01*
X114261904Y-80142857D01*
X114309523Y-80047619D01*
X114357142Y-80000000D01*
X114452380Y-79952380D01*
X115690476Y-79952380D02*
X115214285Y-79952380D01*
X115166666Y-80428571D01*
X115214285Y-80380952D01*
X115309523Y-80333333D01*
X115547619Y-80333333D01*
X115642857Y-80380952D01*
X115690476Y-80428571D01*
X115738095Y-80523809D01*
X115738095Y-80761904D01*
X115690476Y-80857142D01*
X115642857Y-80904761D01*
X115547619Y-80952380D01*
X115309523Y-80952380D01*
X115214285Y-80904761D01*
X115166666Y-80857142D01*
M02*
