G04 #@! TF.GenerationSoftware,KiCad,Pcbnew,5.1.7*
G04 #@! TF.CreationDate,2020-10-23T23:02:46+02:00*
G04 #@! TF.ProjectId,main,6d61696e-2e6b-4696-9361-645f70636258,v1.10*
G04 #@! TF.SameCoordinates,Original*
G04 #@! TF.FileFunction,Copper,L2,Bot*
G04 #@! TF.FilePolarity,Positive*
%FSLAX46Y46*%
G04 Gerber Fmt 4.6, Leading zero omitted, Abs format (unit mm)*
G04 Created by KiCad (PCBNEW 5.1.7) date 2020-10-23 23:02:46*
%MOMM*%
%LPD*%
G01*
G04 APERTURE LIST*
G04 #@! TA.AperFunction,ComponentPad*
%ADD10C,2.000000*%
G04 #@! TD*
G04 #@! TA.AperFunction,ComponentPad*
%ADD11C,1.600000*%
G04 #@! TD*
G04 #@! TA.AperFunction,ComponentPad*
%ADD12O,4.100000X3.160000*%
G04 #@! TD*
G04 #@! TA.AperFunction,ViaPad*
%ADD13C,0.600000*%
G04 #@! TD*
G04 #@! TA.AperFunction,Conductor*
%ADD14C,0.500000*%
G04 #@! TD*
G04 #@! TA.AperFunction,Conductor*
%ADD15C,0.250000*%
G04 #@! TD*
G04 #@! TA.AperFunction,Conductor*
%ADD16C,0.100000*%
G04 #@! TD*
G04 APERTURE END LIST*
D10*
X121000000Y-117500000D03*
D11*
X95500000Y-104500000D03*
X95500000Y-109500000D03*
X122000000Y-103500000D03*
X122000000Y-98500000D03*
D10*
X99000000Y-81500000D03*
X89000000Y-81500000D03*
X109000000Y-81500000D03*
X119000000Y-81500000D03*
D12*
X105000000Y-112380000D03*
X105000000Y-108420000D03*
X105000000Y-104460000D03*
G04 #@! TA.AperFunction,ComponentPad*
G36*
G01*
X103200000Y-98920000D02*
X106800000Y-98920000D01*
G75*
G02*
X107050000Y-99170000I0J-250000D01*
G01*
X107050000Y-101830000D01*
G75*
G02*
X106800000Y-102080000I-250000J0D01*
G01*
X103200000Y-102080000D01*
G75*
G02*
X102950000Y-101830000I0J250000D01*
G01*
X102950000Y-99170000D01*
G75*
G02*
X103200000Y-98920000I250000J0D01*
G01*
G37*
G04 #@! TD.AperFunction*
D11*
X96500000Y-77000000D03*
X91500000Y-77000000D03*
X111500000Y-77000000D03*
X116500000Y-77000000D03*
D13*
X129000000Y-114000000D03*
X127000000Y-114000000D03*
X125000000Y-114000000D03*
X123000000Y-114000000D03*
X121000000Y-114000000D03*
X127000000Y-112000000D03*
X121000000Y-112000000D03*
X123000000Y-112000000D03*
X129000000Y-112000000D03*
X125000000Y-112000000D03*
X127000000Y-110000000D03*
X129000000Y-110000000D03*
X121000000Y-110000000D03*
X125000000Y-108000000D03*
X123000000Y-108000000D03*
X121000000Y-108000000D03*
X127000000Y-108000000D03*
X129000000Y-108000000D03*
X127000000Y-106000000D03*
X121000000Y-106000000D03*
X129000000Y-106000000D03*
X125000000Y-106000000D03*
X123000000Y-106000000D03*
D14*
X108580000Y-108420000D02*
X116000000Y-101000000D01*
X119500000Y-101000000D02*
X122000000Y-98500000D01*
X116000000Y-101000000D02*
X119500000Y-101000000D01*
X108580000Y-108420000D02*
X105000000Y-108420000D01*
X99500000Y-100500000D02*
X95500000Y-104500000D01*
X99500000Y-100500000D02*
X105000000Y-100500000D01*
D15*
X129675000Y-122675000D02*
X85325000Y-122675000D01*
X85325000Y-118636391D01*
X120393939Y-118636391D01*
X120521751Y-118796241D01*
X120783825Y-118864635D01*
X121054205Y-118880588D01*
X121322504Y-118843485D01*
X121478249Y-118796241D01*
X121606061Y-118636391D01*
X121000000Y-118030330D01*
X120393939Y-118636391D01*
X85325000Y-118636391D01*
X85325000Y-117554205D01*
X119619412Y-117554205D01*
X119656515Y-117822504D01*
X119703759Y-117978249D01*
X119863609Y-118106061D01*
X120469670Y-117500000D01*
X121530330Y-117500000D01*
X122136391Y-118106061D01*
X122296241Y-117978249D01*
X122364635Y-117716175D01*
X122380588Y-117445795D01*
X122343485Y-117177496D01*
X122296241Y-117021751D01*
X122136391Y-116893939D01*
X121530330Y-117500000D01*
X120469670Y-117500000D01*
X119863609Y-116893939D01*
X119703759Y-117021751D01*
X119635365Y-117283825D01*
X119619412Y-117554205D01*
X85325000Y-117554205D01*
X85325000Y-116363609D01*
X120393939Y-116363609D01*
X121000000Y-116969670D01*
X121606061Y-116363609D01*
X121478249Y-116203759D01*
X121216175Y-116135365D01*
X120945795Y-116119412D01*
X120677496Y-116156515D01*
X120521751Y-116203759D01*
X120393939Y-116363609D01*
X85325000Y-116363609D01*
X85325000Y-112380000D01*
X102666025Y-112380000D01*
X102701841Y-112743643D01*
X102807912Y-113093312D01*
X102980161Y-113415569D01*
X103211971Y-113698029D01*
X103494431Y-113929839D01*
X103816688Y-114102088D01*
X104166357Y-114208159D01*
X104438876Y-114235000D01*
X105561124Y-114235000D01*
X105833643Y-114208159D01*
X106183312Y-114102088D01*
X106505569Y-113929839D01*
X106788029Y-113698029D01*
X107019839Y-113415569D01*
X107192088Y-113093312D01*
X107298159Y-112743643D01*
X107333975Y-112380000D01*
X107298159Y-112016357D01*
X107192088Y-111666688D01*
X107019839Y-111344431D01*
X106788029Y-111061971D01*
X106505569Y-110830161D01*
X106183312Y-110657912D01*
X105833643Y-110551841D01*
X105561124Y-110525000D01*
X104438876Y-110525000D01*
X104166357Y-110551841D01*
X103816688Y-110657912D01*
X103494431Y-110830161D01*
X103211971Y-111061971D01*
X102980161Y-111344431D01*
X102807912Y-111666688D01*
X102701841Y-112016357D01*
X102666025Y-112380000D01*
X85325000Y-112380000D01*
X85325000Y-110486553D01*
X95043777Y-110486553D01*
X95145326Y-110626155D01*
X95371843Y-110673710D01*
X95603284Y-110676159D01*
X95830757Y-110633409D01*
X95854674Y-110626155D01*
X95956223Y-110486553D01*
X95500000Y-110030330D01*
X95043777Y-110486553D01*
X85325000Y-110486553D01*
X85325000Y-109603284D01*
X94323841Y-109603284D01*
X94366591Y-109830757D01*
X94373845Y-109854674D01*
X94513447Y-109956223D01*
X94969670Y-109500000D01*
X96030330Y-109500000D01*
X96486553Y-109956223D01*
X96626155Y-109854674D01*
X96673710Y-109628157D01*
X96676159Y-109396716D01*
X96633409Y-109169243D01*
X96626155Y-109145326D01*
X96486553Y-109043777D01*
X96030330Y-109500000D01*
X94969670Y-109500000D01*
X94513447Y-109043777D01*
X94373845Y-109145326D01*
X94326290Y-109371843D01*
X94323841Y-109603284D01*
X85325000Y-109603284D01*
X85325000Y-108513447D01*
X95043777Y-108513447D01*
X95500000Y-108969670D01*
X95956223Y-108513447D01*
X95888248Y-108420000D01*
X102666025Y-108420000D01*
X102701841Y-108783643D01*
X102807912Y-109133312D01*
X102980161Y-109455569D01*
X103211971Y-109738029D01*
X103494431Y-109969839D01*
X103816688Y-110142088D01*
X104166357Y-110248159D01*
X104438876Y-110275000D01*
X105561124Y-110275000D01*
X105833643Y-110248159D01*
X106183312Y-110142088D01*
X106505569Y-109969839D01*
X106788029Y-109738029D01*
X107019839Y-109455569D01*
X107171337Y-109172133D01*
X110771107Y-109172133D01*
X110771107Y-109827867D01*
X110899035Y-110471002D01*
X111149973Y-111076822D01*
X111514280Y-111622046D01*
X111977954Y-112085720D01*
X112523178Y-112450027D01*
X113128998Y-112700965D01*
X113772133Y-112828893D01*
X114427867Y-112828893D01*
X115071002Y-112700965D01*
X115676822Y-112450027D01*
X116222046Y-112085720D01*
X116685720Y-111622046D01*
X117050027Y-111076822D01*
X117300965Y-110471002D01*
X117428893Y-109827867D01*
X117428893Y-109172133D01*
X117300965Y-108528998D01*
X117050027Y-107923178D01*
X116685720Y-107377954D01*
X116222046Y-106914280D01*
X115676822Y-106549973D01*
X115071002Y-106299035D01*
X114427867Y-106171107D01*
X113772133Y-106171107D01*
X113128998Y-106299035D01*
X112523178Y-106549973D01*
X111977954Y-106914280D01*
X111514280Y-107377954D01*
X111149973Y-107923178D01*
X110899035Y-108528998D01*
X110771107Y-109172133D01*
X107171337Y-109172133D01*
X107192088Y-109133312D01*
X107249212Y-108945000D01*
X108554220Y-108945000D01*
X108580000Y-108947539D01*
X108605780Y-108945000D01*
X108605788Y-108945000D01*
X108682918Y-108937403D01*
X108781881Y-108907383D01*
X108873086Y-108858633D01*
X108953027Y-108793027D01*
X108969471Y-108772990D01*
X113255908Y-104486553D01*
X121543777Y-104486553D01*
X121645326Y-104626155D01*
X121871843Y-104673710D01*
X122103284Y-104676159D01*
X122330757Y-104633409D01*
X122354674Y-104626155D01*
X122456223Y-104486553D01*
X122000000Y-104030330D01*
X121543777Y-104486553D01*
X113255908Y-104486553D01*
X114139177Y-103603284D01*
X120823841Y-103603284D01*
X120866591Y-103830757D01*
X120873845Y-103854674D01*
X121013447Y-103956223D01*
X121469670Y-103500000D01*
X122530330Y-103500000D01*
X122986553Y-103956223D01*
X123126155Y-103854674D01*
X123173710Y-103628157D01*
X123176159Y-103396716D01*
X123133409Y-103169243D01*
X123126155Y-103145326D01*
X122986553Y-103043777D01*
X122530330Y-103500000D01*
X121469670Y-103500000D01*
X121013447Y-103043777D01*
X120873845Y-103145326D01*
X120826290Y-103371843D01*
X120823841Y-103603284D01*
X114139177Y-103603284D01*
X115229014Y-102513447D01*
X121543777Y-102513447D01*
X122000000Y-102969670D01*
X122456223Y-102513447D01*
X122354674Y-102373845D01*
X122128157Y-102326290D01*
X121896716Y-102323841D01*
X121669243Y-102366591D01*
X121645326Y-102373845D01*
X121543777Y-102513447D01*
X115229014Y-102513447D01*
X116217462Y-101525000D01*
X119474220Y-101525000D01*
X119500000Y-101527539D01*
X119525780Y-101525000D01*
X119525788Y-101525000D01*
X119602918Y-101517403D01*
X119701881Y-101487383D01*
X119793086Y-101438633D01*
X119873027Y-101373027D01*
X119889471Y-101352990D01*
X121705067Y-99537394D01*
X121894122Y-99575000D01*
X122105878Y-99575000D01*
X122313566Y-99533688D01*
X122509203Y-99452652D01*
X122685272Y-99335007D01*
X122835007Y-99185272D01*
X122952652Y-99009203D01*
X123033688Y-98813566D01*
X123075000Y-98605878D01*
X123075000Y-98394122D01*
X123033688Y-98186434D01*
X122952652Y-97990797D01*
X122835007Y-97814728D01*
X122685272Y-97664993D01*
X122509203Y-97547348D01*
X122313566Y-97466312D01*
X122105878Y-97425000D01*
X121894122Y-97425000D01*
X121686434Y-97466312D01*
X121490797Y-97547348D01*
X121314728Y-97664993D01*
X121164993Y-97814728D01*
X121047348Y-97990797D01*
X120966312Y-98186434D01*
X120925000Y-98394122D01*
X120925000Y-98605878D01*
X120962606Y-98794933D01*
X119282539Y-100475000D01*
X116025788Y-100475000D01*
X116000000Y-100472460D01*
X115974212Y-100475000D01*
X115897082Y-100482597D01*
X115798119Y-100512617D01*
X115706914Y-100561367D01*
X115626973Y-100626973D01*
X115610534Y-100647004D01*
X108362539Y-107895000D01*
X107249212Y-107895000D01*
X107192088Y-107706688D01*
X107019839Y-107384431D01*
X106788029Y-107101971D01*
X106505569Y-106870161D01*
X106183312Y-106697912D01*
X105833643Y-106591841D01*
X105561124Y-106565000D01*
X104438876Y-106565000D01*
X104166357Y-106591841D01*
X103816688Y-106697912D01*
X103494431Y-106870161D01*
X103211971Y-107101971D01*
X102980161Y-107384431D01*
X102807912Y-107706688D01*
X102701841Y-108056357D01*
X102666025Y-108420000D01*
X95888248Y-108420000D01*
X95854674Y-108373845D01*
X95628157Y-108326290D01*
X95396716Y-108323841D01*
X95169243Y-108366591D01*
X95145326Y-108373845D01*
X95043777Y-108513447D01*
X85325000Y-108513447D01*
X85325000Y-104394122D01*
X94425000Y-104394122D01*
X94425000Y-104605878D01*
X94466312Y-104813566D01*
X94547348Y-105009203D01*
X94664993Y-105185272D01*
X94814728Y-105335007D01*
X94990797Y-105452652D01*
X95186434Y-105533688D01*
X95394122Y-105575000D01*
X95605878Y-105575000D01*
X95813566Y-105533688D01*
X96009203Y-105452652D01*
X96185272Y-105335007D01*
X96335007Y-105185272D01*
X96452652Y-105009203D01*
X96533688Y-104813566D01*
X96575000Y-104605878D01*
X96575000Y-104460000D01*
X102666025Y-104460000D01*
X102701841Y-104823643D01*
X102807912Y-105173312D01*
X102980161Y-105495569D01*
X103211971Y-105778029D01*
X103494431Y-106009839D01*
X103816688Y-106182088D01*
X104166357Y-106288159D01*
X104438876Y-106315000D01*
X105561124Y-106315000D01*
X105833643Y-106288159D01*
X106183312Y-106182088D01*
X106505569Y-106009839D01*
X106788029Y-105778029D01*
X107019839Y-105495569D01*
X107192088Y-105173312D01*
X107298159Y-104823643D01*
X107333975Y-104460000D01*
X107298159Y-104096357D01*
X107192088Y-103746688D01*
X107019839Y-103424431D01*
X106788029Y-103141971D01*
X106505569Y-102910161D01*
X106183312Y-102737912D01*
X105833643Y-102631841D01*
X105561124Y-102605000D01*
X104438876Y-102605000D01*
X104166357Y-102631841D01*
X103816688Y-102737912D01*
X103494431Y-102910161D01*
X103211971Y-103141971D01*
X102980161Y-103424431D01*
X102807912Y-103746688D01*
X102701841Y-104096357D01*
X102666025Y-104460000D01*
X96575000Y-104460000D01*
X96575000Y-104394122D01*
X96537394Y-104205067D01*
X99717462Y-101025000D01*
X102673670Y-101025000D01*
X102673670Y-101830000D01*
X102683783Y-101932682D01*
X102713734Y-102031418D01*
X102762373Y-102122413D01*
X102827828Y-102202172D01*
X102907587Y-102267627D01*
X102998582Y-102316266D01*
X103097318Y-102346217D01*
X103200000Y-102356330D01*
X106800000Y-102356330D01*
X106902682Y-102346217D01*
X107001418Y-102316266D01*
X107092413Y-102267627D01*
X107172172Y-102202172D01*
X107237627Y-102122413D01*
X107286266Y-102031418D01*
X107316217Y-101932682D01*
X107326330Y-101830000D01*
X107326330Y-99170000D01*
X107316217Y-99067318D01*
X107286266Y-98968582D01*
X107237627Y-98877587D01*
X107172172Y-98797828D01*
X107092413Y-98732373D01*
X107001418Y-98683734D01*
X106902682Y-98653783D01*
X106800000Y-98643670D01*
X103200000Y-98643670D01*
X103097318Y-98653783D01*
X102998582Y-98683734D01*
X102907587Y-98732373D01*
X102827828Y-98797828D01*
X102762373Y-98877587D01*
X102713734Y-98968582D01*
X102683783Y-99067318D01*
X102673670Y-99170000D01*
X102673670Y-99975000D01*
X99525779Y-99975000D01*
X99499999Y-99972461D01*
X99474219Y-99975000D01*
X99474212Y-99975000D01*
X99397082Y-99982597D01*
X99298119Y-100012617D01*
X99206914Y-100061367D01*
X99126973Y-100126973D01*
X99110534Y-100147004D01*
X95794933Y-103462606D01*
X95605878Y-103425000D01*
X95394122Y-103425000D01*
X95186434Y-103466312D01*
X94990797Y-103547348D01*
X94814728Y-103664993D01*
X94664993Y-103814728D01*
X94547348Y-103990797D01*
X94466312Y-104186434D01*
X94425000Y-104394122D01*
X85325000Y-104394122D01*
X85325000Y-91325000D01*
X88015961Y-91325000D01*
X88030229Y-91323595D01*
X88036437Y-91323638D01*
X88040954Y-91323196D01*
X88235051Y-91302795D01*
X88263938Y-91296865D01*
X88292838Y-91291352D01*
X88297183Y-91290041D01*
X88483621Y-91232329D01*
X88510810Y-91220900D01*
X88538086Y-91209879D01*
X88542093Y-91207749D01*
X88713770Y-91114924D01*
X88738192Y-91098451D01*
X88762839Y-91082322D01*
X88766356Y-91079454D01*
X88916734Y-90955051D01*
X88937498Y-90934141D01*
X88958535Y-90913540D01*
X88961428Y-90910044D01*
X89084778Y-90758802D01*
X89101096Y-90734241D01*
X89117720Y-90709962D01*
X89119879Y-90705970D01*
X89211504Y-90533648D01*
X89222725Y-90506424D01*
X89234333Y-90479340D01*
X89235675Y-90475005D01*
X89292084Y-90288169D01*
X89297809Y-90259253D01*
X89303929Y-90230462D01*
X89304404Y-90225949D01*
X89314583Y-90122133D01*
X91721107Y-90122133D01*
X91721107Y-90777867D01*
X91849035Y-91421002D01*
X92099973Y-92026822D01*
X92464280Y-92572046D01*
X92927954Y-93035720D01*
X93473178Y-93400027D01*
X94078998Y-93650965D01*
X94722133Y-93778893D01*
X95377867Y-93778893D01*
X96021002Y-93650965D01*
X96626822Y-93400027D01*
X97172046Y-93035720D01*
X97635720Y-92572046D01*
X98000027Y-92026822D01*
X98250965Y-91421002D01*
X98378893Y-90777867D01*
X98378893Y-90122133D01*
X110771107Y-90122133D01*
X110771107Y-90777867D01*
X110899035Y-91421002D01*
X111149973Y-92026822D01*
X111514280Y-92572046D01*
X111977954Y-93035720D01*
X112523178Y-93400027D01*
X113128998Y-93650965D01*
X113772133Y-93778893D01*
X114427867Y-93778893D01*
X115071002Y-93650965D01*
X115676822Y-93400027D01*
X116222046Y-93035720D01*
X116685720Y-92572046D01*
X117050027Y-92026822D01*
X117300965Y-91421002D01*
X117428893Y-90777867D01*
X117428893Y-90122133D01*
X117300965Y-89478998D01*
X117050027Y-88873178D01*
X116685720Y-88327954D01*
X116222046Y-87864280D01*
X115676822Y-87499973D01*
X115071002Y-87249035D01*
X114427867Y-87121107D01*
X113772133Y-87121107D01*
X113128998Y-87249035D01*
X112523178Y-87499973D01*
X111977954Y-87864280D01*
X111514280Y-88327954D01*
X111149973Y-88873178D01*
X110899035Y-89478998D01*
X110771107Y-90122133D01*
X98378893Y-90122133D01*
X98250965Y-89478998D01*
X98000027Y-88873178D01*
X97635720Y-88327954D01*
X97172046Y-87864280D01*
X96626822Y-87499973D01*
X96021002Y-87249035D01*
X95377867Y-87121107D01*
X94722133Y-87121107D01*
X94078998Y-87249035D01*
X93473178Y-87499973D01*
X92927954Y-87864280D01*
X92464280Y-88327954D01*
X92099973Y-88873178D01*
X91849035Y-89478998D01*
X91721107Y-90122133D01*
X89314583Y-90122133D01*
X89323449Y-90031715D01*
X89323449Y-90031708D01*
X89325000Y-90015961D01*
X89325000Y-88984039D01*
X89323595Y-88969771D01*
X89323638Y-88963563D01*
X89323195Y-88959046D01*
X89302795Y-88764949D01*
X89296865Y-88736062D01*
X89291352Y-88707162D01*
X89290041Y-88702817D01*
X89232329Y-88516379D01*
X89220900Y-88489190D01*
X89209879Y-88461914D01*
X89207749Y-88457906D01*
X89114924Y-88286230D01*
X89098447Y-88261803D01*
X89082322Y-88237160D01*
X89079454Y-88233643D01*
X88955050Y-88083266D01*
X88934160Y-88062521D01*
X88913540Y-88041465D01*
X88910044Y-88038572D01*
X88758802Y-87915222D01*
X88734257Y-87898915D01*
X88709962Y-87882280D01*
X88705970Y-87880121D01*
X88533648Y-87788496D01*
X88506453Y-87777287D01*
X88479340Y-87765667D01*
X88475005Y-87764325D01*
X88288169Y-87707916D01*
X88259285Y-87702197D01*
X88230462Y-87696071D01*
X88225948Y-87695596D01*
X88031715Y-87676551D01*
X88031708Y-87676551D01*
X88015961Y-87675000D01*
X85325000Y-87675000D01*
X85325000Y-82636391D01*
X88393939Y-82636391D01*
X88521751Y-82796241D01*
X88783825Y-82864635D01*
X89054205Y-82880588D01*
X89322504Y-82843485D01*
X89478249Y-82796241D01*
X89606061Y-82636391D01*
X89000000Y-82030330D01*
X88393939Y-82636391D01*
X85325000Y-82636391D01*
X85325000Y-81554205D01*
X87619412Y-81554205D01*
X87656515Y-81822504D01*
X87703759Y-81978249D01*
X87863609Y-82106061D01*
X88469670Y-81500000D01*
X89530330Y-81500000D01*
X90136391Y-82106061D01*
X90296241Y-81978249D01*
X90364635Y-81716175D01*
X90380588Y-81445795D01*
X90370718Y-81374423D01*
X97725000Y-81374423D01*
X97725000Y-81625577D01*
X97773998Y-81871904D01*
X97870110Y-82103939D01*
X98009643Y-82312765D01*
X98187235Y-82490357D01*
X98396061Y-82629890D01*
X98628096Y-82726002D01*
X98874423Y-82775000D01*
X99125577Y-82775000D01*
X99371904Y-82726002D01*
X99588244Y-82636391D01*
X108393939Y-82636391D01*
X108521751Y-82796241D01*
X108783825Y-82864635D01*
X109054205Y-82880588D01*
X109322504Y-82843485D01*
X109478249Y-82796241D01*
X109606061Y-82636391D01*
X109000000Y-82030330D01*
X108393939Y-82636391D01*
X99588244Y-82636391D01*
X99603939Y-82629890D01*
X99812765Y-82490357D01*
X99990357Y-82312765D01*
X100129890Y-82103939D01*
X100226002Y-81871904D01*
X100275000Y-81625577D01*
X100275000Y-81554205D01*
X107619412Y-81554205D01*
X107656515Y-81822504D01*
X107703759Y-81978249D01*
X107863609Y-82106061D01*
X108469670Y-81500000D01*
X109530330Y-81500000D01*
X110136391Y-82106061D01*
X110296241Y-81978249D01*
X110364635Y-81716175D01*
X110380588Y-81445795D01*
X110370718Y-81374423D01*
X117725000Y-81374423D01*
X117725000Y-81625577D01*
X117773998Y-81871904D01*
X117870110Y-82103939D01*
X118009643Y-82312765D01*
X118187235Y-82490357D01*
X118396061Y-82629890D01*
X118628096Y-82726002D01*
X118874423Y-82775000D01*
X119125577Y-82775000D01*
X119371904Y-82726002D01*
X119603939Y-82629890D01*
X119812765Y-82490357D01*
X119990357Y-82312765D01*
X120129890Y-82103939D01*
X120226002Y-81871904D01*
X120275000Y-81625577D01*
X120275000Y-81374423D01*
X120226002Y-81128096D01*
X120129890Y-80896061D01*
X119990357Y-80687235D01*
X119812765Y-80509643D01*
X119603939Y-80370110D01*
X119371904Y-80273998D01*
X119125577Y-80225000D01*
X118874423Y-80225000D01*
X118628096Y-80273998D01*
X118396061Y-80370110D01*
X118187235Y-80509643D01*
X118009643Y-80687235D01*
X117870110Y-80896061D01*
X117773998Y-81128096D01*
X117725000Y-81374423D01*
X110370718Y-81374423D01*
X110343485Y-81177496D01*
X110296241Y-81021751D01*
X110136391Y-80893939D01*
X109530330Y-81500000D01*
X108469670Y-81500000D01*
X107863609Y-80893939D01*
X107703759Y-81021751D01*
X107635365Y-81283825D01*
X107619412Y-81554205D01*
X100275000Y-81554205D01*
X100275000Y-81374423D01*
X100226002Y-81128096D01*
X100129890Y-80896061D01*
X99990357Y-80687235D01*
X99812765Y-80509643D01*
X99603939Y-80370110D01*
X99588245Y-80363609D01*
X108393939Y-80363609D01*
X109000000Y-80969670D01*
X109606061Y-80363609D01*
X109478249Y-80203759D01*
X109216175Y-80135365D01*
X108945795Y-80119412D01*
X108677496Y-80156515D01*
X108521751Y-80203759D01*
X108393939Y-80363609D01*
X99588245Y-80363609D01*
X99371904Y-80273998D01*
X99125577Y-80225000D01*
X98874423Y-80225000D01*
X98628096Y-80273998D01*
X98396061Y-80370110D01*
X98187235Y-80509643D01*
X98009643Y-80687235D01*
X97870110Y-80896061D01*
X97773998Y-81128096D01*
X97725000Y-81374423D01*
X90370718Y-81374423D01*
X90343485Y-81177496D01*
X90296241Y-81021751D01*
X90136391Y-80893939D01*
X89530330Y-81500000D01*
X88469670Y-81500000D01*
X87863609Y-80893939D01*
X87703759Y-81021751D01*
X87635365Y-81283825D01*
X87619412Y-81554205D01*
X85325000Y-81554205D01*
X85325000Y-80363609D01*
X88393939Y-80363609D01*
X89000000Y-80969670D01*
X89606061Y-80363609D01*
X89478249Y-80203759D01*
X89216175Y-80135365D01*
X88945795Y-80119412D01*
X88677496Y-80156515D01*
X88521751Y-80203759D01*
X88393939Y-80363609D01*
X85325000Y-80363609D01*
X85325000Y-77986553D01*
X91043777Y-77986553D01*
X91145326Y-78126155D01*
X91371843Y-78173710D01*
X91603284Y-78176159D01*
X91830757Y-78133409D01*
X91854674Y-78126155D01*
X91956223Y-77986553D01*
X91500000Y-77530330D01*
X91043777Y-77986553D01*
X85325000Y-77986553D01*
X85325000Y-77103284D01*
X90323841Y-77103284D01*
X90366591Y-77330757D01*
X90373845Y-77354674D01*
X90513447Y-77456223D01*
X90969670Y-77000000D01*
X92030330Y-77000000D01*
X92486553Y-77456223D01*
X92626155Y-77354674D01*
X92673710Y-77128157D01*
X92676159Y-76896716D01*
X92675672Y-76894122D01*
X95425000Y-76894122D01*
X95425000Y-77105878D01*
X95466312Y-77313566D01*
X95547348Y-77509203D01*
X95664993Y-77685272D01*
X95814728Y-77835007D01*
X95990797Y-77952652D01*
X96186434Y-78033688D01*
X96394122Y-78075000D01*
X96605878Y-78075000D01*
X96813566Y-78033688D01*
X96927359Y-77986553D01*
X111043777Y-77986553D01*
X111145326Y-78126155D01*
X111371843Y-78173710D01*
X111603284Y-78176159D01*
X111830757Y-78133409D01*
X111854674Y-78126155D01*
X111956223Y-77986553D01*
X111500000Y-77530330D01*
X111043777Y-77986553D01*
X96927359Y-77986553D01*
X97009203Y-77952652D01*
X97185272Y-77835007D01*
X97335007Y-77685272D01*
X97452652Y-77509203D01*
X97533688Y-77313566D01*
X97575000Y-77105878D01*
X97575000Y-77103284D01*
X110323841Y-77103284D01*
X110366591Y-77330757D01*
X110373845Y-77354674D01*
X110513447Y-77456223D01*
X110969670Y-77000000D01*
X112030330Y-77000000D01*
X112486553Y-77456223D01*
X112626155Y-77354674D01*
X112673710Y-77128157D01*
X112676159Y-76896716D01*
X112675672Y-76894122D01*
X115425000Y-76894122D01*
X115425000Y-77105878D01*
X115466312Y-77313566D01*
X115547348Y-77509203D01*
X115664993Y-77685272D01*
X115814728Y-77835007D01*
X115990797Y-77952652D01*
X116186434Y-78033688D01*
X116394122Y-78075000D01*
X116605878Y-78075000D01*
X116813566Y-78033688D01*
X117009203Y-77952652D01*
X117185272Y-77835007D01*
X117335007Y-77685272D01*
X117452652Y-77509203D01*
X117533688Y-77313566D01*
X117575000Y-77105878D01*
X117575000Y-76894122D01*
X117533688Y-76686434D01*
X117452652Y-76490797D01*
X117335007Y-76314728D01*
X117185272Y-76164993D01*
X117009203Y-76047348D01*
X116813566Y-75966312D01*
X116605878Y-75925000D01*
X116394122Y-75925000D01*
X116186434Y-75966312D01*
X115990797Y-76047348D01*
X115814728Y-76164993D01*
X115664993Y-76314728D01*
X115547348Y-76490797D01*
X115466312Y-76686434D01*
X115425000Y-76894122D01*
X112675672Y-76894122D01*
X112633409Y-76669243D01*
X112626155Y-76645326D01*
X112486553Y-76543777D01*
X112030330Y-77000000D01*
X110969670Y-77000000D01*
X110513447Y-76543777D01*
X110373845Y-76645326D01*
X110326290Y-76871843D01*
X110323841Y-77103284D01*
X97575000Y-77103284D01*
X97575000Y-76894122D01*
X97533688Y-76686434D01*
X97452652Y-76490797D01*
X97335007Y-76314728D01*
X97185272Y-76164993D01*
X97009203Y-76047348D01*
X96927360Y-76013447D01*
X111043777Y-76013447D01*
X111500000Y-76469670D01*
X111956223Y-76013447D01*
X111854674Y-75873845D01*
X111628157Y-75826290D01*
X111396716Y-75823841D01*
X111169243Y-75866591D01*
X111145326Y-75873845D01*
X111043777Y-76013447D01*
X96927360Y-76013447D01*
X96813566Y-75966312D01*
X96605878Y-75925000D01*
X96394122Y-75925000D01*
X96186434Y-75966312D01*
X95990797Y-76047348D01*
X95814728Y-76164993D01*
X95664993Y-76314728D01*
X95547348Y-76490797D01*
X95466312Y-76686434D01*
X95425000Y-76894122D01*
X92675672Y-76894122D01*
X92633409Y-76669243D01*
X92626155Y-76645326D01*
X92486553Y-76543777D01*
X92030330Y-77000000D01*
X90969670Y-77000000D01*
X90513447Y-76543777D01*
X90373845Y-76645326D01*
X90326290Y-76871843D01*
X90323841Y-77103284D01*
X85325000Y-77103284D01*
X85325000Y-76013447D01*
X91043777Y-76013447D01*
X91500000Y-76469670D01*
X91956223Y-76013447D01*
X91854674Y-75873845D01*
X91628157Y-75826290D01*
X91396716Y-75823841D01*
X91169243Y-75866591D01*
X91145326Y-75873845D01*
X91043777Y-76013447D01*
X85325000Y-76013447D01*
X85325000Y-71072133D01*
X91721107Y-71072133D01*
X91721107Y-71727867D01*
X91849035Y-72371002D01*
X92099973Y-72976822D01*
X92464280Y-73522046D01*
X92927954Y-73985720D01*
X93473178Y-74350027D01*
X94078998Y-74600965D01*
X94722133Y-74728893D01*
X95377867Y-74728893D01*
X96021002Y-74600965D01*
X96626822Y-74350027D01*
X97172046Y-73985720D01*
X97635720Y-73522046D01*
X98000027Y-72976822D01*
X98250965Y-72371002D01*
X98378893Y-71727867D01*
X98378893Y-71072133D01*
X110771107Y-71072133D01*
X110771107Y-71727867D01*
X110899035Y-72371002D01*
X111149973Y-72976822D01*
X111514280Y-73522046D01*
X111977954Y-73985720D01*
X112523178Y-74350027D01*
X113128998Y-74600965D01*
X113772133Y-74728893D01*
X114427867Y-74728893D01*
X115071002Y-74600965D01*
X115676822Y-74350027D01*
X116222046Y-73985720D01*
X116685720Y-73522046D01*
X117050027Y-72976822D01*
X117300965Y-72371002D01*
X117428893Y-71727867D01*
X117428893Y-71072133D01*
X117300965Y-70428998D01*
X117050027Y-69823178D01*
X116685720Y-69277954D01*
X116222046Y-68814280D01*
X115676822Y-68449973D01*
X115071002Y-68199035D01*
X114427867Y-68071107D01*
X113772133Y-68071107D01*
X113128998Y-68199035D01*
X112523178Y-68449973D01*
X111977954Y-68814280D01*
X111514280Y-69277954D01*
X111149973Y-69823178D01*
X110899035Y-70428998D01*
X110771107Y-71072133D01*
X98378893Y-71072133D01*
X98250965Y-70428998D01*
X98000027Y-69823178D01*
X97635720Y-69277954D01*
X97172046Y-68814280D01*
X96626822Y-68449973D01*
X96021002Y-68199035D01*
X95377867Y-68071107D01*
X94722133Y-68071107D01*
X94078998Y-68199035D01*
X93473178Y-68449973D01*
X92927954Y-68814280D01*
X92464280Y-69277954D01*
X92099973Y-69823178D01*
X91849035Y-70428998D01*
X91721107Y-71072133D01*
X85325000Y-71072133D01*
X85325000Y-50325000D01*
X129675001Y-50325000D01*
X129675000Y-122675000D01*
G04 #@! TA.AperFunction,Conductor*
D16*
G36*
X129675000Y-122675000D02*
G01*
X85325000Y-122675000D01*
X85325000Y-118636391D01*
X120393939Y-118636391D01*
X120521751Y-118796241D01*
X120783825Y-118864635D01*
X121054205Y-118880588D01*
X121322504Y-118843485D01*
X121478249Y-118796241D01*
X121606061Y-118636391D01*
X121000000Y-118030330D01*
X120393939Y-118636391D01*
X85325000Y-118636391D01*
X85325000Y-117554205D01*
X119619412Y-117554205D01*
X119656515Y-117822504D01*
X119703759Y-117978249D01*
X119863609Y-118106061D01*
X120469670Y-117500000D01*
X121530330Y-117500000D01*
X122136391Y-118106061D01*
X122296241Y-117978249D01*
X122364635Y-117716175D01*
X122380588Y-117445795D01*
X122343485Y-117177496D01*
X122296241Y-117021751D01*
X122136391Y-116893939D01*
X121530330Y-117500000D01*
X120469670Y-117500000D01*
X119863609Y-116893939D01*
X119703759Y-117021751D01*
X119635365Y-117283825D01*
X119619412Y-117554205D01*
X85325000Y-117554205D01*
X85325000Y-116363609D01*
X120393939Y-116363609D01*
X121000000Y-116969670D01*
X121606061Y-116363609D01*
X121478249Y-116203759D01*
X121216175Y-116135365D01*
X120945795Y-116119412D01*
X120677496Y-116156515D01*
X120521751Y-116203759D01*
X120393939Y-116363609D01*
X85325000Y-116363609D01*
X85325000Y-112380000D01*
X102666025Y-112380000D01*
X102701841Y-112743643D01*
X102807912Y-113093312D01*
X102980161Y-113415569D01*
X103211971Y-113698029D01*
X103494431Y-113929839D01*
X103816688Y-114102088D01*
X104166357Y-114208159D01*
X104438876Y-114235000D01*
X105561124Y-114235000D01*
X105833643Y-114208159D01*
X106183312Y-114102088D01*
X106505569Y-113929839D01*
X106788029Y-113698029D01*
X107019839Y-113415569D01*
X107192088Y-113093312D01*
X107298159Y-112743643D01*
X107333975Y-112380000D01*
X107298159Y-112016357D01*
X107192088Y-111666688D01*
X107019839Y-111344431D01*
X106788029Y-111061971D01*
X106505569Y-110830161D01*
X106183312Y-110657912D01*
X105833643Y-110551841D01*
X105561124Y-110525000D01*
X104438876Y-110525000D01*
X104166357Y-110551841D01*
X103816688Y-110657912D01*
X103494431Y-110830161D01*
X103211971Y-111061971D01*
X102980161Y-111344431D01*
X102807912Y-111666688D01*
X102701841Y-112016357D01*
X102666025Y-112380000D01*
X85325000Y-112380000D01*
X85325000Y-110486553D01*
X95043777Y-110486553D01*
X95145326Y-110626155D01*
X95371843Y-110673710D01*
X95603284Y-110676159D01*
X95830757Y-110633409D01*
X95854674Y-110626155D01*
X95956223Y-110486553D01*
X95500000Y-110030330D01*
X95043777Y-110486553D01*
X85325000Y-110486553D01*
X85325000Y-109603284D01*
X94323841Y-109603284D01*
X94366591Y-109830757D01*
X94373845Y-109854674D01*
X94513447Y-109956223D01*
X94969670Y-109500000D01*
X96030330Y-109500000D01*
X96486553Y-109956223D01*
X96626155Y-109854674D01*
X96673710Y-109628157D01*
X96676159Y-109396716D01*
X96633409Y-109169243D01*
X96626155Y-109145326D01*
X96486553Y-109043777D01*
X96030330Y-109500000D01*
X94969670Y-109500000D01*
X94513447Y-109043777D01*
X94373845Y-109145326D01*
X94326290Y-109371843D01*
X94323841Y-109603284D01*
X85325000Y-109603284D01*
X85325000Y-108513447D01*
X95043777Y-108513447D01*
X95500000Y-108969670D01*
X95956223Y-108513447D01*
X95888248Y-108420000D01*
X102666025Y-108420000D01*
X102701841Y-108783643D01*
X102807912Y-109133312D01*
X102980161Y-109455569D01*
X103211971Y-109738029D01*
X103494431Y-109969839D01*
X103816688Y-110142088D01*
X104166357Y-110248159D01*
X104438876Y-110275000D01*
X105561124Y-110275000D01*
X105833643Y-110248159D01*
X106183312Y-110142088D01*
X106505569Y-109969839D01*
X106788029Y-109738029D01*
X107019839Y-109455569D01*
X107171337Y-109172133D01*
X110771107Y-109172133D01*
X110771107Y-109827867D01*
X110899035Y-110471002D01*
X111149973Y-111076822D01*
X111514280Y-111622046D01*
X111977954Y-112085720D01*
X112523178Y-112450027D01*
X113128998Y-112700965D01*
X113772133Y-112828893D01*
X114427867Y-112828893D01*
X115071002Y-112700965D01*
X115676822Y-112450027D01*
X116222046Y-112085720D01*
X116685720Y-111622046D01*
X117050027Y-111076822D01*
X117300965Y-110471002D01*
X117428893Y-109827867D01*
X117428893Y-109172133D01*
X117300965Y-108528998D01*
X117050027Y-107923178D01*
X116685720Y-107377954D01*
X116222046Y-106914280D01*
X115676822Y-106549973D01*
X115071002Y-106299035D01*
X114427867Y-106171107D01*
X113772133Y-106171107D01*
X113128998Y-106299035D01*
X112523178Y-106549973D01*
X111977954Y-106914280D01*
X111514280Y-107377954D01*
X111149973Y-107923178D01*
X110899035Y-108528998D01*
X110771107Y-109172133D01*
X107171337Y-109172133D01*
X107192088Y-109133312D01*
X107249212Y-108945000D01*
X108554220Y-108945000D01*
X108580000Y-108947539D01*
X108605780Y-108945000D01*
X108605788Y-108945000D01*
X108682918Y-108937403D01*
X108781881Y-108907383D01*
X108873086Y-108858633D01*
X108953027Y-108793027D01*
X108969471Y-108772990D01*
X113255908Y-104486553D01*
X121543777Y-104486553D01*
X121645326Y-104626155D01*
X121871843Y-104673710D01*
X122103284Y-104676159D01*
X122330757Y-104633409D01*
X122354674Y-104626155D01*
X122456223Y-104486553D01*
X122000000Y-104030330D01*
X121543777Y-104486553D01*
X113255908Y-104486553D01*
X114139177Y-103603284D01*
X120823841Y-103603284D01*
X120866591Y-103830757D01*
X120873845Y-103854674D01*
X121013447Y-103956223D01*
X121469670Y-103500000D01*
X122530330Y-103500000D01*
X122986553Y-103956223D01*
X123126155Y-103854674D01*
X123173710Y-103628157D01*
X123176159Y-103396716D01*
X123133409Y-103169243D01*
X123126155Y-103145326D01*
X122986553Y-103043777D01*
X122530330Y-103500000D01*
X121469670Y-103500000D01*
X121013447Y-103043777D01*
X120873845Y-103145326D01*
X120826290Y-103371843D01*
X120823841Y-103603284D01*
X114139177Y-103603284D01*
X115229014Y-102513447D01*
X121543777Y-102513447D01*
X122000000Y-102969670D01*
X122456223Y-102513447D01*
X122354674Y-102373845D01*
X122128157Y-102326290D01*
X121896716Y-102323841D01*
X121669243Y-102366591D01*
X121645326Y-102373845D01*
X121543777Y-102513447D01*
X115229014Y-102513447D01*
X116217462Y-101525000D01*
X119474220Y-101525000D01*
X119500000Y-101527539D01*
X119525780Y-101525000D01*
X119525788Y-101525000D01*
X119602918Y-101517403D01*
X119701881Y-101487383D01*
X119793086Y-101438633D01*
X119873027Y-101373027D01*
X119889471Y-101352990D01*
X121705067Y-99537394D01*
X121894122Y-99575000D01*
X122105878Y-99575000D01*
X122313566Y-99533688D01*
X122509203Y-99452652D01*
X122685272Y-99335007D01*
X122835007Y-99185272D01*
X122952652Y-99009203D01*
X123033688Y-98813566D01*
X123075000Y-98605878D01*
X123075000Y-98394122D01*
X123033688Y-98186434D01*
X122952652Y-97990797D01*
X122835007Y-97814728D01*
X122685272Y-97664993D01*
X122509203Y-97547348D01*
X122313566Y-97466312D01*
X122105878Y-97425000D01*
X121894122Y-97425000D01*
X121686434Y-97466312D01*
X121490797Y-97547348D01*
X121314728Y-97664993D01*
X121164993Y-97814728D01*
X121047348Y-97990797D01*
X120966312Y-98186434D01*
X120925000Y-98394122D01*
X120925000Y-98605878D01*
X120962606Y-98794933D01*
X119282539Y-100475000D01*
X116025788Y-100475000D01*
X116000000Y-100472460D01*
X115974212Y-100475000D01*
X115897082Y-100482597D01*
X115798119Y-100512617D01*
X115706914Y-100561367D01*
X115626973Y-100626973D01*
X115610534Y-100647004D01*
X108362539Y-107895000D01*
X107249212Y-107895000D01*
X107192088Y-107706688D01*
X107019839Y-107384431D01*
X106788029Y-107101971D01*
X106505569Y-106870161D01*
X106183312Y-106697912D01*
X105833643Y-106591841D01*
X105561124Y-106565000D01*
X104438876Y-106565000D01*
X104166357Y-106591841D01*
X103816688Y-106697912D01*
X103494431Y-106870161D01*
X103211971Y-107101971D01*
X102980161Y-107384431D01*
X102807912Y-107706688D01*
X102701841Y-108056357D01*
X102666025Y-108420000D01*
X95888248Y-108420000D01*
X95854674Y-108373845D01*
X95628157Y-108326290D01*
X95396716Y-108323841D01*
X95169243Y-108366591D01*
X95145326Y-108373845D01*
X95043777Y-108513447D01*
X85325000Y-108513447D01*
X85325000Y-104394122D01*
X94425000Y-104394122D01*
X94425000Y-104605878D01*
X94466312Y-104813566D01*
X94547348Y-105009203D01*
X94664993Y-105185272D01*
X94814728Y-105335007D01*
X94990797Y-105452652D01*
X95186434Y-105533688D01*
X95394122Y-105575000D01*
X95605878Y-105575000D01*
X95813566Y-105533688D01*
X96009203Y-105452652D01*
X96185272Y-105335007D01*
X96335007Y-105185272D01*
X96452652Y-105009203D01*
X96533688Y-104813566D01*
X96575000Y-104605878D01*
X96575000Y-104460000D01*
X102666025Y-104460000D01*
X102701841Y-104823643D01*
X102807912Y-105173312D01*
X102980161Y-105495569D01*
X103211971Y-105778029D01*
X103494431Y-106009839D01*
X103816688Y-106182088D01*
X104166357Y-106288159D01*
X104438876Y-106315000D01*
X105561124Y-106315000D01*
X105833643Y-106288159D01*
X106183312Y-106182088D01*
X106505569Y-106009839D01*
X106788029Y-105778029D01*
X107019839Y-105495569D01*
X107192088Y-105173312D01*
X107298159Y-104823643D01*
X107333975Y-104460000D01*
X107298159Y-104096357D01*
X107192088Y-103746688D01*
X107019839Y-103424431D01*
X106788029Y-103141971D01*
X106505569Y-102910161D01*
X106183312Y-102737912D01*
X105833643Y-102631841D01*
X105561124Y-102605000D01*
X104438876Y-102605000D01*
X104166357Y-102631841D01*
X103816688Y-102737912D01*
X103494431Y-102910161D01*
X103211971Y-103141971D01*
X102980161Y-103424431D01*
X102807912Y-103746688D01*
X102701841Y-104096357D01*
X102666025Y-104460000D01*
X96575000Y-104460000D01*
X96575000Y-104394122D01*
X96537394Y-104205067D01*
X99717462Y-101025000D01*
X102673670Y-101025000D01*
X102673670Y-101830000D01*
X102683783Y-101932682D01*
X102713734Y-102031418D01*
X102762373Y-102122413D01*
X102827828Y-102202172D01*
X102907587Y-102267627D01*
X102998582Y-102316266D01*
X103097318Y-102346217D01*
X103200000Y-102356330D01*
X106800000Y-102356330D01*
X106902682Y-102346217D01*
X107001418Y-102316266D01*
X107092413Y-102267627D01*
X107172172Y-102202172D01*
X107237627Y-102122413D01*
X107286266Y-102031418D01*
X107316217Y-101932682D01*
X107326330Y-101830000D01*
X107326330Y-99170000D01*
X107316217Y-99067318D01*
X107286266Y-98968582D01*
X107237627Y-98877587D01*
X107172172Y-98797828D01*
X107092413Y-98732373D01*
X107001418Y-98683734D01*
X106902682Y-98653783D01*
X106800000Y-98643670D01*
X103200000Y-98643670D01*
X103097318Y-98653783D01*
X102998582Y-98683734D01*
X102907587Y-98732373D01*
X102827828Y-98797828D01*
X102762373Y-98877587D01*
X102713734Y-98968582D01*
X102683783Y-99067318D01*
X102673670Y-99170000D01*
X102673670Y-99975000D01*
X99525779Y-99975000D01*
X99499999Y-99972461D01*
X99474219Y-99975000D01*
X99474212Y-99975000D01*
X99397082Y-99982597D01*
X99298119Y-100012617D01*
X99206914Y-100061367D01*
X99126973Y-100126973D01*
X99110534Y-100147004D01*
X95794933Y-103462606D01*
X95605878Y-103425000D01*
X95394122Y-103425000D01*
X95186434Y-103466312D01*
X94990797Y-103547348D01*
X94814728Y-103664993D01*
X94664993Y-103814728D01*
X94547348Y-103990797D01*
X94466312Y-104186434D01*
X94425000Y-104394122D01*
X85325000Y-104394122D01*
X85325000Y-91325000D01*
X88015961Y-91325000D01*
X88030229Y-91323595D01*
X88036437Y-91323638D01*
X88040954Y-91323196D01*
X88235051Y-91302795D01*
X88263938Y-91296865D01*
X88292838Y-91291352D01*
X88297183Y-91290041D01*
X88483621Y-91232329D01*
X88510810Y-91220900D01*
X88538086Y-91209879D01*
X88542093Y-91207749D01*
X88713770Y-91114924D01*
X88738192Y-91098451D01*
X88762839Y-91082322D01*
X88766356Y-91079454D01*
X88916734Y-90955051D01*
X88937498Y-90934141D01*
X88958535Y-90913540D01*
X88961428Y-90910044D01*
X89084778Y-90758802D01*
X89101096Y-90734241D01*
X89117720Y-90709962D01*
X89119879Y-90705970D01*
X89211504Y-90533648D01*
X89222725Y-90506424D01*
X89234333Y-90479340D01*
X89235675Y-90475005D01*
X89292084Y-90288169D01*
X89297809Y-90259253D01*
X89303929Y-90230462D01*
X89304404Y-90225949D01*
X89314583Y-90122133D01*
X91721107Y-90122133D01*
X91721107Y-90777867D01*
X91849035Y-91421002D01*
X92099973Y-92026822D01*
X92464280Y-92572046D01*
X92927954Y-93035720D01*
X93473178Y-93400027D01*
X94078998Y-93650965D01*
X94722133Y-93778893D01*
X95377867Y-93778893D01*
X96021002Y-93650965D01*
X96626822Y-93400027D01*
X97172046Y-93035720D01*
X97635720Y-92572046D01*
X98000027Y-92026822D01*
X98250965Y-91421002D01*
X98378893Y-90777867D01*
X98378893Y-90122133D01*
X110771107Y-90122133D01*
X110771107Y-90777867D01*
X110899035Y-91421002D01*
X111149973Y-92026822D01*
X111514280Y-92572046D01*
X111977954Y-93035720D01*
X112523178Y-93400027D01*
X113128998Y-93650965D01*
X113772133Y-93778893D01*
X114427867Y-93778893D01*
X115071002Y-93650965D01*
X115676822Y-93400027D01*
X116222046Y-93035720D01*
X116685720Y-92572046D01*
X117050027Y-92026822D01*
X117300965Y-91421002D01*
X117428893Y-90777867D01*
X117428893Y-90122133D01*
X117300965Y-89478998D01*
X117050027Y-88873178D01*
X116685720Y-88327954D01*
X116222046Y-87864280D01*
X115676822Y-87499973D01*
X115071002Y-87249035D01*
X114427867Y-87121107D01*
X113772133Y-87121107D01*
X113128998Y-87249035D01*
X112523178Y-87499973D01*
X111977954Y-87864280D01*
X111514280Y-88327954D01*
X111149973Y-88873178D01*
X110899035Y-89478998D01*
X110771107Y-90122133D01*
X98378893Y-90122133D01*
X98250965Y-89478998D01*
X98000027Y-88873178D01*
X97635720Y-88327954D01*
X97172046Y-87864280D01*
X96626822Y-87499973D01*
X96021002Y-87249035D01*
X95377867Y-87121107D01*
X94722133Y-87121107D01*
X94078998Y-87249035D01*
X93473178Y-87499973D01*
X92927954Y-87864280D01*
X92464280Y-88327954D01*
X92099973Y-88873178D01*
X91849035Y-89478998D01*
X91721107Y-90122133D01*
X89314583Y-90122133D01*
X89323449Y-90031715D01*
X89323449Y-90031708D01*
X89325000Y-90015961D01*
X89325000Y-88984039D01*
X89323595Y-88969771D01*
X89323638Y-88963563D01*
X89323195Y-88959046D01*
X89302795Y-88764949D01*
X89296865Y-88736062D01*
X89291352Y-88707162D01*
X89290041Y-88702817D01*
X89232329Y-88516379D01*
X89220900Y-88489190D01*
X89209879Y-88461914D01*
X89207749Y-88457906D01*
X89114924Y-88286230D01*
X89098447Y-88261803D01*
X89082322Y-88237160D01*
X89079454Y-88233643D01*
X88955050Y-88083266D01*
X88934160Y-88062521D01*
X88913540Y-88041465D01*
X88910044Y-88038572D01*
X88758802Y-87915222D01*
X88734257Y-87898915D01*
X88709962Y-87882280D01*
X88705970Y-87880121D01*
X88533648Y-87788496D01*
X88506453Y-87777287D01*
X88479340Y-87765667D01*
X88475005Y-87764325D01*
X88288169Y-87707916D01*
X88259285Y-87702197D01*
X88230462Y-87696071D01*
X88225948Y-87695596D01*
X88031715Y-87676551D01*
X88031708Y-87676551D01*
X88015961Y-87675000D01*
X85325000Y-87675000D01*
X85325000Y-82636391D01*
X88393939Y-82636391D01*
X88521751Y-82796241D01*
X88783825Y-82864635D01*
X89054205Y-82880588D01*
X89322504Y-82843485D01*
X89478249Y-82796241D01*
X89606061Y-82636391D01*
X89000000Y-82030330D01*
X88393939Y-82636391D01*
X85325000Y-82636391D01*
X85325000Y-81554205D01*
X87619412Y-81554205D01*
X87656515Y-81822504D01*
X87703759Y-81978249D01*
X87863609Y-82106061D01*
X88469670Y-81500000D01*
X89530330Y-81500000D01*
X90136391Y-82106061D01*
X90296241Y-81978249D01*
X90364635Y-81716175D01*
X90380588Y-81445795D01*
X90370718Y-81374423D01*
X97725000Y-81374423D01*
X97725000Y-81625577D01*
X97773998Y-81871904D01*
X97870110Y-82103939D01*
X98009643Y-82312765D01*
X98187235Y-82490357D01*
X98396061Y-82629890D01*
X98628096Y-82726002D01*
X98874423Y-82775000D01*
X99125577Y-82775000D01*
X99371904Y-82726002D01*
X99588244Y-82636391D01*
X108393939Y-82636391D01*
X108521751Y-82796241D01*
X108783825Y-82864635D01*
X109054205Y-82880588D01*
X109322504Y-82843485D01*
X109478249Y-82796241D01*
X109606061Y-82636391D01*
X109000000Y-82030330D01*
X108393939Y-82636391D01*
X99588244Y-82636391D01*
X99603939Y-82629890D01*
X99812765Y-82490357D01*
X99990357Y-82312765D01*
X100129890Y-82103939D01*
X100226002Y-81871904D01*
X100275000Y-81625577D01*
X100275000Y-81554205D01*
X107619412Y-81554205D01*
X107656515Y-81822504D01*
X107703759Y-81978249D01*
X107863609Y-82106061D01*
X108469670Y-81500000D01*
X109530330Y-81500000D01*
X110136391Y-82106061D01*
X110296241Y-81978249D01*
X110364635Y-81716175D01*
X110380588Y-81445795D01*
X110370718Y-81374423D01*
X117725000Y-81374423D01*
X117725000Y-81625577D01*
X117773998Y-81871904D01*
X117870110Y-82103939D01*
X118009643Y-82312765D01*
X118187235Y-82490357D01*
X118396061Y-82629890D01*
X118628096Y-82726002D01*
X118874423Y-82775000D01*
X119125577Y-82775000D01*
X119371904Y-82726002D01*
X119603939Y-82629890D01*
X119812765Y-82490357D01*
X119990357Y-82312765D01*
X120129890Y-82103939D01*
X120226002Y-81871904D01*
X120275000Y-81625577D01*
X120275000Y-81374423D01*
X120226002Y-81128096D01*
X120129890Y-80896061D01*
X119990357Y-80687235D01*
X119812765Y-80509643D01*
X119603939Y-80370110D01*
X119371904Y-80273998D01*
X119125577Y-80225000D01*
X118874423Y-80225000D01*
X118628096Y-80273998D01*
X118396061Y-80370110D01*
X118187235Y-80509643D01*
X118009643Y-80687235D01*
X117870110Y-80896061D01*
X117773998Y-81128096D01*
X117725000Y-81374423D01*
X110370718Y-81374423D01*
X110343485Y-81177496D01*
X110296241Y-81021751D01*
X110136391Y-80893939D01*
X109530330Y-81500000D01*
X108469670Y-81500000D01*
X107863609Y-80893939D01*
X107703759Y-81021751D01*
X107635365Y-81283825D01*
X107619412Y-81554205D01*
X100275000Y-81554205D01*
X100275000Y-81374423D01*
X100226002Y-81128096D01*
X100129890Y-80896061D01*
X99990357Y-80687235D01*
X99812765Y-80509643D01*
X99603939Y-80370110D01*
X99588245Y-80363609D01*
X108393939Y-80363609D01*
X109000000Y-80969670D01*
X109606061Y-80363609D01*
X109478249Y-80203759D01*
X109216175Y-80135365D01*
X108945795Y-80119412D01*
X108677496Y-80156515D01*
X108521751Y-80203759D01*
X108393939Y-80363609D01*
X99588245Y-80363609D01*
X99371904Y-80273998D01*
X99125577Y-80225000D01*
X98874423Y-80225000D01*
X98628096Y-80273998D01*
X98396061Y-80370110D01*
X98187235Y-80509643D01*
X98009643Y-80687235D01*
X97870110Y-80896061D01*
X97773998Y-81128096D01*
X97725000Y-81374423D01*
X90370718Y-81374423D01*
X90343485Y-81177496D01*
X90296241Y-81021751D01*
X90136391Y-80893939D01*
X89530330Y-81500000D01*
X88469670Y-81500000D01*
X87863609Y-80893939D01*
X87703759Y-81021751D01*
X87635365Y-81283825D01*
X87619412Y-81554205D01*
X85325000Y-81554205D01*
X85325000Y-80363609D01*
X88393939Y-80363609D01*
X89000000Y-80969670D01*
X89606061Y-80363609D01*
X89478249Y-80203759D01*
X89216175Y-80135365D01*
X88945795Y-80119412D01*
X88677496Y-80156515D01*
X88521751Y-80203759D01*
X88393939Y-80363609D01*
X85325000Y-80363609D01*
X85325000Y-77986553D01*
X91043777Y-77986553D01*
X91145326Y-78126155D01*
X91371843Y-78173710D01*
X91603284Y-78176159D01*
X91830757Y-78133409D01*
X91854674Y-78126155D01*
X91956223Y-77986553D01*
X91500000Y-77530330D01*
X91043777Y-77986553D01*
X85325000Y-77986553D01*
X85325000Y-77103284D01*
X90323841Y-77103284D01*
X90366591Y-77330757D01*
X90373845Y-77354674D01*
X90513447Y-77456223D01*
X90969670Y-77000000D01*
X92030330Y-77000000D01*
X92486553Y-77456223D01*
X92626155Y-77354674D01*
X92673710Y-77128157D01*
X92676159Y-76896716D01*
X92675672Y-76894122D01*
X95425000Y-76894122D01*
X95425000Y-77105878D01*
X95466312Y-77313566D01*
X95547348Y-77509203D01*
X95664993Y-77685272D01*
X95814728Y-77835007D01*
X95990797Y-77952652D01*
X96186434Y-78033688D01*
X96394122Y-78075000D01*
X96605878Y-78075000D01*
X96813566Y-78033688D01*
X96927359Y-77986553D01*
X111043777Y-77986553D01*
X111145326Y-78126155D01*
X111371843Y-78173710D01*
X111603284Y-78176159D01*
X111830757Y-78133409D01*
X111854674Y-78126155D01*
X111956223Y-77986553D01*
X111500000Y-77530330D01*
X111043777Y-77986553D01*
X96927359Y-77986553D01*
X97009203Y-77952652D01*
X97185272Y-77835007D01*
X97335007Y-77685272D01*
X97452652Y-77509203D01*
X97533688Y-77313566D01*
X97575000Y-77105878D01*
X97575000Y-77103284D01*
X110323841Y-77103284D01*
X110366591Y-77330757D01*
X110373845Y-77354674D01*
X110513447Y-77456223D01*
X110969670Y-77000000D01*
X112030330Y-77000000D01*
X112486553Y-77456223D01*
X112626155Y-77354674D01*
X112673710Y-77128157D01*
X112676159Y-76896716D01*
X112675672Y-76894122D01*
X115425000Y-76894122D01*
X115425000Y-77105878D01*
X115466312Y-77313566D01*
X115547348Y-77509203D01*
X115664993Y-77685272D01*
X115814728Y-77835007D01*
X115990797Y-77952652D01*
X116186434Y-78033688D01*
X116394122Y-78075000D01*
X116605878Y-78075000D01*
X116813566Y-78033688D01*
X117009203Y-77952652D01*
X117185272Y-77835007D01*
X117335007Y-77685272D01*
X117452652Y-77509203D01*
X117533688Y-77313566D01*
X117575000Y-77105878D01*
X117575000Y-76894122D01*
X117533688Y-76686434D01*
X117452652Y-76490797D01*
X117335007Y-76314728D01*
X117185272Y-76164993D01*
X117009203Y-76047348D01*
X116813566Y-75966312D01*
X116605878Y-75925000D01*
X116394122Y-75925000D01*
X116186434Y-75966312D01*
X115990797Y-76047348D01*
X115814728Y-76164993D01*
X115664993Y-76314728D01*
X115547348Y-76490797D01*
X115466312Y-76686434D01*
X115425000Y-76894122D01*
X112675672Y-76894122D01*
X112633409Y-76669243D01*
X112626155Y-76645326D01*
X112486553Y-76543777D01*
X112030330Y-77000000D01*
X110969670Y-77000000D01*
X110513447Y-76543777D01*
X110373845Y-76645326D01*
X110326290Y-76871843D01*
X110323841Y-77103284D01*
X97575000Y-77103284D01*
X97575000Y-76894122D01*
X97533688Y-76686434D01*
X97452652Y-76490797D01*
X97335007Y-76314728D01*
X97185272Y-76164993D01*
X97009203Y-76047348D01*
X96927360Y-76013447D01*
X111043777Y-76013447D01*
X111500000Y-76469670D01*
X111956223Y-76013447D01*
X111854674Y-75873845D01*
X111628157Y-75826290D01*
X111396716Y-75823841D01*
X111169243Y-75866591D01*
X111145326Y-75873845D01*
X111043777Y-76013447D01*
X96927360Y-76013447D01*
X96813566Y-75966312D01*
X96605878Y-75925000D01*
X96394122Y-75925000D01*
X96186434Y-75966312D01*
X95990797Y-76047348D01*
X95814728Y-76164993D01*
X95664993Y-76314728D01*
X95547348Y-76490797D01*
X95466312Y-76686434D01*
X95425000Y-76894122D01*
X92675672Y-76894122D01*
X92633409Y-76669243D01*
X92626155Y-76645326D01*
X92486553Y-76543777D01*
X92030330Y-77000000D01*
X90969670Y-77000000D01*
X90513447Y-76543777D01*
X90373845Y-76645326D01*
X90326290Y-76871843D01*
X90323841Y-77103284D01*
X85325000Y-77103284D01*
X85325000Y-76013447D01*
X91043777Y-76013447D01*
X91500000Y-76469670D01*
X91956223Y-76013447D01*
X91854674Y-75873845D01*
X91628157Y-75826290D01*
X91396716Y-75823841D01*
X91169243Y-75866591D01*
X91145326Y-75873845D01*
X91043777Y-76013447D01*
X85325000Y-76013447D01*
X85325000Y-71072133D01*
X91721107Y-71072133D01*
X91721107Y-71727867D01*
X91849035Y-72371002D01*
X92099973Y-72976822D01*
X92464280Y-73522046D01*
X92927954Y-73985720D01*
X93473178Y-74350027D01*
X94078998Y-74600965D01*
X94722133Y-74728893D01*
X95377867Y-74728893D01*
X96021002Y-74600965D01*
X96626822Y-74350027D01*
X97172046Y-73985720D01*
X97635720Y-73522046D01*
X98000027Y-72976822D01*
X98250965Y-72371002D01*
X98378893Y-71727867D01*
X98378893Y-71072133D01*
X110771107Y-71072133D01*
X110771107Y-71727867D01*
X110899035Y-72371002D01*
X111149973Y-72976822D01*
X111514280Y-73522046D01*
X111977954Y-73985720D01*
X112523178Y-74350027D01*
X113128998Y-74600965D01*
X113772133Y-74728893D01*
X114427867Y-74728893D01*
X115071002Y-74600965D01*
X115676822Y-74350027D01*
X116222046Y-73985720D01*
X116685720Y-73522046D01*
X117050027Y-72976822D01*
X117300965Y-72371002D01*
X117428893Y-71727867D01*
X117428893Y-71072133D01*
X117300965Y-70428998D01*
X117050027Y-69823178D01*
X116685720Y-69277954D01*
X116222046Y-68814280D01*
X115676822Y-68449973D01*
X115071002Y-68199035D01*
X114427867Y-68071107D01*
X113772133Y-68071107D01*
X113128998Y-68199035D01*
X112523178Y-68449973D01*
X111977954Y-68814280D01*
X111514280Y-69277954D01*
X111149973Y-69823178D01*
X110899035Y-70428998D01*
X110771107Y-71072133D01*
X98378893Y-71072133D01*
X98250965Y-70428998D01*
X98000027Y-69823178D01*
X97635720Y-69277954D01*
X97172046Y-68814280D01*
X96626822Y-68449973D01*
X96021002Y-68199035D01*
X95377867Y-68071107D01*
X94722133Y-68071107D01*
X94078998Y-68199035D01*
X93473178Y-68449973D01*
X92927954Y-68814280D01*
X92464280Y-69277954D01*
X92099973Y-69823178D01*
X91849035Y-70428998D01*
X91721107Y-71072133D01*
X85325000Y-71072133D01*
X85325000Y-50325000D01*
X129675001Y-50325000D01*
X129675000Y-122675000D01*
G37*
G04 #@! TD.AperFunction*
M02*
