G04 #@! TF.GenerationSoftware,KiCad,Pcbnew,5.1.10*
G04 #@! TF.CreationDate,2021-07-03T00:07:37+02:00*
G04 #@! TF.ProjectId,main,6d61696e-2e6b-4696-9361-645f70636258,v1.10*
G04 #@! TF.SameCoordinates,Original*
G04 #@! TF.FileFunction,Legend,Bot*
G04 #@! TF.FilePolarity,Positive*
%FSLAX46Y46*%
G04 Gerber Fmt 4.6, Leading zero omitted, Abs format (unit mm)*
G04 Created by KiCad (PCBNEW 5.1.10) date 2021-07-03 00:07:37*
%MOMM*%
%LPD*%
G01*
G04 APERTURE LIST*
%ADD10C,0.120000*%
%ADD11C,0.150000*%
G04 APERTURE END LIST*
D10*
X100620000Y-84120000D02*
X100620000Y-78880000D01*
X87380000Y-84120000D02*
X87380000Y-78880000D01*
X87380000Y-78880000D02*
X100620000Y-78880000D01*
X87380000Y-84120000D02*
X100620000Y-84120000D01*
X107380000Y-78880000D02*
X107380000Y-84120000D01*
X120620000Y-78880000D02*
X120620000Y-84120000D01*
X120620000Y-84120000D02*
X107380000Y-84120000D01*
X120620000Y-78880000D02*
X107380000Y-78880000D01*
D11*
X95119047Y-85857142D02*
X95166666Y-85904761D01*
X95309523Y-85952380D01*
X95404761Y-85952380D01*
X95547619Y-85904761D01*
X95642857Y-85809523D01*
X95690476Y-85714285D01*
X95738095Y-85523809D01*
X95738095Y-85380952D01*
X95690476Y-85190476D01*
X95642857Y-85095238D01*
X95547619Y-85000000D01*
X95404761Y-84952380D01*
X95309523Y-84952380D01*
X95166666Y-85000000D01*
X95119047Y-85047619D01*
X94261904Y-84952380D02*
X94452380Y-84952380D01*
X94547619Y-85000000D01*
X94595238Y-85047619D01*
X94690476Y-85190476D01*
X94738095Y-85380952D01*
X94738095Y-85761904D01*
X94690476Y-85857142D01*
X94642857Y-85904761D01*
X94547619Y-85952380D01*
X94357142Y-85952380D01*
X94261904Y-85904761D01*
X94214285Y-85857142D01*
X94166666Y-85761904D01*
X94166666Y-85523809D01*
X94214285Y-85428571D01*
X94261904Y-85380952D01*
X94357142Y-85333333D01*
X94547619Y-85333333D01*
X94642857Y-85380952D01*
X94690476Y-85428571D01*
X94738095Y-85523809D01*
X93547619Y-84952380D02*
X93452380Y-84952380D01*
X93357142Y-85000000D01*
X93309523Y-85047619D01*
X93261904Y-85142857D01*
X93214285Y-85333333D01*
X93214285Y-85571428D01*
X93261904Y-85761904D01*
X93309523Y-85857142D01*
X93357142Y-85904761D01*
X93452380Y-85952380D01*
X93547619Y-85952380D01*
X93642857Y-85904761D01*
X93690476Y-85857142D01*
X93738095Y-85761904D01*
X93785714Y-85571428D01*
X93785714Y-85333333D01*
X93738095Y-85142857D01*
X93690476Y-85047619D01*
X93642857Y-85000000D01*
X93547619Y-84952380D01*
X92357142Y-85285714D02*
X92357142Y-85952380D01*
X92595238Y-84904761D02*
X92833333Y-85619047D01*
X92214285Y-85619047D01*
X115119047Y-85857142D02*
X115166666Y-85904761D01*
X115309523Y-85952380D01*
X115404761Y-85952380D01*
X115547619Y-85904761D01*
X115642857Y-85809523D01*
X115690476Y-85714285D01*
X115738095Y-85523809D01*
X115738095Y-85380952D01*
X115690476Y-85190476D01*
X115642857Y-85095238D01*
X115547619Y-85000000D01*
X115404761Y-84952380D01*
X115309523Y-84952380D01*
X115166666Y-85000000D01*
X115119047Y-85047619D01*
X114261904Y-84952380D02*
X114452380Y-84952380D01*
X114547619Y-85000000D01*
X114595238Y-85047619D01*
X114690476Y-85190476D01*
X114738095Y-85380952D01*
X114738095Y-85761904D01*
X114690476Y-85857142D01*
X114642857Y-85904761D01*
X114547619Y-85952380D01*
X114357142Y-85952380D01*
X114261904Y-85904761D01*
X114214285Y-85857142D01*
X114166666Y-85761904D01*
X114166666Y-85523809D01*
X114214285Y-85428571D01*
X114261904Y-85380952D01*
X114357142Y-85333333D01*
X114547619Y-85333333D01*
X114642857Y-85380952D01*
X114690476Y-85428571D01*
X114738095Y-85523809D01*
X113547619Y-84952380D02*
X113452380Y-84952380D01*
X113357142Y-85000000D01*
X113309523Y-85047619D01*
X113261904Y-85142857D01*
X113214285Y-85333333D01*
X113214285Y-85571428D01*
X113261904Y-85761904D01*
X113309523Y-85857142D01*
X113357142Y-85904761D01*
X113452380Y-85952380D01*
X113547619Y-85952380D01*
X113642857Y-85904761D01*
X113690476Y-85857142D01*
X113738095Y-85761904D01*
X113785714Y-85571428D01*
X113785714Y-85333333D01*
X113738095Y-85142857D01*
X113690476Y-85047619D01*
X113642857Y-85000000D01*
X113547619Y-84952380D01*
X112880952Y-84952380D02*
X112261904Y-84952380D01*
X112595238Y-85333333D01*
X112452380Y-85333333D01*
X112357142Y-85380952D01*
X112309523Y-85428571D01*
X112261904Y-85523809D01*
X112261904Y-85761904D01*
X112309523Y-85857142D01*
X112357142Y-85904761D01*
X112452380Y-85952380D01*
X112738095Y-85952380D01*
X112833333Y-85904761D01*
X112880952Y-85857142D01*
M02*
